<?xml version="1.0" encoding="UTF-8"?>
<svg width="589px" height="92px" viewBox="0 0 589 92" version="1.1" xmlns="http://www.w3.org/2000/svg" xmlns:xlink="http://www.w3.org/1999/xlink">
    <!-- Generator: Sketch 58 (84663) - https://sketch.com -->
    <title>Logo-alt</title>
    <desc>Created with Sketch.</desc>
    <defs>
        <polygon id="path-1" points="0.6291 0.811 121.6001 0.811 121.6001 79.2755 0.6291 79.2755"></polygon>
        <polygon id="path-3" points="0 91.189 588.508 91.189 588.508 1 0 1"></polygon>
        <polygon id="path-5" points="0 90.189 588.508 90.189 588.508 -1.42108547e-14 0 -1.42108547e-14"></polygon>
    </defs>
    <g id="Logo-alt" stroke="none" stroke-width="1" fill="none" fill-rule="evenodd">
        <g id="Group-21">
            <path d="M43.3225,41.3642 C43.2375,41.2832 43.1915,41.2432 43.1065,41.1632 C42.5025,40.5742 41.8065,39.9742 41.0475,39.3662 C40.4325,38.9072 39.8085,38.4792 39.1135,38.0612 C30.6405,33.0272 17.7625,32.8152 7.6295,39.0742 C6.9395,39.6522 6.2905,40.2572 5.6505,40.9062 C-1.3375,48.0142 -1.3315,57.3792 2.8765,64.4012 C3.5865,65.5802 4.3915,66.7182 5.2725,67.8042 C5.8615,68.5242 6.5065,69.2092 7.1555,69.8692 C8.1425,70.8812 9.1945,71.8222 10.3275,72.6682 L10.3525,72.6682 C11.2785,73.3832 12.2605,74.0022 13.2325,74.5602 C13.7205,74.8432 14.2445,75.0942 14.7425,75.3162 C16.2375,75.9702 17.8395,76.5192 19.4545,76.8212 C22.9685,77.4752 26.8005,77.0682 30.6515,75.5022 C31.0535,75.3612 31.4415,75.1902 31.8135,74.9892 C32.5695,74.6462 33.3145,74.2492 34.0645,73.8212 C34.0745,73.8102 34.0795,73.8012 34.0945,73.7912 C35.1925,73.1612 36.3145,72.3962 37.3915,71.5762 C38.4845,70.7402 39.5515,69.8082 40.5535,68.8222 L40.5735,68.8222 C40.8305,68.5592 40.9565,68.4292 41.2085,68.1672 C47.7785,61.5872 51.3275,58.1242 55.6265,53.8292 C55.4855,53.6582 55.3405,53.4822 55.1935,53.3052 C50.8235,48.0702 48.6995,46.0662 43.3225,41.3642" id="Fill-1" fill="#FFC419"></path>
            <path d="M136.388,25.3398 C136.358,24.9068 136.327,24.4688 136.273,24.0408 C136.242,23.9098 136.212,23.7788 136.212,23.6488 C136.121,23.1748 136.031,22.7168 135.925,22.2688 C135.804,21.7658 135.673,21.2418 135.477,20.7538 C135.311,20.2398 135.155,19.7468 134.939,19.2578 C134.727,18.7708 134.521,18.2808 134.264,17.7978 C134.033,17.3108 133.755,16.8268 133.484,16.3628 C133.211,15.8958 132.919,15.4328 132.608,14.9688 C132.295,14.5058 131.993,14.0628 131.641,13.6198 C131.274,13.1108 130.886,12.6488 130.508,12.1798 C130.106,11.7328 129.707,11.2838 129.295,10.8558 C129.093,10.6698 128.992,10.5738 128.796,10.3878 C121.195,2.9168 110.094,0.5508 99.104,8.7868 C98.278,9.4058 97.478,10.0808 96.707,10.7708 C96.702,10.8008 96.677,10.8008 96.652,10.8248 C96.647,10.8508 96.621,10.8558 96.597,10.8808 L96.567,10.9108 L96.541,10.9368 C96.491,10.9668 96.46,11.0178 96.406,11.0718 C95.796,11.6008 95.222,12.1748 94.673,12.7638 C94.376,13.0668 94.094,13.3828 93.823,13.6748 C93.813,13.7048 93.813,13.7048 93.792,13.7048 C93.682,13.8208 93.626,13.8818 93.521,13.9968 C87.665,19.8428 84.524,22.8128 80.718,26.5778 C80.865,26.7598 81.015,26.9408 81.171,27.1268 C81.171,27.1318 81.186,27.1378 81.186,27.1428 C82.832,29.1148 84.157,30.6258 85.46,31.9998 C87.036,33.7068 88.627,35.3378 90.243,36.8588 C92.056,38.6008 94.059,40.3128 96.355,41.9688 C96.546,42.0888 96.757,42.2308 96.944,42.3408 C97.523,42.6888 98.142,43.0298 98.761,43.3428 C99.702,43.8208 100.679,44.2288 101.706,44.5858 C102.386,44.8228 103.106,45.0498 103.816,45.2408 C104.526,45.4268 105.281,45.5878 106.036,45.7248 C107.159,45.9198 108.326,46.0758 109.504,46.1568 C111.031,46.2678 112.636,46.2528 114.252,46.1218 C114.423,46.1108 114.624,46.0968 114.821,46.0618 C115.969,45.9608 117.157,45.7888 118.33,45.5528 C120.912,45.0248 123.591,44.1228 126.173,42.8548 C126.572,42.6578 126.939,42.4218 127.326,42.2098 C127.578,42.0688 127.835,41.9438 128.081,41.8028 C128.142,41.7728 128.198,41.7368 128.217,41.7268 C128.333,41.6518 128.373,41.6258 128.45,41.5808 C128.499,41.5508 128.55,41.5258 128.6,41.4948 C129.361,40.8608 130.111,40.1518 130.81,39.4368 L130.835,39.4108 C131.51,38.7008 132.164,37.9418 132.743,37.1508 C134.545,34.7088 135.719,31.9898 136.197,29.2168 C136.423,27.9378 136.479,26.6238 136.388,25.3398" id="Fill-3" fill="#FFC419"></path>
            <g id="Group-7" transform="translate(7.000000, 0.189000)">
                <mask id="mask-2" fill="white">
                    <use xlink:href="#path-1"></use>
                </mask>
                <g id="Clip-6"></g>
                <path d="M121.2171,41.5375 C121.1971,41.5485 121.1421,41.5835 121.0811,41.6135 C120.8351,41.7545 120.5781,41.8805 120.3261,42.0205 C119.9391,42.2325 119.5711,42.4695 119.1731,42.6655 C116.5911,43.9335 113.9121,44.8355 111.3301,45.3635 C110.1561,45.5995 108.9691,45.7715 107.8211,45.8725 C107.6241,45.9075 107.4231,45.9225 107.2521,45.9335 C105.6361,46.0635 104.0301,46.0785 102.5041,45.9685 C101.3261,45.8875 100.1581,45.7305 99.0361,45.5355 C98.2801,45.3985 97.5261,45.2375 96.8161,45.0525 C96.1061,44.8605 95.3861,44.6345 94.7061,44.3965 C93.6791,44.0395 92.7021,43.6325 91.7611,43.1535 C91.1421,42.8415 90.5231,42.4995 89.9441,42.1515 C89.7571,42.0415 89.5461,41.8995 89.3551,41.7795 C87.0591,40.1235 85.0561,38.4115 83.2431,36.6695 C81.6271,35.1485 80.0361,33.5175 78.4601,31.8105 C77.1561,30.4365 75.8321,28.9265 74.1861,26.9535 C74.1861,26.9485 74.1711,26.9425 74.1711,26.9375 C74.0151,26.7515 73.8641,26.5705 73.7181,26.3895 C69.3181,21.0725 67.0681,17.8665 61.3791,10.1185 L61.3591,10.1185 C61.3091,10.0625 61.2831,10.0375 61.2381,9.9815 C60.5731,9.0565 59.8541,8.1845 59.0731,7.3545 C59.0531,7.3795 59.0531,7.3545 59.0531,7.3545 C58.2571,6.5495 57.4421,5.8135 56.5511,5.1295 C56.3601,4.9825 56.1581,4.8025 55.9621,4.6505 C55.7661,4.4995 55.5701,4.3795 55.3531,4.2635 C54.9551,3.9615 54.5771,3.7045 54.2041,3.5035 C54.0331,3.4075 53.8471,3.2865 53.6711,3.1905 C53.4951,3.0995 53.3141,2.9745 53.1381,2.9135 C52.6951,2.6675 52.2671,2.4405 51.8231,2.2595 C51.3611,2.0735 50.8971,1.9225 50.4391,1.7615 C50.1071,1.6405 49.8151,1.5395 49.4971,1.4435 C49.2561,1.3835 49.0091,1.3175 48.7871,1.2825 C48.4761,1.2225 48.1891,1.1615 47.8571,1.0975 C47.7151,1.0315 47.5841,1.0315 47.4341,1.0315 C47.1021,0.9715 46.7641,0.9055 46.4371,0.9055 C45.4601,0.7795 44.4791,0.7795 43.5171,0.9055 C43.1641,0.9055 42.8721,0.9655 42.5301,1.0315 C42.3941,1.0015 42.2691,1.0315 42.1271,1.0975 C41.8301,1.1565 41.5381,1.2175 41.2671,1.2825 C41.0291,1.3125 40.8191,1.3735 40.5971,1.4385 C40.3101,1.5245 40.0181,1.6305 39.7361,1.7565 C39.3081,1.9125 38.9051,2.0625 38.5081,2.2495 C38.1101,2.4355 37.7171,2.6515 37.3291,2.8935 C37.1681,2.9545 37.0181,3.0695 36.8621,3.1605 C36.7051,3.2515 36.5491,3.3665 36.3991,3.4575 C36.0761,3.6485 35.7081,3.8955 35.4211,4.1835 C35.0491,4.3845 34.7221,4.6715 34.4141,4.9775 C34.4251,5.0085 34.4001,5.0085 34.4001,5.0085 C34.3491,5.0635 34.2741,5.1185 34.2131,5.1485 C33.8301,5.4865 33.4881,5.8135 33.1561,6.1715 C33.1061,6.2265 33.0501,6.2815 32.9951,6.3325 C32.0841,7.2835 31.2631,8.3865 30.5531,9.5285 C30.5181,9.5795 30.5081,9.6295 30.4731,9.6545 C21.7981,23.4335 17.1321,27.0735 2.7641,37.2885 C2.4111,37.5455 2.0541,37.7975 1.6921,38.0585 C1.3231,38.3255 0.9711,38.6025 0.6291,38.8855 C10.7631,32.6265 23.6411,32.8385 32.1131,37.8725 C32.8091,38.2905 33.4331,38.7185 34.0471,39.1775 C34.8071,39.7855 35.5021,40.3855 36.1071,40.9745 C36.1921,41.0545 36.2381,41.0945 36.3221,41.1755 C41.6991,45.8775 43.8231,47.8815 48.1941,53.1165 C48.3401,53.2935 48.4861,53.4695 48.6261,53.6405 C52.8401,58.7205 55.0051,61.7755 60.3771,69.0605 C60.4881,69.2065 60.5431,69.2825 60.6541,69.4335 C60.7841,69.6195 60.8451,69.7105 60.9761,69.8955 C61.1671,70.1525 61.2631,70.2895 61.4591,70.5515 C61.6201,70.7975 61.7811,71.0185 61.9881,71.2405 C62.3161,71.6335 62.6781,72.0305 63.0251,72.4245 C63.1711,72.5955 63.3421,72.7705 63.5081,72.9415 C63.6141,73.0535 63.7201,73.1435 63.8251,73.2595 C64.4551,73.9245 65.1501,74.4825 65.8241,74.9905 C66.2171,75.3485 66.6101,75.6205 67.0281,75.8615 L67.0471,75.8615 C67.4201,76.1345 67.7781,76.4055 68.1751,76.6225 L68.1961,76.6225 C68.5281,76.8335 68.8601,77.0195 69.2381,77.2065 L69.2631,77.2065 C70.1541,77.6995 71.0251,78.0425 71.9411,78.3585 L71.9611,78.3585 C72.2731,78.4545 72.5661,78.5455 72.8771,78.6415 C73.1241,78.7365 73.3701,78.8025 73.5921,78.8325 C73.9041,78.8975 74.1921,78.9585 74.5291,79.0235 C74.6641,79.0845 74.7951,79.0845 74.9461,79.0845 C75.2831,79.1495 75.6161,79.2155 75.9441,79.2155 C76.4271,79.2455 76.9101,79.2755 77.4131,79.2755 L77.4791,79.2755 C77.9371,79.2755 78.4151,79.2455 78.8681,79.2155 C79.2161,79.2155 79.5131,79.1495 79.8501,79.0895 C79.9861,79.1195 80.1121,79.0895 80.2531,79.0235 C80.5501,78.9635 80.8471,78.8975 81.1181,78.8375 C81.3501,78.8025 81.5571,78.7415 81.7831,78.6455 C82.0501,78.5555 82.2971,78.4895 82.5641,78.3995 C82.5831,78.3995 82.6241,78.3645 82.6441,78.3645 C83.4851,78.0875 84.3051,77.6845 85.0501,77.2315 C85.3531,77.0505 85.6951,76.8745 85.9821,76.6675 C86.3091,76.4615 86.6711,76.2295 86.9581,75.9425 C87.3261,75.7115 87.6781,75.4245 88.0001,75.1165 C88.4791,74.7245 88.9421,74.2515 89.3851,73.7935 C89.4661,73.6825 89.5511,73.5765 89.6421,73.4965 C89.6971,73.4405 89.7471,73.3855 89.7981,73.3055 C89.9691,73.1185 90.1451,72.9325 90.2911,72.7155 C90.7591,72.1915 91.1721,71.6185 91.5451,70.9785 L91.5701,70.9785 C91.6511,70.8485 91.6911,70.7775 91.7721,70.6465 C91.8371,70.5355 91.8671,70.4795 91.9271,70.3695 L91.9471,70.3695 C92.0181,70.2945 92.0481,70.2435 92.0941,70.1425 C96.6951,62.8935 98.9411,60.2505 104.5591,54.5925 C104.5691,54.5875 104.5731,54.5815 104.5781,54.5715 C109.3521,49.7645 112.9911,47.4475 119.4411,42.9125 C119.5001,42.8715 119.5561,42.8315 119.6161,42.7865 C119.8481,42.6305 120.0851,42.4645 120.3211,42.2985 C120.7241,42.0115 121.1161,41.7095 121.4891,41.4015 C121.5251,41.3715 121.5651,41.3415 121.6001,41.3065 C121.5501,41.3365 121.4991,41.3615 121.4491,41.3915 C121.3731,41.4365 121.3331,41.4625 121.2171,41.5375" id="Fill-5" fill="#FFFFFF" mask="url(#mask-2)"></path>
            </g>
            <path d="M199.5608,36.2256 C200.3678,38.1116 200.7778,40.1616 200.7778,42.3166 C200.7778,44.4746 200.3678,46.5246 199.5608,48.4106 C198.7488,50.3046 197.6228,51.9766 196.2168,53.3786 C194.8098,54.7866 193.1388,55.9106 191.2478,56.7226 C187.4808,58.3336 182.8238,58.3336 179.0638,56.7226 C177.1728,55.9106 175.5018,54.7866 174.0948,53.3786 C172.6878,51.9726 171.5638,50.3006 170.7528,48.4106 C169.9478,46.5286 169.5368,44.4786 169.5368,42.3166 C169.5368,40.1576 169.9478,38.1076 170.7528,36.2256 C171.5638,34.3356 172.6878,32.6636 174.0948,31.2566 C175.5018,29.8506 177.1728,28.7266 179.0638,27.9136 C180.9498,27.1076 182.9988,26.6976 185.1588,26.6976 C187.3128,26.6976 189.3628,27.1076 191.2478,27.9136 C193.1388,28.7266 194.8098,29.8506 196.2168,31.2566 C197.6228,32.6606 198.7488,34.3316 199.5608,36.2256 L199.5608,36.2256 Z M200.7778,22.7006 C198.7848,21.1506 196.5548,19.8866 194.1368,18.9366 C191.3618,17.8446 188.3558,17.2906 185.2048,17.2906 C181.7358,17.2906 178.4448,17.9466 175.4188,19.2406 C172.3928,20.5316 169.7098,22.3366 167.4448,24.6026 C165.1718,26.8746 163.3678,29.5596 162.0798,32.5796 C160.7868,35.6056 160.1308,38.8956 160.1308,42.3626 C160.1308,45.7686 160.7868,49.0296 162.0798,52.0526 C163.3678,55.0776 165.1718,57.7596 167.4448,60.0296 C169.7118,62.2996 172.3968,64.1046 175.4188,65.3946 C178.4478,66.6886 181.7398,67.3446 185.2048,67.3446 C188.3538,67.3446 191.3598,66.7856 194.1368,65.6796 C196.5528,64.7216 198.7828,63.4416 200.7778,61.8726 L200.7778,67.3446 L210.1848,67.3446 L210.1848,17.2906 L200.7778,17.2906 L200.7778,22.7006 Z" id="Fill-8" fill="#FFFFFF"></path>
            <path d="M231.6458,31.2568 C233.0488,29.8508 234.7168,28.7268 236.6008,27.9138 C238.4828,27.1078 240.5258,26.6968 242.6748,26.6968 C245.5398,26.6968 248.1868,27.4228 250.5458,28.8538 C252.9078,30.2888 254.8028,32.1988 256.1818,34.5338 L256.3878,34.8858 L265.5388,32.0798 L265.2808,31.5378 C263.2628,27.3188 260.2118,23.8548 256.2118,21.2388 C252.2078,18.6188 247.6218,17.2908 242.5828,17.2908 C239.1778,17.2908 235.9168,17.9458 232.8908,19.2398 C229.8638,20.5308 227.1868,22.3368 224.9388,24.6048 C222.6878,26.8748 220.8988,29.5598 219.6208,32.5808 C218.3428,35.6078 217.6948,38.8978 217.6948,42.3618 C217.6948,45.7668 218.3428,49.0278 219.6208,52.0528 C220.8988,55.0748 222.6878,57.7598 224.9388,60.0278 C227.1908,62.2998 229.8658,64.1048 232.8908,65.3948 C235.9188,66.6888 239.1798,67.3448 242.5828,67.3448 C247.6218,67.3448 252.2078,66.0008 256.2138,63.3528 C260.2118,60.7088 263.2628,57.2258 265.2808,53.0028 L265.5388,52.4618 L256.3838,49.6528 L256.1778,50.0118 C254.8008,52.4068 252.9058,54.3478 250.5458,55.7798 C248.1868,57.2118 245.5398,57.9378 242.6748,57.9378 C240.5238,57.9378 238.4808,57.5288 236.6008,56.7228 C234.7168,55.9098 233.0488,54.7858 231.6458,53.3788 C230.2438,51.9728 229.1238,50.3008 228.3148,48.4098 C227.5098,46.5268 227.1018,44.4748 227.1018,42.3168 C227.1018,40.1588 227.5098,38.1098 228.3148,36.2258 C229.1238,34.3358 230.2438,32.6638 231.6458,31.2568" id="Fill-10" fill="#FFFFFF"></path>
            <mask id="mask-4" fill="white">
                <use xlink:href="#path-3"></use>
            </mask>
            <g id="Clip-13"></g>
            <polygon id="Fill-12" fill="#FFFFFF" mask="url(#mask-4)" points="272.921 67.345 282.326 67.345 282.326 17.291 272.921 17.291"></polygon>
            <polygon id="Fill-14" fill="#FFFFFF" mask="url(#mask-4)" points="272.921 14.886 282.326 14.886 282.326 5.481 272.921 5.481"></polygon>
            <path d="M329.1643,36.2256 C329.9693,38.1096 330.3773,40.1596 330.3773,42.3166 C330.3773,44.4746 329.9693,46.5266 329.1643,48.4106 C328.3573,50.2986 327.2353,51.9706 325.8313,53.3786 C324.4263,54.7876 322.7613,55.9126 320.8763,56.7226 C317.1233,58.3356 312.4893,58.3356 308.7273,56.7226 C306.8443,55.9106 305.1763,54.7866 303.7733,53.3786 C302.3703,51.9726 301.2513,50.3006 300.4423,48.4106 C299.6383,46.5266 299.2293,44.4746 299.2293,42.3166 C299.2293,40.1596 299.6383,38.1096 300.4423,36.2256 C301.2513,34.3356 302.3703,32.6636 303.7733,31.2566 C305.1763,29.8506 306.8443,28.7266 308.7273,27.9136 C310.6093,27.1076 312.6533,26.6976 314.8023,26.6976 C316.9533,26.6976 318.9963,27.1076 320.8763,27.9136 C322.7613,28.7246 324.4263,29.8486 325.8313,31.2566 C327.2353,32.6656 328.3573,34.3376 329.1643,36.2256 L329.1643,36.2256 Z M330.3773,22.7006 C328.3843,21.1526 326.1543,19.8886 323.7363,18.9366 C320.9613,17.8446 317.9553,17.2906 314.8023,17.2906 C311.3983,17.2906 308.1383,17.9466 305.1113,19.2406 C302.0903,20.5296 299.4053,22.3346 297.1353,24.6026 C294.8633,26.8766 293.0583,29.5616 291.7723,32.5796 C290.4783,35.6036 289.8213,38.8936 289.8213,42.3626 C289.8213,45.7706 290.4783,49.0316 291.7723,52.0526 C293.0603,55.0756 294.8633,57.7596 297.1353,60.0296 C299.4073,62.3016 302.0923,64.1066 305.1113,65.3946 C308.1403,66.6886 311.4003,67.3446 314.8023,67.3446 C317.9533,67.3446 320.9593,66.7856 323.7383,65.6796 C326.1543,64.7186 328.3823,63.4416 330.3773,61.8726 L330.3773,67.3446 L339.7823,67.3446 L339.7823,5.3936 L330.3773,5.3936 L330.3773,22.7006 Z" id="Fill-15" fill="#FFFFFF" mask="url(#mask-4)"></path>
            <path d="M364.9173,5.3935 L354.4483,5.3935 L354.4483,17.2905 L347.3753,17.2905 L347.3753,26.7465 L354.4483,26.7465 L354.4483,54.1855 C354.4483,62.9175 358.6853,67.3445 367.0393,67.3445 L376.1423,67.3445 L376.1423,58.0225 L370.6253,58.0225 C368.5253,58.0225 367.0373,57.5405 366.2023,56.5945 C365.3503,55.6285 364.9173,53.8705 364.9173,51.3695 L364.9173,26.7465 L376.1423,26.7465 L376.1423,17.2905 L364.9173,17.2905 L364.9173,5.3935 Z" id="Fill-16" fill="#FFFFFF" mask="url(#mask-4)"></path>
            <path d="M465.7991,17.291 C462.1281,17.291 459.3271,17.837 456.9781,19.012 C454.8691,20.068 453.0651,21.504 451.5971,23.291 L451.5971,17.291 L441.0351,17.291 L441.0351,67.345 L451.5971,67.345 L451.5971,38.906 C451.5971,35.039 452.6911,31.938 454.8501,29.688 C457.0021,27.446 459.8611,26.311 463.3431,26.311 C469.2161,26.311 472.0701,29.874 472.0701,37.208 L472.0701,67.345 L482.6321,67.345 L482.6321,35.228 C482.6321,29.711 481.0931,25.26 478.0591,21.997 C475.1081,18.832 471.0981,17.291 465.7991,17.291" id="Fill-17" fill="#FFFFFF" mask="url(#mask-4)"></path>
            <path d="M579.1028,42.3183 C579.1028,44.4743 578.6928,46.5243 577.8858,48.4103 C577.0738,50.3003 575.9498,51.9723 574.5418,53.3793 C573.1358,54.7863 571.4638,55.9103 569.5738,56.7223 C565.8098,58.3363 561.1528,58.3363 557.3888,56.7223 C555.4988,55.9103 553.8278,54.7863 552.4198,53.3793 C551.0138,51.9723 549.8898,50.3003 549.0778,48.4103 C548.2708,46.5283 547.8628,44.4763 547.8628,42.3183 C547.8628,40.1593 548.2708,38.1073 549.0778,36.2253 C549.8898,34.3363 551.0138,32.6643 552.4198,31.2563 C553.8278,29.8503 555.4988,28.7263 557.3888,27.9143 C559.2748,27.1073 561.3248,26.6973 563.4818,26.6973 C565.6378,26.6973 567.6878,27.1073 569.5738,27.9143 C571.4638,28.7263 573.1358,29.8503 574.5418,31.2563 C575.9498,32.6643 577.0738,34.3363 577.8858,36.2253 C578.6928,38.1113 579.1028,40.1613 579.1028,42.3183 M586.5598,32.5793 C585.2658,29.5523 583.4608,26.8683 581.1948,24.6043 C578.9308,22.3393 576.2468,20.5333 573.2208,19.2403 C570.1928,17.9463 566.9318,17.2913 563.5278,17.2913 C560.0608,17.2913 556.7708,17.9463 553.7448,19.2403 C550.7198,20.5313 548.0368,22.3373 545.7678,24.6043 C543.4988,26.8753 541.6928,29.5563 540.4058,32.5793 C539.1118,35.6033 538.4548,38.8953 538.4548,42.3643 C538.4548,45.7703 539.1118,49.0313 540.4058,52.0523 C541.6928,55.0753 543.4968,57.7593 545.7678,60.0293 C548.0408,62.3013 550.7248,64.1063 553.7448,65.3943 C556.7728,66.6883 560.0658,67.3443 563.5278,67.3443 C566.9298,67.3443 570.1908,66.6883 573.2178,65.3943 C576.2428,64.1043 578.9268,62.2993 581.1948,60.0293 C583.4628,57.7633 585.2678,55.0793 586.5598,52.0553 C587.8538,49.0293 588.5078,45.7683 588.5078,42.3643 C588.5078,38.8953 587.8538,35.6053 586.5598,32.5793" id="Fill-18" fill="#FFFFFF" mask="url(#mask-4)"></path>
            <path d="M421.0677,36.2256 C421.8747,38.1076 422.2847,40.1576 422.2847,42.3186 C422.2847,44.4786 421.8747,46.5286 421.0677,48.4106 C420.2567,50.3006 419.1327,51.9726 417.7247,53.3786 C416.3177,54.7866 414.6457,55.9126 412.7577,56.7226 C408.9887,58.3396 404.3337,58.3356 400.5707,56.7226 C398.6847,55.9126 397.0127,54.7876 395.6027,53.3786 C394.1957,51.9726 393.0717,50.3006 392.2607,48.4106 C391.4547,46.5286 391.0447,44.4786 391.0447,42.3186 C391.0447,40.1576 391.4547,38.1076 392.2607,36.2256 C393.0717,34.3356 394.1957,32.6636 395.6027,31.2566 C397.0127,29.8486 398.6847,28.7246 400.5707,27.9136 C402.4577,27.1076 404.5067,26.6976 406.6657,26.6976 C408.8207,26.6976 410.8707,27.1076 412.7577,27.9136 C414.6457,28.7246 416.3177,29.8506 417.7247,31.2566 C419.1327,32.6636 420.2567,34.3356 421.0677,36.2256 L421.0677,36.2256 Z M422.2847,22.7006 C420.2927,21.1526 418.0617,19.8866 415.6447,18.9366 C412.8637,17.8446 409.8597,17.2906 406.7127,17.2906 C403.2517,17.2906 399.9587,17.9466 396.9257,19.2406 C393.9047,20.5316 391.2197,22.3366 388.9527,24.6046 C386.6797,26.8766 384.8757,29.5596 383.5877,32.5796 C382.2937,35.6056 381.6387,38.8956 381.6387,42.3646 C381.6387,45.7686 382.2937,49.0296 383.5877,52.0526 C384.8737,55.0736 386.6777,57.7556 388.9527,60.0296 C391.2197,62.2996 393.9047,64.1046 396.9257,65.3946 C399.9567,66.6886 403.2497,67.3446 406.7127,67.3446 C409.8617,67.3446 412.8677,66.7856 415.6447,65.6796 C418.0597,64.7216 420.2897,63.4416 422.2847,61.8726 L422.2847,67.3446 L431.6927,67.3446 L431.6927,17.2906 L422.2847,17.2906 L422.2847,22.7006 Z" id="Fill-19" fill="#FFFFFF" mask="url(#mask-4)"></path>
            <path d="M499.9895,75.4765 C500.0215,74.8245 500.2185,72.6175 501.4075,71.1515 C501.4245,71.1305 501.4515,71.1175 501.5195,71.0845 L501.5835,71.0535 C501.6355,71.0425 501.7295,71.0405 501.7855,71.0235 C502.9585,71.1875 504.1355,71.2695 505.2905,71.2695 L516.4245,71.2695 C521.5195,71.2695 523.9955,73.0235 523.9955,76.6365 C523.9955,80.8175 519.8565,82.9355 511.6935,82.9355 C508.2865,82.9355 505.4405,82.2735 503.2295,80.9645 C501.0455,79.6705 499.9835,77.9505 499.9815,75.7245 L500.0235,75.4925 L499.9895,75.4765 Z M501.8535,36.5885 C501.8535,33.7285 502.8025,31.2995 504.6725,29.3725 C506.5425,27.4475 508.8715,26.4725 511.5955,26.4725 C512.8935,26.4725 514.1015,26.7125 515.2195,27.1745 C516.3415,27.6575 517.3675,28.3695 518.2885,29.3175 C520.1485,31.2385 521.0925,33.6545 521.0925,36.5005 C521.0925,39.0755 520.1485,41.3535 518.2885,43.2725 C516.4785,45.1345 514.2675,46.1045 511.7155,46.1545 C509.3285,46.2305 507.0045,45.3435 505.1815,43.7545 C505.1565,43.7325 505.1295,43.7085 505.1035,43.6865 C504.8565,43.4655 504.6175,43.2355 504.3895,42.9905 C503.5575,42.0915 502.9345,41.1125 502.5045,40.0665 C502.0715,38.9795 501.8535,37.8175 501.8535,36.5885 L501.8535,36.5885 Z M534.5355,18.5295 C532.5375,18.5295 530.7535,18.9235 529.2385,19.6985 C527.8065,20.4315 526.4375,21.6165 525.1665,23.2205 C523.4315,21.4655 521.4135,20.0725 519.1585,19.0715 C516.8005,18.0275 514.2565,17.4975 511.5955,17.4975 C508.0095,17.4975 504.6605,18.3435 501.6455,20.0135 C498.6255,21.6805 496.2155,24.0085 494.4845,26.9375 C492.7565,29.8595 491.8805,33.1765 491.8805,36.7945 C491.8805,40.9695 493.3055,44.7205 496.1085,47.9395 C494.3545,49.8675 493.0275,51.6795 492.1625,53.3225 C491.2565,55.0435 490.7955,57.2265 490.7955,59.8135 C490.7955,62.6395 491.6195,65.0265 493.2465,66.9125 C490.8845,71.7255 490.8935,74.9555 490.8935,75.0915 L490.9015,75.1395 C490.8975,75.1695 490.8915,75.2025 490.8915,75.2385 C490.8615,80.6805 492.6955,84.7445 496.3445,87.3125 C499.9935,89.8845 505.3875,91.1895 512.3845,91.1895 C519.5095,91.1895 524.9715,89.8675 528.6205,87.2605 C532.3025,84.6295 534.1695,80.7065 534.1695,75.6045 C534.1695,71.1285 532.8935,67.6845 530.3755,65.3665 C527.8665,63.0535 524.3005,61.8795 519.7725,61.8795 L508.1465,61.8795 C502.7295,61.8795 499.9835,60.4555 499.9835,57.6445 C499.9835,56.7385 500.1855,55.9205 500.5835,55.2145 C500.9715,54.5265 501.5815,53.7045 502.3975,52.7745 C505.1965,54.3605 508.2915,55.1655 511.5955,55.1655 C515.1775,55.1655 518.4585,54.3905 521.3445,52.8605 C524.2375,51.3305 526.5485,49.1375 528.2145,46.3465 C529.8775,43.5585 530.7205,40.3435 530.7205,36.7945 C530.7205,35.5375 530.6105,34.3045 530.3945,33.1315 C530.1565,31.8355 530.4955,30.5215 531.3235,29.5275 C532.1215,28.5695 533.2975,28.0215 534.5515,28.0215 L534.8595,28.0215 L534.8595,18.5315 L534.5515,18.5295 L534.5355,18.5295 Z" id="Fill-20" fill="#FFFFFF" mask="url(#mask-4)"></path>
        </g>
        <g id="Group-18" transform="translate(0.000000, 1.000000)">
            <path d="M132.2285,27.5306 C131.8555,29.6956 130.9095,31.8506 129.4945,33.7736 C129.0665,34.3526 128.5475,34.9716 127.9485,35.6016 L127.9285,35.6216 C127.2635,36.3016 126.6195,36.9056 126.0145,37.4046 L125.9095,37.4946 L125.9095,37.4996 C125.6075,37.7466 125.2995,37.9836 124.9935,38.1996 C124.7815,38.3506 124.5705,38.4966 124.3635,38.6376 C124.3075,38.6736 124.2525,38.7136 124.1975,38.7536 L124.1825,38.7686 C123.9805,38.9046 123.7535,39.0456 123.5065,39.2066 L123.4615,39.2266 C123.3565,39.2876 123.1955,39.3676 123.0195,39.4786 C122.7915,39.6096 122.5415,39.7456 122.2785,39.8916 L122.0465,40.0176 C121.8615,40.1176 121.6745,40.2236 121.5025,40.3296 C121.3275,40.4306 121.1615,40.5266 121.0445,40.5816 C118.8555,41.6586 116.4735,42.4796 114.1775,42.9476 C113.1505,43.1546 112.1235,43.3056 111.1165,43.3906 C111.0055,43.4016 110.9045,43.4156 110.7935,43.4366 C110.7485,43.4416 110.7035,43.4416 110.6635,43.4466 C110.6325,43.4466 110.6025,43.4466 110.5675,43.4516 C109.7825,43.5166 109.0005,43.5476 108.2415,43.5476 C107.6265,43.5476 107.0175,43.5266 106.4235,43.4816 C105.4815,43.4156 104.4595,43.2896 103.3725,43.0986 C102.6875,42.9836 102.0625,42.8466 101.5085,42.6966 C100.9155,42.5346 100.2865,42.3386 99.6765,42.1266 C98.7755,41.8096 97.9745,41.4776 97.2185,41.0906 C96.7005,40.8276 96.1715,40.5356 95.6435,40.2236 C95.6385,40.2186 95.6235,40.2086 95.6135,40.2036 C95.5325,40.1586 95.4365,40.0936 95.3465,40.0326 L95.2815,39.9916 C93.3125,38.5676 91.4795,37.0316 89.6815,35.2996 C89.6665,35.2896 89.6515,35.2746 89.6365,35.2596 C89.2985,34.9426 88.9515,34.6096 88.6045,34.2676 C87.5465,33.2196 86.4995,32.1276 85.4575,30.9996 C84.7675,30.2746 84.0725,29.5096 83.3325,28.6576 C83.4085,28.5876 83.4785,28.5126 83.5485,28.4416 C85.0245,26.9816 86.4095,25.6276 87.8785,24.1976 C90.1745,21.9616 92.7785,19.4336 96.3635,15.8546 C96.4085,15.8086 96.4495,15.7636 96.4895,15.7176 L96.5695,15.6376 C96.6905,15.5216 96.8065,15.3956 96.9125,15.2646 C96.9575,15.2196 97.0025,15.1696 97.0425,15.1236 C97.2045,14.9476 97.3705,14.7666 97.5415,14.5906 L97.6175,14.5146 C98.1405,13.9556 98.6035,13.4976 99.0415,13.1196 C99.1125,13.0546 99.1825,12.9936 99.2485,12.9286 C99.2735,12.9036 99.2935,12.8836 99.3135,12.8586 C99.3745,12.8076 99.4345,12.7526 99.4905,12.6916 C99.5155,12.6716 99.5355,12.6516 99.5555,12.6266 C100.2655,12.0026 100.9105,11.4686 101.5195,11.0156 C105.3965,8.1106 109.3645,6.6346 113.3115,6.6346 C119.0455,6.6346 123.3565,9.6966 125.9695,12.2636 C125.9895,12.2796 126.0045,12.2996 126.0245,12.3146 L126.0755,12.3646 C126.2215,12.5056 126.3225,12.6016 126.4675,12.7326 C126.7545,13.0346 127.0465,13.3566 127.3545,13.6986 L127.4395,13.7996 L127.6055,14.0016 C127.8825,14.3436 128.1445,14.6656 128.3755,14.9836 C128.4115,15.0336 128.4465,15.0836 128.4875,15.1346 C128.7445,15.4516 128.9805,15.8036 129.2675,16.2216 C129.5405,16.6296 129.7765,17.0076 130.0075,17.4056 C130.2135,17.7626 130.4515,18.1706 130.6225,18.5276 C130.6475,18.5826 130.6775,18.6386 130.7075,18.6946 C130.8635,18.9906 131.0095,19.3286 131.1805,19.7256 L131.2415,19.8626 C131.2465,19.8716 131.2505,19.8826 131.2565,19.8866 C131.3725,20.1586 131.4885,20.5066 131.6145,20.9096 L131.6445,20.9946 C131.6745,21.0806 131.7045,21.1716 131.7395,21.2566 C131.8345,21.5036 131.9415,21.9266 132.0015,22.1936 C132.0725,22.4896 132.1375,22.8076 132.2125,23.1796 C132.2335,23.3866 132.2635,23.5676 132.2935,23.7136 C132.3245,23.9856 132.3435,24.2876 132.3695,24.6256 C132.4395,25.6216 132.3945,26.5936 132.2285,27.5306 L132.2285,27.5306 Z M52.7795,49.9816 C51.0065,51.7496 49.3665,53.3756 47.5885,55.1426 C45.0715,57.6306 42.2205,60.4496 38.3595,64.3266 C38.3385,64.3426 38.3185,64.3616 38.3035,64.3776 C38.1475,64.5436 38.0415,64.6486 37.9205,64.7746 C37.8555,64.8356 37.7905,64.8906 37.7245,64.9566 C36.8335,65.8326 35.8965,66.6476 34.9505,67.3736 C33.9485,68.1376 32.9815,68.7876 32.0905,69.3016 C32.0095,69.3426 31.9345,69.3916 31.8595,69.4426 C31.8595,69.4426 31.8535,69.4476 31.8485,69.4476 C31.1995,69.8146 30.6555,70.0926 30.1525,70.3236 C30.0665,70.3636 29.9805,70.4036 29.9005,70.4496 C29.7135,70.5506 29.5175,70.6356 29.3215,70.7016 C29.2555,70.7256 29.1955,70.7466 29.1345,70.7716 C26.9745,71.6526 24.8255,72.0956 22.7355,72.0956 C21.8745,72.0956 21.0135,72.0196 20.1925,71.8646 C19.0195,71.6476 17.7305,71.2296 16.3755,70.6356 C15.9175,70.4336 15.5445,70.2486 15.2385,70.0716 C14.2555,69.5086 13.4865,69.0046 12.8115,68.4806 C12.7095,68.4056 12.6045,68.3296 12.4945,68.2636 C11.6675,67.6196 10.8375,66.8796 10.0215,66.0436 C9.3225,65.3286 8.8135,64.7796 8.4005,64.2716 C7.6205,63.3096 6.9245,62.3176 6.3315,61.3366 C3.3805,56.4166 2.4085,48.9496 8.5215,42.7316 C9.0805,42.1676 9.6285,41.6536 10.2035,41.1706 C10.5095,40.9186 10.7875,40.7026 11.0485,40.5156 C11.2005,40.4056 11.3455,40.2996 11.4975,40.1936 C11.6935,40.0526 11.8895,39.9116 12.0815,39.7756 C16.6125,36.6946 22.2265,34.9926 27.8965,34.9926 C30.1975,34.9926 32.4535,35.2746 34.5675,35.8136 C36.6775,36.3466 38.6415,37.1426 40.3635,38.1646 C40.8665,38.4616 41.3495,38.7886 41.8835,39.1866 C42.5685,39.7406 43.1275,40.2236 43.5905,40.6726 C43.7265,40.8076 43.7965,40.8786 43.9535,41.0146 C43.9625,41.0246 43.9685,41.0296 43.9785,41.0396 C46.9945,43.6776 48.9375,45.4146 50.8915,47.4286 C51.0375,47.5806 51.1785,47.7306 51.3245,47.8866 C51.8735,48.4706 52.4265,49.0856 53.0115,49.7506 L52.7795,49.9816 Z M44.5975,41.4826 C44.1895,41.1256 43.7665,40.7576 43.3235,40.3646 C43.7715,40.7526 44.1955,41.1256 44.5975,41.4826 L44.5975,41.4826 Z M136.3865,24.3386 C136.3565,23.9056 136.3265,23.4676 136.2715,23.0396 C136.2415,22.9076 136.2105,22.7776 136.2105,22.6466 C136.1205,22.1736 136.0295,21.7156 135.9235,21.2666 C135.8025,20.7636 135.6715,20.2396 135.4755,19.7566 C135.3095,19.2426 135.1535,18.7496 134.9375,18.2606 C134.7255,17.7726 134.5195,17.2836 134.2625,16.8006 C134.0315,16.3126 133.7535,15.8286 133.4815,15.3656 C133.2095,14.8976 132.9175,14.4336 132.6055,13.9706 C132.2935,13.5076 131.9915,13.0646 131.6395,12.6216 C131.2715,12.1136 130.8835,11.6496 130.5055,11.1816 C130.1035,10.7336 129.7055,10.2856 129.2925,9.8576 C129.0915,9.6706 128.9905,9.5746 128.7935,9.3886 C124.5245,5.1946 119.1525,2.6066 113.3115,2.6066 C111.0305,2.6066 108.6835,2.9996 106.3075,3.8456 C103.9255,4.6916 101.5145,5.9856 99.1025,7.7876 C98.2765,8.4066 97.4765,9.0816 96.7065,9.7716 C96.7005,9.8016 96.6755,9.8016 96.6505,9.8266 C96.6455,9.8526 96.6205,9.8576 96.5945,9.8826 C96.5845,9.8926 96.5805,9.8976 96.5645,9.9126 C96.5545,9.9226 96.5495,9.9276 96.5405,9.9376 C96.4895,9.9686 96.4585,10.0186 96.4035,10.0736 C95.7935,10.6026 95.2205,11.1766 94.6715,11.7656 C94.3745,12.0676 94.0925,12.3846 93.8205,12.6766 C93.8105,12.7076 93.8105,12.7076 93.7905,12.7076 C93.6795,12.8226 93.6245,12.8836 93.5185,12.9996 C87.6625,18.8446 84.5205,21.8106 80.7185,25.5766 C76.3185,20.2596 74.0685,17.0576 68.3775,9.3086 L68.3585,9.3086 C68.3075,9.2536 68.2825,9.2276 68.2375,9.1726 C67.5725,8.2456 66.8525,7.3756 66.0725,6.5446 C66.0515,6.5696 66.0515,6.5446 66.0515,6.5446 C65.2565,5.7386 64.4415,5.0036 63.5495,4.3186 C63.3585,4.1726 63.1575,3.9916 62.9605,3.8406 C62.7645,3.6896 62.5675,3.5686 62.3515,3.4526 C61.9535,3.1506 61.5765,2.8936 61.2035,2.6926 C61.0325,2.5966 60.8455,2.4756 60.6695,2.3806 C60.4935,2.2896 60.3125,2.1636 60.1355,2.1036 C59.6925,1.8566 59.2645,1.6306 58.8215,1.4486 C58.3585,1.2626 57.8955,1.1116 57.4375,0.9496 C57.1045,0.8296 56.8125,0.7286 56.4955,0.6336 C56.2535,0.5726 56.0065,0.5076 55.7855,0.4716 C55.4735,0.4116 55.1865,0.3506 54.8545,0.2856 C54.7125,0.2196 54.5825,0.2196 54.4305,0.2196 C54.0985,0.1596 53.7615,0.0946 53.4345,0.0946 C52.4575,-0.0314 51.4755,-0.0314 50.5135,0.0946 C50.1615,0.0946 49.8695,0.1546 49.5275,0.2196 C49.3905,0.1896 49.2655,0.2196 49.1245,0.2856 C48.8275,0.3456 48.5355,0.4066 48.2625,0.4716 C48.0265,0.5016 47.8155,0.5626 47.5935,0.6276 C47.3065,0.7136 47.0145,0.8196 46.7325,0.9456 C46.3045,1.1016 45.9015,1.2526 45.5085,1.4386 C45.1115,1.6246 44.7185,1.8416 44.3315,2.0836 C44.1695,2.1436 44.0185,2.2596 43.8625,2.3496 C43.7065,2.4406 43.5505,2.5566 43.3995,2.6476 C43.0775,2.8386 42.7095,3.0856 42.4215,3.3716 C42.0495,3.5736 41.7225,3.8606 41.4155,4.1676 C41.4255,4.1976 41.4005,4.1976 41.4005,4.1976 C41.3495,4.2536 41.2745,4.3086 41.2135,4.3386 C40.8315,4.6766 40.4895,5.0036 40.1565,5.3616 C40.1065,5.4166 40.0505,5.4716 39.9955,5.5226 C39.0835,6.4736 38.2635,7.5766 37.5535,8.7196 C37.5185,8.7696 37.5075,8.8206 37.4725,8.8446 C28.7975,22.6216 24.1295,26.2616 9.7595,36.4776 C9.4075,36.7346 9.0495,36.9866 8.6875,37.2476 C8.3205,37.5146 7.9675,37.7916 7.6245,38.0736 C6.9405,38.6526 6.2905,39.2576 5.6515,39.9066 C-1.3365,47.0156 -1.3325,56.3816 2.8765,63.4056 C3.5865,64.5836 4.3925,65.7216 5.2735,66.8086 C5.8625,67.5286 6.5065,68.2146 7.1575,68.8736 C8.1385,69.8856 9.1905,70.8266 10.3235,71.6736 L10.3485,71.6736 C11.2755,72.3876 12.2575,73.0026 13.2295,73.5606 C13.7175,73.8436 14.2415,74.0946 14.7395,74.3166 C16.2355,74.9706 17.8355,75.5196 19.4525,75.8216 C20.5195,76.0236 21.6175,76.1246 22.7355,76.1246 C25.2975,76.1246 27.9665,75.5946 30.6505,74.5026 C31.0535,74.3616 31.4415,74.1906 31.8135,73.9896 C32.5685,73.6466 33.3135,73.2546 34.0645,72.8256 C34.0745,72.8156 34.0795,72.8056 34.0945,72.7966 C35.1925,72.1666 36.3145,71.4006 37.3925,70.5806 C38.4855,69.7446 39.5525,68.8126 40.5545,67.8266 L40.5745,67.8266 C40.8315,67.5646 40.9575,67.4336 41.2085,67.1716 C47.7745,60.5916 51.3245,57.1266 55.6245,52.8316 C59.8385,57.9126 62.0035,60.9636 67.3755,68.2496 C67.4875,68.3946 67.5415,68.4706 67.6535,68.6216 C67.7845,68.8076 67.8445,68.8986 67.9755,69.0856 C68.1665,69.3426 68.2625,69.4776 68.4585,69.7396 C68.6205,69.9856 68.7815,70.2086 68.9875,70.4286 C69.3145,70.8216 69.6775,71.2196 70.0245,71.6126 C70.1705,71.7836 70.3415,71.9606 70.5075,72.1316 C70.6145,72.2416 70.7195,72.3326 70.8255,72.4486 C71.4555,73.1126 72.1495,73.6726 72.8245,74.1796 C73.2165,74.5376 73.6095,74.8096 74.0275,75.0516 L74.0475,75.0516 C74.4205,75.3236 74.7785,75.5946 75.1755,75.8116 L75.1965,75.8116 C75.5285,76.0236 75.8605,76.2096 76.2385,76.3956 L76.2635,76.3956 C77.1545,76.8886 78.0255,77.2316 78.9425,77.5496 L78.9615,77.5496 C79.2745,77.6446 79.5665,77.7346 79.8775,77.8306 C80.1245,77.9266 80.3725,77.9926 80.5935,78.0216 C80.9055,78.0886 81.1925,78.1476 81.5305,78.2136 C81.6665,78.2736 81.7965,78.2736 81.9475,78.2736 C82.2855,78.3396 82.6175,78.4046 82.9455,78.4046 C83.4225,78.4346 83.9115,78.4656 84.4105,78.4656 L84.4755,78.4656 C84.9335,78.4656 85.4125,78.4346 85.8655,78.4046 C86.2125,78.4046 86.5095,78.3396 86.8465,78.2786 C86.9825,78.3086 87.1085,78.2786 87.2495,78.2136 C87.5465,78.1526 87.8435,78.0886 88.1155,78.0276 C88.3475,77.9926 88.5535,77.9316 88.7805,77.8366 C89.0465,77.7456 89.2935,77.6796 89.5605,77.5896 C89.5815,77.5896 89.6215,77.5536 89.6415,77.5536 C90.4825,77.2766 91.3025,76.8746 92.0475,76.4216 C92.3505,76.2396 92.6925,76.0636 92.9795,75.8566 C93.3065,75.6506 93.6695,75.4196 93.9565,75.1326 C94.3245,74.9006 94.6765,74.6136 94.9995,74.3056 C95.4775,73.9136 95.9405,73.4406 96.3835,72.9816 C96.4635,72.8716 96.5495,72.7656 96.6405,72.6846 C96.6955,72.6296 96.7465,72.5746 96.7955,72.4936 C96.9675,72.3076 97.1435,72.1216 97.2905,71.9046 C97.7575,71.3816 98.1705,70.8066 98.5435,70.1676 L98.5685,70.1676 C98.6495,70.0366 98.6895,69.9666 98.7695,69.8356 C98.8345,69.7236 98.8655,69.6696 98.9255,69.5576 L98.9465,69.5576 C99.0165,69.4826 99.0465,69.4326 99.0925,69.3316 C103.6945,62.0816 105.9405,59.4376 111.5585,53.7836 C111.5695,53.7786 111.5745,53.7736 111.5795,53.7626 C116.3525,48.9546 119.9935,46.6386 126.4375,42.1016 C126.4985,42.0616 126.5535,42.0216 126.6145,41.9756 C126.8455,41.8206 127.0825,41.6536 127.3195,41.4876 C127.7215,41.2006 128.1145,40.8986 128.4875,40.5916 C128.5225,40.5616 128.5625,40.5306 128.5975,40.4956 C129.3585,39.8616 130.1085,39.1516 130.8085,38.4366 L130.8335,38.4106 C131.5075,37.7016 132.1635,36.9406 132.7425,36.1506 C134.5435,33.7086 135.7175,30.9896 136.1965,28.2156 C136.4225,26.9366 136.4775,25.6216 136.3865,24.3386 L136.3865,24.3386 Z" id="Fill-1" fill="#2D2D2D"></path>
            <path d="M53.0059,49.7552 L53.0059,49.7502 C52.4219,49.0852 51.8679,48.4712 51.3239,47.8872 C51.8729,48.4712 52.4269,49.0852 53.0119,49.7502 L53.0059,49.7552 Z" id="Fill-3" fill="#2D2D2D"></path>
            <path d="M199.5606,35.2254 C200.3676,37.1114 200.7776,39.1614 200.7776,41.3164 C200.7776,43.4754 200.3676,45.5244 199.5606,47.4104 C198.7486,49.3054 197.6226,50.9754 196.2166,52.3794 C194.8106,53.7864 193.1386,54.9094 191.2476,55.7234 C187.4806,57.3334 182.8236,57.3334 179.0636,55.7234 C177.1736,54.9094 175.5016,53.7864 174.0946,52.3794 C172.6886,50.9724 171.5646,49.3004 170.7536,47.4104 C169.9476,45.5284 169.5376,43.4784 169.5376,41.3164 C169.5376,39.1574 169.9476,37.1074 170.7536,35.2254 C171.5646,33.3354 172.6886,31.6634 174.0946,30.2574 C175.5016,28.8504 177.1736,27.7264 179.0636,26.9134 C180.9496,26.1074 182.9986,25.6964 185.1586,25.6964 C187.3126,25.6964 189.3626,26.1074 191.2476,26.9134 C193.1386,27.7264 194.8106,28.8504 196.2166,30.2574 C197.6226,31.6604 198.7486,33.3314 199.5606,35.2254 L199.5606,35.2254 Z M200.7776,21.7004 C198.7846,20.1504 196.5546,18.8864 194.1366,17.9364 C191.3616,16.8454 188.3556,16.2914 185.2046,16.2914 C181.7366,16.2914 178.4456,16.9464 175.4186,18.2404 C172.3926,19.5314 169.7106,21.3364 167.4446,23.6024 C165.1726,25.8744 163.3676,28.5584 162.0806,31.5794 C160.7866,34.6044 160.1306,37.8954 160.1306,41.3624 C160.1306,44.7684 160.7866,48.0284 162.0806,51.0534 C163.3676,54.0774 165.1726,56.7594 167.4446,59.0294 C169.7126,61.2994 172.3976,63.1044 175.4186,64.3934 C178.4476,65.6874 181.7406,66.3454 185.2046,66.3454 C188.3536,66.3454 191.3596,65.7854 194.1366,64.6794 C196.5526,63.7214 198.7826,62.4414 200.7776,60.8734 L200.7776,66.3454 L210.1846,66.3454 L210.1846,16.2914 L200.7776,16.2914 L200.7776,21.7004 Z" id="Fill-5" fill="#2D2D2D"></path>
            <path d="M231.6465,30.2572 C233.0485,28.8502 234.7165,27.7262 236.6005,26.9132 C238.4825,26.1072 240.5265,25.6962 242.6745,25.6962 C245.5395,25.6962 248.1875,26.4222 250.5455,27.8532 C252.9075,29.2892 254.8025,31.1992 256.1815,33.5332 L256.3875,33.8852 L265.5395,31.0802 L265.2805,30.5382 C263.2625,26.3192 260.2125,22.8552 256.2115,20.2392 C252.2085,17.6192 247.6215,16.2912 242.5825,16.2912 C239.1775,16.2912 235.9175,16.9462 232.8915,18.2402 C229.8635,19.5312 227.1865,21.3372 224.9395,23.6052 C222.6875,25.8752 220.8985,28.5592 219.6215,31.5812 C218.3435,34.6072 217.6945,37.8982 217.6945,41.3622 C217.6945,44.7662 218.3435,48.0272 219.6215,51.0532 C220.8985,54.0752 222.6875,56.7592 224.9395,59.0282 C227.1915,61.2992 229.8655,63.1052 232.8915,64.3942 C235.9185,65.6882 239.1795,66.3452 242.5825,66.3452 C247.6215,66.3452 252.2085,65.0002 256.2135,62.3532 C260.2125,59.7082 263.2625,56.2262 265.2805,52.0032 L265.5395,51.4612 L256.3835,48.6532 L256.1775,49.0112 C254.8005,51.4062 252.9055,53.3472 250.5455,54.7802 C248.1875,56.2112 245.5395,56.9382 242.6745,56.9382 C240.5245,56.9382 238.4805,56.5282 236.6005,55.7232 C234.7165,54.9092 233.0485,53.7862 231.6465,52.3792 C230.2435,50.9722 229.1235,49.3002 228.3145,47.4102 C227.5105,45.5272 227.1015,43.4752 227.1015,41.3162 C227.1015,39.1592 227.5105,37.1102 228.3145,35.2252 C229.1235,33.3362 230.2435,31.6642 231.6465,30.2572" id="Fill-7" fill="#2D2D2D"></path>
            <mask id="mask-6" fill="white">
                <use xlink:href="#path-5"></use>
            </mask>
            <g id="Clip-10"></g>
            <polygon id="Fill-9" fill="#2D2D2D" mask="url(#mask-6)" points="272.921 66.345 282.326 66.345 282.326 16.291 272.921 16.291"></polygon>
            <polygon id="Fill-11" fill="#2D2D2D" mask="url(#mask-6)" points="272.921 13.886 282.327 13.886 282.327 4.48 272.921 4.48"></polygon>
            <path d="M329.1641,35.2254 C329.9691,37.1094 330.3771,39.1594 330.3771,41.3164 C330.3771,43.4754 329.9691,45.5264 329.1641,47.4104 C328.3571,49.2984 327.2361,50.9704 325.8311,52.3794 C324.4261,53.7884 322.7611,54.9124 320.8771,55.7234 C317.1231,57.3354 312.4901,57.3354 308.7281,55.7234 C306.8441,54.9094 305.1771,53.7864 303.7731,52.3794 C302.3711,50.9724 301.2511,49.3004 300.4421,47.4104 C299.6381,45.5264 299.2291,43.4754 299.2291,41.3164 C299.2291,39.1594 299.6381,37.1094 300.4421,35.2254 C301.2511,33.3354 302.3711,31.6634 303.7731,30.2574 C305.1771,28.8504 306.8441,27.7264 308.7281,26.9134 C310.6101,26.1074 312.6531,25.6964 314.8031,25.6964 C316.9531,25.6964 318.9971,26.1074 320.8771,26.9134 C322.7611,27.7244 324.4261,28.8484 325.8311,30.2574 C327.2361,31.6654 328.3571,33.3374 329.1641,35.2254 L329.1641,35.2254 Z M330.3771,21.7004 C328.3841,20.1524 326.1541,18.8884 323.7371,17.9364 C320.9621,16.8454 317.9561,16.2914 314.8031,16.2914 C311.3981,16.2914 308.1381,16.9464 305.1111,18.2404 C302.0901,19.5294 299.4051,21.3344 297.1361,23.6024 C294.8631,25.8764 293.0591,28.5604 291.7721,31.5794 C290.4781,34.6024 289.8221,37.8934 289.8221,41.3624 C289.8221,44.7704 290.4781,48.0314 291.7721,51.0534 C293.0601,54.0754 294.8631,56.7594 297.1361,59.0294 C299.4071,61.3014 302.0921,63.1064 305.1111,64.3934 C308.1401,65.6874 311.4001,66.3454 314.8031,66.3454 C317.9541,66.3454 320.9601,65.7854 323.7391,64.6794 C326.1541,63.7194 328.3821,62.4414 330.3771,60.8734 L330.3771,66.3454 L339.7831,66.3454 L339.7831,4.3934 L330.3771,4.3934 L330.3771,21.7004 Z" id="Fill-12" fill="#2D2D2D" mask="url(#mask-6)"></path>
            <path d="M364.917,4.3934 L354.448,4.3934 L354.448,16.2914 L347.375,16.2914 L347.375,25.7464 L354.448,25.7464 L354.448,53.1854 C354.448,61.9184 358.686,66.3454 367.039,66.3454 L376.142,66.3454 L376.142,57.0214 L370.625,57.0214 C368.525,57.0214 367.037,56.5414 366.203,55.5954 C365.35,54.6284 364.917,52.8704 364.917,50.3694 L364.917,25.7464 L376.142,25.7464 L376.142,16.2914 L364.917,16.2914 L364.917,4.3934 Z" id="Fill-13" fill="#2D2D2D" mask="url(#mask-6)"></path>
            <path d="M465.7998,16.2914 C462.1288,16.2914 459.3268,16.8364 456.9788,18.0114 C454.8698,19.0684 453.0648,20.5034 451.5968,22.2914 L451.5968,16.2914 L441.0348,16.2914 L441.0348,66.3454 L451.5968,66.3454 L451.5968,37.9064 C451.5968,34.0394 452.6908,30.9384 454.8498,28.6884 C457.0018,26.4464 459.8608,25.3114 463.3438,25.3114 C469.2158,25.3114 472.0698,28.8744 472.0698,36.2084 L472.0698,66.3454 L482.6318,66.3454 L482.6318,34.2274 C482.6318,28.7104 481.0938,24.2594 478.0598,20.9974 C475.1088,17.8314 471.0978,16.2914 465.7998,16.2914" id="Fill-14" fill="#2D2D2D" mask="url(#mask-6)"></path>
            <path d="M579.1026,41.3182 C579.1026,43.4752 578.6926,45.5252 577.8856,47.4102 C577.0736,49.3002 575.9496,50.9722 574.5426,52.3792 C573.1356,53.7862 571.4636,54.9092 569.5746,55.7232 C565.8106,57.3352 561.1526,57.3352 557.3886,55.7232 C555.4986,54.9092 553.8276,53.7862 552.4196,52.3792 C551.0136,50.9722 549.8896,49.3002 549.0776,47.4102 C548.2706,45.5282 547.8626,43.4772 547.8626,41.3182 C547.8626,39.1592 548.2706,37.1082 549.0776,35.2252 C549.8896,33.3362 551.0136,31.6642 552.4196,30.2572 C553.8276,28.8502 555.4986,27.7262 557.3886,26.9132 C559.2746,26.1072 561.3246,25.6962 563.4816,25.6962 C565.6386,25.6962 567.6876,26.1072 569.5746,26.9132 C571.4636,27.7262 573.1356,28.8502 574.5426,30.2572 C575.9496,31.6642 577.0736,33.3362 577.8856,35.2252 C578.6926,37.1112 579.1026,39.1612 579.1026,41.3182 M586.5596,31.5792 C585.2656,28.5532 583.4606,25.8682 581.1956,23.6052 C578.9306,21.3392 576.2466,19.5332 573.2206,18.2402 C570.1926,16.9462 566.9316,16.2912 563.5286,16.2912 C560.0616,16.2912 556.7706,16.9462 553.7446,18.2402 C550.7206,19.5312 548.0366,21.3372 545.7676,23.6052 C543.4986,25.8752 541.6926,28.5572 540.4056,31.5792 C539.1116,34.6032 538.4546,37.8962 538.4546,41.3642 C538.4546,44.7712 539.1116,48.0312 540.4056,51.0532 C541.6926,54.0752 543.4966,56.7592 545.7676,59.0292 C548.0406,61.3012 550.7246,63.1072 553.7446,64.3942 C556.7726,65.6882 560.0656,66.3452 563.5286,66.3452 C566.9296,66.3452 570.1906,65.6882 573.2186,64.3942 C576.2426,63.1052 578.9266,61.2992 581.1956,59.0292 C583.4626,56.7642 585.2676,54.0792 586.5596,51.0552 C587.8536,48.0282 588.5076,44.7682 588.5076,41.3642 C588.5076,37.8962 587.8536,34.6052 586.5596,31.5792" id="Fill-15" fill="#2D2D2D" mask="url(#mask-6)"></path>
            <path d="M421.0684,35.2254 C421.8744,37.1074 422.2854,39.1574 422.2854,41.3184 C422.2854,43.4784 421.8744,45.5284 421.0684,47.4104 C420.2574,49.3004 419.1334,50.9724 417.7244,52.3794 C416.3174,53.7864 414.6454,54.9124 412.7574,55.7234 C408.9884,57.3394 404.3334,57.3354 400.5714,55.7234 C398.6854,54.9124 397.0134,53.7884 395.6024,52.3794 C394.1954,50.9724 393.0714,49.3004 392.2604,47.4104 C391.4544,45.5284 391.0444,43.4784 391.0444,41.3184 C391.0444,39.1574 391.4544,37.1074 392.2604,35.2254 C393.0714,33.3354 394.1954,31.6634 395.6024,30.2574 C397.0134,28.8484 398.6854,27.7244 400.5714,26.9134 C402.4574,26.1074 404.5064,25.6964 406.6664,25.6964 C408.8204,25.6964 410.8704,26.1074 412.7574,26.9134 C414.6454,27.7244 416.3174,28.8504 417.7244,30.2574 C419.1334,31.6634 420.2574,33.3354 421.0684,35.2254 L421.0684,35.2254 Z M422.2854,21.7004 C420.2924,20.1524 418.0624,18.8864 415.6444,17.9364 C412.8634,16.8454 409.8594,16.2914 406.7124,16.2914 C403.2514,16.2914 399.9594,16.9464 396.9264,18.2404 C393.9044,19.5314 391.2194,21.3364 388.9524,23.6044 C386.6794,25.8764 384.8754,28.5584 383.5874,31.5794 C382.2944,34.6044 381.6384,37.8954 381.6384,41.3644 C381.6384,44.7684 382.2944,48.0284 383.5874,51.0534 C384.8734,54.0724 386.6774,56.7554 388.9524,59.0294 C391.2194,61.2994 393.9044,63.1044 396.9264,64.3934 C399.9564,65.6874 403.2494,66.3454 406.7124,66.3454 C409.8614,66.3454 412.8674,65.7854 415.6444,64.6794 C418.0604,63.7214 420.2904,62.4414 422.2854,60.8734 L422.2854,66.3454 L431.6924,66.3454 L431.6924,16.2914 L422.2854,16.2914 L422.2854,21.7004 Z" id="Fill-16" fill="#2D2D2D" mask="url(#mask-6)"></path>
            <path d="M499.9893,74.4759 C500.0213,73.8239 500.2193,71.6179 501.4073,70.1519 C501.4243,70.1309 501.4513,70.1179 501.5193,70.0849 L501.5843,70.0529 C501.6353,70.0429 501.7293,70.0409 501.7863,70.0229 C502.9583,70.1869 504.1353,70.2689 505.2903,70.2689 L516.4253,70.2689 C521.5193,70.2689 523.9963,72.0239 523.9963,75.6359 C523.9963,79.8169 519.8573,81.9359 511.6933,81.9359 C508.2873,81.9359 505.4403,81.2739 503.2293,79.9649 C501.0463,78.6709 499.9833,76.9509 499.9813,74.7239 L500.0233,74.4929 L499.9893,74.4759 Z M501.8533,35.5889 C501.8533,32.7279 502.8023,30.2999 504.6723,28.3709 C506.5433,26.4469 508.8713,25.4729 511.5953,25.4729 C512.8933,25.4729 514.1013,25.7129 515.2193,26.1749 C516.3423,26.6569 517.3673,27.3699 518.2893,28.3179 C520.1493,30.2379 521.0933,32.6539 521.0933,35.5009 C521.0933,38.0759 520.1493,40.3539 518.2893,42.2719 C516.4783,44.1349 514.2673,45.1049 511.7163,45.1549 C509.3283,45.2309 507.0053,44.3439 505.1823,42.7549 C505.1563,42.7319 505.1293,42.7089 505.1033,42.6859 C504.8563,42.4659 504.6173,42.2349 504.3893,41.9899 C503.5573,41.0919 502.9343,40.1129 502.5043,39.0669 C502.0713,37.9789 501.8533,36.8169 501.8533,35.5889 L501.8533,35.5889 Z M534.5363,17.5299 C532.5373,17.5299 530.7533,17.9239 529.2383,18.6979 C527.8063,19.4319 526.4383,20.6159 525.1663,22.2209 C523.4313,20.4659 521.4133,19.0719 519.1593,18.0719 C516.8013,17.0279 514.2563,16.4969 511.5953,16.4969 C508.0093,16.4969 504.6603,17.3439 501.6453,19.0139 C498.6253,20.6799 496.2153,23.0089 494.4843,25.9369 C492.7563,28.8599 491.8803,32.1759 491.8803,35.7949 C491.8803,39.9699 493.3053,43.7209 496.1083,46.9389 C494.3543,48.8679 493.0283,50.6799 492.1623,52.3219 C491.2563,54.0439 490.7963,56.2269 490.7963,58.8129 C490.7963,61.6399 491.6203,64.0259 493.2463,65.9129 C490.8843,70.7249 490.8933,73.9559 490.8933,74.0919 L490.9013,74.1399 C490.8973,74.1699 490.8913,74.2029 490.8913,74.2379 C490.8613,79.6809 492.6963,83.7439 496.3443,86.3119 C499.9933,88.8849 505.3883,90.1889 512.3843,90.1889 C519.5093,90.1889 524.9713,88.8669 528.6203,86.2599 C532.3033,83.6299 534.1703,79.7069 534.1703,74.6039 C534.1703,70.1289 532.8933,66.6849 530.3753,64.3669 C527.8663,62.0539 524.3003,60.8789 519.7733,60.8789 L508.1463,60.8789 C502.7293,60.8789 499.9833,59.4549 499.9833,56.6449 C499.9833,55.7389 500.1853,54.9199 500.5833,54.2139 C500.9713,53.5269 501.5823,52.7049 502.3973,51.7739 C505.1963,53.3599 508.2913,54.1659 511.5953,54.1659 C515.1783,54.1659 518.4593,53.3899 521.3453,51.8599 C524.2383,50.3299 526.5483,48.1369 528.2153,45.3469 C529.8773,42.5589 530.7203,39.3439 530.7203,35.7949 C530.7203,34.5369 530.6113,33.3049 530.3943,32.1319 C530.1573,30.8359 530.4953,29.5219 531.3233,28.5279 C532.1213,27.5699 533.2983,27.0209 534.5523,27.0209 L534.8593,27.0209 L534.8593,17.5319 L534.5523,17.5299 L534.5363,17.5299 Z" id="Fill-17" fill="#2D2D2D" mask="url(#mask-6)"></path>
        </g>
    </g>
</svg>