<svg id="Capa_1" data-name="Capa 1" xmlns="http://www.w3.org/2000/svg" viewBox="0 0 992.31 555.4"><defs><style>.cls-1{fill:#0071bc;}.cls-2{fill:#29aae1;}</style></defs><path class="cls-1" d="M244.79,528.77a54.24,54.24,0,0,1-4.91-16.45q-17.82,19.84-46.3,19.84-27,0-44.69-15.6t-17.72-39.35q0-29.16,21.62-44.77t62.5-15.77h22.55V406.16q0-12.72-6.53-20.35t-20.6-7.63q-12.39,0-19.42,5.93t-7,16.28h-49a49.25,49.25,0,0,1,9.84-29.51q9.82-13.56,27.81-21.28t40.36-7.71q33.92,0,53.84,17T287,406.84v79.53q.17,26.11,7.29,39.51v2.89Zm-40.53-34.09a42.2,42.2,0,0,0,20-4.83,31.75,31.75,0,0,0,13.57-13V445.33H219.53q-36.81,0-39.18,25.44l-.17,2.88a19.62,19.62,0,0,0,6.45,15.1Q193.07,494.67,204.26,494.68Z" transform="translate(-131.17 -131.6)"/><path class="cls-1" d="M424,478.06q0-9-8.9-14.16t-28.57-9.24Q321.1,440.92,321.11,399q0-24.42,20.26-40.79t53-16.36q34.94,0,55.87,16.45t20.95,42.73h-49q0-10.51-6.78-17.38t-21.2-6.87q-12.39,0-19.17,5.6a17.67,17.67,0,0,0-6.78,14.24q0,8.14,7.72,13.14t26,8.65a214.16,214.16,0,0,1,30.86,8.23Q471.7,440.92,471.7,476q0,25.1-21.54,40.61t-55.62,15.52q-23.07,0-41-8.23t-28.06-22.55a52.36,52.36,0,0,1-10.18-30.95h46.47q.68,13.06,9.66,20t24.08,6.95q14.08,0,21.29-5.34A16.62,16.62,0,0,0,424,478.06Z" transform="translate(-131.17 -131.6)"/><path class="cls-1" d="M613.13,510.11q-18.15,22-50.2,22-29.5,0-45-17t-15.86-49.69V345.28h49V464q0,28.69,26.12,28.7,24.93,0,34.25-17.32v-130h49.18V528.77H614.49Z" transform="translate(-131.17 -131.6)"/><path class="cls-1" d="M742.69,345.28l1.53,21.2q19.66-24.6,52.74-24.59,29.16,0,43.41,17.12T855,410.23V528.77H806V411.42q0-15.62-6.79-22.64t-22.55-7q-20.68,0-31,17.64V528.77h-49V345.28Z" transform="translate(-131.17 -131.6)"/><path class="cls-1" d="M976.55,532.16q-40.37,0-65.71-24.76t-25.36-66v-4.75q0-27.63,10.69-49.43t30.27-33.58Q946,341.9,971.12,341.89q37.65,0,59.27,23.74T1052,433v20H935.17q2.37,18,14.33,28.83t30.27,10.86q28.32,0,44.26-20.52l24.09,27q-11,15.6-29.85,24.34T976.55,532.16ZM971,381.4q-14.58,0-23.65,9.88t-11.62,28.28h68.17v-3.92q-.33-16.36-8.81-25.3T971,381.4Z" transform="translate(-131.17 -131.6)"/><path class="cls-2" d="M172.69,685.88a32.12,32.12,0,0,1-1.29-8.49,23.45,23.45,0,0,1-9,7.11,27.56,27.56,0,0,1-11.6,2.5q-8.76,0-14.19-4.89a15.94,15.94,0,0,1-5.42-12.36,16.29,16.29,0,0,1,7.39-14q7.4-5.16,20.59-5.16h12.19v-6.91q0-6.52-4-10.26t-11.72-3.73A18.31,18.31,0,0,0,144,633.23q-4.6,3.6-4.6,8.65l-6.75,0q0-7.25,6.75-12.56T156,624q10.17,0,16,5.09t6,14.18V672q0,8.82,1.85,13.2v.68ZM151.57,681a22.59,22.59,0,0,0,12.05-3.25,19.21,19.21,0,0,0,7.72-8.71V655.7h-12q-10,.12-15.73,3.69t-5.68,9.8a10.85,10.85,0,0,0,3.8,8.48A14.27,14.27,0,0,0,151.57,681Z" transform="translate(-131.17 -131.6)"/><path class="cls-2" d="M232.36,670.43a9.58,9.58,0,0,0-4-8q-4-3-12.1-4.75a54.46,54.46,0,0,1-12.56-3.93,16.74,16.74,0,0,1-6.63-5.42,13.55,13.55,0,0,1-2.16-7.75,14.47,14.47,0,0,1,6-11.89q6-4.7,15.39-4.69,10.17,0,16.32,5a16.11,16.11,0,0,1,6.16,13.12H232a10.88,10.88,0,0,0-4.46-8.88,17.6,17.6,0,0,0-11.27-3.54q-6.63,0-10.64,2.95a9.1,9.1,0,0,0-4,7.67,8.28,8.28,0,0,0,3.34,7.05q3.34,2.5,12.19,4.58t13.26,4.44a17.21,17.21,0,0,1,6.55,5.67,15.62,15.62,0,0,1-4.07,20.34Q226.69,687,216.69,687q-10.62,0-17.22-5.14a15.81,15.81,0,0,1-6.61-13h6.75a11.68,11.68,0,0,0,5,9.19q4.57,3.29,12.11,3.29,7,0,11.35-3.09A9.29,9.29,0,0,0,232.36,670.43Z" transform="translate(-131.17 -131.6)"/><path class="cls-2" d="M250.51,654.58a35.76,35.76,0,0,1,3.4-15.79A25.57,25.57,0,0,1,277.59,624q12.14,0,19.67,8.51T304.78,655v1.41a36,36,0,0,1-3.4,15.87,25.4,25.4,0,0,1-9.57,10.87A26.29,26.29,0,0,1,277.7,687q-12.07,0-19.63-8.51t-7.56-22.56Zm6.74,1.86q0,10.89,5.65,17.89a19.09,19.09,0,0,0,29.55,0q5.66-7,5.65-18.46v-1.29a30.82,30.82,0,0,0-2.59-12.75,20.74,20.74,0,0,0-7.24-9,18.51,18.51,0,0,0-10.68-3.18,18,18,0,0,0-14.66,7q-5.69,7.05-5.68,18.46Z" transform="translate(-131.17 -131.6)"/><path class="cls-2" d="M341.14,681.33a17.77,17.77,0,0,0,11.77-4,14,14,0,0,0,5.14-10.25h6.46A19.08,19.08,0,0,1,361,677.25a21.89,21.89,0,0,1-8.52,7.17A25.68,25.68,0,0,1,341.14,687q-12,0-19-8.32t-7-22.36v-2a38.14,38.14,0,0,1,3.14-15.9,24.35,24.35,0,0,1,9-10.68A25,25,0,0,1,341.08,624q10,0,16.49,6t6.94,15.67h-6.46a16.26,16.26,0,0,0-17-15.9q-9.1,0-14.13,6.58t-5,18.42v2q0,11.63,5,18.15T341.14,681.33Z" transform="translate(-131.17 -131.6)"/><path class="cls-2" d="M377.54,607.53a4.47,4.47,0,0,1,1.24-3.21,4.39,4.39,0,0,1,3.37-1.32,4.42,4.42,0,0,1,4.66,4.53,4.37,4.37,0,0,1-1.26,3.18,4.54,4.54,0,0,1-3.4,1.28,4.32,4.32,0,0,1-4.61-4.46Zm7.93,78.35h-6.75v-60.8h6.75Z" transform="translate(-131.17 -131.6)"/><path class="cls-2" d="M442.1,685.88a31.71,31.71,0,0,1-1.29-8.49,23.52,23.52,0,0,1-9,7.11,27.56,27.56,0,0,1-11.6,2.5q-8.78,0-14.19-4.89a15.94,15.94,0,0,1-5.42-12.36,16.27,16.27,0,0,1,7.39-14q7.38-5.16,20.59-5.16h12.19v-6.91q0-6.52-4-10.26T425,629.64a18.31,18.31,0,0,0-11.63,3.59q-4.61,3.6-4.61,8.65l-6.74,0q0-7.25,6.74-12.56T425.36,624q10.17,0,16,5.09t6,14.18V672q0,8.82,1.85,13.2v.68ZM421,681A22.6,22.6,0,0,0,433,677.79a19.21,19.21,0,0,0,7.72-8.71V655.7h-12q-10.07.12-15.73,3.69t-5.68,9.8a10.87,10.87,0,0,0,3.79,8.48A14.29,14.29,0,0,0,421,681Z" transform="translate(-131.17 -131.6)"/><path class="cls-2" d="M487.83,681.33a17.78,17.78,0,0,0,11.78-4,14,14,0,0,0,5.14-10.25h6.46a19,19,0,0,1-3.49,10.14,21.79,21.79,0,0,1-8.51,7.17A25.69,25.69,0,0,1,487.83,687q-12,0-19-8.32t-7-22.36v-2A38.14,38.14,0,0,1,465,638.4a24.35,24.35,0,0,1,9-10.68A25,25,0,0,1,487.78,624q10,0,16.49,6t6.94,15.67h-6.46a16.26,16.26,0,0,0-17-15.9q-9.11,0-14.13,6.58t-5,18.42v2q0,11.63,5,18.15T487.83,681.33Z" transform="translate(-131.17 -131.6)"/><path class="cls-2" d="M524.24,607.53a4.47,4.47,0,0,1,1.24-3.21,4.39,4.39,0,0,1,3.37-1.32,4.42,4.42,0,0,1,4.66,4.53,4.37,4.37,0,0,1-1.26,3.18,4.54,4.54,0,0,1-3.4,1.28,4.32,4.32,0,0,1-4.61-4.46Zm7.92,78.35h-6.74v-60.8h6.74Z" transform="translate(-131.17 -131.6)"/><path class="cls-2" d="M546.72,654.58a35.76,35.76,0,0,1,3.4-15.79A25.54,25.54,0,0,1,573.8,624q12.13,0,19.66,8.51T601,655v1.41a36,36,0,0,1-3.4,15.87A25.36,25.36,0,0,1,588,683.18a26.24,26.24,0,0,1-14.1,3.82q-12.07,0-19.64-8.51t-7.55-22.56Zm6.74,1.86q0,10.89,5.64,17.89a19.1,19.1,0,0,0,29.56,0q5.64-7,5.64-18.46v-1.29a31,31,0,0,0-2.58-12.75,20.69,20.69,0,0,0-7.25-9,18.5,18.5,0,0,0-10.67-3.18,18,18,0,0,0-14.67,7q-5.67,7.05-5.67,18.46Zm27-56.86h8.15l-13,15.73-5.9,0Z" transform="translate(-131.17 -131.6)"/><path class="cls-2" d="M621.27,625.08l.23,10.4a24.09,24.09,0,0,1,8.54-8.57A22.15,22.15,0,0,1,641.33,624q9.78,0,14.55,5.51T660.72,646v39.89H654v-40q-.06-8.14-3.46-12.14t-10.87-4a17,17,0,0,0-11,3.91,22.9,22.9,0,0,0-7.11,10.53v41.64h-6.68v-60.8Z" transform="translate(-131.17 -131.6)"/><path class="cls-2" d="M1097.22,132c14.93,4.15,23.33,14.16,26.26,29.05q-.24,59-.47,118.07c-2.79,28.7-14.84,53.87-30.15,77.74-2.87,4.47-5.67,10.73-12.28,9.14-6.81-1.65-6.12-8.51-6.12-13.79,0-9.84.09-19.76-4.62-28.62-8-15.11-21.39-20.56-38.17-20.5-35,.11-70,.29-104.92-.9-27.4-.94-39.7-14.77-39.8-41.9q-.18-45.82,0-91.66c.11-19.43,9.16-32.32,28.68-37Z" transform="translate(-131.17 -131.6)"/></svg>