<svg id="Capa_1" data-name="Capa 1" xmlns="http://www.w3.org/2000/svg" viewBox="0 0 587.4 184.1"><defs><style>.cls-1{fill:#5c068c;}</style></defs><title>catedra-edosoft-original</title><path class="cls-1" d="M125.1,105.65a4.22,4.22,0,0,0,3.2,1.2,4.38,4.38,0,0,0,3.2-1.2,4.46,4.46,0,0,0,1.2-3.3V94h1.6v8.4a5.58,5.58,0,0,1-1.6,4.3,6.23,6.23,0,0,1-4.4,1.6,5.82,5.82,0,0,1-4.4-1.6,5.73,5.73,0,0,1-1.6-4.3V94h1.6v8.4A4.46,4.46,0,0,0,125.1,105.65Z"/><path class="cls-1" d="M146.8,98.55a4.33,4.33,0,0,1,1.1,3.1v6.6h-1.6v-6.2a2.77,2.77,0,0,0-3-3,3.17,3.17,0,0,0-2.5,1,4.13,4.13,0,0,0-1.1,2.5v5.7h-1.6V97.55h1.6V100q1.05-2.4,4.2-2.4A3.28,3.28,0,0,1,146.8,98.55Z"/><path class="cls-1" d="M153,93.55a1.22,1.22,0,0,1,0,1.6,1,1,0,0,1-1.4,0,1.22,1.22,0,0,1,0-1.6,1,1,0,0,1,1.4,0Zm-1.5,3.9h1.6v10.7h-1.6Z"/><path class="cls-1" d="M155.2,97.45h1.7l3.4,9.1,3.4-9.1h1.6l-4.2,10.7h-1.6Z"/><path class="cls-1" d="M175,99.05a6.58,6.58,0,0,1,1.2,4.4h-8.7a3.61,3.61,0,0,0,1.3,2.5,4,4,0,0,0,2.6,1,3.66,3.66,0,0,0,1.8-.4,4,4,0,0,0,1.5-1l.9.9a4.31,4.31,0,0,1-1.9,1.3,6,6,0,0,1-2.4.5,5.3,5.3,0,0,1-2.8-.7,5.75,5.75,0,0,1-1.9-1.9,5.95,5.95,0,0,1,0-5.6,5,5,0,0,1,1.9-1.9,5.07,5.07,0,0,1,2.8-.7A4.44,4.44,0,0,1,175,99.05Zm-.3,3.1a4,4,0,0,0-1-2.5,3.49,3.49,0,0,0-2.5-.9,3.92,3.92,0,0,0-2.6.9,3.52,3.52,0,0,0-1.2,2.5Z"/><path class="cls-1" d="M182.1,98.05a4.14,4.14,0,0,1,2.3-.6V99a4,4,0,0,0-2.7.9,3.76,3.76,0,0,0-1.2,2.6v5.7h-1.6V97.45h1.6v2.4A4,4,0,0,1,182.1,98.05Z"/><path class="cls-1" d="M190.9,99a7.72,7.72,0,0,0-1.5-.2,2.41,2.41,0,0,0-1.5.4,1.15,1.15,0,0,0-.6,1.1,1.14,1.14,0,0,0,.3.8,2.18,2.18,0,0,0,.8.5c.3.1.8.3,1.3.5a11.32,11.32,0,0,1,1.8.7,3.45,3.45,0,0,1,1.2.9,2.54,2.54,0,0,1,.5,1.6,2.84,2.84,0,0,1-1.1,2.3,5.12,5.12,0,0,1-2.8.8,6.2,6.2,0,0,1-2.3-.4,5.93,5.93,0,0,1-1.9-1.1l.6-1.2a8.64,8.64,0,0,0,1.6,1,4.33,4.33,0,0,0,1.9.4,3.06,3.06,0,0,0,1.7-.4,1.5,1.5,0,0,0,0-2.4,9,9,0,0,0-1.9-.8,10.72,10.72,0,0,1-1.7-.6,3.13,3.13,0,0,1-1.1-.9,2.77,2.77,0,0,1,.6-3.8,4.53,4.53,0,0,1,2.7-.7,5.66,5.66,0,0,1,1.8.3,7.74,7.74,0,0,1,1.6.7l-.6,1.2A3.69,3.69,0,0,0,190.9,99Z"/><path class="cls-1" d="M197.5,93.55a1.22,1.22,0,0,1,0,1.6,1,1,0,0,1-1.4,0,1.22,1.22,0,0,1,0-1.6.91.91,0,0,1,.7-.3A1.08,1.08,0,0,1,197.5,93.55Zm-1.5,3.9h1.6v10.7H196Z"/><path class="cls-1" d="M211.3,93.05v15.1h-1.6v-2.3a4.42,4.42,0,0,1-4.2,2.4,5,5,0,0,1-2.7-.7,4.69,4.69,0,0,1-1.8-1.9,6.44,6.44,0,0,1-.7-2.8,5.07,5.07,0,0,1,.7-2.8,4.14,4.14,0,0,1,1.8-1.9,5,5,0,0,1,2.7-.7,5.14,5.14,0,0,1,2.5.6,4.24,4.24,0,0,1,1.7,1.8v-6.7h1.6Zm-3.4,13.3a3.76,3.76,0,0,0,1.4-1.4,3.64,3.64,0,0,0,.5-2.1,4.65,4.65,0,0,0-.5-2.1,4,4,0,0,0-1.4-1.5,4.23,4.23,0,0,0-2-.5,4.55,4.55,0,0,0-2,.5,3.42,3.42,0,0,0-1.4,1.5,3.84,3.84,0,0,0-.5,2.1,4.65,4.65,0,0,0,.5,2.1,3.16,3.16,0,0,0,1.4,1.4,4.55,4.55,0,0,0,2,.5A3.51,3.51,0,0,0,207.9,106.35Z"/><path class="cls-1" d="M222.1,108.15v-1.7a4.51,4.51,0,0,1-3.9,1.7,3.81,3.81,0,0,1-1.9-.4,3.34,3.34,0,0,1-1.8-2.8,2.66,2.66,0,0,1,1.1-2.2,4.47,4.47,0,0,1,3-.8h3.5v-.7a2.49,2.49,0,0,0-.7-1.9,3.3,3.3,0,0,0-2.1-.7,6.11,6.11,0,0,0-3.4,1.2l-.7-1.1a10.76,10.76,0,0,1,2.1-1.1,7.55,7.55,0,0,1,2.3-.3,4,4,0,0,1,3,1,3.53,3.53,0,0,1,1.1,2.7v7.1Zm-1.3-1.9a3,3,0,0,0,1.3-1.8v-1.3h-3.3c-1.8,0-2.7.6-2.7,1.7a1.51,1.51,0,0,0,.7,1.4,2.43,2.43,0,0,0,1.8.5A3.42,3.42,0,0,0,220.8,106.25Z"/><path class="cls-1" d="M237.1,93.05v15.1h-1.6v-2.3a4.42,4.42,0,0,1-4.2,2.4,5,5,0,0,1-2.7-.7,4.69,4.69,0,0,1-1.8-1.9,6.44,6.44,0,0,1-.7-2.8,5.07,5.07,0,0,1,.7-2.8,4.14,4.14,0,0,1,1.8-1.9,5,5,0,0,1,2.7-.7,5.14,5.14,0,0,1,2.5.6,4.24,4.24,0,0,1,1.7,1.8v-6.7h1.6Zm-3.5,13.3A3.76,3.76,0,0,0,235,105a3.64,3.64,0,0,0,.5-2.1,4.65,4.65,0,0,0-.5-2.1,4,4,0,0,0-1.4-1.5,4.23,4.23,0,0,0-2-.5,4.55,4.55,0,0,0-2,.5,3.42,3.42,0,0,0-1.4,1.5,3.84,3.84,0,0,0-.5,2.1,4.65,4.65,0,0,0,.5,2.1,3.16,3.16,0,0,0,1.4,1.4,4.55,4.55,0,0,0,2,.5A3.15,3.15,0,0,0,233.6,106.35Z"/><path class="cls-1" d="M257.2,93.05v15.1h-1.6v-2.3a4.42,4.42,0,0,1-4.2,2.4,5,5,0,0,1-2.7-.7,4.69,4.69,0,0,1-1.8-1.9,6.44,6.44,0,0,1-.7-2.8,5.07,5.07,0,0,1,.7-2.8,4.14,4.14,0,0,1,1.8-1.9,5,5,0,0,1,2.7-.7,5.14,5.14,0,0,1,2.5.6,4.24,4.24,0,0,1,1.7,1.8v-6.7h1.6Zm-3.4,13.3a3.76,3.76,0,0,0,1.4-1.4,3.64,3.64,0,0,0,.5-2.1,4.65,4.65,0,0,0-.5-2.1,4,4,0,0,0-1.4-1.5,4.23,4.23,0,0,0-2-.5,4.55,4.55,0,0,0-2,.5,3.42,3.42,0,0,0-1.4,1.5,3.84,3.84,0,0,0-.5,2.1,4.65,4.65,0,0,0,.5,2.1,3.16,3.16,0,0,0,1.4,1.4,4.55,4.55,0,0,0,2,.5A3.51,3.51,0,0,0,253.8,106.35Z"/><path class="cls-1" d="M269.3,99.05a6.58,6.58,0,0,1,1.2,4.4h-8.7a3.61,3.61,0,0,0,1.3,2.5,4,4,0,0,0,2.6,1,3.66,3.66,0,0,0,1.8-.4,4,4,0,0,0,1.5-1l.9.9a4.31,4.31,0,0,1-1.9,1.3,6,6,0,0,1-2.4.5,5.3,5.3,0,0,1-2.8-.7,5.75,5.75,0,0,1-1.9-1.9,5.95,5.95,0,0,1,0-5.6,5,5,0,0,1,1.9-1.9,5.07,5.07,0,0,1,2.8-.7A4.32,4.32,0,0,1,269.3,99.05Zm-.2,3.1a4,4,0,0,0-1-2.5,3.49,3.49,0,0,0-2.5-.9,3.92,3.92,0,0,0-2.6.9,3.52,3.52,0,0,0-1.2,2.5Z"/><path class="cls-1" d="M279.8,94h1.6v12.7h6.2v1.5h-7.9V94Z"/><path class="cls-1" d="M296.8,108.15v-1.7a4.51,4.51,0,0,1-3.9,1.7,3.81,3.81,0,0,1-1.9-.4,3.34,3.34,0,0,1-1.8-2.8,2.66,2.66,0,0,1,1.1-2.2,4.47,4.47,0,0,1,3-.8h3.5v-.7a2.49,2.49,0,0,0-.7-1.9,3.3,3.3,0,0,0-2.1-.7,6.11,6.11,0,0,0-3.4,1.2l-.7-1.1a10.76,10.76,0,0,1,2.1-1.1,7.55,7.55,0,0,1,2.3-.3,4,4,0,0,1,3,1,3.53,3.53,0,0,1,1.1,2.7v7.1Zm-1.3-1.9a3,3,0,0,0,1.3-1.8v-1.3h-3.3c-1.8,0-2.7.6-2.7,1.7a1.51,1.51,0,0,0,.7,1.4,2.43,2.43,0,0,0,1.8.5A3.29,3.29,0,0,0,295.5,106.25Z"/><path class="cls-1" d="M308.4,94H310v12.7h6.2v1.5h-7.9V94Z"/><path class="cls-1" d="M325.5,108.15v-1.7a4.51,4.51,0,0,1-3.9,1.7,3.81,3.81,0,0,1-1.9-.4,3.34,3.34,0,0,1-1.8-2.8,2.66,2.66,0,0,1,1.1-2.2,4.47,4.47,0,0,1,3-.8h3.5v-.7a2.49,2.49,0,0,0-.7-1.9,3.3,3.3,0,0,0-2.1-.7,6.11,6.11,0,0,0-3.4,1.2l-.7-1.1a10.76,10.76,0,0,1,2.1-1.1,7.55,7.55,0,0,1,2.3-.3,4,4,0,0,1,3,1,3.53,3.53,0,0,1,1.1,2.7v7.1Zm-1.3-1.9a3,3,0,0,0,1.3-1.8v-1.3h-3.3c-1.8,0-2.7.6-2.7,1.7a1.51,1.51,0,0,0,.7,1.4,2.43,2.43,0,0,0,1.8.5A3.42,3.42,0,0,0,324.2,106.25Z"/><path class="cls-1" d="M340,97.45v9.6a5,5,0,0,1-.7,2.7,4.69,4.69,0,0,1-1.9,1.8,6.39,6.39,0,0,1-2.8.6,6.83,6.83,0,0,1-4.4-1.6l.7-1.2a4.25,4.25,0,0,0,1.7,1,5.82,5.82,0,0,0,1.9.3,3.71,3.71,0,0,0,2.8-1,3.62,3.62,0,0,0,1-2.7v-1.6a4.36,4.36,0,0,1-1.6,1.7,4.75,4.75,0,0,1-2.4.6,4.3,4.3,0,0,1-2.5-.7,4.9,4.9,0,0,1-1.7-1.8,6.37,6.37,0,0,1,0-5.4,4.24,4.24,0,0,1,1.7-1.8,5.28,5.28,0,0,1,2.6-.7,4.14,4.14,0,0,1,2.3.6,3.78,3.78,0,0,1,1.6,1.7v-2.2H340Zm-3.4,8.5a3,3,0,0,0,1.3-1.4,4.23,4.23,0,0,0,.5-2,4.55,4.55,0,0,0-.5-2,3.48,3.48,0,0,0-1.3-1.4,3.86,3.86,0,0,0-3.8,0,3,3,0,0,0-1.3,1.4,4.25,4.25,0,0,0,0,4,4.36,4.36,0,0,0,1.3,1.4,4.14,4.14,0,0,0,1.9.5A5.3,5.3,0,0,0,336.6,106Z"/><path class="cls-1" d="M353,97.45v10.7h-1.6v-2.4a4.05,4.05,0,0,1-4.1,2.5,4,4,0,0,1-2.9-1.1,4.33,4.33,0,0,1-1.1-3.1v-6.6h1.6v6.2a2.77,2.77,0,0,0,3,3,3.31,3.31,0,0,0,2.6-1.1,4.37,4.37,0,0,0,.9-2.9v-5.2Z"/><path class="cls-1" d="M365.7,98.55a4.33,4.33,0,0,1,1.1,3.1v6.6h-1.6v-6.2a2.77,2.77,0,0,0-3-3,3.17,3.17,0,0,0-2.5,1,4.13,4.13,0,0,0-1.1,2.5v5.7H357V97.55h1.6V100q1-2.4,4.2-2.4A3.28,3.28,0,0,1,365.7,98.55Z"/><path class="cls-1" d="M377.1,108.15v-1.7a4.51,4.51,0,0,1-3.9,1.7,3.81,3.81,0,0,1-1.9-.4,3.34,3.34,0,0,1-1.8-2.8,2.66,2.66,0,0,1,1.1-2.2,4.47,4.47,0,0,1,3-.8h3.5v-.7a2.49,2.49,0,0,0-.7-1.9,3.3,3.3,0,0,0-2.1-.7,6.11,6.11,0,0,0-3.4,1.2l-.7-1.1a10.76,10.76,0,0,1,2.1-1.1,7.55,7.55,0,0,1,2.3-.3,4,4,0,0,1,3,1,3.53,3.53,0,0,1,1.1,2.7v7.1Zm-1.3-1.9a3,3,0,0,0,1.3-1.8v-1.3h-3.3c-1.8,0-2.7.6-2.7,1.7a1.51,1.51,0,0,0,.7,1.4,2.43,2.43,0,0,0,1.8.5A3.57,3.57,0,0,0,375.8,106.25Z"/><polygon class="cls-1" points="93.9 69.3 93.9 38.8 93.2 38.8 79.3 52.2 79.3 69.3 65.5 69.3 65.5 38.8 64.9 38.8 50.9 52.2 50.9 83.5 62.5 83.5 65.5 83.5 79.3 70.3 79.3 83.5 90.9 83.5 93.9 83.5 108.2 69.8 108.2 69.3 93.9 69.3"/><path class="cls-1" d="M129.76,48a3.76,3.76,0,0,0-1.77-.49,3.41,3.41,0,0,0-1.83.51,3.67,3.67,0,0,0-1.3,1.38,4.28,4.28,0,0,0,0,3.94,3.63,3.63,0,0,0,1.3,1.39,3.49,3.49,0,0,0,1.83.5,4,4,0,0,0,1.71-.42,5.27,5.27,0,0,0,1.6-1.14l2,2.18a8.09,8.09,0,0,1-2.58,1.82,7.12,7.12,0,0,1-6.52-.23,6.69,6.69,0,0,1-2.51-2.5,6.9,6.9,0,0,1-.91-3.53,6.71,6.71,0,0,1,.93-3.5,6.63,6.63,0,0,1,2.56-2.45,7.56,7.56,0,0,1,6.56-.27,7.22,7.22,0,0,1,2.45,1.68l-2,2.43A5,5,0,0,0,129.76,48Z"/><path class="cls-1" d="M142.64,48.69a3.45,3.45,0,0,1,1.2,2.74v6.69h-3.33V57a4.26,4.26,0,0,1-5.67.43,3,3,0,0,1-.94-2.33,2.78,2.78,0,0,1,1-2.29,4.6,4.6,0,0,1,2.91-.83h2.68v-.11a1.34,1.34,0,0,0-.5-1.14,2.28,2.28,0,0,0-1.45-.4,5.83,5.83,0,0,0-1.46.21,8.86,8.86,0,0,0-1.62.6l-.93-2.27A12.77,12.77,0,0,1,137,48a9.9,9.9,0,0,1,2.39-.28A5.05,5.05,0,0,1,142.64,48.69ZM139.8,55.6a1.51,1.51,0,0,0,.71-1v-.89h-2c-.95,0-1.43.35-1.43,1.07a1.07,1.07,0,0,0,.37.84,1.54,1.54,0,0,0,1,.32A2.42,2.42,0,0,0,139.8,55.6Zm-.12-12.11,2.79,1.06-2.75,2.19-2.32-.19Z"/><path class="cls-1" d="M152.8,57.59a5,5,0,0,1-1.31.5,6.41,6.41,0,0,1-1.5.18,3.46,3.46,0,0,1-2.47-.88,3.14,3.14,0,0,1-.94-2.41v-4.4h-1.42V48.33h1.42V45.48H150v2.85h2.66v2.25H150v3.87c0,.73.3,1.09.89,1.08a3.52,3.52,0,0,0,1.32-.33Z"/><path class="cls-1" d="M162.73,49.21a5.8,5.8,0,0,1,1.35,4.07c0,.26,0,.46,0,.6h-7.14a2.48,2.48,0,0,0,.85,1.34,2.36,2.36,0,0,0,1.48.47,3.09,3.09,0,0,0,1.28-.27,3.52,3.52,0,0,0,1.14-.78l1.76,1.77a5.29,5.29,0,0,1-1.93,1.36,6.7,6.7,0,0,1-2.55.46,6.16,6.16,0,0,1-2.89-.65,4.32,4.32,0,0,1-1.89-1.82,5.5,5.5,0,0,1-.66-2.74,5.61,5.61,0,0,1,.67-2.78,4.67,4.67,0,0,1,1.88-1.86,5.92,5.92,0,0,1,2.81-.65A5,5,0,0,1,162.73,49.21Zm-1.94,2.87a2,2,0,0,0-.52-1.43,1.81,1.81,0,0,0-1.38-.55,1.86,1.86,0,0,0-1.34.53,2.62,2.62,0,0,0-.71,1.45Z"/><path class="cls-1" d="M176.17,44v14.1h-3.38V56.79a3.4,3.4,0,0,1-1.3,1.09,3.9,3.9,0,0,1-1.74.37,4.62,4.62,0,0,1-2.51-.67,4.46,4.46,0,0,1-1.68-1.86,6.22,6.22,0,0,1-.6-2.79,6,6,0,0,1,.59-2.73,4.27,4.27,0,0,1,1.66-1.83,4.65,4.65,0,0,1,2.46-.64,4,4,0,0,1,1.78.38,3.76,3.76,0,0,1,1.34,1.07V44Zm-4,10.86a2.74,2.74,0,0,0,.61-1.86,2.68,2.68,0,0,0-.61-1.85,2,2,0,0,0-1.6-.71,2,2,0,0,0-1.6.71,3.09,3.09,0,0,0,0,3.71,2,2,0,0,0,1.6.71A2,2,0,0,0,172.18,54.88Z"/><path class="cls-1" d="M183.6,48.18a3.91,3.91,0,0,1,1.93-.47v3.1a5,5,0,0,0-.51,0,3.15,3.15,0,0,0-1.94.56,2.13,2.13,0,0,0-.85,1.54v5.24h-3.39V47.84h3.39v1.71A3.68,3.68,0,0,1,183.6,48.18Z"/><path class="cls-1" d="M194.66,48.69a3.41,3.41,0,0,1,1.19,2.74v6.69h-3.32V57a3.7,3.7,0,0,1-3.1,1.31,3.64,3.64,0,0,1-2.57-.88,3,3,0,0,1-.94-2.33,2.8,2.8,0,0,1,1-2.29,4.66,4.66,0,0,1,2.92-.83h2.68v-.11a1.37,1.37,0,0,0-.5-1.14,2.29,2.29,0,0,0-1.46-.4,5.83,5.83,0,0,0-1.45.21,9.23,9.23,0,0,0-1.63.6l-.92-2.27A12.77,12.77,0,0,1,189,48a9.88,9.88,0,0,1,2.38-.28A5.06,5.06,0,0,1,194.66,48.69Zm-2.85,6.91a1.56,1.56,0,0,0,.72-1v-.89h-2c-1,0-1.43.35-1.43,1.07a1,1,0,0,0,.37.84,1.54,1.54,0,0,0,1,.32A2.36,2.36,0,0,0,191.81,55.6Z"/><path class="cls-1" d="M203.82,44.8h10.51v2.77h-7v2.5h6.35v2.75l-6.35,0v2.5h7.22v2.78h-10.7Z"/><path class="cls-1" d="M227,44v14.1h-3.38V56.79a3.4,3.4,0,0,1-1.3,1.09,3.9,3.9,0,0,1-1.74.37,4.62,4.62,0,0,1-2.51-.67,4.46,4.46,0,0,1-1.68-1.86,6.22,6.22,0,0,1-.6-2.79,6,6,0,0,1,.59-2.73,4.32,4.32,0,0,1,1.65-1.83,4.71,4.71,0,0,1,2.47-.64,4,4,0,0,1,1.78.38,3.76,3.76,0,0,1,1.34,1.07V44Zm-4,10.86a2.74,2.74,0,0,0,.61-1.86,2.68,2.68,0,0,0-.61-1.85,2,2,0,0,0-1.6-.71,2,2,0,0,0-1.6.71,3.09,3.09,0,0,0,0,3.71,2,2,0,0,0,1.6.71A2,2,0,0,0,223,54.88Z"/><path class="cls-1" d="M237.41,48.38a4.86,4.86,0,0,1,2,1.84,5.7,5.7,0,0,1,0,5.51,4.82,4.82,0,0,1-2,1.85,6.44,6.44,0,0,1-2.95.65,6.37,6.37,0,0,1-2.94-.65,4.7,4.7,0,0,1-2-1.85,5.77,5.77,0,0,1,0-5.51,4.74,4.74,0,0,1,2-1.84,6.37,6.37,0,0,1,2.94-.65A6.44,6.44,0,0,1,237.41,48.38Zm-4.54,2.79a2.67,2.67,0,0,0-.61,1.84,2.73,2.73,0,0,0,.61,1.86,2,2,0,0,0,1.59.71,2,2,0,0,0,1.62-.71,2.77,2.77,0,0,0,.6-1.86,2.67,2.67,0,0,0-.61-1.84,2.06,2.06,0,0,0-1.61-.71A2,2,0,0,0,232.87,51.17Z"/><path class="cls-1" d="M245.39,50.05a1.43,1.43,0,0,0-.7.15.55.55,0,0,0-.26.49.62.62,0,0,0,.42.55,8.24,8.24,0,0,0,1.32.46c.74.22,1.35.43,1.84.63a3.34,3.34,0,0,1,1.26,1A2.48,2.48,0,0,1,249.8,55a2.87,2.87,0,0,1-1.2,2.44,5.29,5.29,0,0,1-3.15.88,8.59,8.59,0,0,1-2.5-.37,6.51,6.51,0,0,1-2.13-1.09l1.06-2.19a7.12,7.12,0,0,0,1.84.94,5.56,5.56,0,0,0,1.81.33,1.63,1.63,0,0,0,.79-.16.5.5,0,0,0,.29-.46.65.65,0,0,0-.43-.59,8.43,8.43,0,0,0-1.33-.46,17.63,17.63,0,0,1-1.79-.63,3.34,3.34,0,0,1-1.22-.94,2.47,2.47,0,0,1-.53-1.64,2.89,2.89,0,0,1,1.18-2.44,4.94,4.94,0,0,1,3-.88,8.37,8.37,0,0,1,2.22.3,7.8,7.8,0,0,1,2.05.9l-1.13,2.2A7.54,7.54,0,0,0,245.39,50.05Z"/><path class="cls-1" d="M259.34,48.38a4.8,4.8,0,0,1,2,1.84,5.7,5.7,0,0,1,0,5.51,4.76,4.76,0,0,1-2,1.85,6.44,6.44,0,0,1-2.95.65,6.37,6.37,0,0,1-2.94-.65,4.7,4.7,0,0,1-2-1.85,5.77,5.77,0,0,1,0-5.51,4.74,4.74,0,0,1,2-1.84,6.37,6.37,0,0,1,2.94-.65A6.44,6.44,0,0,1,259.34,48.38Zm-4.54,2.79a2.67,2.67,0,0,0-.61,1.84,2.73,2.73,0,0,0,.61,1.86,2,2,0,0,0,1.59.71,2,2,0,0,0,1.62-.71,2.77,2.77,0,0,0,.6-1.86,2.67,2.67,0,0,0-.61-1.84,2,2,0,0,0-1.61-.71A2,2,0,0,0,254.8,51.17Z"/><path class="cls-1" d="M267.88,46.85a1,1,0,0,0-.32.82v.66h2.28v2.25h-2.28v7.54H264.2V50.58h-1.39V48.33h1.39v-.95a3.22,3.22,0,0,1,1.09-2.57,4.13,4.13,0,0,1,2.81-.94,6.15,6.15,0,0,1,2.19.4l-.43,2.56a3.47,3.47,0,0,0-1.14-.26A1.24,1.24,0,0,0,267.88,46.85Z"/><path class="cls-1" d="M278.09,57.59a5,5,0,0,1-1.31.5,6.41,6.41,0,0,1-1.5.18,3.46,3.46,0,0,1-2.47-.88,3.14,3.14,0,0,1-.94-2.41v-4.4h-1.42V48.33h1.42V45.48h3.37v2.85h2.66v2.25h-2.66v3.87c0,.73.3,1.09.89,1.08a3.48,3.48,0,0,0,1.32-.33Z"/><path class="cls-1" d="M295.76,44v14.1h-3.38V56.79a3.37,3.37,0,0,1-1.29,1.09,4,4,0,0,1-1.75.37,4.64,4.64,0,0,1-2.51-.67,4.46,4.46,0,0,1-1.68-1.86,6.22,6.22,0,0,1-.6-2.79,6,6,0,0,1,.59-2.73,4.4,4.4,0,0,1,1.66-1.83,4.66,4.66,0,0,1,2.47-.64,4,4,0,0,1,1.77.38,3.68,3.68,0,0,1,1.34,1.07V44Zm-4,10.86a2.79,2.79,0,0,0,.6-1.86,2.73,2.73,0,0,0-.6-1.85,2.16,2.16,0,0,0-3.2,0,3.09,3.09,0,0,0,0,3.71,2.16,2.16,0,0,0,3.2,0Z"/><path class="cls-1" d="M306.82,49.21a5.84,5.84,0,0,1,1.35,4.07c0,.26,0,.46,0,.6H301a2.49,2.49,0,0,0,.86,1.34,2.34,2.34,0,0,0,1.48.47,3.13,3.13,0,0,0,1.28-.27,3.38,3.38,0,0,0,1.13-.78l1.77,1.77a5.38,5.38,0,0,1-1.93,1.36,6.71,6.71,0,0,1-2.56.46,6.19,6.19,0,0,1-2.89-.65,4.43,4.43,0,0,1-1.89-1.82,6.1,6.1,0,0,1,0-5.52,4.61,4.61,0,0,1,1.88-1.86,5.92,5.92,0,0,1,2.81-.65A5,5,0,0,1,306.82,49.21Zm-1.94,2.87a2,2,0,0,0-.52-1.43A1.81,1.81,0,0,0,303,50.1a1.86,1.86,0,0,0-1.34.53,2.62,2.62,0,0,0-.71,1.45Z"/><path class="cls-1" d="M323.67,48a3.7,3.7,0,0,0-1.77-.49,3.41,3.41,0,0,0-1.83.51,3.75,3.75,0,0,0-1.3,1.38,4.36,4.36,0,0,0,0,3.94,3.65,3.65,0,0,0,1.31,1.39,3.48,3.48,0,0,0,1.82.5,4.06,4.06,0,0,0,1.72-.42,5.39,5.39,0,0,0,1.6-1.14l2,2.18a8.2,8.2,0,0,1-2.58,1.82,7.12,7.12,0,0,1-6.52-.23,6.62,6.62,0,0,1-2.51-2.5,6.91,6.91,0,0,1-.92-3.53,6.67,6.67,0,0,1,3.49-6,7.58,7.58,0,0,1,6.57-.27,7.22,7.22,0,0,1,2.45,1.68l-2,2.43A5.08,5.08,0,0,0,323.67,48Z"/><path class="cls-1" d="M336.21,48.38a4.82,4.82,0,0,1,2,1.84,5.77,5.77,0,0,1,0,5.51,4.78,4.78,0,0,1-2,1.85,7,7,0,0,1-5.89,0,4.76,4.76,0,0,1-2-1.85,5.85,5.85,0,0,1,0-5.51,4.8,4.8,0,0,1,2-1.84,7,7,0,0,1,5.89,0Zm-4.54,2.79a2.67,2.67,0,0,0-.61,1.84,2.73,2.73,0,0,0,.61,1.86,2,2,0,0,0,1.59.71,2,2,0,0,0,1.62-.71,2.78,2.78,0,0,0,.61-1.86,2.68,2.68,0,0,0-.62-1.84,2,2,0,0,0-1.61-.71A2,2,0,0,0,331.67,51.17Z"/><path class="cls-1" d="M357,48.77a4,4,0,0,1,1,2.87v6.48h-3.38V52.61a2,2,0,0,0-.46-1.38,1.56,1.56,0,0,0-1.23-.51,1.8,1.8,0,0,0-1.41.66A2.54,2.54,0,0,0,351,53v5.08h-3.39V52.61a2,2,0,0,0-.45-1.38,1.59,1.59,0,0,0-1.24-.51,1.85,1.85,0,0,0-1.42.66A2.49,2.49,0,0,0,344,53v5.08h-3.37V47.84H344v1.69a3.58,3.58,0,0,1,1.37-1.36,4,4,0,0,1,2-.46,3.67,3.67,0,0,1,2.14.61A3.26,3.26,0,0,1,350.74,50a3.73,3.73,0,0,1,1.41-1.72,4,4,0,0,1,2.18-.58A3.5,3.5,0,0,1,357,48.77Z"/><path class="cls-1" d="M369.31,48.38A4.42,4.42,0,0,1,371,50.24a6.18,6.18,0,0,1,.59,2.78,6.07,6.07,0,0,1-.58,2.74,4.11,4.11,0,0,1-1.65,1.82,4.73,4.73,0,0,1-2.48.65,4.08,4.08,0,0,1-1.76-.37,3.76,3.76,0,0,1-1.34-1.07v5h-3.37v-14h3.37v1.33a3.59,3.59,0,0,1,3-1.44A4.8,4.8,0,0,1,369.31,48.38Zm-1.74,6.41a2.68,2.68,0,0,0,.62-1.84,2.77,2.77,0,0,0-.62-1.86,2,2,0,0,0-1.6-.71,2,2,0,0,0-1.57.71,2.77,2.77,0,0,0-.62,1.86,2.72,2.72,0,0,0,.61,1.84,2,2,0,0,0,1.58.7A2,2,0,0,0,367.57,54.79Z"/><path class="cls-1" d="M383.37,47.84V58.12H380V56.45a3.6,3.6,0,0,1-3.28,1.82A3.47,3.47,0,0,1,374,57.2a4,4,0,0,1-1-2.87V47.84h3.39v5.53a2,2,0,0,0,.44,1.37,1.55,1.55,0,0,0,1.21.49,1.75,1.75,0,0,0,1.41-.66,2.57,2.57,0,0,0,.51-1.66V47.84Z"/><path class="cls-1" d="M392.63,57.59a5,5,0,0,1-1.31.5,6.41,6.41,0,0,1-1.5.18,3.46,3.46,0,0,1-2.47-.88,3.1,3.1,0,0,1-.94-2.41v-4.4H385V48.33h1.42V45.48h3.37v2.85h2.66v2.25h-2.66v3.87c0,.73.3,1.09.89,1.08A3.52,3.52,0,0,0,392,55.2Z"/><path class="cls-1" d="M402.17,48.69a3.39,3.39,0,0,1,1.2,2.74v6.69h-3.32V57a3.72,3.72,0,0,1-3.1,1.31,3.67,3.67,0,0,1-2.58-.88,3.08,3.08,0,0,1-.94-2.33,2.78,2.78,0,0,1,1-2.29,4.66,4.66,0,0,1,2.92-.83h2.68v-.11a1.35,1.35,0,0,0-.51-1.14,2.28,2.28,0,0,0-1.45-.4,5.9,5.9,0,0,0-1.46.21,8.86,8.86,0,0,0-1.62.6l-.93-2.27a13.28,13.28,0,0,1,2.4-.84,10,10,0,0,1,2.39-.28A5,5,0,0,1,402.17,48.69Zm-2.84,6.91a1.56,1.56,0,0,0,.72-1v-.89h-2c-.95,0-1.43.35-1.43,1.07a1,1,0,0,0,.38.84,1.5,1.5,0,0,0,1,.32A2.38,2.38,0,0,0,399.33,55.6Z"/><path class="cls-1" d="M410.26,50.52a1.84,1.84,0,0,0-1.48.69,3.13,3.13,0,0,0,0,3.6,1.83,1.83,0,0,0,1.48.68,2.1,2.1,0,0,0,2-1.16l2.48,1.43a4.16,4.16,0,0,1-1.82,1.82,6,6,0,0,1-2.85.65,5.77,5.77,0,0,1-2.78-.65,4.45,4.45,0,0,1-1.85-1.82,6.1,6.1,0,0,1,0-5.52,4.59,4.59,0,0,1,1.87-1.86,6.27,6.27,0,0,1,5.52,0,4.46,4.46,0,0,1,1.85,1.8l-2.44,1.42A2.32,2.32,0,0,0,410.26,50.52Z"/><path class="cls-1" d="M419.29,43.61a1.94,1.94,0,0,1,0,2.6,1.73,1.73,0,0,1-1.28.51,1.75,1.75,0,0,1-1.29-.51,1.8,1.8,0,0,1,1.29-3.1A1.76,1.76,0,0,1,419.29,43.61Zm-3,4.23h3.37V58.12h-3.37Z"/><path class="cls-1" d="M430,48.38a4.86,4.86,0,0,1,2,1.84,5.7,5.7,0,0,1,0,5.51,4.82,4.82,0,0,1-2,1.85,7,7,0,0,1-5.9,0,4.73,4.73,0,0,1-2-1.85,5.77,5.77,0,0,1,0-5.51,4.77,4.77,0,0,1,2-1.84,7,7,0,0,1,5.9,0Zm-4.55,2.79a2.72,2.72,0,0,0-.6,1.84,2.77,2.77,0,0,0,.6,1.86,2.17,2.17,0,0,0,3.21,0,2.73,2.73,0,0,0,.61-1.86,2.67,2.67,0,0,0-.61-1.84,2.06,2.06,0,0,0-1.61-.71A2,2,0,0,0,425.43,51.17Zm2.17-7.68,2.79,1.06-2.75,2.19-2.32-.19Z"/><path class="cls-1" d="M443.87,48.77a4,4,0,0,1,1,2.87v6.48h-3.36V52.61a1.93,1.93,0,0,0-.48-1.38,1.64,1.64,0,0,0-1.27-.51,2,2,0,0,0-1.38.56,2.2,2.2,0,0,0-.63,1.4v5.44h-3.39V47.84h3.39v1.67a3.65,3.65,0,0,1,1.41-1.35,4.25,4.25,0,0,1,2-.45A3.58,3.58,0,0,1,443.87,48.77Z"/><path class="cls-1" d="M130,73.05a5.81,5.81,0,0,1,1.35,4.07c0,.26,0,.47,0,.6h-7.15a2.49,2.49,0,0,0,.86,1.34,2.34,2.34,0,0,0,1.48.47,3.29,3.29,0,0,0,1.28-.26,3.56,3.56,0,0,0,1.13-.79l1.77,1.77a5.26,5.26,0,0,1-1.93,1.36,6.71,6.71,0,0,1-2.56.46,6.19,6.19,0,0,1-2.89-.64,4.51,4.51,0,0,1-1.89-1.83,5.57,5.57,0,0,1-.65-2.73,5.65,5.65,0,0,1,.67-2.79,4.53,4.53,0,0,1,1.88-1.85,5.8,5.8,0,0,1,2.81-.66A4.93,4.93,0,0,1,130,73.05Zm-1.93,2.87a2,2,0,0,0-.52-1.43,1.84,1.84,0,0,0-1.38-.54,1.82,1.82,0,0,0-1.34.53,2.59,2.59,0,0,0-.71,1.44Z"/><path class="cls-1" d="M142.61,72.61a4,4,0,0,1,1,2.88V82h-3.37V76.45a1.93,1.93,0,0,0-.47-1.38,1.67,1.67,0,0,0-1.27-.5,1.92,1.92,0,0,0-1.38.55,2.22,2.22,0,0,0-.63,1.4V82h-3.39V71.68h3.39v1.67A3.55,3.55,0,0,1,137.91,72a4.13,4.13,0,0,1,2-.46A3.63,3.63,0,0,1,142.61,72.61Z"/><path class="cls-1" d="M151.71,67.86h3.38V82h-3.38Z"/><path class="cls-1" d="M165.7,72.53a3.4,3.4,0,0,1,1.2,2.74V82h-3.32V80.8a3.72,3.72,0,0,1-3.1,1.31,3.62,3.62,0,0,1-2.58-.88A3.08,3.08,0,0,1,157,78.9a2.75,2.75,0,0,1,1-2.28,4.66,4.66,0,0,1,2.92-.84h2.68v-.11a1.37,1.37,0,0,0-.51-1.14,2.28,2.28,0,0,0-1.45-.4,5.9,5.9,0,0,0-1.46.21,8.47,8.47,0,0,0-1.62.61l-.93-2.28a14.78,14.78,0,0,1,2.41-.84,10.34,10.34,0,0,1,2.38-.28A5,5,0,0,1,165.7,72.53Zm-2.84,6.92a1.61,1.61,0,0,0,.72-1v-.89h-2c-.95,0-1.42.36-1.42,1.07a1,1,0,0,0,.37.84,1.5,1.5,0,0,0,1,.32A2.46,2.46,0,0,0,162.86,79.45Z"/><path class="cls-1" d="M184,68.64h3.23V82h-3l-6-8v8h-3.25V68.64h3.06l6.06,8Z"/><path class="cls-1" d="M199.83,71.68V82h-3.38V80.29a3.61,3.61,0,0,1-3.29,1.82A3.5,3.5,0,0,1,190.49,81a4,4,0,0,1-1-2.86v-6.5h3.39v5.53a2,2,0,0,0,.44,1.37,1.55,1.55,0,0,0,1.21.5,1.79,1.79,0,0,0,1.4-.66,2.54,2.54,0,0,0,.52-1.66V71.68Z"/><path class="cls-1" d="M211.41,72.23a4.34,4.34,0,0,1,1.69,1.85,6.36,6.36,0,0,1,.59,2.79,6,6,0,0,1-.58,2.73,4.19,4.19,0,0,1-1.65,1.83,4.75,4.75,0,0,1-2.48.64,4.08,4.08,0,0,1-1.76-.37,3.74,3.74,0,0,1-1.34-1.06V82h-3.37V67.86h3.37V73a3.59,3.59,0,0,1,3-1.44A4.71,4.71,0,0,1,211.41,72.23Zm-1.74,6.41a3.07,3.07,0,0,0,0-3.7,2.12,2.12,0,0,0-3.18,0,2.77,2.77,0,0,0-.61,1.85,2.7,2.7,0,0,0,.61,1.85,2,2,0,0,0,1.58.7A2,2,0,0,0,209.67,78.64Z"/><path class="cls-1" d="M223.81,73.05a5.81,5.81,0,0,1,1.35,4.07c0,.26,0,.47,0,.6H218a2.53,2.53,0,0,0,.85,1.34,2.37,2.37,0,0,0,1.49.47,3.33,3.33,0,0,0,1.28-.26,3.8,3.8,0,0,0,1.13-.79l1.76,1.77a5.1,5.1,0,0,1-1.93,1.36,6.62,6.62,0,0,1-2.55.46,6.19,6.19,0,0,1-2.89-.64,4.4,4.4,0,0,1-1.89-1.83,5.46,5.46,0,0,1-.66-2.73,5.76,5.76,0,0,1,.67-2.79,4.55,4.55,0,0,1,1.89-1.85,5.78,5.78,0,0,1,2.81-.66A4.93,4.93,0,0,1,223.81,73.05Zm-1.93,2.87a2,2,0,0,0-.53-1.43,2,2,0,0,0-2.72,0,2.66,2.66,0,0,0-.71,1.44Z"/><path class="cls-1" d="M241,73.05a5.86,5.86,0,0,1,1.35,4.07c0,.26,0,.47,0,.6h-7.15a2.49,2.49,0,0,0,.86,1.34,2.34,2.34,0,0,0,1.48.47,3.29,3.29,0,0,0,1.28-.26,3.56,3.56,0,0,0,1.13-.79l1.77,1.77a5.26,5.26,0,0,1-1.93,1.36,6.71,6.71,0,0,1-2.56.46,6.19,6.19,0,0,1-2.89-.64,4.51,4.51,0,0,1-1.89-1.83,5.57,5.57,0,0,1-.65-2.73,5.65,5.65,0,0,1,.67-2.79,4.53,4.53,0,0,1,1.88-1.85,5.8,5.8,0,0,1,2.81-.66A5,5,0,0,1,241,73.05ZM239,75.92a2,2,0,0,0-.52-1.43,1.84,1.84,0,0,0-1.38-.54,1.82,1.82,0,0,0-1.34.53,2.59,2.59,0,0,0-.71,1.44Z"/><path class="cls-1" d="M249.72,68.64h3.48V82h-3.48Z"/><path class="cls-1" d="M265.27,72.61a4,4,0,0,1,1,2.88V82h-3.37V76.45a2,2,0,0,0-.47-1.38,1.69,1.69,0,0,0-1.27-.5,1.92,1.92,0,0,0-1.38.55,2.23,2.23,0,0,0-.64,1.4V82h-3.38V71.68h3.38v1.67A3.64,3.64,0,0,1,260.58,72a4.13,4.13,0,0,1,2-.46A3.61,3.61,0,0,1,265.27,72.61Z"/><path class="cls-1" d="M275.27,81.43a4.64,4.64,0,0,1-1.31.5,6.41,6.41,0,0,1-1.5.18,3.5,3.5,0,0,1-2.47-.87,3.15,3.15,0,0,1-.94-2.41V74.42h-1.42V72.17h1.42V69.33h3.37v2.84h2.66v2.25h-2.66V78.3c0,.72.3,1.08.89,1.07a3.52,3.52,0,0,0,1.32-.33Z"/><path class="cls-1" d="M285.2,73.05a5.81,5.81,0,0,1,1.35,4.07c0,.26,0,.47,0,.6h-7.14a2.48,2.48,0,0,0,.85,1.34,2.36,2.36,0,0,0,1.48.47,3.25,3.25,0,0,0,1.28-.26,3.72,3.72,0,0,0,1.14-.79l1.76,1.77A5.18,5.18,0,0,1,284,81.61a6.7,6.7,0,0,1-2.55.46,6.16,6.16,0,0,1-2.89-.64,4.4,4.4,0,0,1-1.89-1.83,5.46,5.46,0,0,1-.66-2.73,5.65,5.65,0,0,1,.67-2.79,4.59,4.59,0,0,1,1.88-1.85,5.8,5.8,0,0,1,2.81-.66A5,5,0,0,1,285.2,73.05Zm-1.94,2.87a2,2,0,0,0-.52-1.43,1.84,1.84,0,0,0-1.38-.54,1.82,1.82,0,0,0-1.34.53,2.59,2.59,0,0,0-.71,1.44Z"/><path class="cls-1" d="M288.37,67.86h3.37V82h-3.37Z"/><path class="cls-1" d="M297.39,67.46a1.9,1.9,0,0,1,0,2.59,1.86,1.86,0,0,1-2.56,0,1.9,1.9,0,0,1,0-2.59,1.86,1.86,0,0,1,2.56,0Zm-3,4.22h3.36V82h-3.36Z"/><path class="cls-1" d="M310.21,71.68v9.37a4.37,4.37,0,0,1-2.67,4.15,6.92,6.92,0,0,1-2.92.58,8.62,8.62,0,0,1-2.49-.36,7.86,7.86,0,0,1-2.11-1l1.18-2.34a6,6,0,0,0,1.52.74,5.19,5.19,0,0,0,1.65.27,2.87,2.87,0,0,0,1.81-.53,1.75,1.75,0,0,0,.67-1.44V80a3.51,3.51,0,0,1-2.93,1.36,4.14,4.14,0,0,1-2.27-.63A4.09,4.09,0,0,1,300.09,79a6.26,6.26,0,0,1,0-5.13,4,4,0,0,1,1.53-1.71,4.41,4.41,0,0,1,4-.26,3.65,3.65,0,0,1,1.29,1V71.68Zm-3.93,6.58a2.94,2.94,0,0,0,0-3.48,1.88,1.88,0,0,0-1.51-.67,1.91,1.91,0,0,0-1.51.68,2.89,2.89,0,0,0,0,3.47,2.06,2.06,0,0,0,3,0Z"/><path class="cls-1" d="M321.06,73.05a5.81,5.81,0,0,1,1.35,4.07c0,.26,0,.47,0,.6h-7.15a2.55,2.55,0,0,0,.86,1.34,2.34,2.34,0,0,0,1.48.47,3.29,3.29,0,0,0,1.28-.26,3.56,3.56,0,0,0,1.13-.79l1.77,1.77a5.26,5.26,0,0,1-1.93,1.36,6.7,6.7,0,0,1-2.55.46,6.13,6.13,0,0,1-2.89-.64,4.48,4.48,0,0,1-1.9-1.83,5.57,5.57,0,0,1-.65-2.73,5.65,5.65,0,0,1,.67-2.79,4.53,4.53,0,0,1,1.88-1.85,5.8,5.8,0,0,1,2.81-.66A5,5,0,0,1,321.06,73.05Zm-1.94,2.87a2,2,0,0,0-.52-1.43,1.84,1.84,0,0,0-1.38-.54,1.82,1.82,0,0,0-1.34.53,2.59,2.59,0,0,0-.71,1.44Z"/><path class="cls-1" d="M333.62,72.61a4,4,0,0,1,1,2.88V82h-3.36V76.45a1.93,1.93,0,0,0-.48-1.38,1.67,1.67,0,0,0-1.27-.5,1.93,1.93,0,0,0-1.38.55,2.22,2.22,0,0,0-.63,1.4V82h-3.39V71.68h3.39v1.67A3.55,3.55,0,0,1,328.92,72a4.13,4.13,0,0,1,2-.46A3.61,3.61,0,0,1,333.62,72.61Z"/><path class="cls-1" d="M341.54,74.36a1.82,1.82,0,0,0-1.47.69,2.75,2.75,0,0,0-.57,1.8,2.7,2.7,0,0,0,.57,1.8,1.82,1.82,0,0,0,1.47.69,2.1,2.1,0,0,0,2-1.16L346,79.6a4.18,4.18,0,0,1-1.82,1.83,6,6,0,0,1-2.85.64,5.79,5.79,0,0,1-2.78-.64,4.59,4.59,0,0,1-1.85-1.83,5.57,5.57,0,0,1-.65-2.73,5.65,5.65,0,0,1,.67-2.79,4.56,4.56,0,0,1,1.87-1.85,6.19,6.19,0,0,1,5.52,0A4.52,4.52,0,0,1,346,74l-2.45,1.42A2.33,2.33,0,0,0,341.54,74.36Z"/><path class="cls-1" d="M350.57,67.46a1.93,1.93,0,0,1,0,2.59,1.86,1.86,0,0,1-2.56,0,1.9,1.9,0,0,1,0-2.59,1.86,1.86,0,0,1,2.56,0Zm-3,4.22H351V82h-3.37Z"/><path class="cls-1" d="M361.48,72.53a3.4,3.4,0,0,1,1.2,2.74V82h-3.32V80.8a3.72,3.72,0,0,1-3.1,1.31,3.62,3.62,0,0,1-2.58-.88,3.08,3.08,0,0,1-.94-2.33,2.75,2.75,0,0,1,1-2.28,4.66,4.66,0,0,1,2.92-.84h2.68v-.11a1.37,1.37,0,0,0-.51-1.14,2.28,2.28,0,0,0-1.45-.4,5.9,5.9,0,0,0-1.46.21,8.47,8.47,0,0,0-1.62.61l-.93-2.28a15,15,0,0,1,2.4-.84,10.49,10.49,0,0,1,2.39-.28A5,5,0,0,1,361.48,72.53Zm-2.84,6.92a1.61,1.61,0,0,0,.72-1v-.89h-2c-.95,0-1.42.36-1.42,1.07a1,1,0,0,0,.37.84,1.5,1.5,0,0,0,1,.32A2.46,2.46,0,0,0,358.64,79.45Z"/><path class="cls-1" d="M380.44,82l-.91-2.36h-5.77L372.84,82h-3.57L375,68.64h3.57L384.14,82Zm-5.63-5h3.69l-1.83-4.75Z"/><path class="cls-1" d="M390.09,72a3.86,3.86,0,0,1,1.93-.48v3.1l-.51,0a3.17,3.17,0,0,0-1.94.56,2.16,2.16,0,0,0-.85,1.54V82h-3.39V71.68h3.39v1.71A3.65,3.65,0,0,1,390.09,72Z"/><path class="cls-1" d="M400.19,81.43a4.64,4.64,0,0,1-1.31.5,6.41,6.41,0,0,1-1.5.18,3.5,3.5,0,0,1-2.47-.87,3.12,3.12,0,0,1-.94-2.41V74.42h-1.42V72.17H394V69.33h3.37v2.84H400v2.25h-2.66V78.3c0,.72.3,1.08.89,1.07a3.52,3.52,0,0,0,1.32-.33Z"/><path class="cls-1" d="M404.77,67.46a1.93,1.93,0,0,1,0,2.59,1.71,1.71,0,0,1-1.28.51,1.75,1.75,0,0,1-1.29-.51,1.93,1.93,0,0,1,0-2.59,1.75,1.75,0,0,1,1.29-.51A1.71,1.71,0,0,1,404.77,67.46Zm-3,4.22h3.37V82h-3.37Z"/><path class="cls-1" d="M412,70.69a1.07,1.07,0,0,0-.32.83v.65H414v2.25h-2.28V82h-3.36V74.42H407V72.17h1.39v-.94a3.23,3.23,0,0,1,1.09-2.58,4.18,4.18,0,0,1,2.81-.94,6.2,6.2,0,0,1,2.2.4L414,70.67a3.47,3.47,0,0,0-1.14-.26A1.29,1.29,0,0,0,412,70.69Zm6.21-3.23a1.93,1.93,0,0,1,0,2.59,1.71,1.71,0,0,1-1.28.51,1.75,1.75,0,0,1-1.29-.51,1.93,1.93,0,0,1,0-2.59A1.75,1.75,0,0,1,417,67,1.71,1.71,0,0,1,418.24,67.46Zm-3,4.22h3.37V82h-3.37Z"/><path class="cls-1" d="M425.83,74.36a1.83,1.83,0,0,0-1.48.69,2.75,2.75,0,0,0-.57,1.8,2.7,2.7,0,0,0,.57,1.8,1.83,1.83,0,0,0,1.48.69,2.09,2.09,0,0,0,2-1.16l2.49,1.42a4.25,4.25,0,0,1-1.83,1.83,5.94,5.94,0,0,1-2.85.64,5.75,5.75,0,0,1-2.77-.64A4.47,4.47,0,0,1,421,79.6a5.46,5.46,0,0,1-.66-2.73,5.76,5.76,0,0,1,.67-2.79,4.59,4.59,0,0,1,1.88-1.85,6.19,6.19,0,0,1,5.52,0A4.56,4.56,0,0,1,430.29,74l-2.45,1.42A2.31,2.31,0,0,0,425.83,74.36Z"/><path class="cls-1" d="M434.86,67.46a1.93,1.93,0,0,1,0,2.59,1.81,1.81,0,1,1,0-2.59Zm-3,4.22h3.37V82h-3.37Z"/><path class="cls-1" d="M445.76,72.53a3.4,3.4,0,0,1,1.2,2.74V82h-3.32V80.8a3.72,3.72,0,0,1-3.1,1.31,3.58,3.58,0,0,1-2.57-.88A3,3,0,0,1,437,78.9a2.74,2.74,0,0,1,1-2.28,4.66,4.66,0,0,1,2.92-.84h2.68v-.11a1.37,1.37,0,0,0-.51-1.14,2.26,2.26,0,0,0-1.45-.4,5.76,5.76,0,0,0-1.45.21,8.56,8.56,0,0,0-1.63.61l-.93-2.28a14.78,14.78,0,0,1,2.41-.84,10.34,10.34,0,0,1,2.38-.28A5,5,0,0,1,445.76,72.53Zm-2.84,6.92a1.61,1.61,0,0,0,.72-1v-.89h-2c-1,0-1.43.36-1.43,1.07a1,1,0,0,0,.37.84,1.54,1.54,0,0,0,1,.32A2.44,2.44,0,0,0,442.92,79.45Z"/><path class="cls-1" d="M449.34,67.86h3.37V82h-3.37Z"/></svg>