<svg id="Capa_1" data-name="Capa 1" xmlns="http://www.w3.org/2000/svg" viewBox="0 0 480.2 158.6"><defs><style>.cls-1{fill:#57068c;}.cls-2{fill:#5c068c;}</style></defs><title>catedra-ceoe-tenerife-original-01</title><path class="cls-1" d="M124.9,47.8a4.92,4.92,0,0,0-2-.5,4.28,4.28,0,0,0-2.2.6,4.1,4.1,0,0,0-1.6,1.6,4.38,4.38,0,0,0-.6,2.3,4.65,4.65,0,0,0,.6,2.3,4.1,4.1,0,0,0,1.6,1.6,4.28,4.28,0,0,0,2.2.6,4.49,4.49,0,0,0,1.9-.5,7.07,7.07,0,0,0,1.8-1.2l1.9,2a10.15,10.15,0,0,1-2.7,1.9,6.7,6.7,0,0,1-3.1.7,7,7,0,0,1-3.8-1,7.75,7.75,0,0,1-2.7-2.7,7,7,0,0,1-1-3.8,6.63,6.63,0,0,1,1-3.7,7.46,7.46,0,0,1,2.7-2.6,8.05,8.05,0,0,1,3.9-1,8.53,8.53,0,0,1,3.1.6,7.82,7.82,0,0,1,2.6,1.7L126.6,49A10.38,10.38,0,0,0,124.9,47.8Z"/><path class="cls-1" d="M136.7,59V57.7a3.81,3.81,0,0,1-1.4,1.1,6.47,6.47,0,0,1-2,.4,3.67,3.67,0,0,1-2.7-.9,3.17,3.17,0,0,1-1-2.5,3,3,0,0,1,1.1-2.4,4.77,4.77,0,0,1,3.1-.9h3v-.2a1.82,1.82,0,0,0-.6-1.4,2.86,2.86,0,0,0-1.7-.5,6.55,6.55,0,0,0-3.3,1l-1-2.2a20.83,20.83,0,0,1,2.4-1,9.52,9.52,0,0,1,2.5-.3,4.94,4.94,0,0,1,3.4,1,3.7,3.7,0,0,1,1.2,2.9v7.1h-3Zm-.9-2.6a1.41,1.41,0,0,0,.8-1.2v-1h-2.5a2.65,2.65,0,0,0-1.4.3,1,1,0,0,0-.4.9,1.23,1.23,0,0,0,.5,1,1.59,1.59,0,0,0,1.2.4A2.43,2.43,0,0,0,135.8,56.4Zm-.2-13,2.8,1.1-2.8,2.2-2.3-.2Z"/><path class="cls-1" d="M149.4,58.4c-.4.2-.9.4-1.4.6a7.72,7.72,0,0,1-1.5.2,3.66,3.66,0,0,1-2.5-.9,3,3,0,0,1-1-2.5V50.7h-1.5V48.5H143v-3h3.1v3h3v2.2h-3v4.5c0,.8.3,1.3,1,1.3a2.82,2.82,0,0,0,1.5-.4Z"/><path class="cls-1" d="M160,49.4a6.17,6.17,0,0,1,1.4,4.3v.7h-7.8a2.94,2.94,0,0,0,1,1.6,2.79,2.79,0,0,0,1.8.6,4,4,0,0,0,1.5-.3,3.81,3.81,0,0,0,1.3-.9l1.6,1.7a5.58,5.58,0,0,1-2,1.4,7.63,7.63,0,0,1-2.7.5,5.56,5.56,0,0,1-3-.7,4.82,4.82,0,0,1-2-2,5.69,5.69,0,0,1,2-7.8,6,6,0,0,1,6.9.9Zm-1.6,3.2a2.39,2.39,0,0,0-2.4-2.4,2.52,2.52,0,0,0-1.7.6,3.11,3.11,0,0,0-.9,1.7h5Z"/><path class="cls-1" d="M174.3,43.9V59h-3.1V57.4a3.74,3.74,0,0,1-1.5,1.3,4.21,4.21,0,0,1-2,.4,5,5,0,0,1-2.7-.7,4.38,4.38,0,0,1-1.8-2,7,7,0,0,1-.6-3,6.53,6.53,0,0,1,.6-2.9,4.76,4.76,0,0,1,4.5-2.7,4.14,4.14,0,0,1,3.5,1.7V43.7h3.1Zm-3.9,11.8a3.43,3.43,0,0,0,0-4.4,2.44,2.44,0,0,0-2-.8,2.79,2.79,0,0,0-2,.8,3.11,3.11,0,0,0-.8,2.2,3.29,3.29,0,0,0,.8,2.2,2.44,2.44,0,0,0,2,.8A2.08,2.08,0,0,0,170.4,55.7Z"/><path class="cls-1" d="M182.2,48.4a3.64,3.64,0,0,1,2.1-.5v3h-.5a3.37,3.37,0,0,0-2.3.8,2.52,2.52,0,0,0-.8,2.1V59h-3.1V48h3.1v2A4.63,4.63,0,0,1,182.2,48.4Z"/><path class="cls-1" d="M192.1,59V57.7a3.81,3.81,0,0,1-1.4,1.1,6.47,6.47,0,0,1-2,.4,3.67,3.67,0,0,1-2.7-.9,3.17,3.17,0,0,1-1-2.5,3,3,0,0,1,1.1-2.4,4.77,4.77,0,0,1,3.1-.9h3v-.2a1.82,1.82,0,0,0-.6-1.4,2.86,2.86,0,0,0-1.7-.5,6.55,6.55,0,0,0-3.3,1l-1-2.2a20.83,20.83,0,0,1,2.4-1,9.52,9.52,0,0,1,2.5-.3,4.94,4.94,0,0,1,3.4,1,3.7,3.7,0,0,1,1.2,2.9v7.1h-3Zm-.9-2.6a1.41,1.41,0,0,0,.8-1.2v-1h-2.5a2.65,2.65,0,0,0-1.4.3,1,1,0,0,0-.4.9,1.23,1.23,0,0,0,.5,1,1.59,1.59,0,0,0,1.2.4A2.43,2.43,0,0,0,191.2,56.4Z"/><path class="cls-1" d="M119.3,110.6a4.22,4.22,0,0,0,3.2,1.2,4.38,4.38,0,0,0,3.2-1.2,4.46,4.46,0,0,0,1.2-3.3V98.9h1.6v8.4a5.58,5.58,0,0,1-1.6,4.3,6.23,6.23,0,0,1-4.4,1.6,5.82,5.82,0,0,1-4.4-1.6,5.73,5.73,0,0,1-1.6-4.3V98.9h1.6v8.4A5.46,5.46,0,0,0,119.3,110.6Z"/><path class="cls-1" d="M141,103.5a4.33,4.33,0,0,1,1.1,3.1v6.6h-1.6V107a2.77,2.77,0,0,0-3-3,3.17,3.17,0,0,0-2.5,1,4.13,4.13,0,0,0-1.1,2.5v5.7h-1.6V102.5h1.6v2.4q1-2.4,4.2-2.4A3.58,3.58,0,0,1,141,103.5Z"/><path class="cls-1" d="M147.3,98.6a1.22,1.22,0,0,1,0,1.6,1,1,0,0,1-1.4,0,1.22,1.22,0,0,1,0-1.6.91.91,0,0,1,.7-.3A1.08,1.08,0,0,1,147.3,98.6Zm-1.5,3.9h1.6v10.7h-1.6Z"/><path class="cls-1" d="M149.4,102.5h1.7l3.4,9.1,3.4-9.1h1.6l-4.2,10.7h-1.6Z"/><path class="cls-1" d="M169.2,104a6.58,6.58,0,0,1,1.2,4.4h-8.7a3.61,3.61,0,0,0,1.3,2.5,4,4,0,0,0,2.6,1,3.66,3.66,0,0,0,1.8-.4,4,4,0,0,0,1.5-1l.9.9a4.31,4.31,0,0,1-1.9,1.3,6,6,0,0,1-2.4.5,5.3,5.3,0,0,1-2.8-.7,5.75,5.75,0,0,1-1.9-1.9,6,6,0,0,1,0-5.6,5,5,0,0,1,1.9-1.9,5.07,5.07,0,0,1,2.8-.7A4.32,4.32,0,0,1,169.2,104Zm-.2,3.1a4,4,0,0,0-1-2.5,3.49,3.49,0,0,0-2.5-.9,3.92,3.92,0,0,0-2.6.9,3.52,3.52,0,0,0-1.2,2.5Z"/><path class="cls-1" d="M176.3,103a4.14,4.14,0,0,1,2.3-.6v1.5a4,4,0,0,0-2.7.9,3.76,3.76,0,0,0-1.2,2.6v5.7h-1.6V102.4h1.6v2.4A9.34,9.34,0,0,1,176.3,103Z"/><path class="cls-1" d="M185.1,104a7.72,7.72,0,0,0-1.5-.2,2.41,2.41,0,0,0-1.5.4,1.15,1.15,0,0,0-.6,1.1,1.14,1.14,0,0,0,.3.8,2.18,2.18,0,0,0,.8.5c.3.1.8.3,1.3.5a11.32,11.32,0,0,1,1.8.7,3.45,3.45,0,0,1,1.2.9,2.54,2.54,0,0,1,.5,1.6,2.84,2.84,0,0,1-1.1,2.3,5.12,5.12,0,0,1-2.8.8,6.2,6.2,0,0,1-2.3-.4,5.93,5.93,0,0,1-1.9-1.1l.6-1.2a8.64,8.64,0,0,0,1.6,1,4.33,4.33,0,0,0,1.9.4,3.06,3.06,0,0,0,1.7-.4,1.5,1.5,0,0,0,0-2.4,9,9,0,0,0-1.9-.8,10.72,10.72,0,0,1-1.7-.6,3.13,3.13,0,0,1-1.1-.9,2.77,2.77,0,0,1,.6-3.8,4.53,4.53,0,0,1,2.7-.7,5.66,5.66,0,0,1,1.8.3,7.74,7.74,0,0,1,1.6.7l-.6,1.2A2.35,2.35,0,0,0,185.1,104Z"/><path class="cls-1" d="M191.7,98.6a1.22,1.22,0,0,1,0,1.6,1,1,0,0,1-1.4,0,1.22,1.22,0,0,1,0-1.6,1,1,0,0,1,1.4,0Zm-1.5,3.9h1.6v10.7h-1.6Z"/><path class="cls-1" d="M205.6,98.1v15.1H204v-2.3a4.42,4.42,0,0,1-4.2,2.4,5,5,0,0,1-2.7-.7,4.69,4.69,0,0,1-1.8-1.9,6.44,6.44,0,0,1-.7-2.8,5.07,5.07,0,0,1,.7-2.8,4.14,4.14,0,0,1,1.8-1.9,5,5,0,0,1,2.7-.7,5.14,5.14,0,0,1,2.5.6,4.24,4.24,0,0,1,1.7,1.8V98.2h1.6Zm-3.5,13.3a3.76,3.76,0,0,0,1.4-1.4,3.64,3.64,0,0,0,.5-2.1,4.65,4.65,0,0,0-.5-2.1,4,4,0,0,0-1.4-1.5,4.23,4.23,0,0,0-2-.5,4.55,4.55,0,0,0-2,.5,3.42,3.42,0,0,0-1.4,1.5,3.84,3.84,0,0,0-.5,2.1,4.65,4.65,0,0,0,.5,2.1,3.16,3.16,0,0,0,1.4,1.4,4.55,4.55,0,0,0,2,.5A4.23,4.23,0,0,0,202.1,111.4Z"/><path class="cls-1" d="M216.3,113.2v-1.7a4.51,4.51,0,0,1-3.9,1.7,3.81,3.81,0,0,1-1.9-.4,3.34,3.34,0,0,1-1.8-2.8,2.66,2.66,0,0,1,1.1-2.2,4.47,4.47,0,0,1,3-.8h3.5v-.7a2.49,2.49,0,0,0-.7-1.9,3.3,3.3,0,0,0-2.1-.7,6.11,6.11,0,0,0-3.4,1.2l-.7-1.1a10.76,10.76,0,0,1,2.1-1.1,7.55,7.55,0,0,1,2.3-.3,4,4,0,0,1,3,1,3.53,3.53,0,0,1,1.1,2.7v7.1Zm-1.3-1.9a3,3,0,0,0,1.3-1.8v-1.3H213c-1.8,0-2.7.6-2.7,1.7a1.51,1.51,0,0,0,.7,1.4,2.43,2.43,0,0,0,1.8.5A3.29,3.29,0,0,0,215,111.3Z"/><path class="cls-1" d="M231.3,98.1v15.1h-1.6v-2.3a4.42,4.42,0,0,1-4.2,2.4,5,5,0,0,1-2.7-.7,4.69,4.69,0,0,1-1.8-1.9,6.44,6.44,0,0,1-.7-2.8,5.07,5.07,0,0,1,.7-2.8,4.14,4.14,0,0,1,1.8-1.9,5,5,0,0,1,2.7-.7,5.14,5.14,0,0,1,2.5.6,4.24,4.24,0,0,1,1.7,1.8V98.2h1.6Zm-3.4,13.3a3.76,3.76,0,0,0,1.4-1.4,3.64,3.64,0,0,0,.5-2.1,4.65,4.65,0,0,0-.5-2.1,4,4,0,0,0-1.4-1.5,4.23,4.23,0,0,0-2-.5,4.55,4.55,0,0,0-2,.5,3.42,3.42,0,0,0-1.4,1.5,3.84,3.84,0,0,0-.5,2.1,4.65,4.65,0,0,0,.5,2.1,3.16,3.16,0,0,0,1.4,1.4,4.25,4.25,0,0,0,4,0Z"/><path class="cls-1" d="M251.5,98.1v15.1h-1.6v-2.3a4.42,4.42,0,0,1-4.2,2.4,5,5,0,0,1-2.7-.7,4.69,4.69,0,0,1-1.8-1.9,6.44,6.44,0,0,1-.7-2.8,5.07,5.07,0,0,1,.7-2.8,4.14,4.14,0,0,1,1.8-1.9,5,5,0,0,1,2.7-.7,5.14,5.14,0,0,1,2.5.6,4.24,4.24,0,0,1,1.7,1.8V98.2h1.6ZM248,111.4a3.76,3.76,0,0,0,1.4-1.4,3.64,3.64,0,0,0,.5-2.1,4.65,4.65,0,0,0-.5-2.1,4,4,0,0,0-1.4-1.5,4.23,4.23,0,0,0-2-.5,4.55,4.55,0,0,0-2,.5,3.42,3.42,0,0,0-1.4,1.5,3.84,3.84,0,0,0-.5,2.1,4.65,4.65,0,0,0,.5,2.1,3.16,3.16,0,0,0,1.4,1.4,4.25,4.25,0,0,0,4,0Z"/><path class="cls-1" d="M263.6,104a6.58,6.58,0,0,1,1.2,4.4H256a3.61,3.61,0,0,0,1.3,2.5,4,4,0,0,0,2.6,1,3.66,3.66,0,0,0,1.8-.4,4,4,0,0,0,1.5-1l.9.9a4.31,4.31,0,0,1-1.9,1.3,6,6,0,0,1-2.4.5,5.3,5.3,0,0,1-2.8-.7,5.75,5.75,0,0,1-1.9-1.9,6,6,0,0,1,0-5.6,5,5,0,0,1,1.9-1.9,5.07,5.07,0,0,1,2.8-.7A4.64,4.64,0,0,1,263.6,104Zm-.3,3.1a4,4,0,0,0-1-2.5,3.49,3.49,0,0,0-2.5-.9,3.92,3.92,0,0,0-2.6.9,3.52,3.52,0,0,0-1.2,2.5Z"/><path class="cls-1" d="M274,98.9h1.6v12.7h6.2v1.5H274Z"/><path class="cls-1" d="M291,113.2v-1.7a4.51,4.51,0,0,1-3.9,1.7,3.81,3.81,0,0,1-1.9-.4,3.34,3.34,0,0,1-1.8-2.8,2.66,2.66,0,0,1,1.1-2.2,4.47,4.47,0,0,1,3-.8H291v-.7a2.49,2.49,0,0,0-.7-1.9,3.3,3.3,0,0,0-2.1-.7,6.11,6.11,0,0,0-3.4,1.2l-.7-1.1a10.76,10.76,0,0,1,2.1-1.1,7.55,7.55,0,0,1,2.3-.3,4,4,0,0,1,3,1,3.53,3.53,0,0,1,1.1,2.7v7.1Zm-1.2-1.9a3,3,0,0,0,1.3-1.8v-1.3h-3.3c-1.8,0-2.7.6-2.7,1.7a1.51,1.51,0,0,0,.7,1.4,2.43,2.43,0,0,0,1.8.5A3.57,3.57,0,0,0,289.8,111.3Z"/><path class="cls-1" d="M302.7,98.9h1.6v12.7h6.2v1.5h-7.9V98.9Z"/><path class="cls-1" d="M319.7,113.2v-1.7a4.51,4.51,0,0,1-3.9,1.7,3.81,3.81,0,0,1-1.9-.4,3.34,3.34,0,0,1-1.8-2.8,2.66,2.66,0,0,1,1.1-2.2,4.47,4.47,0,0,1,3-.8h3.5v-.7a2.49,2.49,0,0,0-.7-1.9,3.3,3.3,0,0,0-2.1-.7,6.11,6.11,0,0,0-3.4,1.2l-.7-1.1a10.76,10.76,0,0,1,2.1-1.1,7.55,7.55,0,0,1,2.3-.3,4,4,0,0,1,3,1,3.53,3.53,0,0,1,1.1,2.7v7.1Zm-1.3-1.9a3,3,0,0,0,1.3-1.8v-1.3h-3.3c-1.8,0-2.7.6-2.7,1.7a1.51,1.51,0,0,0,.7,1.4,2.43,2.43,0,0,0,1.8.5A3.29,3.29,0,0,0,318.4,111.3Z"/><path class="cls-1" d="M334.2,102.5v9.6a5,5,0,0,1-.7,2.7,4.69,4.69,0,0,1-1.9,1.8,6.39,6.39,0,0,1-2.8.6,6.83,6.83,0,0,1-4.4-1.6l.7-1.2a4.25,4.25,0,0,0,1.7,1,5.82,5.82,0,0,0,1.9.3,3.71,3.71,0,0,0,2.8-1,3.62,3.62,0,0,0,1-2.7v-1.6a4.36,4.36,0,0,1-1.6,1.7,4.75,4.75,0,0,1-2.4.6,4.3,4.3,0,0,1-2.5-.7,4.9,4.9,0,0,1-1.7-1.8,6.38,6.38,0,0,1,0-5.4A4.24,4.24,0,0,1,326,103a5.28,5.28,0,0,1,2.6-.7,4.14,4.14,0,0,1,2.3.6,3.78,3.78,0,0,1,1.6,1.7v-2.2h1.7Zm-3.3,8.4a3,3,0,0,0,1.3-1.4,4.23,4.23,0,0,0,.5-2,4.55,4.55,0,0,0-.5-2,3.48,3.48,0,0,0-1.3-1.4,3.86,3.86,0,0,0-3.8,0,3,3,0,0,0-1.3,1.4,4.25,4.25,0,0,0,0,4,4.36,4.36,0,0,0,1.3,1.4,3.86,3.86,0,0,0,3.8,0Z"/><path class="cls-1" d="M347.2,102.5v10.7h-1.6v-2.4a4.05,4.05,0,0,1-4.1,2.5,4,4,0,0,1-2.9-1.1,4.33,4.33,0,0,1-1.1-3.1v-6.6h1.6v6.2a2.77,2.77,0,0,0,3,3,3.31,3.31,0,0,0,2.6-1.1,4.37,4.37,0,0,0,.9-2.9v-5.2Z"/><path class="cls-1" d="M359.9,103.5a4.33,4.33,0,0,1,1.1,3.1v6.6h-1.6V107a2.77,2.77,0,0,0-3-3,3.17,3.17,0,0,0-2.5,1,4.13,4.13,0,0,0-1.1,2.5v5.7h-1.6V102.5h1.6v2.4q1.05-2.4,4.2-2.4A3.58,3.58,0,0,1,359.9,103.5Z"/><path class="cls-1" d="M371.3,113.2v-1.7a4.51,4.51,0,0,1-3.9,1.7,3.81,3.81,0,0,1-1.9-.4,3.34,3.34,0,0,1-1.8-2.8,2.66,2.66,0,0,1,1.1-2.2,4.47,4.47,0,0,1,3-.8h3.5v-.7a2.49,2.49,0,0,0-.7-1.9,3.3,3.3,0,0,0-2.1-.7,6.11,6.11,0,0,0-3.4,1.2l-.7-1.1a10.76,10.76,0,0,1,2.1-1.1,7.55,7.55,0,0,1,2.3-.3,4,4,0,0,1,3,1,3.53,3.53,0,0,1,1.1,2.7v7.1Zm-1.3-1.9a3,3,0,0,0,1.3-1.8v-1.3H368c-1.8,0-2.7.6-2.7,1.7a1.51,1.51,0,0,0,.7,1.4,2.43,2.43,0,0,0,1.8.5A3.29,3.29,0,0,0,370,111.3Z"/><polygon class="cls-1" points="87.7 70.4 87.7 39.9 87.1 39.9 73.1 53.3 73.1 70.4 59.4 70.4 59.4 39.9 58.7 39.9 44.8 53.3 44.8 84.7 56.4 84.7 59.4 84.7 73.1 71.5 73.1 84.7 84.7 84.7 87.7 84.7 102 71 102 70.4 87.7 70.4"/><path class="cls-2" d="M212,48.11a4.28,4.28,0,0,0-2-.49,4.1,4.1,0,0,0-2.15.58,4.17,4.17,0,0,0-1.54,1.58,4.7,4.7,0,0,0,0,4.45,4.25,4.25,0,0,0,1.54,1.61,4.11,4.11,0,0,0,2.15.59,4.5,4.5,0,0,0,1.91-.46,6.15,6.15,0,0,0,1.74-1.2l1.85,2a8.5,8.5,0,0,1-2.62,1.84,7.26,7.26,0,0,1-3,.69,7.39,7.39,0,0,1-3.74-1,6.89,6.89,0,0,1-2.64-2.61,7.25,7.25,0,0,1-1-3.7,6.93,6.93,0,0,1,1-3.66,7,7,0,0,1,2.69-2.58,7.8,7.8,0,0,1,3.79-.94,7.85,7.85,0,0,1,5.51,2.34l-1.83,2.26A5.48,5.48,0,0,0,212,48.11Z"/><path class="cls-2" d="M217.4,45.08h10.65v2.63h-7.5v3h6.74v2.62h-6.74v3.11h7.73v2.61H217.4Z"/><path class="cls-2" d="M241.09,45.8a7.15,7.15,0,0,1,0,12.55,8.08,8.08,0,0,1-7.64,0,7.13,7.13,0,0,1-2.71-2.6,7.14,7.14,0,0,1,2.7-10,8.25,8.25,0,0,1,7.65,0Zm-5.93,2.41a4.31,4.31,0,0,0-1.59,1.61,4.53,4.53,0,0,0-.58,2.24,4.46,4.46,0,0,0,.59,2.26,4.57,4.57,0,0,0,1.59,1.62,4,4,0,0,0,2.14.6,4,4,0,0,0,2.13-.59A4.24,4.24,0,0,0,241,54.33a4.61,4.61,0,0,0,.57-2.27,4.52,4.52,0,0,0-.57-2.24,4.28,4.28,0,0,0-1.55-1.61,4,4,0,0,0-2.13-.59A4.07,4.07,0,0,0,235.16,48.21Z"/><path class="cls-2" d="M246.87,45.08h10.65v2.63H250v3h6.74v2.62H250v3.11h7.73v2.61H246.87Z"/><path class="cls-2" d="M259.83,51.94H265v2h-5.16Z"/><path class="cls-2" d="M266.27,45.08H278v2.68H273.7V59.08h-3.16V47.76h-4.27Z"/><path class="cls-2" d="M286.86,49.72a6,6,0,0,1,1.35,4.19c0,.32,0,.56,0,.73h-7.72a2.86,2.86,0,0,0,1,1.59,2.8,2.8,0,0,0,1.78.58,3.7,3.7,0,0,0,1.46-.3,3.65,3.65,0,0,0,1.26-.85l1.62,1.65a5.33,5.33,0,0,1-2,1.4,6.63,6.63,0,0,1-2.61.49,6.26,6.26,0,0,1-3-.68,4.77,4.77,0,0,1-2-1.92,6.29,6.29,0,0,1,0-5.75,4.94,4.94,0,0,1,2-1.94,5.91,5.91,0,0,1,2.89-.69A5,5,0,0,1,286.86,49.72Zm-1.55,3.1a2.42,2.42,0,0,0-.68-1.7,2.28,2.28,0,0,0-1.7-.64,2.36,2.36,0,0,0-1.67.63,2.9,2.9,0,0,0-.84,1.71Z"/><path class="cls-2" d="M299.89,49.32a4.14,4.14,0,0,1,1.07,3v6.76h-3.07V53.22a2.17,2.17,0,0,0-.58-1.6,2,2,0,0,0-1.54-.59,2.3,2.3,0,0,0-1.81.78,3,3,0,0,0-.65,2v5.3h-3.08V48.32h3.08v1.89a4,4,0,0,1,3.72-2A3.8,3.8,0,0,1,299.89,49.32Z"/><path class="cls-2" d="M312.19,49.72a6,6,0,0,1,1.35,4.19c0,.32,0,.56,0,.73h-7.71a2.81,2.81,0,0,0,1,1.59,2.75,2.75,0,0,0,1.77.58,3.88,3.88,0,0,0,2.72-1.15l1.62,1.65a5.33,5.33,0,0,1-2,1.4,6.62,6.62,0,0,1-2.6.49,6.2,6.2,0,0,1-3-.68,4.79,4.79,0,0,1-2-1.92,6.29,6.29,0,0,1,0-5.75,5,5,0,0,1,2-1.94,5.9,5.9,0,0,1,2.88-.69A5,5,0,0,1,312.19,49.72Zm-1.55,3.1a2.42,2.42,0,0,0-.68-1.7,2.26,2.26,0,0,0-1.69-.64,2.34,2.34,0,0,0-1.67.63,2.85,2.85,0,0,0-.85,1.71Z"/><path class="cls-2" d="M320.1,48.74a4.41,4.41,0,0,1,2.09-.54v2.9l-.48,0a3.17,3.17,0,0,0-2.24.77,2.68,2.68,0,0,0-.83,2.06v5.17h-3.08V48.32h3.08v1.94A3.89,3.89,0,0,1,320.1,48.74Z"/><path class="cls-2" d="M326.62,44a1.71,1.71,0,0,1,.46,1.24,1.68,1.68,0,0,1-.46,1.24,1.64,1.64,0,0,1-1.21.48,1.58,1.58,0,0,1-1.2-.49,1.69,1.69,0,0,1-.46-1.23,1.71,1.71,0,0,1,.46-1.24,1.64,1.64,0,0,1,1.2-.47A1.67,1.67,0,0,1,326.62,44Zm-2.75,4.3H327V59.08h-3.08Z"/><path class="cls-2" d="M333.9,47a1.21,1.21,0,0,0-.36.94v.9h2.54v2.14h-2.54v8.14h-3.06V50.94H329V48.8h1.44v-1a3.65,3.65,0,0,1,.53-2,3.43,3.43,0,0,1,1.43-1.26,4.69,4.69,0,0,1,2-.43,5.76,5.76,0,0,1,2.13.44l-.47,2.4-.64-.21a2.53,2.53,0,0,0-.64-.09A1.36,1.36,0,0,0,333.9,47Z"/><path class="cls-2" d="M345.87,49.72a6,6,0,0,1,1.35,4.19c0,.32,0,.56,0,.73h-7.71a2.81,2.81,0,0,0,1,1.59,2.75,2.75,0,0,0,1.77.58,3.72,3.72,0,0,0,1.47-.3,3.84,3.84,0,0,0,1.26-.85l1.62,1.65a5.36,5.36,0,0,1-2,1.4,6.62,6.62,0,0,1-2.6.49,6.2,6.2,0,0,1-3-.68,4.71,4.71,0,0,1-2-1.92,5.67,5.67,0,0,1-.7-2.86,5.89,5.89,0,0,1,.7-2.89,5,5,0,0,1,2-1.94,5.9,5.9,0,0,1,2.88-.69A5,5,0,0,1,345.87,49.72Zm-1.55,3.1a2.42,2.42,0,0,0-.68-1.7,2.26,2.26,0,0,0-1.69-.64,2.34,2.34,0,0,0-1.67.63,2.91,2.91,0,0,0-.85,1.71Z"/><path class="cls-2" d="M115.75,71h10.66V73.6h-7.5v3h6.74v2.62h-6.74v3.11h7.72V85H115.75Z"/><path class="cls-2" d="M146.12,75.2a4.21,4.21,0,0,1,1,3V85h-3.06V79.11a2.22,2.22,0,0,0-.56-1.61,2,2,0,0,0-1.52-.58,2.21,2.21,0,0,0-1.74.77,2.93,2.93,0,0,0-.64,2V85h-3.06V79.11a2.24,2.24,0,0,0-.55-1.6,1.94,1.94,0,0,0-1.51-.59,2.25,2.25,0,0,0-1.75.77,2.93,2.93,0,0,0-.65,2V85h-3.08V74.21h3.08v1.87a4.35,4.35,0,0,1,5.94-1.34,3.56,3.56,0,0,1,1.33,1.83,4,4,0,0,1,1.51-1.84,4.63,4.63,0,0,1,2.38-.64A3.71,3.71,0,0,1,146.12,75.2Z"/><path class="cls-2" d="M159.05,74.8a4.67,4.67,0,0,1,1.78,2,6.41,6.41,0,0,1,.63,2.9,6.29,6.29,0,0,1-.62,2.85,4.5,4.5,0,0,1-1.75,1.91,5,5,0,0,1-2.63.68,4.35,4.35,0,0,1-2-.43A4,4,0,0,1,153,83.41v5.44h-3.08V74.21H153v1.58a3.88,3.88,0,0,1,1.45-1.25,4.43,4.43,0,0,1,2-.43A5.06,5.06,0,0,1,159.05,74.8Zm-1.45,6.9a3.46,3.46,0,0,0,0-4.28,2.47,2.47,0,0,0-1.92-.83,2.5,2.5,0,0,0-1.93.83,3.44,3.44,0,0,0,0,4.29,2.5,2.5,0,0,0,1.93.82A2.47,2.47,0,0,0,157.6,81.7Z"/><path class="cls-2" d="M168,74.63a4.42,4.42,0,0,1,2.1-.54V77l-.48,0a3.22,3.22,0,0,0-2.25.77,2.68,2.68,0,0,0-.83,2.06V85H163.5V74.21h3.07v1.94A3.89,3.89,0,0,1,168,74.63Z"/><path class="cls-2" d="M180.37,75.61a6,6,0,0,1,1.35,4.19c0,.32,0,.56,0,.73H174a2.78,2.78,0,0,0,2.78,2.17,3.88,3.88,0,0,0,2.72-1.15l1.62,1.65a5.33,5.33,0,0,1-2,1.4,6.63,6.63,0,0,1-2.61.49,6.19,6.19,0,0,1-3-.68,4.79,4.79,0,0,1-2-1.92,6.29,6.29,0,0,1,0-5.75,5,5,0,0,1,2-1.94,5.9,5.9,0,0,1,2.88-.69A5,5,0,0,1,180.37,75.61Zm-1.55,3.1a2.44,2.44,0,0,0-.68-1.7,2.28,2.28,0,0,0-1.69-.64,2.34,2.34,0,0,0-1.67.63,2.85,2.85,0,0,0-.85,1.71Z"/><path class="cls-2" d="M188.78,76.6a5.21,5.21,0,0,0-1.54-.27,1.82,1.82,0,0,0-.9.2.64.64,0,0,0-.34.6.74.74,0,0,0,.46.68,8.39,8.39,0,0,0,1.5.54,14.39,14.39,0,0,1,1.88.68,3.46,3.46,0,0,1,1.28,1,2.57,2.57,0,0,1,.54,1.7,2.89,2.89,0,0,1-1.23,2.49,5.26,5.26,0,0,1-3.15.89,8.28,8.28,0,0,1-2.54-.39,6.66,6.66,0,0,1-2.12-1.1l1-2.08a6.24,6.24,0,0,0,1.83,1,5.93,5.93,0,0,0,1.91.34,2.09,2.09,0,0,0,1-.21.67.67,0,0,0,.37-.63.79.79,0,0,0-.47-.71,8.25,8.25,0,0,0-1.51-.57,13.05,13.05,0,0,1-1.83-.64,3.17,3.17,0,0,1-1.25-1,2.6,2.6,0,0,1-.52-1.69,2.91,2.91,0,0,1,1.2-2.48,5,5,0,0,1,3-.88,8.42,8.42,0,0,1,2.21.31,7.06,7.06,0,0,1,2,.9l-1,2.1A9.43,9.43,0,0,0,188.78,76.6Z"/><path class="cls-2" d="M200,85V83.71a3.27,3.27,0,0,1-1.4,1,5.16,5.16,0,0,1-2,.36,3.78,3.78,0,0,1-2.69-.93,3.15,3.15,0,0,1-1-2.43,2.86,2.86,0,0,1,1.07-2.37,4.91,4.91,0,0,1,3-.87h3v-.2a1.66,1.66,0,0,0-.56-1.33,2.6,2.6,0,0,0-1.67-.46,6.73,6.73,0,0,0-3.21.93l-.95-2.12a12.46,12.46,0,0,1,2.4-.94,9.53,9.53,0,0,1,2.46-.3,5,5,0,0,1,3.35,1A3.6,3.6,0,0,1,203,78l0,7Zm-.86-2.52a1.77,1.77,0,0,0,.83-1.16v-1h-2.41a2.45,2.45,0,0,0-1.33.29,1,1,0,0,0-.44.93,1.2,1.2,0,0,0,.46,1,1.85,1.85,0,0,0,1.22.37A3,3,0,0,0,199.09,82.45Z"/><path class="cls-2" d="M212.9,89a4.56,4.56,0,0,1-1.56-.26A4.63,4.63,0,0,1,210,88l1.3-2.22a2.18,2.18,0,0,0,1.4.58,1.48,1.48,0,0,0,1.42-1l.3-.6-4.46-10.54h3.18l2.82,7.4,2.54-7.4h3.07l-4.71,12A4,4,0,0,1,212.9,89Z"/><path class="cls-2" d="M237.55,85l-2.22-4h-3.22v4H229V71H235a6.35,6.35,0,0,1,4.24,1.27,4.43,4.43,0,0,1,1.5,3.59,5.36,5.36,0,0,1-.67,2.77,4.22,4.22,0,0,1-1.95,1.75l3,4.62Zm-5.44-6.64H235a3,3,0,0,0,2-.61,2.21,2.21,0,0,0,.71-1.79,2.12,2.12,0,0,0-.71-1.75,3.11,3.11,0,0,0-2-.58h-2.92Z"/><path class="cls-2" d="M251.93,75.61a6,6,0,0,1,1.35,4.19,7.21,7.21,0,0,1,0,.73h-7.71a2.75,2.75,0,0,0,2.77,2.17,3.72,3.72,0,0,0,1.47-.3,3.84,3.84,0,0,0,1.26-.85l1.62,1.65a5.36,5.36,0,0,1-2,1.4,6.62,6.62,0,0,1-2.6.49,6.2,6.2,0,0,1-3-.68,4.71,4.71,0,0,1-2-1.92,5.67,5.67,0,0,1-.7-2.86,5.78,5.78,0,0,1,.71-2.89,4.88,4.88,0,0,1,2-1.94,5.9,5.9,0,0,1,2.88-.69A5,5,0,0,1,251.93,75.61Zm-1.55,3.1a2.39,2.39,0,0,0-.68-1.7,2.26,2.26,0,0,0-1.69-.64,2.34,2.34,0,0,0-1.67.63,2.91,2.91,0,0,0-.85,1.71Z"/><path class="cls-2" d="M255.4,70.13h3.08V85H255.4Z"/><path class="cls-2" d="M267.8,85V83.71a3.21,3.21,0,0,1-1.4,1,5.1,5.1,0,0,1-2,.36,3.79,3.79,0,0,1-2.7-.93,3.19,3.19,0,0,1-1-2.43,2.86,2.86,0,0,1,1.07-2.37,4.94,4.94,0,0,1,3-.87h2.95v-.2a1.66,1.66,0,0,0-.56-1.33,2.6,2.6,0,0,0-1.67-.46,6.76,6.76,0,0,0-3.21.93l-.95-2.12a12.46,12.46,0,0,1,2.4-.94,9.53,9.53,0,0,1,2.46-.3,5,5,0,0,1,3.35,1A3.6,3.6,0,0,1,270.8,78l0,7Zm-.86-2.52a1.77,1.77,0,0,0,.83-1.16v-1h-2.41a2.45,2.45,0,0,0-1.33.29,1,1,0,0,0-.44.93,1.23,1.23,0,0,0,.46,1,1.85,1.85,0,0,0,1.22.37A3,3,0,0,0,266.94,82.45Z"/><path class="cls-2" d="M278.25,76.73a2.45,2.45,0,0,0-1.89.79,3,3,0,0,0-.72,2.09,3.09,3.09,0,0,0,.71,2.11,2.36,2.36,0,0,0,1.84.81,2.77,2.77,0,0,0,2.5-1.26l2.12,1.45a4.5,4.5,0,0,1-1.91,1.75,6.35,6.35,0,0,1-2.87.62,5.9,5.9,0,0,1-2.86-.68,4.88,4.88,0,0,1-1.93-1.92,5.77,5.77,0,0,1-.69-2.86,5.88,5.88,0,0,1,.69-2.89,4.92,4.92,0,0,1,1.95-1.94,5.86,5.86,0,0,1,2.89-.69,6.17,6.17,0,0,1,2.74.59,5,5,0,0,1,1.92,1.67l-2.08,1.5A3,3,0,0,0,278.25,76.73Z"/><path class="cls-2" d="M287.48,69.91a1.72,1.72,0,0,1,.47,1.24,1.69,1.69,0,0,1-.47,1.24,1.62,1.62,0,0,1-1.21.48,1.56,1.56,0,0,1-1.19-.49,1.7,1.7,0,0,1-.47-1.23,1.72,1.72,0,0,1,.47-1.24,1.58,1.58,0,0,1,1.19-.47A1.61,1.61,0,0,1,287.48,69.91Zm-2.74,4.3h3.07V85h-3.07Z"/><path class="cls-2" d="M298.64,74.79a4.89,4.89,0,0,1,2,1.92,6.1,6.1,0,0,1,0,5.75,4.93,4.93,0,0,1-2,1.94,7,7,0,0,1-6,0,4.93,4.93,0,0,1-2-1.94,6,6,0,0,1,0-5.75,4.89,4.89,0,0,1,2-1.92,7,7,0,0,1,6,0Zm-5,2.7a3.43,3.43,0,0,0,0,4.28,2.7,2.7,0,0,0,3.88,0,3.43,3.43,0,0,0,0-4.28,2.7,2.7,0,0,0-3.88,0Z"/><path class="cls-2" d="M313.09,75.21a4.19,4.19,0,0,1,1.07,3V85h-3.08V79.11a2.21,2.21,0,0,0-.57-1.6,2,2,0,0,0-1.54-.59,2.3,2.3,0,0,0-1.81.78,2.91,2.91,0,0,0-.66,2V85h-3.07V74.21h3.07V76.1a4,4,0,0,1,3.73-2A3.8,3.8,0,0,1,313.09,75.21Z"/><path class="cls-2" d="M325.39,75.61a6,6,0,0,1,1.35,4.19c0,.32,0,.56,0,.73H319a2.78,2.78,0,0,0,2.78,2.17,3.88,3.88,0,0,0,2.72-1.15l1.62,1.65a5.33,5.33,0,0,1-2,1.4,6.63,6.63,0,0,1-2.61.49,6.19,6.19,0,0,1-3-.68,4.74,4.74,0,0,1-2-1.92,6.29,6.29,0,0,1,0-5.75,5,5,0,0,1,2-1.94,5.9,5.9,0,0,1,2.88-.69A5,5,0,0,1,325.39,75.61Zm-1.55,3.1a2.44,2.44,0,0,0-.68-1.7,2.28,2.28,0,0,0-1.69-.64,2.34,2.34,0,0,0-1.67.63,2.85,2.85,0,0,0-.85,1.71Z"/><path class="cls-2" d="M333.8,76.6a5.21,5.21,0,0,0-1.54-.27,1.77,1.77,0,0,0-.9.2.64.64,0,0,0-.34.6.75.75,0,0,0,.45.68,8.88,8.88,0,0,0,1.51.54,14.39,14.39,0,0,1,1.88.68,3.46,3.46,0,0,1,1.28,1,2.57,2.57,0,0,1,.54,1.7,2.89,2.89,0,0,1-1.23,2.49,5.28,5.28,0,0,1-3.16.89,8.26,8.26,0,0,1-2.53-.39,6.66,6.66,0,0,1-2.12-1.1l1-2.08a6.24,6.24,0,0,0,1.83,1,5.93,5.93,0,0,0,1.91.34,2,2,0,0,0,1-.21.67.67,0,0,0,.38-.63.79.79,0,0,0-.47-.71,8.25,8.25,0,0,0-1.51-.57,13.05,13.05,0,0,1-1.83-.64,3.17,3.17,0,0,1-1.25-1,2.61,2.61,0,0,1-.53-1.69A2.89,2.89,0,0,1,329.36,75a5,5,0,0,1,3-.88,8.29,8.29,0,0,1,2.2.31,7,7,0,0,1,2,.9l-1,2.1A9.43,9.43,0,0,0,333.8,76.6Z"/><path class="cls-2" d="M344.79,71h3.15V82.21h6V85h-9.16Z"/><path class="cls-2" d="M362,85V83.71a3.27,3.27,0,0,1-1.4,1,5.16,5.16,0,0,1-2,.36,3.78,3.78,0,0,1-2.69-.93,3.15,3.15,0,0,1-1-2.43A2.86,2.86,0,0,1,356,79.38a4.91,4.91,0,0,1,3-.87h3v-.2a1.66,1.66,0,0,0-.56-1.33,2.6,2.6,0,0,0-1.67-.46,6.73,6.73,0,0,0-3.21.93l-.95-2.12a12.46,12.46,0,0,1,2.4-.94,9.53,9.53,0,0,1,2.46-.3,5,5,0,0,1,3.35,1A3.6,3.6,0,0,1,365,78l0,7Zm-.86-2.52a1.77,1.77,0,0,0,.83-1.16v-1h-2.41a2.45,2.45,0,0,0-1.33.29,1,1,0,0,0-.44.93,1.2,1.2,0,0,0,.46,1,1.85,1.85,0,0,0,1.22.37A3,3,0,0,0,361.14,82.45Z"/><path class="cls-2" d="M376.9,74.8a4.67,4.67,0,0,1,1.78,2,6.41,6.41,0,0,1,.63,2.9,6.29,6.29,0,0,1-.62,2.85,4.5,4.5,0,0,1-1.75,1.91,5,5,0,0,1-2.63.68,4.38,4.38,0,0,1-2-.43,4,4,0,0,1-1.47-1.25V85h-3.08V70.13h3.08v5.66a3.88,3.88,0,0,1,1.45-1.25,4.43,4.43,0,0,1,1.95-.43A5.06,5.06,0,0,1,376.9,74.8Zm-1.45,6.9a3.46,3.46,0,0,0,0-4.28,2.46,2.46,0,0,0-1.91-.83,2.51,2.51,0,0,0-1.94.83,3.44,3.44,0,0,0,0,4.29,2.5,2.5,0,0,0,1.94.82A2.46,2.46,0,0,0,375.45,81.7Z"/><path class="cls-2" d="M389.21,74.79a4.85,4.85,0,0,1,2,1.92,6.18,6.18,0,0,1,0,5.75,4.9,4.9,0,0,1-2,1.94,6.36,6.36,0,0,1-3,.69,6.45,6.45,0,0,1-3-.69,4.93,4.93,0,0,1-2-1.94,6.1,6.1,0,0,1,0-5.75,4.89,4.89,0,0,1,2-1.92,6.56,6.56,0,0,1,3-.68A6.48,6.48,0,0,1,389.21,74.79Zm-5,2.7a3.46,3.46,0,0,0,0,4.28,2.51,2.51,0,0,0,1.95.82,2.48,2.48,0,0,0,1.93-.82,3.39,3.39,0,0,0,0-4.28,2.51,2.51,0,0,0-1.93-.82A2.54,2.54,0,0,0,384.25,77.49Z"/><path class="cls-2" d="M398.54,74.63a4.41,4.41,0,0,1,2.09-.54V77l-.47,0a3.18,3.18,0,0,0-2.25.77,2.68,2.68,0,0,0-.83,2.06V85H394V74.21h3.08v1.94A3.89,3.89,0,0,1,398.54,74.63Z"/><path class="cls-2" d="M408.21,85V83.71a3.27,3.27,0,0,1-1.4,1,5.12,5.12,0,0,1-2,.36,3.78,3.78,0,0,1-2.69-.93,3.15,3.15,0,0,1-1-2.43,2.86,2.86,0,0,1,1.07-2.37,4.93,4.93,0,0,1,3-.87h3v-.2a1.63,1.63,0,0,0-.56-1.33,2.6,2.6,0,0,0-1.67-.46,6.73,6.73,0,0,0-3.21.93l-.95-2.12a12.46,12.46,0,0,1,2.4-.94,9.53,9.53,0,0,1,2.46-.3,5,5,0,0,1,3.35,1A3.6,3.6,0,0,1,411.21,78l0,7Zm-.86-2.52a1.77,1.77,0,0,0,.83-1.16v-1h-2.41a2.45,2.45,0,0,0-1.33.29,1,1,0,0,0-.44.93,1.23,1.23,0,0,0,.46,1,1.85,1.85,0,0,0,1.22.37A3,3,0,0,0,407.35,82.45Z"/><path class="cls-2" d="M414,70.13h3.08V85H414Z"/><path class="cls-2" d="M428.71,75.61a6,6,0,0,1,1.35,4.19c0,.32,0,.56,0,.73h-7.72a2.78,2.78,0,0,0,2.78,2.17,3.88,3.88,0,0,0,2.72-1.15l1.62,1.65a5.33,5.33,0,0,1-2,1.4,6.63,6.63,0,0,1-2.61.49,6.19,6.19,0,0,1-3-.68,4.74,4.74,0,0,1-2-1.92,6.29,6.29,0,0,1,0-5.75,4.94,4.94,0,0,1,2-1.94,5.91,5.91,0,0,1,2.89-.69A5,5,0,0,1,428.71,75.61Zm-1.55,3.1a2.44,2.44,0,0,0-.68-1.7,2.28,2.28,0,0,0-1.69-.64,2.33,2.33,0,0,0-1.67.63,2.85,2.85,0,0,0-.85,1.71Z"/><path class="cls-2" d="M437.12,76.6a5.21,5.21,0,0,0-1.54-.27,1.82,1.82,0,0,0-.9.2.64.64,0,0,0-.34.6.75.75,0,0,0,.45.68,8.88,8.88,0,0,0,1.51.54,14.39,14.39,0,0,1,1.88.68,3.46,3.46,0,0,1,1.28,1,2.57,2.57,0,0,1,.54,1.7,2.89,2.89,0,0,1-1.23,2.49,5.26,5.26,0,0,1-3.15.89,8.28,8.28,0,0,1-2.54-.39A6.66,6.66,0,0,1,431,83.6l1-2.08a6.24,6.24,0,0,0,1.83,1,5.93,5.93,0,0,0,1.91.34,2,2,0,0,0,1-.21.67.67,0,0,0,.38-.63.79.79,0,0,0-.47-.71,8.25,8.25,0,0,0-1.51-.57,13.05,13.05,0,0,1-1.83-.64,3.17,3.17,0,0,1-1.25-1,2.61,2.61,0,0,1-.53-1.69A2.92,2.92,0,0,1,432.68,75a5,5,0,0,1,3-.88,8.42,8.42,0,0,1,2.21.31,7.06,7.06,0,0,1,2,.9l-1.05,2.1A9.43,9.43,0,0,0,437.12,76.6Z"/></svg>