<?xml version="1.0" encoding="utf-8"?>
<!-- Generator: Adobe Illustrator 23.0.6, SVG Export Plug-In . SVG Version: 6.00 Build 0)  -->
<svg version="1.1" id="Capa_1" xmlns="http://www.w3.org/2000/svg" xmlns:xlink="http://www.w3.org/1999/xlink" x="0px" y="0px"
	 viewBox="0 0 500.4 162.7" style="enable-background:new 0 0 500.4 162.7;" xml:space="preserve">
<style type="text/css">
	.st0{fill:#5C068C;}
</style>
<g>
	<g>
		<path class="st0" d="M135.3,51.8c-0.7-0.3-1.3-0.5-2-0.5c-0.8,0-1.5,0.2-2.2,0.6c-0.7,0.4-1.2,0.9-1.6,1.6
			c-0.4,0.7-0.6,1.4-0.6,2.3c0,0.8,0.2,1.6,0.6,2.3s0.9,1.2,1.6,1.6c0.7,0.4,1.4,0.6,2.2,0.6c0.6,0,1.3-0.2,1.9-0.5
			c0.7-0.3,1.2-0.7,1.8-1.2l1.9,2c-0.8,0.8-1.7,1.4-2.7,1.9s-2,0.7-3.1,0.7c-1.4,0-2.7-0.3-3.8-1s-2-1.5-2.7-2.7
			c-0.7-1.1-1-2.4-1-3.8c0-1.4,0.3-2.6,1-3.7c0.7-1.1,1.6-2,2.7-2.6s2.4-1,3.9-1c1,0,2.1,0.2,3.1,0.6s1.9,1,2.6,1.7L137,53
			C136.5,52.6,136,52.2,135.3,51.8z"/>
		<path class="st0" d="M147.1,63v-1.3c-0.4,0.5-0.8,0.8-1.4,1.1c-0.6,0.2-1.3,0.4-2,0.4c-1.2,0-2.1-0.3-2.7-0.9
			c-0.7-0.6-1-1.5-1-2.5s0.4-1.8,1.1-2.4c0.7-0.6,1.8-0.9,3.1-0.9h3v-0.2c0-0.6-0.2-1-0.6-1.4c-0.4-0.3-1-0.5-1.7-0.5
			c-1,0-2.1,0.3-3.3,1l-1-2.2c0.9-0.4,1.7-0.8,2.4-1s1.6-0.3,2.5-0.3c1.5,0,2.6,0.3,3.4,1c0.8,0.7,1.2,1.7,1.2,2.9v7.1h-3V63z
			 M146.3,60.4c0.5-0.3,0.8-0.7,0.8-1.2v-1h-2.5c-0.6,0-1.1,0.1-1.4,0.3s-0.4,0.5-0.4,0.9s0.2,0.8,0.5,1c0.3,0.3,0.7,0.4,1.2,0.4
			C145.2,60.9,145.8,60.8,146.3,60.4z M146,47.4l2.8,1.1l-2.8,2.2l-2.3-0.2L146,47.4z"/>
		<path class="st0" d="M159.8,62.4c-0.4,0.2-0.9,0.4-1.4,0.6c-0.5,0.1-1,0.2-1.5,0.2c-1,0-1.8-0.3-2.5-0.9s-1-1.4-1-2.5v-5.1H152
			v-2.2h1.5v-3h3.1v3h3v2.2h-3v4.5c0,0.8,0.3,1.3,1,1.3c0.5,0,1-0.1,1.5-0.4L159.8,62.4z"/>
		<path class="st0" d="M170.4,53.5c0.9,1,1.4,2.4,1.4,4.3c0,0.3,0,0.6,0,0.7H164c0.2,0.7,0.5,1.2,1,1.6c0.5,0.4,1.1,0.6,1.8,0.6
			c0.5,0,1-0.1,1.5-0.3s0.9-0.5,1.3-0.9l1.6,1.7c-0.6,0.6-1.2,1.1-2,1.4c-0.8,0.3-1.7,0.5-2.7,0.5c-1.2,0-2.2-0.2-3-0.7
			c-0.9-0.5-1.5-1.1-2-2c-0.5-0.8-0.7-1.8-0.7-2.9c0-1.1,0.2-2.1,0.7-2.9c0.5-0.8,1.1-1.5,2-2s1.8-0.7,2.9-0.7
			C168.2,52,169.5,52.5,170.4,53.5z M168.8,56.6c0-0.7-0.3-1.3-0.7-1.7s-1-0.7-1.7-0.7s-1.2,0.2-1.7,0.6s-0.7,1-0.9,1.7h5V56.6z"/>
		<path class="st0" d="M184.8,47.9V63h-3.1v-1.6c-0.4,0.6-0.9,1-1.5,1.3s-1.2,0.4-2,0.4c-1,0-1.9-0.2-2.7-0.7s-1.4-1.1-1.8-2
			c-0.4-0.9-0.6-1.8-0.6-3c0-1.1,0.2-2.1,0.6-2.9s1-1.5,1.8-2s1.7-0.7,2.7-0.7c1.5,0,2.7,0.6,3.5,1.7v-5.8h3.1V47.9z M180.9,59.8
			c0.5-0.6,0.8-1.3,0.8-2.2s-0.3-1.6-0.8-2.2c-0.5-0.6-1.2-0.8-2-0.8s-1.5,0.3-2,0.8s-0.8,1.3-0.8,2.2s0.3,1.6,0.8,2.2
			s1.2,0.8,2,0.8S180.4,60.3,180.9,59.8z"/>
		<path class="st0" d="M192.6,52.5c0.6-0.4,1.3-0.5,2.1-0.5v3c-0.1,0-0.3,0-0.5,0c-1,0-1.7,0.3-2.3,0.8s-0.8,1.2-0.8,2.1V63H188V52
			h3.1v2C191.5,53.4,192,52.8,192.6,52.5z"/>
		<path class="st0" d="M202.5,63v-1.3c-0.4,0.5-0.8,0.8-1.4,1.1c-0.6,0.2-1.3,0.4-2,0.4c-1.2,0-2.1-0.3-2.7-0.9
			c-0.7-0.6-1-1.5-1-2.5s0.4-1.8,1.1-2.4c0.7-0.6,1.8-0.9,3.1-0.9h3v-0.2c0-0.6-0.2-1-0.6-1.4c-0.4-0.3-1-0.5-1.7-0.5
			c-1,0-2.1,0.3-3.3,1l-1-2.2c0.9-0.4,1.7-0.8,2.4-1s1.6-0.3,2.5-0.3c1.5,0,2.6,0.3,3.4,1c0.8,0.7,1.2,1.7,1.2,2.9v7.1h-3V63z
			 M201.7,60.4c0.5-0.3,0.8-0.7,0.8-1.2v-1H200c-0.6,0-1.1,0.1-1.4,0.3s-0.4,0.5-0.4,0.9s0.2,0.8,0.5,1c0.3,0.3,0.7,0.4,1.2,0.4
			C200.6,60.9,201.2,60.8,201.7,60.4z"/>
		<path class="st0" d="M129.8,114.7c0.8,0.8,1.8,1.2,3.2,1.2c1.3,0,2.4-0.4,3.2-1.2c0.8-0.8,1.2-1.9,1.2-3.3V103h1.6v8.4
			c0,1.8-0.5,3.3-1.6,4.3s-2.5,1.6-4.4,1.6s-3.3-0.5-4.4-1.6s-1.6-2.5-1.6-4.3V103h1.6v8.4C128.6,112.8,129,113.9,129.8,114.7z"/>
		<path class="st0" d="M151.5,107.6c0.7,0.7,1.1,1.8,1.1,3.1v6.6H151V111c0-0.9-0.3-1.7-0.8-2.2s-1.3-0.8-2.2-0.8
			c-1,0-1.9,0.3-2.5,1c-0.6,0.6-1,1.5-1.1,2.5v5.7h-1.6v-10.7h1.6v2.4c0.7-1.6,2.1-2.4,4.2-2.4C149.8,106.4,150.8,106.8,151.5,107.6
			z"/>
		<path class="st0" d="M157.7,102.6c0.2,0.2,0.3,0.5,0.3,0.8s-0.1,0.6-0.3,0.8c-0.2,0.2-0.4,0.3-0.7,0.3s-0.5-0.1-0.7-0.3
			c-0.2-0.2-0.3-0.5-0.3-0.8s0.1-0.6,0.3-0.8c0.2-0.2,0.4-0.3,0.7-0.3C157.3,102.3,157.5,102.4,157.7,102.6z M156.2,106.5h1.6v10.7
			h-1.6V106.5z"/>
		<path class="st0" d="M159.9,106.5h1.7l3.4,9.1l3.4-9.1h1.6l-4.2,10.7h-1.6L159.9,106.5z"/>
		<path class="st0" d="M179.7,108.1c0.9,1.1,1.2,2.5,1.2,4.4h-8.7c0.1,1.1,0.6,1.9,1.3,2.5s1.6,1,2.6,1c0.6,0,1.3-0.1,1.8-0.4
			c0.6-0.2,1.1-0.6,1.5-1l0.9,0.9c-0.5,0.6-1.1,1-1.9,1.3c-0.7,0.3-1.5,0.5-2.4,0.5c-1,0-2-0.2-2.8-0.7s-1.4-1.1-1.9-1.9
			s-0.7-1.8-0.7-2.8s0.2-2,0.7-2.8s1.1-1.5,1.9-1.9c0.8-0.5,1.7-0.7,2.8-0.7C177.5,106.4,178.8,107,179.7,108.1z M179.4,111.2
			c-0.1-1-0.4-1.9-1-2.5s-1.5-0.9-2.5-0.9s-1.9,0.3-2.6,0.9c-0.7,0.6-1.1,1.4-1.2,2.5H179.4z"/>
		<path class="st0" d="M186.8,107.1c0.6-0.4,1.4-0.6,2.3-0.6v1.5c-1.1,0-2,0.3-2.7,0.9s-1.1,1.5-1.2,2.6v5.7h-1.6v-10.7h1.6v2.4
			C185.6,108.1,186.1,107.5,186.8,107.1z"/>
		<path class="st0" d="M195.6,108c-0.5-0.1-1-0.2-1.5-0.2c-0.6,0-1.1,0.1-1.5,0.4c-0.4,0.2-0.6,0.6-0.6,1.1c0,0.3,0.1,0.6,0.3,0.8
			s0.5,0.4,0.8,0.5s0.8,0.3,1.3,0.5c0.7,0.2,1.4,0.5,1.8,0.7s0.9,0.5,1.2,0.9s0.5,0.9,0.5,1.6c0,1-0.4,1.7-1.1,2.3
			c-0.8,0.5-1.7,0.8-2.8,0.8c-0.8,0-1.5-0.1-2.3-0.4c-0.7-0.3-1.4-0.6-1.9-1.1l0.6-1.2c0.5,0.4,1,0.7,1.6,1s1.3,0.4,1.9,0.4
			c0.7,0,1.2-0.1,1.7-0.4c0.4-0.3,0.6-0.7,0.6-1.2s-0.2-0.9-0.6-1.2c-0.4-0.3-1.1-0.5-1.9-0.8c-0.7-0.2-1.3-0.4-1.7-0.6
			s-0.8-0.5-1.1-0.9s-0.5-0.9-0.5-1.6c0-1,0.4-1.7,1.1-2.2c0.7-0.5,1.6-0.7,2.7-0.7c0.6,0,1.2,0.1,1.8,0.3s1.1,0.4,1.6,0.7l-0.6,1.2
			C196.6,108.4,196.1,108.1,195.6,108z"/>
		<path class="st0" d="M202.1,102.6c0.2,0.2,0.3,0.5,0.3,0.8s-0.1,0.6-0.3,0.8c-0.2,0.2-0.4,0.3-0.7,0.3s-0.5-0.1-0.7-0.3
			c-0.2-0.2-0.3-0.5-0.3-0.8s0.1-0.6,0.3-0.8c0.2-0.2,0.4-0.3,0.7-0.3C201.7,102.3,201.9,102.4,202.1,102.6z M200.6,106.5h1.6v10.7
			h-1.6V106.5z"/>
		<path class="st0" d="M216,102.1v15.1h-1.6v-2.3c-0.4,0.8-1,1.3-1.7,1.8c-0.7,0.4-1.5,0.6-2.5,0.6s-1.9-0.2-2.7-0.7
			s-1.4-1.1-1.8-1.9c-0.4-0.8-0.7-1.8-0.7-2.8c0-1.1,0.2-2,0.7-2.8c0.4-0.8,1-1.5,1.8-1.9c0.8-0.5,1.7-0.7,2.7-0.7
			c0.9,0,1.8,0.2,2.5,0.6s1.3,1,1.7,1.8v-6.7L216,102.1L216,102.1z M212.6,115.4c0.6-0.3,1-0.8,1.4-1.4s0.5-1.3,0.5-2.1
			c0-0.8-0.2-1.5-0.5-2.1s-0.8-1.1-1.4-1.5c-0.6-0.3-1.2-0.5-2-0.5c-0.7,0-1.4,0.2-2,0.5s-1,0.8-1.4,1.5s-0.5,1.3-0.5,2.1
			c0,0.8,0.2,1.5,0.5,2.1s0.8,1.1,1.4,1.4c0.6,0.3,1.3,0.5,2,0.5S212,115.8,212.6,115.4z"/>
		<path class="st0" d="M226.7,117.2v-1.7c-0.9,1.2-2.2,1.7-3.9,1.7c-0.7,0-1.4-0.1-1.9-0.4c-0.6-0.3-1-0.7-1.3-1.2s-0.5-1-0.5-1.6
			c0-0.9,0.4-1.7,1.1-2.2c0.7-0.6,1.7-0.8,3-0.8h3.5v-0.7c0-0.8-0.2-1.4-0.7-1.9c-0.5-0.4-1.2-0.7-2.1-0.7c-1.1,0-2.2,0.4-3.4,1.2
			l-0.7-1.1c0.8-0.5,1.5-0.9,2.1-1.1s1.4-0.3,2.3-0.3c1.3,0,2.3,0.3,3,1s1.1,1.5,1.1,2.7v7.1H226.7z M225.4,115.3
			c0.6-0.4,1.1-1,1.3-1.8v-1.3h-3.3c-1.8,0-2.7,0.6-2.7,1.7c0,0.6,0.2,1.1,0.7,1.4c0.4,0.4,1,0.5,1.8,0.5
			C224,115.9,224.8,115.7,225.4,115.3z"/>
		<path class="st0" d="M241.8,102.1v15.1h-1.6v-2.3c-0.4,0.8-1,1.3-1.7,1.8c-0.7,0.4-1.5,0.6-2.5,0.6s-1.9-0.2-2.7-0.7
			s-1.4-1.1-1.8-1.9c-0.4-0.8-0.7-1.8-0.7-2.8c0-1.1,0.2-2,0.7-2.8c0.4-0.8,1-1.5,1.8-1.9c0.8-0.5,1.7-0.7,2.7-0.7
			c0.9,0,1.8,0.2,2.5,0.6s1.3,1,1.7,1.8v-6.7L241.8,102.1L241.8,102.1z M238.3,115.4c0.6-0.3,1-0.8,1.4-1.4s0.5-1.3,0.5-2.1
			c0-0.8-0.2-1.5-0.5-2.1s-0.8-1.1-1.4-1.5c-0.6-0.3-1.2-0.5-2-0.5c-0.7,0-1.4,0.2-2,0.5s-1,0.8-1.4,1.5s-0.5,1.3-0.5,2.1
			c0,0.8,0.2,1.5,0.5,2.1s0.8,1.1,1.4,1.4c0.6,0.3,1.3,0.5,2,0.5C237.1,115.9,237.7,115.8,238.3,115.4z"/>
		<path class="st0" d="M261.9,102.1v15.1h-1.6v-2.3c-0.4,0.8-1,1.3-1.7,1.8c-0.7,0.4-1.5,0.6-2.5,0.6s-1.9-0.2-2.7-0.7
			s-1.4-1.1-1.8-1.9c-0.4-0.8-0.7-1.8-0.7-2.8c0-1.1,0.2-2,0.7-2.8c0.4-0.8,1-1.5,1.8-1.9c0.8-0.5,1.7-0.7,2.7-0.7
			c0.9,0,1.8,0.2,2.5,0.6s1.3,1,1.7,1.8v-6.7L261.9,102.1L261.9,102.1z M258.4,115.4c0.6-0.3,1-0.8,1.4-1.4s0.5-1.3,0.5-2.1
			c0-0.8-0.2-1.5-0.5-2.1s-0.8-1.1-1.4-1.5c-0.6-0.3-1.2-0.5-2-0.5c-0.7,0-1.4,0.2-2,0.5s-1,0.8-1.4,1.5s-0.5,1.3-0.5,2.1
			c0,0.8,0.2,1.5,0.5,2.1s0.8,1.1,1.4,1.4c0.6,0.3,1.3,0.5,2,0.5C257.2,115.9,257.8,115.8,258.4,115.4z"/>
		<path class="st0" d="M274,108.1c0.9,1.1,1.2,2.5,1.2,4.4h-8.7c0.1,1.1,0.6,1.9,1.3,2.5c0.7,0.6,1.6,1,2.6,1c0.6,0,1.3-0.1,1.8-0.4
			c0.6-0.2,1.1-0.6,1.5-1l0.9,0.9c-0.5,0.6-1.1,1-1.9,1.3c-0.7,0.3-1.5,0.5-2.4,0.5c-1,0-2-0.2-2.8-0.7s-1.4-1.1-1.9-1.9
			s-0.7-1.8-0.7-2.8s0.2-2,0.7-2.8s1.1-1.5,1.9-1.9c0.8-0.5,1.7-0.7,2.8-0.7C271.9,106.4,273.2,107,274,108.1z M273.8,111.2
			c-0.1-1-0.4-1.9-1-2.5s-1.5-0.9-2.5-0.9s-1.9,0.3-2.6,0.9s-1.1,1.4-1.2,2.5H273.8z"/>
		<path class="st0" d="M284.4,103h1.6v12.7h6.2v1.5h-7.9L284.4,103L284.4,103z"/>
		<path class="st0" d="M301.5,117.2v-1.7c-0.9,1.2-2.2,1.7-3.9,1.7c-0.7,0-1.4-0.1-1.9-0.4c-0.6-0.3-1-0.7-1.3-1.2s-0.5-1-0.5-1.6
			c0-0.9,0.4-1.7,1.1-2.2c0.7-0.6,1.7-0.8,3-0.8h3.5v-0.7c0-0.8-0.2-1.4-0.7-1.9c-0.5-0.4-1.2-0.7-2.1-0.7c-1.1,0-2.2,0.4-3.4,1.2
			l-0.7-1.1c0.8-0.5,1.5-0.9,2.1-1.1s1.4-0.3,2.3-0.3c1.3,0,2.3,0.3,3,1s1.1,1.5,1.1,2.7v7.1H301.5z M300.2,115.3
			c0.6-0.4,1.1-1,1.3-1.8v-1.3h-3.3c-1.8,0-2.7,0.6-2.7,1.7c0,0.6,0.2,1.1,0.7,1.4c0.4,0.4,1,0.5,1.8,0.5
			C298.8,115.9,299.5,115.7,300.2,115.3z"/>
		<path class="st0" d="M313.1,103h1.6v12.7h6.2v1.5H313L313.1,103L313.1,103z"/>
		<path class="st0" d="M330.1,117.2v-1.7c-0.9,1.2-2.2,1.7-3.9,1.7c-0.7,0-1.4-0.1-1.9-0.4c-0.6-0.3-1-0.7-1.3-1.2s-0.5-1-0.5-1.6
			c0-0.9,0.4-1.7,1.1-2.2c0.7-0.6,1.7-0.8,3-0.8h3.5v-0.7c0-0.8-0.2-1.4-0.7-1.9c-0.5-0.4-1.2-0.7-2.1-0.7c-1.1,0-2.2,0.4-3.4,1.2
			l-0.7-1.1c0.8-0.5,1.5-0.9,2.1-1.1s1.4-0.3,2.3-0.3c1.3,0,2.3,0.3,3,1s1.1,1.5,1.1,2.7v7.1H330.1z M328.8,115.3
			c0.6-0.4,1.1-1,1.3-1.8v-1.3h-3.3c-1.8,0-2.7,0.6-2.7,1.7c0,0.6,0.2,1.1,0.7,1.4c0.4,0.4,1,0.5,1.8,0.5
			C327.4,115.9,328.2,115.7,328.8,115.3z"/>
		<path class="st0" d="M344.7,106.5v9.6c0,1-0.2,1.9-0.7,2.7c-0.5,0.8-1.1,1.4-1.9,1.8s-1.8,0.6-2.8,0.6c-1.6,0-3-0.5-4.4-1.6
			l0.7-1.2c0.5,0.5,1.1,0.8,1.7,1s1.2,0.3,1.9,0.3c1.2,0,2.1-0.3,2.8-1s1-1.6,1-2.7v-1.6c-0.4,0.7-0.9,1.3-1.6,1.7
			c-0.7,0.4-1.5,0.6-2.4,0.6s-1.8-0.2-2.5-0.7c-0.7-0.4-1.3-1.1-1.7-1.8c-0.4-0.8-0.6-1.7-0.6-2.7s0.2-1.9,0.6-2.7s1-1.4,1.7-1.8
			s1.6-0.7,2.6-0.7c0.9,0,1.7,0.2,2.3,0.6c0.7,0.4,1.2,0.9,1.6,1.7v-2.2L344.7,106.5L344.7,106.5z M341.3,115c0.6-0.3,1-0.8,1.3-1.4
			s0.5-1.2,0.5-2c0-0.7-0.2-1.4-0.5-2s-0.7-1-1.3-1.4c-0.6-0.3-1.2-0.5-1.9-0.5c-0.7,0-1.3,0.2-1.9,0.5s-1,0.8-1.3,1.4
			s-0.5,1.3-0.5,2s0.2,1.4,0.5,2s0.8,1,1.3,1.4c0.6,0.3,1.2,0.5,1.9,0.5C340.1,115.4,340.7,115.3,341.3,115z"/>
		<path class="st0" d="M357.6,106.5v10.7H356v-2.4c-0.7,1.6-2,2.5-4.1,2.5c-1.2,0-2.2-0.4-2.9-1.1c-0.7-0.7-1.1-1.8-1.1-3.1v-6.6
			h1.6v6.2c0,0.9,0.3,1.7,0.8,2.2s1.3,0.8,2.2,0.8c1.1,0,2-0.4,2.6-1.1s0.9-1.7,0.9-2.9v-5.2H357.6z"/>
		<path class="st0" d="M370.4,107.6c0.7,0.7,1.1,1.8,1.1,3.1v6.6h-1.6V111c0-0.9-0.3-1.7-0.8-2.2s-1.3-0.8-2.2-0.8
			c-1,0-1.9,0.3-2.5,1c-0.6,0.6-1,1.5-1.1,2.5v5.7h-1.6v-10.7h1.6v2.4c0.7-1.6,2.1-2.4,4.2-2.4C368.6,106.4,369.6,106.8,370.4,107.6
			z"/>
		<path class="st0" d="M381.7,117.2v-1.7c-0.9,1.2-2.2,1.7-3.9,1.7c-0.7,0-1.4-0.1-1.9-0.4c-0.6-0.3-1-0.7-1.3-1.2s-0.5-1-0.5-1.6
			c0-0.9,0.4-1.7,1.1-2.2c0.7-0.6,1.7-0.8,3-0.8h3.5v-0.7c0-0.8-0.2-1.4-0.7-1.9c-0.5-0.4-1.2-0.7-2.1-0.7c-1.1,0-2.2,0.4-3.4,1.2
			l-0.7-1.1c0.8-0.5,1.5-0.9,2.1-1.1s1.4-0.3,2.3-0.3c1.3,0,2.3,0.3,3,1s1.1,1.5,1.1,2.7v7.1H381.7z M380.4,115.3
			c0.6-0.4,1.1-1,1.3-1.8v-1.3h-3.3c-1.8,0-2.7,0.6-2.7,1.7c0,0.6,0.2,1.1,0.7,1.4c0.4,0.4,1,0.5,1.8,0.5
			C379,115.9,379.8,115.7,380.4,115.3z"/>
	</g>
	<polygon class="st0" points="98.1,74.5 98.1,44 97.5,44 83.5,57.4 83.5,74.5 69.8,74.5 69.8,44 69.2,44 55.2,57.4 55.2,88.7 
		66.8,88.7 69.8,88.7 83.5,75.5 83.5,88.7 95.2,88.7 98.1,88.7 112.4,75 112.4,74.5 	"/>
</g>
<g id="Guias">
</g>
<g>
	<path class="st0" d="M222.5,52.1c-0.6-0.3-1.2-0.5-1.9-0.5c-0.7,0-1.4,0.2-1.9,0.5s-1,0.8-1.4,1.5s-0.5,1.3-0.5,2.1
		s0.2,1.5,0.5,2.1s0.8,1.1,1.4,1.5s1.2,0.5,1.9,0.5c0.6,0,1.2-0.1,1.8-0.4s1.2-0.7,1.7-1.2l2.1,2.3c-0.8,0.8-1.7,1.4-2.7,1.9
		s-2.1,0.7-3.1,0.7c-1.4,0-2.6-0.3-3.8-1s-2-1.5-2.6-2.6s-1-2.3-1-3.7c0-1.4,0.3-2.6,1-3.7s1.6-2,2.7-2.6s2.4-0.9,3.8-0.9
		c1,0,2.1,0.2,3.1,0.6s1.9,1,2.6,1.8l-2.1,2.6C223.6,52.9,223.1,52.4,222.5,52.1z"/>
	<path class="st0" d="M236,52.8c0.8,0.7,1.2,1.6,1.3,2.9v7h-3.5v-1.2c-0.7,0.9-1.8,1.4-3.3,1.4c-1.1,0-2-0.3-2.7-0.9s-1-1.4-1-2.5
		c0-1,0.4-1.8,1.1-2.4s1.7-0.9,3.1-0.9h2.8v-0.1c0-0.5-0.2-0.9-0.5-1.2s-0.9-0.4-1.5-0.4c-0.5,0-1,0.1-1.5,0.2s-1.1,0.4-1.7,0.6
		l-1-2.4c0.9-0.4,1.7-0.7,2.5-0.9s1.6-0.3,2.5-0.3C234.1,51.7,235.2,52.1,236,52.8z M233,60c0.4-0.3,0.7-0.6,0.8-1v-0.9h-2.1
		c-1,0-1.5,0.4-1.5,1.1c0,0.4,0.1,0.7,0.4,0.9s0.6,0.3,1.1,0.3C232.2,60.4,232.6,60.3,233,60z"/>
	<path class="st0" d="M238.7,63.9c0.3,0,0.6-0.1,0.8-0.3s0.3-0.6,0.3-1V51.9h3.6v11.2c0,1.1-0.3,2-1,2.7s-1.6,1-2.8,1
		c-0.8,0-1.6-0.1-2.4-0.4l0.7-2.5C238.1,63.8,238.4,63.9,238.7,63.9z M242.8,47.4c0.4,0.4,0.5,0.8,0.5,1.4c0,0.5-0.2,1-0.5,1.4
		s-0.8,0.5-1.3,0.5s-1-0.2-1.4-0.5s-0.5-0.8-0.5-1.4c0-0.6,0.2-1,0.5-1.4s0.8-0.5,1.4-0.5S242.5,47.1,242.8,47.4z"/>
	<path class="st0" d="M254.3,52.8c0.8,0.7,1.2,1.6,1.3,2.9v7H252v-1.2c-0.7,0.9-1.8,1.4-3.3,1.4c-1.1,0-2-0.3-2.7-0.9s-1-1.4-1-2.5
		c0-1,0.4-1.8,1.1-2.4s1.7-0.9,3.1-0.9h2.8v-0.1c0-0.5-0.2-0.9-0.5-1.2s-0.9-0.4-1.5-0.4c-0.5,0-1,0.1-1.5,0.2s-1.1,0.4-1.7,0.6
		l-1-2.4c0.9-0.4,1.7-0.7,2.5-0.9s1.6-0.3,2.5-0.3C252.3,51.7,253.5,52.1,254.3,52.8z M251.3,60c0.4-0.3,0.7-0.6,0.8-1v-0.9h-2.1
		c-1,0-1.5,0.4-1.5,1.1c0,0.4,0.1,0.7,0.4,0.9s0.6,0.3,1.1,0.3C250.4,60.4,250.9,60.3,251.3,60z"/>
	<path class="st0" d="M261.7,54.2c-0.3,0-0.6,0.1-0.7,0.2s-0.3,0.3-0.3,0.5c0,0.2,0.1,0.4,0.4,0.6s0.8,0.3,1.4,0.5
		c0.8,0.2,1.4,0.5,1.9,0.7s1,0.6,1.3,1s0.6,1,0.6,1.8c0,1.1-0.4,1.9-1.3,2.6s-2,0.9-3.3,0.9c-0.9,0-1.8-0.1-2.6-0.4
		s-1.6-0.6-2.2-1.1L258,59c0.6,0.4,1.3,0.8,1.9,1s1.3,0.3,1.9,0.3c0.3,0,0.6-0.1,0.8-0.2s0.3-0.3,0.3-0.5c0-0.3-0.1-0.5-0.4-0.6
		s-0.8-0.3-1.4-0.5c-0.8-0.2-1.4-0.5-1.9-0.7s-0.9-0.5-1.3-1s-0.6-1-0.6-1.7c0-1.1,0.4-1.9,1.2-2.6s1.9-0.9,3.2-0.9
		c0.8,0,1.6,0.1,2.3,0.3s1.5,0.5,2.2,0.9l-1.2,2.3C263.8,54.6,262.6,54.2,261.7,54.2z"/>
	<path class="st0" d="M271.4,47.4c0.4,0.4,0.5,0.8,0.5,1.4c0,0.5-0.2,1-0.5,1.4s-0.8,0.5-1.3,0.5s-1-0.2-1.4-0.5s-0.5-0.8-0.5-1.4
		c0-0.6,0.2-1,0.5-1.4s0.8-0.5,1.4-0.5S271,47.1,271.4,47.4z M268.3,51.9h3.5v10.8h-3.5V51.9z"/>
	<path class="st0" d="M283.3,53.3c0.9,1,1.4,2.5,1.4,4.3c0,0.3,0,0.5,0,0.6h-7.5c0.2,0.6,0.5,1.1,0.9,1.4s0.9,0.5,1.6,0.5
		c0.5,0,0.9-0.1,1.3-0.3s0.8-0.5,1.2-0.8l1.9,1.9c-0.6,0.6-1.2,1.1-2,1.4s-1.7,0.5-2.7,0.5c-1.2,0-2.2-0.2-3-0.7s-1.5-1.1-2-1.9
		s-0.7-1.8-0.7-2.9c0-1.1,0.2-2.1,0.7-2.9s1.1-1.5,2-2s1.8-0.7,3-0.7C281,51.8,282.4,52.3,283.3,53.3z M281.3,56.3
		c0-0.6-0.2-1.1-0.6-1.5s-0.9-0.6-1.5-0.6c-0.6,0-1,0.2-1.4,0.6s-0.6,0.9-0.7,1.5H281.3z"/>
	<path class="st0" d="M293.6,62.1c-0.4,0.2-0.9,0.4-1.4,0.5s-1,0.2-1.6,0.2c-1.1,0-1.9-0.3-2.6-0.9s-1-1.5-1-2.5v-4.6h-1.5v-2.4h1.5
		v-3h3.5v3h2.8v2.4h-2.8v4.1c0,0.8,0.3,1.1,0.9,1.1c0.4,0,0.8-0.1,1.4-0.4L293.6,62.1z"/>
	<path class="st0" d="M304.1,53.3c0.9,1,1.4,2.5,1.4,4.3c0,0.3,0,0.5,0,0.6H298c0.2,0.6,0.5,1.1,0.9,1.4s0.9,0.5,1.6,0.5
		c0.5,0,0.9-0.1,1.3-0.3s0.8-0.5,1.2-0.8l1.9,1.9c-0.6,0.6-1.2,1.1-2,1.4s-1.7,0.5-2.7,0.5c-1.2,0-2.2-0.2-3-0.7s-1.5-1.1-2-1.9
		s-0.7-1.8-0.7-2.9c0-1.1,0.2-2.1,0.7-2.9s1.1-1.5,2-2s1.8-0.7,3-0.7C301.8,51.8,303.1,52.3,304.1,53.3z M302,56.3
		c0-0.6-0.2-1.1-0.6-1.5s-0.9-0.6-1.5-0.6c-0.6,0-1,0.2-1.4,0.6s-0.6,0.9-0.7,1.5H302z"/>
	<path class="st0" d="M322.7,49.1c0.8,0.3,1.4,0.7,1.8,1.2s0.6,1.2,0.6,1.9c0,0.7-0.2,1.4-0.6,1.9s-1,0.9-1.8,1.1
		c0.9,0.2,1.6,0.6,2.1,1.2s0.8,1.4,0.8,2.3c0,0.8-0.2,1.5-0.7,2.1s-1.1,1-1.9,1.4s-1.8,0.5-2.9,0.5h-6.9v-14h6.7
		C321,48.7,321.9,48.8,322.7,49.1z M321,53.9c0.3-0.2,0.4-0.6,0.4-1c0-0.4-0.1-0.8-0.4-1s-0.7-0.3-1.2-0.3H317v2.7h2.8
		C320.3,54.3,320.7,54.1,321,53.9z M321.3,59.5c0.4-0.3,0.6-0.6,0.6-1.1c0-0.4-0.2-0.8-0.6-1.1s-0.9-0.4-1.5-0.4H317v2.9h2.8
		C320.4,59.9,320.9,59.7,321.3,59.5z"/>
	<path class="st0" d="M330.7,47.4c0.4,0.4,0.5,0.8,0.5,1.4c0,0.5-0.2,1-0.5,1.4s-0.8,0.5-1.3,0.5s-1-0.2-1.4-0.5s-0.5-0.8-0.5-1.4
		c0-0.6,0.2-1,0.5-1.4s0.8-0.5,1.4-0.5S330.4,47.1,330.7,47.4z M327.6,51.9h3.5v10.8h-3.5V51.9z"/>
	<path class="st0" d="M344.2,51.9v9.9c0,1-0.2,1.9-0.7,2.6s-1.2,1.3-2.1,1.7s-1.9,0.6-3.1,0.6c-0.9,0-1.8-0.1-2.6-0.4
		s-1.6-0.6-2.2-1l1.2-2.5c0.5,0.3,1,0.6,1.6,0.8s1.2,0.3,1.7,0.3c0.8,0,1.4-0.2,1.9-0.6s0.7-0.9,0.7-1.5v-1.2
		c-0.7,0.9-1.8,1.4-3.1,1.4c-0.9,0-1.7-0.2-2.4-0.7s-1.2-1-1.6-1.8s-0.6-1.7-0.6-2.7c0-1,0.2-1.9,0.6-2.7s0.9-1.4,1.6-1.8
		s1.5-0.6,2.4-0.6c0.7,0,1.3,0.1,1.8,0.4s1,0.6,1.4,1.1v-1.3H344.2z M340.1,58.8c0.4-0.5,0.6-1.1,0.6-1.8c0-0.8-0.2-1.4-0.6-1.8
		s-0.9-0.7-1.6-0.7c-0.7,0-1.2,0.2-1.6,0.7s-0.6,1.1-0.6,1.8c0,0.7,0.2,1.4,0.6,1.8s0.9,0.7,1.6,0.7
		C339.2,59.5,339.7,59.3,340.1,58.8z"/>
	<path class="st0" d="M362.8,49.6c1.1,0.6,2,1.4,2.6,2.5s0.9,2.3,0.9,3.6s-0.3,2.6-1,3.7s-1.5,1.9-2.7,2.5s-2.5,0.9-4,0.9h-5.9v-14
		h6C360.3,48.7,361.6,49,362.8,49.6z M360.8,59.2c0.5-0.3,1-0.8,1.3-1.4s0.5-1.3,0.5-2.1c0-0.8-0.2-1.5-0.5-2.1s-0.8-1.1-1.4-1.4
		s-1.2-0.5-2-0.5h-2.3v8.1h2.5C359.7,59.7,360.3,59.6,360.8,59.2z"/>
	<path class="st0" d="M376.5,52.8c0.8,0.7,1.2,1.6,1.3,2.9v7h-3.5v-1.2c-0.7,0.9-1.8,1.4-3.3,1.4c-1.1,0-2-0.3-2.7-0.9s-1-1.4-1-2.5
		c0-1,0.4-1.8,1.1-2.4s1.7-0.9,3.1-0.9h2.8v-0.1c0-0.5-0.2-0.9-0.5-1.2s-0.9-0.4-1.5-0.4c-0.5,0-1,0.1-1.5,0.2s-1.1,0.4-1.7,0.6
		l-1-2.4c0.9-0.4,1.7-0.7,2.5-0.9s1.6-0.3,2.5-0.3C374.5,51.7,375.7,52.1,376.5,52.8z M373.5,60c0.4-0.3,0.7-0.6,0.8-1v-0.9h-2.1
		c-1,0-1.5,0.4-1.5,1.1c0,0.4,0.1,0.7,0.4,0.9s0.6,0.3,1.1,0.3C372.6,60.4,373.1,60.3,373.5,60z"/>
	<path class="st0" d="M387.2,62.1c-0.4,0.2-0.9,0.4-1.4,0.5s-1,0.2-1.6,0.2c-1.1,0-1.9-0.3-2.6-0.9s-1-1.5-1-2.5v-4.6h-1.5v-2.4h1.5
		v-3h3.5v3h2.8v2.4h-2.8v4.1c0,0.8,0.3,1.1,0.9,1.1c0.4,0,0.8-0.1,1.4-0.4L387.2,62.1z"/>
	<path class="st0" d="M397.2,52.8c0.8,0.7,1.2,1.6,1.3,2.9v7H395v-1.2c-0.7,0.9-1.8,1.4-3.3,1.4c-1.1,0-2-0.3-2.7-0.9s-1-1.4-1-2.5
		c0-1,0.4-1.8,1.1-2.4s1.7-0.9,3.1-0.9h2.8v-0.1c0-0.5-0.2-0.9-0.5-1.2s-0.9-0.4-1.5-0.4c-0.5,0-1,0.1-1.5,0.2s-1.1,0.4-1.7,0.6
		l-1-2.4c0.9-0.4,1.7-0.7,2.5-0.9s1.6-0.3,2.5-0.3C395.3,51.7,396.4,52.1,397.2,52.8z M394.2,60c0.4-0.3,0.7-0.6,0.8-1v-0.9h-2.1
		c-1,0-1.5,0.4-1.5,1.1c0,0.4,0.1,0.7,0.4,0.9s0.6,0.3,1.1,0.3C393.4,60.4,393.8,60.3,394.2,60z"/>
	<path class="st0" d="M403.2,59.9c0.3,0.3,0.5,0.7,0.5,1.3c0,0.4-0.2,0.8-0.5,1.4l-1.6,2.7h-1.7l1-2.7c-0.5-0.3-0.7-0.8-0.7-1.4
		c0-0.5,0.2-0.9,0.5-1.2s0.7-0.5,1.2-0.5C402.5,59.4,402.9,59.6,403.2,59.9z"/>
</g>
<g>
	<path class="st0" d="M138.6,77c1.2,0.6,2.1,1.5,2.7,2.6s1,2.3,1,3.7c0,1.4-0.3,2.6-1,3.7s-1.6,2-2.7,2.6s-2.4,1-3.9,1
		s-2.7-0.3-3.9-1s-2.1-1.5-2.7-2.6s-1-2.4-1-3.7c0-1.4,0.3-2.6,1-3.7s1.6-2,2.7-2.6s2.4-0.9,3.9-0.9S137.5,76.4,138.6,77z
		 M132.9,79.7c-0.6,0.4-1.1,0.9-1.4,1.5s-0.5,1.3-0.5,2.1c0,0.8,0.2,1.5,0.5,2.1s0.8,1.1,1.4,1.5s1.2,0.6,1.9,0.6s1.3-0.2,1.9-0.6
		s1-0.9,1.4-1.5s0.5-1.3,0.5-2.1c0-0.8-0.2-1.5-0.5-2.1s-0.8-1.1-1.4-1.5s-1.2-0.5-1.9-0.5C134.1,79.2,133.4,79.4,132.9,79.7z"/>
	<path class="st0" d="M153.6,80.1c0.8,0.5,1.4,1.1,1.8,2c0.4,0.8,0.6,1.8,0.6,2.9c0,1.1-0.2,2.1-0.6,2.9s-1,1.5-1.7,1.9
		s-1.6,0.7-2.6,0.7c-0.7,0-1.3-0.1-1.9-0.4s-1-0.6-1.4-1.1v5.3h-3.6V79.5h3.6v1.4c0.8-1,1.8-1.5,3.2-1.5
		C152,79.4,152.9,79.6,153.6,80.1z M151.8,86.8c0.4-0.5,0.6-1.1,0.6-1.9s-0.2-1.5-0.6-2c-0.4-0.5-1-0.8-1.7-0.8
		c-0.7,0-1.2,0.3-1.7,0.8c-0.4,0.5-0.6,1.2-0.6,2s0.2,1.4,0.6,1.9s1,0.7,1.7,0.7C150.8,87.6,151.4,87.3,151.8,86.8z"/>
	<path class="st0" d="M166.7,81c0.9,1,1.4,2.5,1.4,4.3c0,0.3,0,0.5,0,0.6h-7.5c0.2,0.6,0.5,1.1,0.9,1.4s0.9,0.5,1.6,0.5
		c0.5,0,0.9-0.1,1.3-0.3s0.8-0.5,1.2-0.8l1.9,1.9c-0.6,0.6-1.2,1.1-2,1.4s-1.7,0.5-2.7,0.5c-1.2,0-2.2-0.2-3-0.7s-1.5-1.1-2-1.9
		S157,86.1,157,85c0-1.1,0.2-2.1,0.7-2.9c0.5-0.8,1.1-1.5,2-2s1.8-0.7,3-0.7C164.4,79.4,165.7,79.9,166.7,81z M164.6,84
		c0-0.6-0.2-1.1-0.6-1.5s-0.9-0.6-1.5-0.6c-0.6,0-1,0.2-1.4,0.6s-0.6,0.9-0.7,1.5H164.6z"/>
	<path class="st0" d="M179.9,80.5c0.7,0.7,1.1,1.8,1.1,3v6.8h-3.5v-5.8c0-0.6-0.2-1.1-0.5-1.5c-0.3-0.4-0.8-0.5-1.3-0.5
		c-0.6,0-1.1,0.2-1.5,0.6s-0.6,0.9-0.7,1.5v5.7h-3.6V79.5h3.6v1.8c0.4-0.6,0.9-1.1,1.5-1.4s1.3-0.5,2.1-0.5
		C178.2,79.4,179.2,79.8,179.9,80.5z"/>
	<path class="st0" d="M199.3,77.2c1.1,0.6,2,1.4,2.6,2.5s0.9,2.3,0.9,3.6c0,1.4-0.3,2.6-1,3.7s-1.5,1.9-2.7,2.5s-2.5,0.9-4,0.9h-5.9
		v-14h6C196.9,76.3,198.2,76.6,199.3,77.2z M197.4,86.9c0.5-0.3,1-0.8,1.3-1.4s0.5-1.3,0.5-2.1c0-0.8-0.2-1.5-0.5-2.1
		s-0.8-1.1-1.4-1.4s-1.2-0.5-2-0.5H193v8.1h2.5C196.2,87.4,196.8,87.2,197.4,86.9z"/>
	<path class="st0" d="M213,80.4c0.8,0.7,1.2,1.6,1.3,2.9v7h-3.5v-1.2c-0.7,0.9-1.8,1.4-3.3,1.4c-1.1,0-2-0.3-2.7-0.9s-1-1.4-1-2.5
		c0-1,0.4-1.8,1.1-2.4c0.7-0.6,1.7-0.9,3.1-0.9h2.8v-0.1c0-0.5-0.2-0.9-0.5-1.2c-0.4-0.3-0.9-0.4-1.5-0.4c-0.5,0-1,0.1-1.5,0.2
		s-1.1,0.4-1.7,0.6l-1-2.4c0.9-0.4,1.7-0.7,2.5-0.9s1.6-0.3,2.5-0.3C211.1,79.4,212.2,79.7,213,80.4z M210,87.7
		c0.4-0.3,0.7-0.6,0.8-1v-0.9h-2.1c-1,0-1.5,0.4-1.5,1.1c0,0.4,0.1,0.7,0.4,0.9s0.6,0.3,1.1,0.3C209.2,88.1,209.6,88,210,87.7z"/>
	<path class="st0" d="M223.7,89.8c-0.4,0.2-0.9,0.4-1.4,0.5s-1,0.2-1.6,0.2c-1.1,0-1.9-0.3-2.6-0.9s-1-1.5-1-2.5v-4.6h-1.5V80h1.5
		v-3h3.5v3h2.8v2.4h-2.8v4.1c0,0.8,0.3,1.1,0.9,1.1c0.4,0,0.8-0.1,1.4-0.4L223.7,89.8z"/>
	<path class="st0" d="M233.8,80.4c0.8,0.7,1.2,1.6,1.3,2.9v7h-3.5v-1.2c-0.7,0.9-1.8,1.4-3.3,1.4c-1.1,0-2-0.3-2.7-0.9s-1-1.4-1-2.5
		c0-1,0.4-1.8,1.1-2.4c0.7-0.6,1.7-0.9,3.1-0.9h2.8v-0.1c0-0.5-0.2-0.9-0.5-1.2c-0.4-0.3-0.9-0.4-1.5-0.4c-0.5,0-1,0.1-1.5,0.2
		s-1.1,0.4-1.7,0.6l-1-2.4c0.9-0.4,1.7-0.7,2.5-0.9s1.6-0.3,2.5-0.3C231.8,79.4,233,79.7,233.8,80.4z M230.8,87.7
		c0.4-0.3,0.7-0.6,0.8-1v-0.9h-2.1c-1,0-1.5,0.4-1.5,1.1c0,0.4,0.1,0.7,0.4,0.9s0.6,0.3,1.1,0.3C229.9,88.1,230.4,88,230.8,87.7z"/>
	<path class="st0" d="M247.6,93.7c-0.7,0.5-1.6,0.7-2.6,0.7c-0.6,0-1.2-0.1-1.7-0.3s-1-0.5-1.5-0.8l1.5-2.5c0.3,0.2,0.5,0.4,0.7,0.5
		s0.5,0.1,0.7,0.1c0.6,0,1-0.3,1.3-0.8l0.3-0.5l-4.5-10.6h3.7l2.6,7l2.3-7h3.5l-4.6,11.9C248.9,92.4,248.3,93.2,247.6,93.7z"/>
	<path class="st0" d="M270.5,76.8c0.8,0.3,1.4,0.7,1.8,1.2c0.4,0.5,0.6,1.2,0.6,1.9c0,0.7-0.2,1.4-0.6,1.9c-0.4,0.5-1,0.9-1.8,1.1
		c0.9,0.2,1.6,0.6,2.1,1.2c0.5,0.6,0.8,1.4,0.8,2.3c0,0.8-0.2,1.5-0.7,2.1s-1.1,1-1.9,1.4c-0.8,0.3-1.8,0.5-2.9,0.5h-6.9v-14h6.7
		C268.8,76.3,269.7,76.5,270.5,76.8z M268.8,81.5c0.3-0.2,0.4-0.6,0.4-1c0-0.4-0.1-0.8-0.4-1s-0.7-0.3-1.2-0.3h-2.8v2.7h2.8
		C268.1,81.9,268.5,81.8,268.8,81.5z M269.1,87.1c0.4-0.3,0.6-0.6,0.6-1.1c0-0.4-0.2-0.8-0.6-1.1c-0.4-0.3-0.9-0.4-1.5-0.4h-2.8v2.9
		h2.8C268.2,87.5,268.7,87.4,269.1,87.1z"/>
	<path class="st0" d="M275.5,75.5h3.6v14.8h-3.6V75.5z"/>
	<path class="st0" d="M290,80.1c0.9,0.5,1.6,1.1,2.1,1.9c0.5,0.8,0.7,1.8,0.7,2.9c0,1.1-0.2,2.1-0.7,2.9c-0.5,0.8-1.2,1.5-2.1,1.9
		c-0.9,0.5-1.9,0.7-3.1,0.7c-1.2,0-2.2-0.2-3.1-0.7c-0.9-0.5-1.6-1.1-2.1-1.9S281,86,281,84.9c0-1.1,0.2-2.1,0.7-2.9
		c0.5-0.8,1.2-1.5,2.1-1.9c0.9-0.5,1.9-0.7,3.1-0.7C288.1,79.4,289.1,79.6,290,80.1z M285.2,83c-0.4,0.5-0.6,1.1-0.6,1.9
		c0,0.8,0.2,1.5,0.6,2c0.4,0.5,1,0.7,1.7,0.7c0.7,0,1.3-0.2,1.7-0.7c0.4-0.5,0.6-1.1,0.6-2c0-0.8-0.2-1.4-0.6-1.9
		c-0.4-0.5-1-0.7-1.7-0.7C286.2,82.3,285.7,82.5,285.2,83z"/>
	<path class="st0" d="M299.5,82.3c-0.6,0-1.2,0.2-1.6,0.7c-0.4,0.5-0.6,1.1-0.6,1.9c0,0.8,0.2,1.4,0.6,1.9s0.9,0.7,1.6,0.7
		c1,0,1.7-0.4,2.1-1.2l2.6,1.5c-0.4,0.8-1.1,1.5-1.9,1.9s-1.9,0.7-3,0.7c-1.1,0-2.1-0.2-2.9-0.7s-1.5-1.1-1.9-1.9s-0.7-1.8-0.7-2.9
		c0-1.1,0.2-2.1,0.7-2.9c0.5-0.8,1.1-1.5,2-2c0.8-0.5,1.8-0.7,2.9-0.7c1.1,0,2,0.2,2.9,0.7s1.5,1.1,2,1.9l-2.6,1.5
		C301.1,82.7,300.4,82.3,299.5,82.3z"/>
	<path class="st0" d="M312.9,90.3l-2.3-4.1l-1.1,1.1v2.9H306V75.5h3.6v7.7l3.5-3.7h4l-4,4.2l4,6.6H312.9z"/>
	<path class="st0" d="M322.8,82.3c-0.6,0-1.2,0.2-1.6,0.7c-0.4,0.5-0.6,1.1-0.6,1.9c0,0.8,0.2,1.4,0.6,1.9s0.9,0.7,1.6,0.7
		c1,0,1.7-0.4,2.1-1.2l2.6,1.5c-0.4,0.8-1.1,1.5-1.9,1.9s-1.9,0.7-3,0.7c-1.1,0-2.1-0.2-2.9-0.7s-1.5-1.1-1.9-1.9s-0.7-1.8-0.7-2.9
		c0-1.1,0.2-2.1,0.7-2.9c0.5-0.8,1.1-1.5,2-2c0.8-0.5,1.8-0.7,2.9-0.7c1.1,0,2,0.2,2.9,0.7s1.5,1.1,2,1.9l-2.6,1.5
		C324.5,82.7,323.7,82.3,322.8,82.3z"/>
	<path class="st0" d="M339.3,80.5c0.7,0.7,1.1,1.8,1.1,3v6.8h-3.6v-5.8c0-0.6-0.2-1.1-0.5-1.5c-0.3-0.4-0.8-0.5-1.4-0.5
		c-0.7,0-1.2,0.2-1.5,0.7s-0.6,1-0.6,1.7v5.3h-3.6V75.5h3.6v5.8c0.4-0.6,0.9-1.1,1.5-1.4c0.6-0.3,1.3-0.5,2.1-0.5
		C337.7,79.4,338.6,79.8,339.3,80.5z"/>
	<path class="st0" d="M351.1,80.4c0.8,0.7,1.2,1.6,1.3,2.9v7h-3.5v-1.2c-0.7,0.9-1.8,1.4-3.3,1.4c-1.1,0-2-0.3-2.7-0.9
		c-0.7-0.6-1-1.4-1-2.5c0-1,0.4-1.8,1.1-2.4c0.7-0.6,1.7-0.9,3.1-0.9h2.8v-0.1c0-0.5-0.2-0.9-0.5-1.2c-0.4-0.3-0.9-0.4-1.5-0.4
		c-0.5,0-1,0.1-1.5,0.2s-1.1,0.4-1.7,0.6l-1-2.4c0.9-0.4,1.7-0.7,2.5-0.9c0.8-0.2,1.6-0.3,2.5-0.3C349.2,79.4,350.3,79.7,351.1,80.4
		z M348.2,87.7c0.4-0.3,0.7-0.6,0.8-1v-0.9h-2.1c-1,0-1.5,0.4-1.5,1.1c0,0.4,0.1,0.7,0.4,0.9c0.3,0.2,0.6,0.3,1.1,0.3
		C347.3,88.1,347.8,88,348.2,87.7z"/>
	<path class="st0" d="M357.9,75.1c0.4,0.4,0.5,0.8,0.5,1.4c0,0.5-0.2,1-0.5,1.4s-0.8,0.5-1.3,0.5s-1-0.2-1.4-0.5s-0.5-0.8-0.5-1.4
		c0-0.6,0.2-1,0.5-1.4s0.8-0.5,1.4-0.5S357.6,74.7,357.9,75.1z M354.8,79.5h3.5v10.8h-3.5V79.5z"/>
	<path class="st0" d="M371.1,80.5c0.7,0.7,1.1,1.8,1.1,3v6.8h-3.5v-5.8c0-0.6-0.2-1.1-0.5-1.5c-0.3-0.4-0.8-0.5-1.3-0.5
		c-0.6,0-1.1,0.2-1.5,0.6s-0.6,0.9-0.7,1.5v5.7h-3.6V79.5h3.6v1.8c0.4-0.6,0.9-1.1,1.5-1.4s1.3-0.5,2.1-0.5
		C369.4,79.4,370.3,79.8,371.1,80.5z"/>
</g>
</svg>
