<svg width="864" height="320" viewBox="0 0 864 320" fill="none" xmlns="http://www.w3.org/2000/svg">
<path d="M153.923 0C162.489 0.274539 171.056 1.09815 179.346 2.47085C187.636 3.84354 195.374 6.03985 203.112 8.78523C210.849 11.5306 218.034 14.8251 225.219 18.6686C232.404 22.5122 239.312 27.1793 245.944 32.3955C252.853 37.8863 259.209 43.6516 264.736 49.6915C270.262 56.0059 275.237 62.5948 279.658 69.4583C284.08 76.5963 287.672 84.0088 290.712 91.6959C293.751 99.6575 296.239 107.894 297.897 116.679H213.336C210.573 110.09 207.257 104.599 203.388 99.6575C199.519 94.7158 195.098 90.5977 190.124 87.3033C185.149 84.0088 179.623 81.538 173.543 79.8907C167.464 78.2435 160.831 77.4199 153.646 77.1453V0H153.923Z" fill="#73B7C9"/>
<path d="M142.039 17.2959V93.3431C137.894 93.6176 134.025 94.4412 130.157 95.2648C126.288 96.363 122.695 97.4612 119.379 99.1084C116.063 100.756 112.747 102.677 109.707 105.148C106.668 107.345 103.628 110.09 100.865 113.11C98.1011 116.13 95.614 119.424 93.4033 122.993C91.1926 126.562 89.2582 130.131 87.8765 133.975C86.2184 137.818 85.1131 141.936 84.284 146.054C83.455 150.173 82.9023 154.565 82.626 159.232H0C0.276341 149.349 1.10536 140.015 3.03975 130.68C4.97414 121.621 7.46121 112.835 11.0536 104.599C14.6461 96.363 18.7912 88.4014 24.0417 80.7143C29.2922 73.0272 35.0953 65.8892 42.0038 59.0258C48.9124 52.1623 56.0972 46.1224 63.5585 40.9062C71.0197 35.69 79.0336 31.2974 87.3238 28.0029C95.614 24.4339 104.457 21.9631 113.576 20.0413C122.695 18.3941 132.367 17.2959 142.039 17.2959Z" fill="#73B7C9"/>
<path d="M310.055 195.472C308.12 203.433 305.633 211.12 302.593 218.533C299.554 225.671 295.961 232.809 291.816 239.123C287.671 245.712 282.973 251.752 277.723 257.517C272.472 263.283 266.669 268.774 260.313 273.715C253.957 278.657 247.601 283.05 240.693 286.619C234.061 290.188 227.152 293.482 219.967 295.953C212.782 298.424 205.321 300.345 197.86 301.718C190.123 303.091 182.385 303.64 174.371 303.914V231.162C180.174 231.162 185.425 230.338 190.675 228.691C195.926 227.044 200.9 224.847 205.598 221.827C210.295 218.807 214.717 215.238 218.862 210.846C223.007 206.453 226.876 201.237 230.745 195.472H310.055Z" fill="#73B7C9"/>
<path d="M100.588 173.508C100.588 178.45 101.14 183.117 101.969 187.51C102.798 191.903 103.904 196.295 105.562 200.139C107.22 204.257 109.154 207.826 111.365 211.395C113.576 214.964 116.339 218.258 119.379 221.553C122.142 224.573 125.182 227.043 128.222 229.514C131.262 231.711 134.578 233.632 138.17 235.28C141.763 236.927 145.355 238.3 149.224 239.123C153.092 240.221 157.238 240.77 161.383 241.045V319.014C151.434 318.739 142.039 317.641 132.643 315.719C123.524 313.798 114.681 311.052 106.115 307.209C97.548 303.64 89.5341 299.247 81.7965 293.756C74.059 288.54 66.5978 282.226 59.6892 275.362C52.5044 268.224 46.4249 261.086 41.1744 253.125C35.9239 245.438 31.2261 237.201 27.6337 228.691C24.0412 220.18 21.2778 211.395 19.3434 202.06C17.409 192.726 16.3037 183.117 16.0273 173.234H100.588V173.508Z" fill="#73B7C9"/>
<path d="M385.287 275.331C382.384 275.331 379.705 274.799 377.252 273.734C374.839 272.629 372.856 271.073 371.302 269.067L376.822 262.435C379.153 265.587 381.811 267.163 384.797 267.163C388.845 267.163 390.869 264.789 390.869 260.04V239.59H375.78V231.606H400.745V259.487C400.745 264.768 399.436 268.739 396.819 271.401C394.202 274.021 390.358 275.331 385.287 275.331Z" fill="#73B7C9"/>
<path d="M429.637 275.331C423.503 275.331 418.718 273.632 415.283 270.234C411.889 266.836 410.192 261.984 410.192 255.679V231.606H420.129V255.311C420.129 263.008 423.319 266.856 429.698 266.856C432.806 266.856 435.178 265.935 436.814 264.093C438.449 262.209 439.267 259.282 439.267 255.311V231.606H449.082V255.679C449.082 261.984 447.364 266.836 443.929 270.234C440.535 273.632 435.771 275.331 429.637 275.331Z" fill="#73B7C9"/>
<path d="M473.009 275.331C469.615 275.331 466.323 274.881 463.134 273.98C459.985 273.038 457.449 271.83 455.527 270.357L458.901 262.864C460.741 264.215 462.929 265.3 465.465 266.119C468 266.938 470.535 267.347 473.071 267.347C475.892 267.347 477.978 266.938 479.327 266.119C480.677 265.259 481.352 264.134 481.352 262.742C481.352 261.718 480.943 260.879 480.125 260.224C479.348 259.528 478.325 258.975 477.058 258.566C475.831 258.156 474.154 257.706 472.028 257.215C468.756 256.437 466.078 255.659 463.992 254.881C461.907 254.103 460.108 252.854 458.594 251.135C457.122 249.415 456.386 247.123 456.386 244.257C456.386 241.76 457.061 239.508 458.41 237.502C459.76 235.455 461.784 233.838 464.483 232.65C467.223 231.463 470.556 230.869 474.481 230.869C477.221 230.869 479.9 231.197 482.517 231.852C485.134 232.507 487.424 233.449 489.387 234.677L486.32 242.23C482.353 239.979 478.387 238.853 474.42 238.853C471.639 238.853 469.574 239.303 468.225 240.204C466.916 241.105 466.262 242.292 466.262 243.766C466.262 245.24 467.018 246.345 468.532 247.082C470.085 247.778 472.437 248.474 475.586 249.17C478.857 249.948 481.536 250.726 483.621 251.503C485.707 252.281 487.486 253.51 488.958 255.188C490.471 256.867 491.227 259.139 491.227 262.005C491.227 264.461 490.532 266.713 489.142 268.76C487.792 270.766 485.748 272.363 483.008 273.55C480.268 274.737 476.935 275.331 473.009 275.331Z" fill="#73B7C9"/>
<path d="M506.313 239.713H492.572V231.606H529.99V239.713H516.25V274.594H506.313V239.713Z" fill="#73B7C9"/>
<path d="M561.602 239.713H547.862V231.606H585.279V239.713H571.539V274.594H561.602V239.713Z" fill="#73B7C9"/>
<path d="M630.006 231.606V274.594H620.069V256.969H600.563V274.594H590.626V231.606H600.563V248.556H620.069V231.606H630.006Z" fill="#73B7C9"/>
<path d="M640.165 231.606H650.102V274.594H640.165V231.606Z" fill="#73B7C9"/>
<path d="M699.672 231.606V274.594H691.514L670.106 248.494V274.594H660.292V231.606H668.512L689.858 257.706V231.606H699.672Z" fill="#73B7C9"/>
<path d="M725.473 257.706L719.707 263.724V274.594H709.831V231.606H719.707V251.688L738.722 231.606H749.763L731.975 250.767L750.806 274.594H739.213L725.473 257.706Z" fill="#73B7C9"/>
<path d="M755.237 231.606H765.174V274.594H755.237V231.606Z" fill="#73B7C9"/>
<path d="M814.744 231.606V274.594H806.586L785.178 248.494V274.594H775.364V231.606H783.584L804.93 257.706V231.606H814.744Z" fill="#73B7C9"/>
<path d="M853.917 252.425H862.995V269.865C860.664 271.626 857.965 272.977 854.898 273.918C851.831 274.86 848.744 275.331 845.636 275.331C841.179 275.331 837.171 274.389 833.613 272.506C830.056 270.582 827.254 267.941 825.21 264.584C823.206 261.186 822.204 257.358 822.204 253.1C822.204 248.842 823.206 245.035 825.21 241.678C827.254 238.28 830.076 235.639 833.675 233.756C837.273 231.831 841.322 230.869 845.82 230.869C849.582 230.869 852.997 231.504 856.064 232.773C859.131 234.042 861.707 235.885 863.793 238.3L857.413 244.196C854.346 240.961 850.645 239.344 846.311 239.344C843.571 239.344 841.138 239.917 839.011 241.064C836.885 242.21 835.229 243.827 834.043 245.915C832.857 248.003 832.264 250.398 832.264 253.1C832.264 255.761 832.857 258.136 834.043 260.224C835.229 262.312 836.864 263.949 838.95 265.137C841.076 266.283 843.489 266.856 846.188 266.856C849.051 266.856 851.627 266.242 853.917 265.014V252.425Z" fill="#73B7C9"/>
<path d="M469.057 84C468.604 80.4062 467.248 77.2617 465.439 74.1172C463.631 71.1972 461.37 68.5019 458.431 66.2558C455.718 64.0097 452.552 62.2129 448.935 61.0898C445.318 59.7422 441.7 59.2929 437.857 59.2929C430.848 59.2929 424.97 60.6406 419.996 63.3359C415.022 66.0312 411.179 69.625 408.014 74.1172C405.075 78.6093 402.814 83.7753 401.457 89.6152C400.101 95.455 399.423 101.295 399.423 107.584C399.423 113.424 400.101 119.264 401.457 124.879C402.814 130.494 405.075 135.435 408.014 139.928C410.953 144.42 415.022 148.014 419.996 150.709C424.97 153.404 430.848 154.752 437.857 154.752C447.352 154.752 454.813 151.832 460.239 145.992C465.665 140.152 468.83 132.516 470.187 123.082H500.482C499.578 131.842 497.543 139.928 494.378 146.891C490.987 154.078 486.691 160.142 481.265 165.084C475.839 170.025 469.509 173.844 462.274 176.539C455.039 179.234 446.9 180.582 438.309 180.582C427.231 180.582 417.509 178.785 408.918 174.967C400.327 171.148 393.092 165.982 386.988 159.244C381.11 152.73 376.362 144.869 373.197 135.885C370.032 126.9 368.449 117.467 368.449 107.135C368.449 96.8027 370.032 86.9199 373.197 77.9355C376.362 68.9511 380.884 60.8652 386.988 54.1269C392.866 47.3887 400.327 42.2226 408.918 38.4043C417.509 34.5859 427.231 32.7891 438.309 32.7891C446.222 32.7891 453.457 33.9121 460.465 36.1582C467.474 38.4043 473.578 41.5488 479.23 46.041C484.656 50.3086 489.178 55.6992 492.795 61.9883C496.413 68.2773 498.674 75.4648 499.578 83.7753H469.057V84Z" fill="#193D46"/>
<path d="M542.082 133.414C542.534 142.398 544.795 148.912 549.09 152.955C553.386 156.997 559.49 159.244 567.403 159.244C573.055 159.244 578.029 157.896 582.099 154.976C586.168 152.056 588.655 149.136 589.559 145.992H614.429C610.359 158.121 604.255 166.88 596.116 172.271C587.977 177.662 578.029 180.357 566.273 180.357C558.134 180.357 550.899 179.009 544.343 176.314C537.786 173.619 532.36 170.025 527.838 165.308C523.317 160.591 519.926 154.976 517.439 148.238C514.952 141.724 513.821 134.312 513.821 126.451C513.821 118.814 515.178 111.626 517.665 105.113C520.152 98.5991 523.769 92.7593 528.291 88.0425C533.038 83.3257 538.464 79.5073 544.795 76.5874C551.125 73.8921 558.36 72.5444 566.273 72.5444C575.09 72.5444 582.551 74.1167 589.107 77.4858C595.664 80.855 600.864 85.3472 605.159 90.9624C609.229 96.5776 612.394 103.091 614.203 110.279C616.011 117.466 616.689 125.103 616.237 132.964H542.082V133.414ZM587.977 115.669C586.62 108.482 584.359 103.091 580.968 99.4975C577.577 95.9038 572.377 93.8823 565.594 93.8823C561.073 93.8823 557.229 94.5561 554.29 96.1284C551.351 97.7007 548.864 99.4975 547.056 101.744C545.247 103.99 544.117 106.46 543.212 108.931C542.534 111.402 542.082 113.648 541.856 115.669H587.977Z" fill="#193D46"/>
<path d="M632.968 75.6894H659.872V89.8398H660.55C664.167 84 668.689 79.7324 674.567 77.0371C680.219 74.3418 686.097 72.9941 691.976 72.9941C699.436 72.9941 705.767 74.1172 710.515 76.1387C715.262 78.1601 719.106 81.0801 722.045 84.6738C724.758 88.2676 726.793 92.7597 727.923 97.9258C729.053 103.092 729.732 108.932 729.732 115.221V178.111H701.471V120.162C701.471 111.627 700.115 105.338 697.402 101.295C694.689 97.2519 689.941 95.0058 683.385 95.0058C675.698 95.0058 670.046 97.2519 666.654 101.744C663.263 106.236 661.454 113.873 661.454 124.205V177.662H633.194V75.6894H632.968Z" fill="#193D46"/>
<path d="M779.922 59.7419H751.661V36.6072H779.922V59.7419ZM751.661 75.6892H779.922V177.662H751.661V75.6892Z" fill="#193D46"/>
<path d="M838.024 75.6887H858.598V94.5558H838.024V145.093C838.024 149.81 838.929 152.954 840.511 154.526C842.094 156.099 845.259 156.997 850.007 156.997C853.172 156.997 856.111 156.773 858.824 156.099V178.11C856.337 178.56 853.85 178.784 850.911 179.009C847.972 179.233 845.259 179.233 842.32 179.233C838.024 179.233 833.729 179.009 829.885 178.335C826.042 177.661 822.425 176.538 819.485 174.741C816.546 172.944 814.06 170.474 812.477 167.329C810.668 164.185 809.99 159.917 809.99 154.976V94.3312H792.808V75.4641H809.99V44.9172H838.024V75.6887Z" fill="#193D46"/>
</svg>
