<svg version="1.1" id="Capa_1" xmlns="http://www.w3.org/2000/svg" x="0" y="0" viewBox="0 0 971 718.3" style="enable-background:new 0 0 971 718.3" xml:space="preserve"><style>.st1{fill:#2b2b2b}</style><g id="Capa_1_00000134234686972784523650000009445932336109737603_"><g style="enable-background:new"><path class="st1" d="M91.7 664c-11.6 0-22.2-1.9-32-5.7-9.8-3.8-18.3-9.1-25.4-16-7.2-6.9-12.8-15-16.8-24.3s-6-19.5-6-30.5 2-21.2 6-30.5 9.6-17.4 16.9-24.3c7.2-6.9 15.8-12.2 25.6-16 9.8-3.8 20.5-5.7 32-5.7 11.1 0 21.6 1.8 31.4 5.5 9.8 3.7 18.1 9.1 24.8 16.4L137.9 543c-6.3-6.3-13.2-10.9-20.8-13.7-7.6-2.8-15.8-4.2-24.6-4.2-9.2 0-17.8 1.5-25.7 4.6-7.9 3.1-14.8 7.5-20.6 13.1-5.8 5.7-10.4 12.3-13.7 19.8-3.3 7.5-4.9 15.8-4.9 24.8s1.6 17.3 4.9 24.8c3.3 7.5 7.9 14.1 13.7 19.8 5.8 5.7 12.7 10 20.6 13.1 7.9 3.1 16.4 4.6 25.7 4.6 8.8 0 17-1.4 24.6-4.3 7.6-2.9 14.5-7.5 20.8-13.8l10.3 10.1c-6.7 7.3-15 12.8-24.8 16.6-9.9 3.8-20.5 5.7-31.7 5.7zM221.3 663.7c-11.1 0-21.1-2.5-29.9-7.4-8.8-4.9-15.8-11.8-20.9-20.4-5.1-8.7-7.7-18.6-7.7-29.8 0-11.3 2.6-21.3 7.7-29.9 5.1-8.6 12.1-15.3 20.8-20.2 8.8-4.9 18.8-7.3 30-7.3 11.4 0 21.5 2.4 30.4 7.3 8.8 4.9 15.8 11.6 20.8 20.2s7.6 18.6 7.6 29.9c0 11.2-2.5 21.1-7.6 29.8-5 8.7-12 15.5-20.9 20.4-9 5-19 7.4-30.3 7.4zm0-13.5c8.3 0 15.7-1.8 22.2-5.5 6.4-3.7 11.5-8.8 15.2-15.5s5.6-14.4 5.6-23.1c0-8.9-1.9-16.6-5.6-23.2-3.7-6.6-8.8-11.7-15.2-15.4-6.4-3.7-13.7-5.5-21.9-5.5s-15.5 1.8-21.9 5.5c-6.4 3.7-11.6 8.8-15.4 15.4-3.8 6.6-5.7 14.3-5.7 23.2 0 8.7 1.9 16.4 5.7 23.1 3.8 6.7 8.9 11.8 15.4 15.5 6.3 3.7 13.6 5.5 21.6 5.5zM357.7 663.7c-11 0-20.8-2.4-29.5-7.3s-15.5-11.6-20.5-20.3c-5-8.7-7.5-18.7-7.5-30 0-11.5 2.5-21.5 7.5-30.1 5-8.6 11.8-15.3 20.5-20.1 8.7-4.8 18.5-7.2 29.5-7.2 10.1 0 19.1 2.2 27.1 6.7 8 4.4 14.3 10.9 19.1 19.5 4.7 8.5 7.1 19 7.1 31.3 0 12.2-2.3 22.6-7 31.2-4.7 8.6-11 15.2-19 19.7-8 4.4-17.1 6.6-27.3 6.6zm1.1-13.5c8.2 0 15.5-1.8 22-5.5s11.6-8.8 15.4-15.5 5.6-14.4 5.6-23.1c0-8.9-1.9-16.6-5.6-23.2-3.7-6.6-8.8-11.7-15.4-15.4-6.5-3.7-13.9-5.5-22-5.5-8 0-15.3 1.8-21.7 5.5-6.4 3.7-11.6 8.8-15.4 15.4-3.8 6.6-5.7 14.3-5.7 23.2 0 8.7 1.9 16.4 5.7 23.1 3.8 6.7 8.9 11.8 15.4 15.5 6.4 3.7 13.7 5.5 21.7 5.5zm43.4 12.5v-34l1.5-22.8-2.2-22.8v-80h15.6v159.5h-14.9zM509.5 663.7c-12 0-22.5-2.5-31.6-7.4-9.1-4.9-16.2-11.8-21.3-20.4-5.1-8.7-7.7-18.6-7.7-29.8s2.4-21.1 7.3-29.7c4.9-8.6 11.6-15.4 20.2-20.3s18.2-7.4 28.8-7.4c10.8 0 20.4 2.4 28.8 7.2 8.4 4.8 15 11.5 19.8 20.2 4.8 8.7 7.2 18.7 7.2 30 0 .7 0 1.5-.1 2.3-.1.8-.1 1.6-.1 2.5h-100v-11.4h91.9l-6.1 4.5c0-8.2-1.8-15.4-5.4-21.8-3.6-6.4-8.4-11.4-14.6-14.9-6.1-3.6-13.2-5.4-21.3-5.4-7.9 0-15 1.8-21.3 5.4-6.3 3.6-11.2 8.6-14.7 15.1s-5.3 13.8-5.3 22.1v2.4c0 8.6 1.9 16.2 5.8 22.7s9.3 11.6 16.2 15.3c6.9 3.7 14.9 5.5 23.8 5.5 7 0 13.6-1.2 19.6-3.7 6.1-2.4 11.3-6.2 15.7-11.2l8.8 9.9c-5.1 6-11.5 10.6-19.2 13.8-7.6 3-16 4.5-25.2 4.5zM593 662.7V503.1h15.6v80l-2.2 22.8 1.5 22.8v34H593zm59.5 1c-10.1 0-19.2-2.3-27.2-6.8s-14.4-11.1-19.1-19.7c-4.7-8.6-7-19-7-31.2 0-12.3 2.4-22.8 7.1-31.3 4.8-8.5 11.1-15 19.2-19.5 8-4.4 17-6.7 27-6.7 11 0 20.8 2.4 29.5 7.2 8.7 4.8 15.5 11.5 20.5 20.1 5 8.6 7.5 18.6 7.5 30.1 0 11.3-2.5 21.3-7.5 30s-11.8 15.4-20.5 20.3c-8.7 5.1-18.6 7.5-29.5 7.5zm-1.1-13.5c8.2 0 15.5-1.8 21.9-5.5 6.4-3.7 11.5-8.8 15.4-15.5 3.8-6.7 5.7-14.4 5.7-23.1 0-8.9-1.9-16.6-5.7-23.2-3.8-6.6-8.9-11.7-15.4-15.4-6.4-3.7-13.7-5.5-21.9-5.5s-15.5 1.8-22 5.5-11.6 8.8-15.4 15.4c-3.7 6.6-5.6 14.3-5.6 23.2 0 8.7 1.9 16.4 5.6 23.1s8.8 11.8 15.4 15.5c6.4 3.7 13.8 5.5 22 5.5zM773.5 663.7c-8.6 0-16.1-1.4-22.5-4.2-6.4-2.8-11.2-6.7-14.6-11.6-3.4-4.9-5-10.6-5-17.1 0-5.9 1.4-11.2 4.3-16 2.9-4.8 7.5-8.7 14-11.6 6.5-2.9 15.2-4.4 26.2-4.4h39.7v11.4h-39.3c-11.1 0-18.8 1.9-23.1 5.8-4.3 3.9-6.5 8.7-6.5 14.4 0 6.5 2.6 11.6 7.7 15.5 5.1 3.9 12.3 5.8 21.5 5.8 8.8 0 16.3-2 22.7-5.9 6.4-3.9 11-9.6 13.9-17.1l3.5 10.5c-2.9 7.5-8 13.4-15.2 17.8-7.2 4.5-16.3 6.7-27.3 6.7zm39.7-1v-24.9l-.7-4.1V592c0-9.6-2.7-17-8.2-22.1-5.5-5.2-13.6-7.7-24.5-7.7-7.5 0-14.6 1.2-21.3 3.7-6.7 2.4-12.4 5.7-17.1 9.7l-7-11.4c5.8-4.9 12.9-8.6 21.1-11.3 8.2-2.7 16.8-4 25.9-4 14.9 0 26.4 3.6 34.5 10.9 8.1 7.2 12.2 18.2 12.2 33v70.1h-14.9zM869.2 705.4c-5.4 0-10.6-.9-15.5-2.6-4.9-1.7-9.1-4.3-12.6-7.7l7.2-11.4c2.9 2.7 6.1 4.8 9.5 6.3 3.4 1.5 7.3 2.3 11.5 2.3 5.1 0 9.5-1.4 13.3-4.2 3.7-2.8 7.3-7.7 10.6-14.7l7.5-16.6 1.8-2.4 47.4-104.7h15.4l-57.7 126.4c-3.2 7.3-6.8 13.1-10.6 17.4-3.9 4.3-8.1 7.3-12.6 9.1-4.6 2-9.7 2.8-15.2 2.8zm30.7-39.5-53.1-116.1H863l47 103.6-10.1 12.5z"/></g><path d="M849.5 228.4c-39.5 108.2-146.7 116.7-174.8 117 51.3-3.2 90.2-47.4 87-98.7s-47.4-90.2-98.7-87c-3.7.2-7.3.7-11 1.4-57.2 9-99.3 63.7-99.3 63.7-10.7-37.5-34.5-89.8-34.5-89.8 32.5-24.9 75-49.2 122.9-56.8 96.8-17.7 189.6 46.5 207.3 143.3.4 2.3.8 4.5 1.1 6.9z" style="fill:#1fa9b3"/><linearGradient id="SVGID_1_" gradientUnits="userSpaceOnUse" x1="995.27" y1="320.157" x2="655.52" y2="320.157" gradientTransform="matrix(1 0 0 -1 -161 650)"><stop offset="0" style="stop-color:#1fa9b3"/><stop offset="1" style="stop-color:#5bb88d"/></linearGradient><path d="M846.3 294.8c-22.9 95.7-119.1 154.6-214.7 131.7-24-5.8-46.6-16.5-66.3-31.4-15.4-11.2-29.3-24.4-41.5-39-11.6-14-21.8-28.9-30.7-44.7-9-14.9-23-46-38.5-83 1.7 2.5 71.2 104.5 199.4 116.2 6.8 1.1 13.8 1.4 20.7 1 28.2-.3 135.3-8.8 174.8-117 3.1 22 2 44.5-3.2 66.2z" style="fill:url(#SVGID_1_)"/><linearGradient id="SVGID_00000075864733476742216830000008500757372829161136_" gradientUnits="userSpaceOnUse" x1="349.75" y1="347.094" x2="596.18" y2="347.094" gradientTransform="matrix(1 0 0 -1 -161 650)"><stop offset="0" style="stop-color:#5bb88d"/><stop offset=".23" style="stop-color:#55b691"/><stop offset=".55" style="stop-color:#44b29c"/><stop offset=".91" style="stop-color:#27abae"/><stop offset="1" style="stop-color:#1fa9b3"/></linearGradient><path style="fill:url(#SVGID_00000075864733476742216830000008500757372829161136_)" d="M434.1 358c-5.9 23.8-21 33.9-21 33.9-51.8 42.6-123 52.8-184.6 26.5-29.2-28.1-48.1-67.9-48.1-111.7 0-59.3 28.3-108 77.2-133.8-44 26.1-58.6 82.9-32.5 127 19.9 33.6 58.8 51.1 97.2 43.8 57.2-9 99.3-63.7 99.3-63.7 16.1 34.7 16.9 60.2 12.5 78z"/><linearGradient id="SVGID_00000076568504748516425900000012366912560900190101_" gradientUnits="userSpaceOnUse" x1="185.183" y1="357.055" x2="428.573" y2="406.235" gradientTransform="matrix(1 0 0 -1 -161 650)"><stop offset=".19" style="stop-color:#007364"/><stop offset=".24" style="stop-color:#0f7e6b"/><stop offset=".35" style="stop-color:#2a9377"/><stop offset=".48" style="stop-color:#40a381"/><stop offset=".61" style="stop-color:#4faf88"/><stop offset=".77" style="stop-color:#58b68c"/><stop offset="1" style="stop-color:#5bb88d"/></linearGradient><path style="fill:url(#SVGID_00000076568504748516425900000012366912560900190101_)" d="M368.1 178.3c-6.2-3.7-12.7-7-19.5-9.7-8.5-3.5-17.3-6-26.3-7.5-22.3-4.1-45.3.1-64.7 11.8-48.9 25.8-77.2 74.5-77.2 133.8 0 43.8 18.9 83.6 48.1 111.7-91-38.9-133.3-144.3-94.4-235.4 33.1-77.4 115.6-121.4 198.4-105.6l35.6 100.9z"/><linearGradient id="SVGID_00000027572484311543929550000010317690428224080004_" gradientUnits="userSpaceOnUse" x1="736.46" y1="308.44" x2="597.99" y2="662.33" gradientTransform="matrix(1 0 0 -1 -161 650)"><stop offset="0" style="stop-color:#1fa9b3"/><stop offset=".26" style="stop-color:#5bb88d"/><stop offset=".27" style="stop-color:#61b98a"/><stop offset=".36" style="stop-color:#91be71"/><stop offset=".45" style="stop-color:#b8c35c"/><stop offset=".53" style="stop-color:#d7c64c"/><stop offset=".62" style="stop-color:#ecc940"/><stop offset=".7" style="stop-color:#faca39"/><stop offset=".77" style="stop-color:#fecb37"/><stop offset=".81" style="stop-color:#fac136"/><stop offset=".87" style="stop-color:#f1a433"/><stop offset=".96" style="stop-color:#e1772f"/><stop offset="1" style="stop-color:#d85c2c"/></linearGradient><path style="fill:url(#SVGID_00000027572484311543929550000010317690428224080004_)" d="M654 344.5c-128.2-11.6-197.7-113.7-199.4-116.2C415.1 133.5 365.9 0 365.9 0s89.3 9.1 152.3 135c0 0 23.7 52.3 34.5 89.8 0 0 12.8 67.8 59.8 101.8a93.25 93.25 0 0 0 34.7 16.4c2.2.6 4.6 1.1 6.8 1.5z"/><g style="opacity:.75"><linearGradient id="SVGID_00000103229800742869610280000012792895536255457699_" gradientUnits="userSpaceOnUse" x1="607.47" y1="378.71" x2="644.47" y2="436.45" gradientTransform="matrix(1 0 0 -1 -161 650)"><stop offset=".3" style="stop-color:#007364"/><stop offset=".76" style="stop-color:#adaf45;stop-opacity:.32"/><stop offset="1" style="stop-color:#fecb37;stop-opacity:0"/></linearGradient><path style="opacity:.4;fill:url(#SVGID_00000103229800742869610280000012792895536255457699_);enable-background:new" d="M654 344.4c-128.2-11.6-197.7-113.7-199.4-116.2C415 133.5 365.9 0 365.9 0s89.3 9.1 152.3 135c0 0 23.7 52.3 34.5 89.8 0 0 12.8 67.8 59.7 101.8a93.25 93.25 0 0 0 34.7 16.4c2.3.6 4.6 1.1 6.9 1.4z"/><linearGradient id="SVGID_00000001649280548500499770000011963278015388574879_" gradientUnits="userSpaceOnUse" x1="774.169" y1="555.723" x2="977.389" y2="294.103" gradientTransform="matrix(1 0 0 -1 -161 650)"><stop offset="0" style="stop-color:#1fa9b3;stop-opacity:0"/><stop offset=".15" style="stop-color:#1ea7b1;stop-opacity:3.000000e-02"/><stop offset=".3" style="stop-color:#1ba0ab;stop-opacity:.14"/><stop offset=".45" style="stop-color:#1595a1;stop-opacity:.31"/><stop offset=".61" style="stop-color:#0e8592;stop-opacity:.55"/><stop offset=".77" style="stop-color:#047180;stop-opacity:.86"/><stop offset=".83" style="stop-color:#006878"/></linearGradient><path style="opacity:.65;fill:url(#SVGID_00000001649280548500499770000011963278015388574879_);enable-background:new" d="M849.5 228.4c-39.5 108.3-146.6 116.7-174.8 117 51.3-3.2 90.2-47.4 87-98.7s-47.4-90.2-98.7-87c-3.7.2-7.3.7-11 1.4-57.2 9-99.3 63.7-99.3 63.7-10.7-37.5-34.5-89.9-34.5-89.9 32.5-24.9 75-49.2 122.9-56.8 96.8-17.7 189.6 46.5 207.3 143.3.4 2.4.8 4.6 1.1 7z"/><linearGradient id="SVGID_00000005251013040584224910000010662264674128273811_" gradientUnits="userSpaceOnUse" x1="636.06" y1="320.147" x2="1032.641" y2="320.147" gradientTransform="matrix(1 0 0 -1 -161 650)"><stop offset="0" style="stop-color:#fff;stop-opacity:0"/><stop offset=".35" style="stop-color:#adced3;stop-opacity:.32"/><stop offset="1" style="stop-color:#006878"/></linearGradient><path style="opacity:.7;fill:url(#SVGID_00000005251013040584224910000010662264674128273811_);enable-background:new" d="M846.3 294.8c-22.9 95.7-119.1 154.6-214.7 131.7-24-5.8-46.6-16.5-66.3-31.4-15.4-11.2-29.3-24.4-41.5-39.1-11.6-14-21.8-28.9-30.7-44.7-9-14.9-23-46-38.5-83 1.7 2.5 71.2 104.5 199.4 116.2 6.8 1.1 13.8 1.4 20.7 1 28.2-.3 135.3-8.8 174.8-117 3.1 22.1 2 44.6-3.2 66.3z"/><linearGradient id="SVGID_00000163035804057640552680000008279670199298703509_" gradientUnits="userSpaceOnUse" x1="295.88" y1="347.094" x2="551.915" y2="347.094" gradientTransform="matrix(1 0 0 -1 -161 650)"><stop offset="0" style="stop-color:#007364"/><stop offset=".15" style="stop-color:#0e7b6c;stop-opacity:.95"/><stop offset=".36" style="stop-color:#359084;stop-opacity:.79"/><stop offset=".6" style="stop-color:#75b3ab;stop-opacity:.54"/><stop offset=".87" style="stop-color:#cde4e1;stop-opacity:.19"/><stop offset="1" style="stop-color:#fff;stop-opacity:0"/></linearGradient><path style="opacity:.7;fill:url(#SVGID_00000163035804057640552680000008279670199298703509_);enable-background:new" d="M434.1 358c-5.9 23.8-21 33.9-21 33.9-51.8 42.6-123 52.8-184.6 26.5-29.2-28.1-48.1-67.9-48.1-111.7 0-59.3 28.3-108 77.2-133.8-44 26.1-58.6 82.9-32.5 127 19.9 33.6 58.8 51.1 97.2 43.8 57.2-9 99.3-63.7 99.3-63.7 16.1 34.7 16.9 60.2 12.5 78z"/><linearGradient id="SVGID_00000046319613663044858740000003530943850773875880_" gradientUnits="userSpaceOnUse" x1="742.226" y1="389.457" x2="848.756" y2="448.137" gradientTransform="matrix(1 0 0 -1 -161 650)"><stop offset="0" style="stop-color:#006878"/><stop offset=".07" style="stop-color:#047180;stop-opacity:.86"/><stop offset=".26" style="stop-color:#0e8592;stop-opacity:.55"/><stop offset=".45" style="stop-color:#1595a1;stop-opacity:.31"/><stop offset=".64" style="stop-color:#1ba0ab;stop-opacity:.14"/><stop offset=".82" style="stop-color:#1ea7b1;stop-opacity:3.000000e-02"/><stop offset="1" style="stop-color:#1fa9b3;stop-opacity:0"/></linearGradient><path style="opacity:.7;fill:url(#SVGID_00000046319613663044858740000003530943850773875880_);enable-background:new" d="M849.5 228.4c-39.5 108.3-146.6 116.7-174.8 117 51.3-3.2 90.2-47.4 87-98.7s-47.4-90.2-98.7-87c-3.7.2-7.3.7-11 1.4-57.2 9-99.3 63.7-99.3 63.7-10.7-37.5-34.5-89.9-34.5-89.9 32.5-24.9 75-49.2 122.9-56.8 96.8-17.7 189.6 46.5 207.3 143.3.4 2.4.8 4.6 1.1 7z"/></g></g></svg>