<svg xmlns="http://www.w3.org/2000/svg" xmlns:xlink="http://www.w3.org/1999/xlink" width="648" height="255" viewBox="0 0 648 255">
  <defs>
    <clipPath id="clip-Codebay-Black-green">
      <rect width="648" height="255"/>
    </clipPath>
  </defs>
  <g id="Codebay-Black-green" clip-path="url(#clip-Codebay-Black-green)">
    <g id="Group_109748" data-name="Group 109748" transform="translate(0 1)">
      <g id="Group_11" data-name="Group 11" transform="translate(-4.551 -2.353)">
        <path id="Path_37315" data-name="Path 37315" d="M79.986,79.161l5.277,13.366H74.745Zm-1.9-3.154-9.992,24.771h3.535l2.2-5.5h12.33l2.2,5.5h3.518L81.909,76.007Z" transform="translate(67.46 99.047)" fill="#1b2432"/>
        <path id="Path_37317" data-name="Path 37317" d="M94.3,88.548a13.553,13.553,0,0,1,1-5.242,11.847,11.847,0,0,1,2.71-4.067,12.255,12.255,0,0,1,4.05-2.571,13.4,13.4,0,0,1,4.968-.922,11.824,11.824,0,0,1,9.611,4.6L114.188,81.9a8.546,8.546,0,0,0-3.091-2.48,9.579,9.579,0,0,0-10.889,1.892,9.969,9.969,0,0,0-2.72,7.233,10.847,10.847,0,0,0,1.251,5.223,9.114,9.114,0,0,0,3.426,3.609,9.389,9.389,0,0,0,4.86,1.284,8.748,8.748,0,0,0,3.355-.619,6.891,6.891,0,0,0,2.5-1.712,9.391,9.391,0,0,0,1.613-2.451,11.03,11.03,0,0,0,.853-2.943H105.176V88.183h13.51a16.451,16.451,0,0,1-1.35,6.874,10.521,10.521,0,0,1-4.061,4.666,11.93,11.93,0,0,1-6.465,1.7,12.667,12.667,0,0,1-8.828-3.541,11.788,11.788,0,0,1-2.693-4.085,13.748,13.748,0,0,1-.992-5.247" transform="translate(82.646 98.895)" fill="#1b2432"/>
        <path id="Path_37319" data-name="Path 37319" d="M113.27,100.778V76.008h3.083V98.022h11.515v2.756Z" transform="translate(93.642 99.048)" fill="#1b2432"/>
        <path id="Path_37321" data-name="Path 37321" d="M127.037,95.109a14.761,14.761,0,0,1,0-13.091,11.417,11.417,0,0,1,4.345-4.6,13.115,13.115,0,0,1,12.835,0,11.465,11.465,0,0,1,4.374,4.6,14.667,14.667,0,0,1,0,13.091,11.465,11.465,0,0,1-4.374,4.6,13.115,13.115,0,0,1-12.835,0,11.417,11.417,0,0,1-4.345-4.6m1.662-6.545a11.759,11.759,0,0,0,1.1,5.151,8.528,8.528,0,0,0,3.186,3.6,9.466,9.466,0,0,0,9.629,0,8.634,8.634,0,0,0,3.214-3.6,11.59,11.59,0,0,0,1.117-5.151,10.471,10.471,0,0,0-2.524-7.226,9.142,9.142,0,0,0-13.233-.009,10.561,10.561,0,0,0-2.486,7.236" transform="translate(100.733 98.894)" fill="#1b2432"/>
        <path id="Path_37323" data-name="Path 37323" d="M145.962,100.778V76.008h11.027a7.153,7.153,0,0,1,5.065,1.739,5.924,5.924,0,0,1,1.878,4.563,5.656,5.656,0,0,1-1.27,3.753,5.463,5.463,0,0,1-3.083,1.921,5.344,5.344,0,0,1,3.4,2.1,6.249,6.249,0,0,1,1.426,4,6.419,6.419,0,0,1-1.911,4.86,7.291,7.291,0,0,1-5.261,1.831Zm3.082-14.053h7.417a4.309,4.309,0,0,0,3.154-1.1,3.828,3.828,0,0,0,1.125-2.859,3.893,3.893,0,0,0-1.125-2.867,4.25,4.25,0,0,0-3.154-1.131h-7.417Zm0,11.3h7.618a4.673,4.673,0,0,0,3.345-1.142,4.089,4.089,0,0,0,1.205-3.12,4.2,4.2,0,0,0-1.2-3.047,4.459,4.459,0,0,0-3.353-1.232h-7.618Z" transform="translate(112.587 99.048)" fill="#1b2432"/>
        <path id="Path_37325" data-name="Path 37325" d="M160.953,100.778l9.992-24.771h3.826l9.956,24.771h-3.518l-2.2-5.5H166.682l-2.194,5.5Zm6.654-8.251h10.518l-5.277-13.364Z" transform="translate(121.275 99.047)" fill="#1b2432"/>
        <path id="Path_37327" data-name="Path 37327" d="M179.881,100.778V76.008h3.156l14.254,19.347V76.008h3.082v24.77H197.4L182.964,81.012v19.766Z" transform="translate(132.244 99.048)" fill="#1b2432"/>
        <path id="Path_37329" data-name="Path 37329" d="M197.272,78.763V76.007h18.787v2.756h-7.871v22.015h-3.082V78.763Z" transform="translate(142.322 99.047)" fill="#1b2432"/>
        <path id="Path_37336" data-name="Path 37336" d="M220.56,75.258h9.49c8.856,0,13.1,6.328,13.1,12.764,0,6.662-3.982,13.323-13.1,13.323h-9.49V75.258Zm19.351,12.728c0-4.838-3.2-9.6-9.861-9.6H223.8V98.107h6.252c6.921,0,9.861-5.135,9.861-10.122" transform="translate(155.818 98.613)" fill="#1b2432"/>
        <rect id="Rectangle_13681" data-name="Rectangle 13681" width="3.238" height="26.048" transform="translate(404.288 173.91)" fill="#1b2432"/>
        <path id="Path_37338" data-name="Path 37338" d="M246.551,75.283l8.894,22.252,8.968-22.252h3.571l-10.753,26.122h-3.5L242.942,75.283Z" transform="translate(168.788 98.628)" fill="#1b2432"/>
        <rect id="Rectangle_13683" data-name="Rectangle 13683" width="3.238" height="26.048" transform="translate(441.018 173.91)" fill="#1b2432"/>
        <path id="Path_37340" data-name="Path 37340" d="M277.672,77.832c-3.312,0-6.847,1.3-6.847,4.465,0,2.829,3.236,3.649,7.07,4.28,5.209.82,10.346,1.861,10.346,7.741-.038,5.841-5.62,7.74-10.607,7.74-4.614,0-9-1.676-11.016-6.029l2.681-1.564a9.462,9.462,0,0,0,8.373,4.579c3.162,0,7.368-1.006,7.368-4.84.036-3.236-3.611-4.167-7.517-4.762-5.024-.782-9.9-1.935-9.9-7.22-.074-5.432,5.47-7.293,9.973-7.293,3.87,0,7.553.78,9.861,4.726L285,81.182c-1.414-2.27-4.429-3.312-7.331-3.35" transform="translate(182.51 98.423)" fill="#1b2432"/>
        <rect id="Rectangle_13685" data-name="Rectangle 13685" width="3.238" height="26.048" transform="translate(475.887 173.91)" fill="#1b2432"/>
        <path id="Path_37342" data-name="Path 37342" d="M315.413,88.546c-.038,6.809-4.28,13.472-13.211,13.472s-13.247-6.626-13.247-13.472c0-7.555,5.061-13.546,13.285-13.546,8.818.038,13.21,6.661,13.173,13.546M302.24,77.977c-6.624,0-10.047,4.874-10.047,10.569,0,5.283,3.2,10.418,10.047,10.418s9.935-5.283,9.935-10.418c.036-5.283-3.126-10.494-9.935-10.569" transform="translate(195.453 98.463)" fill="#1b2432"/>
        <path id="Path_37344" data-name="Path 37344" d="M311.322,75.283l15.964,19.945V75.283h3.2v26.048h-2.233l-16-19.872v19.872h-3.2V75.283Z" transform="translate(207.1 98.628)" fill="#1b2432"/>
        <g id="Group_8" data-name="Group 8" transform="translate(1)">
          <path id="Path_37316" data-name="Path 37316" d="M68.091,100.778l9.992-24.771h3.826l9.956,24.771H88.347l-2.2-5.5H73.82l-2.194,5.5Zm6.654-8.251H85.263L79.986,79.163Z" transform="translate(66.46 99.047)" fill="#1b2432" stroke="#000" stroke-miterlimit="10" stroke-width="0.692"/>
          <path id="Path_37318" data-name="Path 37318" d="M94.3,88.548a13.553,13.553,0,0,1,1-5.242,11.847,11.847,0,0,1,2.71-4.067,12.255,12.255,0,0,1,4.05-2.571,13.4,13.4,0,0,1,4.968-.922,11.824,11.824,0,0,1,9.611,4.6L114.188,81.9a8.546,8.546,0,0,0-3.091-2.48,9.579,9.579,0,0,0-10.889,1.892,9.969,9.969,0,0,0-2.72,7.233,10.847,10.847,0,0,0,1.251,5.223,9.114,9.114,0,0,0,3.426,3.609,9.389,9.389,0,0,0,4.86,1.284,8.748,8.748,0,0,0,3.355-.619,6.891,6.891,0,0,0,2.5-1.712,9.391,9.391,0,0,0,1.613-2.451,11.03,11.03,0,0,0,.853-2.943H105.176V88.183h13.51a16.451,16.451,0,0,1-1.35,6.874,10.521,10.521,0,0,1-4.061,4.666,11.93,11.93,0,0,1-6.465,1.7,12.667,12.667,0,0,1-8.828-3.541,11.788,11.788,0,0,1-2.693-4.085A13.748,13.748,0,0,1,94.3,88.548Z" transform="translate(81.646 98.895)" fill="#1b2432" stroke="#000" stroke-miterlimit="10" stroke-width="0.692"/>
          <path id="Path_37320" data-name="Path 37320" d="M113.27,100.778V76.008h3.083V98.022h11.515v2.756Z" transform="translate(92.642 99.048)" fill="#1b2432" stroke="#000" stroke-miterlimit="10" stroke-width="0.692"/>
          <path id="Path_37322" data-name="Path 37322" d="M127.037,95.109a14.761,14.761,0,0,1,0-13.091,11.417,11.417,0,0,1,4.345-4.6,13.115,13.115,0,0,1,12.835,0,11.465,11.465,0,0,1,4.374,4.6,14.667,14.667,0,0,1,0,13.091,11.465,11.465,0,0,1-4.374,4.6,13.115,13.115,0,0,1-12.835,0A11.417,11.417,0,0,1,127.037,95.109Zm1.662-6.545a11.759,11.759,0,0,0,1.1,5.151,8.528,8.528,0,0,0,3.186,3.6,9.466,9.466,0,0,0,9.629,0,8.634,8.634,0,0,0,3.214-3.6,11.59,11.59,0,0,0,1.117-5.151,10.471,10.471,0,0,0-2.524-7.226,9.142,9.142,0,0,0-13.233-.009A10.561,10.561,0,0,0,128.7,88.564Z" transform="translate(99.732 98.894)" fill="#1b2432" stroke="#000" stroke-miterlimit="10" stroke-width="0.692"/>
          <path id="Path_37324" data-name="Path 37324" d="M145.962,100.778V76.008h11.027a7.153,7.153,0,0,1,5.065,1.739,5.924,5.924,0,0,1,1.878,4.563,5.656,5.656,0,0,1-1.27,3.753,5.463,5.463,0,0,1-3.083,1.921,5.344,5.344,0,0,1,3.4,2.1,6.249,6.249,0,0,1,1.426,4,6.419,6.419,0,0,1-1.911,4.86,7.291,7.291,0,0,1-5.261,1.831Zm3.082-14.053h7.417a4.309,4.309,0,0,0,3.154-1.1,3.828,3.828,0,0,0,1.125-2.859,3.893,3.893,0,0,0-1.125-2.867,4.25,4.25,0,0,0-3.154-1.131h-7.417Zm0,11.3h7.618a4.673,4.673,0,0,0,3.345-1.142,4.089,4.089,0,0,0,1.205-3.12,4.2,4.2,0,0,0-1.2-3.047,4.459,4.459,0,0,0-3.353-1.232h-7.618Z" transform="translate(111.587 99.048)" fill="#1b2432" stroke="#000" stroke-miterlimit="10" stroke-width="0.692"/>
          <path id="Path_37326" data-name="Path 37326" d="M160.953,100.778l9.992-24.771h3.826l9.956,24.771h-3.518l-2.2-5.5H166.682l-2.194,5.5Zm6.654-8.251h10.518l-5.277-13.364Z" transform="translate(120.274 99.047)" fill="#1b2432" stroke="#000" stroke-miterlimit="10" stroke-width="0.692"/>
          <path id="Path_37328" data-name="Path 37328" d="M179.881,100.778V76.008h3.156l14.254,19.347V76.008h3.082v24.77H197.4L182.964,81.012v19.766Z" transform="translate(131.244 99.048)" fill="#1b2432" stroke="#000" stroke-miterlimit="10" stroke-width="0.692"/>
          <path id="Path_37330" data-name="Path 37330" d="M197.272,78.763V76.007h18.787v2.756h-7.871v22.015h-3.082V78.763Z" transform="translate(141.322 99.047)" fill="#1b2432" stroke="#000" stroke-miterlimit="10" stroke-width="0.692"/>
          <path id="Path_37337" data-name="Path 37337" d="M220.56,75.258h9.49c8.856,0,13.1,6.328,13.1,12.764,0,6.662-3.982,13.323-13.1,13.323h-9.49V75.258Zm19.351,12.728c0-4.838-3.2-9.6-9.861-9.6H223.8V98.107h6.252C236.971,98.107,239.911,92.972,239.911,87.986Z" transform="translate(154.817 98.613)" fill="#1b2432" stroke="#000" stroke-miterlimit="10" stroke-width="0.451"/>
          <rect id="Rectangle_13682" data-name="Rectangle 13682" width="3.238" height="26.048" transform="translate(403.287 173.91)" fill="#1b2432" stroke="#000" stroke-miterlimit="10" stroke-width="0.451"/>
          <path id="Path_37339" data-name="Path 37339" d="M246.551,75.283l8.894,22.252,8.968-22.252h3.571l-10.753,26.122h-3.5L242.942,75.283Z" transform="translate(167.788 98.628)" fill="#1b2432" stroke="#000" stroke-miterlimit="10" stroke-width="0.451"/>
          <rect id="Rectangle_13684" data-name="Rectangle 13684" width="3.238" height="26.048" transform="translate(440.017 173.91)" fill="#1b2432" stroke="#000" stroke-miterlimit="10" stroke-width="0.451"/>
          <path id="Path_37341" data-name="Path 37341" d="M277.672,77.832c-3.312,0-6.847,1.3-6.847,4.465,0,2.829,3.236,3.649,7.07,4.28,5.209.82,10.346,1.861,10.346,7.741-.038,5.841-5.62,7.74-10.607,7.74-4.614,0-9-1.676-11.016-6.029l2.681-1.564a9.462,9.462,0,0,0,8.373,4.579c3.162,0,7.368-1.006,7.368-4.84.036-3.236-3.611-4.167-7.517-4.762-5.024-.782-9.9-1.935-9.9-7.22-.074-5.432,5.47-7.293,9.973-7.293,3.87,0,7.553.78,9.861,4.726L285,81.182C283.589,78.912,280.574,77.869,277.672,77.832Z" transform="translate(181.509 98.423)" fill="#1b2432" stroke="#000" stroke-miterlimit="10" stroke-width="0.451"/>
          <rect id="Rectangle_13686" data-name="Rectangle 13686" width="3.238" height="26.048" transform="translate(474.887 173.91)" fill="#1b2432" stroke="#000" stroke-miterlimit="10" stroke-width="0.451"/>
          <path id="Path_37343" data-name="Path 37343" d="M315.413,88.546c-.038,6.809-4.28,13.472-13.211,13.472s-13.247-6.626-13.247-13.472c0-7.555,5.061-13.546,13.285-13.546C311.059,75.038,315.45,81.661,315.413,88.546ZM302.24,77.977c-6.624,0-10.047,4.874-10.047,10.569,0,5.283,3.2,10.418,10.047,10.418s9.935-5.283,9.935-10.418C312.212,83.262,309.05,78.052,302.24,77.977Z" transform="translate(194.453 98.463)" fill="#1b2432" stroke="#000" stroke-miterlimit="10" stroke-width="0.451"/>
          <path id="Path_37345" data-name="Path 37345" d="M311.322,75.283l15.964,19.945V75.283h3.2v26.048h-2.233l-16-19.872v19.872h-3.2V75.283Z" transform="translate(206.099 98.628)" fill="#1b2432" stroke="#000" stroke-miterlimit="10" stroke-width="0.451"/>
        </g>
      </g>
      <g id="Group_109743" data-name="Group 109743" transform="translate(131 71.255)">
        <path id="Path_51939" data-name="Path 51939" d="M853.529,225.545c-23.245.364-42.975-16.866-41.585-40.762.793-20.135,17.929-35.031,37.507-36.252a50.248,50.248,0,0,1,16.556,1.353c3.8.847,15.456,5.6,15.756,9.84.1,2.645-3.461,5.728-6.4,5.178-1.622-.277-2.985-1.343-4.389-2.189a30.191,30.191,0,0,0-11.658-4.274c-18.138-2.854-36.016,8.926-36.067,28.214-.331,19.666,17.858,31.854,36.374,28.777a29.64,29.64,0,0,0,11.435-4.311c1.646-1.009,3.292-2.365,5.313-2.24,2.729.1,6.4,3.393,5.114,6.335-1.454,2.462-4.476,3.977-6.912,5.421a44.132,44.132,0,0,1-20.938,4.915Z" transform="translate(-811.875 -148.145)"/>
        <path id="Path_51940" data-name="Path 51940" d="M1077.689,261.933c-22.8.263-36.738-21.987-27.253-42.435,10.434-21.508,45.11-21.11,54.906.644,8.679,20.546-4.885,41.953-27.549,41.791Zm.111-9.054c12.417.115,20.587-10.194,19.406-22.25a18.742,18.742,0,0,0-13.57-17.166c-8.538-2.5-18.6.837-22.932,8.818-7.158,13.378.891,30.723,16.994,30.6Z" transform="translate(-967.966 -184.745)"/>
        <path id="Path_51941" data-name="Path 51941" d="M1283.39,224.9c-20.5.132-33.034-17.672-28.423-37.1,6.49-26.979,47.792-29.337,53.908-.971,3.92,18.654-4.031,37.942-25.38,38.067Zm.958-9.054c12.312.088,20.61-10.272,19.413-22.25-1.258-19.339-26.986-24.591-36.5-8.349-7.155,13.365.881,30.723,16.988,30.6Zm21.1,7.445c-.82-.648-1.13-1.781-1.218-3.329-.088-1.768-.041-3.68-.051-5.468-.158-7.61.941-14.353.287-21.845-1.258-12.076-.563-23.987-.729-37.784.04-1.913-.118-4.615.2-5.562.553-2.166,5.883-1.481,7.806-1.508,1.1.074,2.6.206,2.51,1.484.034,5.1.007,27.215.014,46.041,0,10.953,0,17.851,0,26.035-.03,1.548.209,2.338-1.171,2.645-2.324.307-5.593.624-7.6-.671Z" transform="translate(-1104.869 -147.717)"/>
        <path id="Path_51942" data-name="Path 51942" d="M1507,261.93c-13.389.29-26.588-7.492-30.1-20.772-4.557-16.7,4.7-34,22.159-37.031,15.817-2.911,31.013,5.768,34.033,21.99.385,2.631,1.761,9.486-1.231,9.914-8.717.378-35.264.02-44.551.138-1.069.01-2.412.01-2.84-.928-.826-1.747-1.032-6.517,1.744-6.51,7.036-.128,23.117-.007,31.874-.047.169,0,1.768-.017,3.953,0,1.093.007,1.99.02,2.577.034-.347-1.606-2.135-9.017-9.054-13.233-7.5-4.577-18.853-4.149-25.134,3.619-5.468,6.763-5.7,18.081-.806,25.215a19.951,19.951,0,0,0,13.209,8.042,24.874,24.874,0,0,0,16.387-2.6,10.672,10.672,0,0,1,4.1-1.67,4.641,4.641,0,0,1,4.493,2.844c1.606,3.539-2.21,5.8-4.851,7.256a32.9,32.9,0,0,1-15.858,3.744Z" transform="translate(-1251.807 -184.729)"/>
        <path id="Path_51943" data-name="Path 51943" d="M1692.091,224.048c-.891-.148-1.262-.587-1.258-1.373-.017-17.44-.037-59.936.01-73.466-.044-1.231,1.45-1.339,2.5-1.41a30.007,30.007,0,0,1,5.9.152c1.356.236,1.913.85,2.031,1.929.206,8,.014,20.223.078,28.062a129,129,0,0,1-.742,14.913c-.62,7.421.483,14.583.3,21.967.023,7.789.681,10.231-8.771,9.236Zm29.519.864c-21.366-.189-29.317-19.366-25.4-38.067,6.109-28.231,47.215-26.092,53.861.779,4.753,19.389-7.8,37.507-28.362,37.288Zm-.783-9.054a19.132,19.132,0,0,0,19.491-18.114c.792-7.947-2.736-16.1-9.928-19.8-12.616-6.456-28.193,1.046-29.071,15.77-1.146,11.941,7.151,22.226,19.41,22.145Z" transform="translate(-1394.327 -147.724)"/>
        <path id="Path_51944" data-name="Path 51944" d="M1921.83,261.963c-7.5-.017-14.953-2.044-19.582-7.637a14.726,14.726,0,0,1,1.194-19.693c5.346-5.134,13.479-6,20.685-6.153,5.2.03,11.03-.283,16.131.155a3.541,3.541,0,0,1,1.6,6.551,7.908,7.908,0,0,1-3.495.7c-2.122.057-4.858.02-7.236.03-7.614.135-19.686-.9-20.466,8.551-.074,9,11.921,10.707,19.8,8.474a20.134,20.134,0,0,0,8.646-5.114c2.84-2.574,4.045-.054,3.8,2.533-.111,2.911-2.118,5.326-4.51,7.02-4.4,3.309-10.437,4.574-16.445,4.578Zm19.474-1.633c-1.622-1.572-1.251-4.318-1.41-7.222-.061-2.071-.2-4.1-.327-6.149-.3-4.75-.148-9.823-.186-14.647-.033-5.276.1-8.555-2.017-12.616-4.26-7.88-15.635-7.664-23.255-5.573-2.705.6-6.018,2.685-8.358,2.763-3.259.159-5.661-4.264-3.593-6.915.971-1.285,3-2.179,5.08-3.033a44.023,44.023,0,0,1,10.855-2.746c10.083-1.366,23.842.553,28.9,9.762,3.653,6.338,3.343,13.493,3.333,20.631-.034,7.188.071,16.93-.04,24.014,0,1.791-1.093,2.621-2.81,2.776-1.987.243-4.733.236-6.119-1Z" transform="translate(-1532.31 -184.88)"/>
        <path id="Path_51945" data-name="Path 51945" d="M2085.39,282.961c-3.862.01-13.3-1.359-13.537-5.967a4.489,4.489,0,0,1,4.224-4.807c2.212-.081,4.614,1.275,6.958,1.521a11.754,11.754,0,0,0,11.375-4.436,42.293,42.293,0,0,0,3.812-6.47c2.044-4.038,3.039-5.6,4.567-8.595,1.373-2.914,2.493-5.448,4.142-9.03,6.473-13.6,14.256-32.363,18.526-39.905a3.478,3.478,0,0,1,1.765-.752,30.75,30.75,0,0,1,6.2-.175c2.031.152,2.756.459,1.909,2.1-4.763,10.214-21.447,46.122-28.291,60.772-4.156,9.05-10.687,15.807-21.545,15.743Zm15.669-20.239c-.658.489-1.1.162-1.39-.459-3.495-7.516-8.75-19.059-13.051-28.4-4.358-9.5-8.221-17.912-12.41-27.047-.91-1.862-1.089-2.5.648-2.678a36.867,36.867,0,0,1,4.027-.138c1.616.02,3.93-.03,5.114.594a3.482,3.482,0,0,1,1.343,1.778c3.8,8.861,18.168,39.2,21.734,48.527a4.582,4.582,0,0,1-1.231,2.682,35.775,35.775,0,0,1-4.743,5.117Z" transform="translate(-1646.82 -185.014)"/>
      </g>
      <g id="Group_109747" data-name="Group 109747" transform="translate(0 -2)">
        <g id="Group_109746" data-name="Group 109746" transform="translate(-95 -16)">
          <path id="Path_51947" data-name="Path 51947" d="M6.264.561A4.176,4.176,0,0,0,.16,5.323l7.98,11.9a69.056,69.056,0,0,1,0,76.823L.171,105.935a4.177,4.177,0,0,0,6.094,4.773L73.073,59.816a5.232,5.232,0,0,0,0-8.332Z" transform="translate(124 72)" fill="#bfd732"/>
        </g>
      </g>
    </g>
  </g>
</svg>
