<?xml version="1.0" encoding="utf-8"?>
<!-- Generator: Adobe Illustrator 25.4.1, SVG Export Plug-In . SVG Version: 6.00 Build 0)  -->
<svg version="1.1" id="Capa_1" xmlns="http://www.w3.org/2000/svg" xmlns:xlink="http://www.w3.org/1999/xlink" x="0px" y="0px"
	 viewBox="0 0 971 718.3" style="enable-background:new 0 0 971 718.3;" xml:space="preserve">
<style type="text/css">
	.st0{enable-background:new    ;}
	.st1{fill:#2B2B2B;}
	.st2{fill:#1FA9B3;}
	.st3{fill:url(#SVGID_1_);}
	.st4{fill:url(#SVGID_00000033367568188651808690000014632205714286419847_);}
	.st5{fill:url(#SVGID_00000173845485875216329590000000070046223512389566_);}
	.st6{fill:url(#SVGID_00000020370204160404957320000010803766254614462375_);}
	.st7{opacity:0.75;}
	.st8{opacity:0.4;fill:url(#SVGID_00000076569131973672091860000000833040030993526173_);enable-background:new    ;}
	.st9{opacity:0.65;fill:url(#SVGID_00000167382152537861479790000010510926149023321229_);enable-background:new    ;}
	.st10{opacity:0.7;fill:url(#SVGID_00000068642585481162520850000013641641986178059693_);enable-background:new    ;}
	.st11{opacity:0.7;fill:url(#SVGID_00000056405702649379179850000001310032654495061146_);enable-background:new    ;}
	.st12{opacity:0.7;fill:url(#SVGID_00000171000765748436328300000001585247496215231875_);enable-background:new    ;}
</style>
<g>
	<g id="Capa_1_00000134234686972784523650000009445932336109737603_">
		<g class="st0">
			<path class="st1" d="M91.7,664c-11.6,0-22.2-1.9-32-5.7c-9.8-3.8-18.3-9.1-25.4-16c-7.2-6.9-12.8-15-16.8-24.3
				c-4-9.3-6-19.5-6-30.5c0-11,2-21.2,6-30.5c4-9.3,9.6-17.4,16.9-24.3c7.2-6.9,15.8-12.2,25.6-16c9.8-3.8,20.5-5.7,32-5.7
				c11.1,0,21.6,1.8,31.4,5.5c9.8,3.7,18.1,9.1,24.8,16.4l-10.3,10.1c-6.3-6.3-13.2-10.9-20.8-13.7c-7.6-2.8-15.8-4.2-24.6-4.2
				c-9.2,0-17.8,1.5-25.7,4.6c-7.9,3.1-14.8,7.5-20.6,13.1c-5.8,5.7-10.4,12.3-13.7,19.8c-3.3,7.5-4.9,15.8-4.9,24.8
				c0,9,1.6,17.3,4.9,24.8c3.3,7.5,7.9,14.1,13.7,19.8c5.8,5.7,12.7,10,20.6,13.1c7.9,3.1,16.4,4.6,25.7,4.6c8.8,0,17-1.4,24.6-4.3
				c7.6-2.9,14.5-7.5,20.8-13.8l10.3,10.1c-6.7,7.3-15,12.8-24.8,16.6C113.5,662.1,102.9,664,91.7,664z"/>
			<path class="st1" d="M221.3,663.7c-11.1,0-21.1-2.5-29.9-7.4c-8.8-4.9-15.8-11.8-20.9-20.4c-5.1-8.7-7.7-18.6-7.7-29.8
				c0-11.3,2.6-21.3,7.7-29.9c5.1-8.6,12.1-15.3,20.8-20.2c8.8-4.9,18.8-7.3,30-7.3c11.4,0,21.5,2.4,30.4,7.3
				c8.8,4.9,15.8,11.6,20.8,20.2c5,8.6,7.6,18.6,7.6,29.9c0,11.2-2.5,21.1-7.6,29.8c-5,8.7-12,15.5-20.9,20.4
				C242.6,661.3,232.6,663.7,221.3,663.7z M221.3,650.2c8.3,0,15.7-1.8,22.2-5.5c6.4-3.7,11.5-8.8,15.2-15.5s5.6-14.4,5.6-23.1
				c0-8.9-1.9-16.6-5.6-23.2c-3.7-6.6-8.8-11.7-15.2-15.4c-6.4-3.7-13.7-5.5-21.9-5.5c-8.2,0-15.5,1.8-21.9,5.5
				c-6.4,3.7-11.6,8.8-15.4,15.4c-3.8,6.6-5.7,14.3-5.7,23.2c0,8.7,1.9,16.4,5.7,23.1c3.8,6.7,8.9,11.8,15.4,15.5
				C206,648.4,213.3,650.2,221.3,650.2z"/>
			<path class="st1" d="M357.7,663.7c-11,0-20.8-2.4-29.5-7.3c-8.7-4.9-15.5-11.6-20.5-20.3c-5-8.7-7.5-18.7-7.5-30
				c0-11.5,2.5-21.5,7.5-30.1c5-8.6,11.8-15.3,20.5-20.1c8.7-4.8,18.5-7.2,29.5-7.2c10.1,0,19.1,2.2,27.1,6.7
				c8,4.4,14.3,10.9,19.1,19.5c4.7,8.5,7.1,19,7.1,31.3c0,12.2-2.3,22.6-7,31.2c-4.7,8.6-11,15.2-19,19.7
				C377,661.5,367.9,663.7,357.7,663.7z M358.8,650.2c8.2,0,15.5-1.8,22-5.5c6.5-3.7,11.6-8.8,15.4-15.5s5.6-14.4,5.6-23.1
				c0-8.9-1.9-16.6-5.6-23.2c-3.7-6.6-8.8-11.7-15.4-15.4c-6.5-3.7-13.9-5.5-22-5.5c-8,0-15.3,1.8-21.7,5.5
				c-6.4,3.7-11.6,8.8-15.4,15.4c-3.8,6.6-5.7,14.3-5.7,23.2c0,8.7,1.9,16.4,5.7,23.1c3.8,6.7,8.9,11.8,15.4,15.5
				C343.5,648.4,350.8,650.2,358.8,650.2z M402.2,662.7v-34l1.5-22.8l-2.2-22.8v-80h15.6v159.5H402.2z"/>
			<path class="st1" d="M509.5,663.7c-12,0-22.5-2.5-31.6-7.4c-9.1-4.9-16.2-11.8-21.3-20.4c-5.1-8.7-7.7-18.6-7.7-29.8
				c0-11.2,2.4-21.1,7.3-29.7c4.9-8.6,11.6-15.4,20.2-20.3c8.6-4.9,18.2-7.4,28.8-7.4c10.8,0,20.4,2.4,28.8,7.2
				c8.4,4.8,15,11.5,19.8,20.2c4.8,8.7,7.2,18.7,7.2,30c0,0.7,0,1.5-0.1,2.3c-0.1,0.8-0.1,1.6-0.1,2.5H460.8v-11.4h91.9l-6.1,4.5
				c0-8.2-1.8-15.4-5.4-21.8c-3.6-6.4-8.4-11.4-14.6-14.9c-6.1-3.6-13.2-5.4-21.3-5.4c-7.9,0-15,1.8-21.3,5.4
				c-6.3,3.6-11.2,8.6-14.7,15.1c-3.5,6.5-5.3,13.8-5.3,22.1v2.4c0,8.6,1.9,16.2,5.8,22.7c3.9,6.5,9.3,11.6,16.2,15.3
				c6.9,3.7,14.9,5.5,23.8,5.5c7,0,13.6-1.2,19.6-3.7c6.1-2.4,11.3-6.2,15.7-11.2l8.8,9.9c-5.1,6-11.5,10.6-19.2,13.8
				C527.1,662.2,518.7,663.7,509.5,663.7z"/>
			<path class="st1" d="M593,662.7V503.1h15.6v80l-2.2,22.8l1.5,22.8v34H593z M652.5,663.7c-10.1,0-19.2-2.3-27.2-6.8
				c-8-4.5-14.4-11.1-19.1-19.7c-4.7-8.6-7-19-7-31.2c0-12.3,2.4-22.8,7.1-31.3c4.8-8.5,11.1-15,19.2-19.5c8-4.4,17-6.7,27-6.7
				c11,0,20.8,2.4,29.5,7.2c8.7,4.8,15.5,11.5,20.5,20.1c5,8.6,7.5,18.6,7.5,30.1c0,11.3-2.5,21.3-7.5,30
				c-5,8.7-11.8,15.4-20.5,20.3C673.3,661.3,663.4,663.7,652.5,663.7z M651.4,650.2c8.2,0,15.5-1.8,21.9-5.5
				c6.4-3.7,11.5-8.8,15.4-15.5c3.8-6.7,5.7-14.4,5.7-23.1c0-8.9-1.9-16.6-5.7-23.2c-3.8-6.6-8.9-11.7-15.4-15.4
				c-6.4-3.7-13.7-5.5-21.9-5.5c-8.2,0-15.5,1.8-22,5.5c-6.5,3.7-11.6,8.8-15.4,15.4c-3.7,6.6-5.6,14.3-5.6,23.2
				c0,8.7,1.9,16.4,5.6,23.1s8.8,11.8,15.4,15.5C635.8,648.4,643.2,650.2,651.4,650.2z"/>
			<path class="st1" d="M773.5,663.7c-8.6,0-16.1-1.4-22.5-4.2c-6.4-2.8-11.2-6.7-14.6-11.6c-3.4-4.9-5-10.6-5-17.1
				c0-5.9,1.4-11.2,4.3-16c2.9-4.8,7.5-8.7,14-11.6c6.5-2.9,15.2-4.4,26.2-4.4h39.7v11.4h-39.3c-11.1,0-18.8,1.9-23.1,5.8
				c-4.3,3.9-6.5,8.7-6.5,14.4c0,6.5,2.6,11.6,7.7,15.5c5.1,3.9,12.3,5.8,21.5,5.8c8.8,0,16.3-2,22.7-5.9c6.4-3.9,11-9.6,13.9-17.1
				l3.5,10.5c-2.9,7.5-8,13.4-15.2,17.8C793.6,661.5,784.5,663.7,773.5,663.7z M813.2,662.7v-24.9l-0.7-4.1v-41.7
				c0-9.6-2.7-17-8.2-22.1c-5.5-5.2-13.6-7.7-24.5-7.7c-7.5,0-14.6,1.2-21.3,3.7c-6.7,2.4-12.4,5.7-17.1,9.7l-7-11.4
				c5.8-4.9,12.9-8.6,21.1-11.3c8.2-2.7,16.8-4,25.9-4c14.9,0,26.4,3.6,34.5,10.9c8.1,7.2,12.2,18.2,12.2,33v70.1H813.2z"/>
			<path class="st1" d="M869.2,705.4c-5.4,0-10.6-0.9-15.5-2.6c-4.9-1.7-9.1-4.3-12.6-7.7l7.2-11.4c2.9,2.7,6.1,4.8,9.5,6.3
				c3.4,1.5,7.3,2.3,11.5,2.3c5.1,0,9.5-1.4,13.3-4.2c3.7-2.8,7.3-7.7,10.6-14.7l7.5-16.6l1.8-2.4l47.4-104.7h15.4l-57.7,126.4
				c-3.2,7.3-6.8,13.1-10.6,17.4c-3.9,4.3-8.1,7.3-12.6,9.1C879.8,704.6,874.7,705.4,869.2,705.4z M899.9,665.9l-53.1-116.1H863
				L910,653.4L899.9,665.9z"/>
		</g>
		<path class="st2" d="M849.5,228.4C810,336.6,702.8,345.1,674.7,345.4c51.3-3.2,90.2-47.4,87-98.7s-47.4-90.2-98.7-87
			c-3.7,0.2-7.3,0.7-11,1.4c-57.2,9-99.3,63.7-99.3,63.7c-10.7-37.5-34.5-89.8-34.5-89.8c32.5-24.9,75-49.2,122.9-56.8
			c96.8-17.7,189.6,46.5,207.3,143.3C848.8,223.8,849.2,226,849.5,228.4L849.5,228.4z"/>
		
			<linearGradient id="SVGID_1_" gradientUnits="userSpaceOnUse" x1="995.27" y1="320.1573" x2="655.52" y2="320.1573" gradientTransform="matrix(1 0 0 -1 -161 650)">
			<stop  offset="0" style="stop-color:#1FA9B3"/>
			<stop  offset="1" style="stop-color:#5BB88D"/>
		</linearGradient>
		<path class="st3" d="M846.3,294.8c-22.9,95.7-119.1,154.6-214.7,131.7c-24-5.8-46.6-16.5-66.3-31.4c-15.4-11.2-29.3-24.4-41.5-39
			c-11.6-14-21.8-28.9-30.7-44.7c-9-14.9-23-46-38.5-83c1.7,2.5,71.2,104.5,199.4,116.2c6.8,1.1,13.8,1.4,20.7,1l0,0
			c28.2-0.3,135.3-8.8,174.8-117C852.6,250.6,851.5,273.1,846.3,294.8z"/>
		
			<linearGradient id="SVGID_00000075864733476742216830000008500757372829161136_" gradientUnits="userSpaceOnUse" x1="349.75" y1="347.0941" x2="596.18" y2="347.0941" gradientTransform="matrix(1 0 0 -1 -161 650)">
			<stop  offset="0" style="stop-color:#5BB88D"/>
			<stop  offset="0.23" style="stop-color:#55B691"/>
			<stop  offset="0.55" style="stop-color:#44B29C"/>
			<stop  offset="0.91" style="stop-color:#27ABAE"/>
			<stop  offset="1" style="stop-color:#1FA9B3"/>
		</linearGradient>
		<path style="fill:url(#SVGID_00000075864733476742216830000008500757372829161136_);" d="M434.1,358c-5.9,23.8-21,33.9-21,33.9
			c-51.8,42.6-123,52.8-184.6,26.5c-29.2-28.1-48.1-67.9-48.1-111.7c0-59.3,28.3-108,77.2-133.8c-44,26.1-58.6,82.9-32.5,127
			c19.9,33.6,58.8,51.1,97.2,43.8c57.2-9,99.3-63.7,99.3-63.7C437.7,314.7,438.5,340.2,434.1,358z"/>
		
			<linearGradient id="SVGID_00000076568504748516425900000012366912560900190101_" gradientUnits="userSpaceOnUse" x1="185.183" y1="357.0549" x2="428.5731" y2="406.2349" gradientTransform="matrix(1 0 0 -1 -161 650)">
			<stop  offset="0.19" style="stop-color:#007364"/>
			<stop  offset="0.24" style="stop-color:#0F7E6B"/>
			<stop  offset="0.35" style="stop-color:#2A9377"/>
			<stop  offset="0.48" style="stop-color:#40A381"/>
			<stop  offset="0.61" style="stop-color:#4FAF88"/>
			<stop  offset="0.77" style="stop-color:#58B68C"/>
			<stop  offset="1" style="stop-color:#5BB88D"/>
		</linearGradient>
		<path style="fill:url(#SVGID_00000076568504748516425900000012366912560900190101_);" d="M368.1,178.3c-6.2-3.7-12.7-7-19.5-9.7
			c-8.5-3.5-17.3-6-26.3-7.5c-22.3-4.1-45.3,0.1-64.7,11.8c-48.9,25.8-77.2,74.5-77.2,133.8c0,43.8,18.9,83.6,48.1,111.7
			c-91-38.9-133.3-144.3-94.4-235.4c33.1-77.4,115.6-121.4,198.4-105.6L368.1,178.3z"/>
		
			<linearGradient id="SVGID_00000027572484311543929550000010317690428224080004_" gradientUnits="userSpaceOnUse" x1="736.4596" y1="308.4398" x2="597.9895" y2="662.3298" gradientTransform="matrix(1 0 0 -1 -161 650)">
			<stop  offset="0" style="stop-color:#1FA9B3"/>
			<stop  offset="0.26" style="stop-color:#5BB88D"/>
			<stop  offset="0.27" style="stop-color:#61B98A"/>
			<stop  offset="0.36" style="stop-color:#91BE71"/>
			<stop  offset="0.45" style="stop-color:#B8C35C"/>
			<stop  offset="0.53" style="stop-color:#D7C64C"/>
			<stop  offset="0.62" style="stop-color:#ECC940"/>
			<stop  offset="0.7" style="stop-color:#FACA39"/>
			<stop  offset="0.77" style="stop-color:#FECB37"/>
			<stop  offset="0.81" style="stop-color:#FAC136"/>
			<stop  offset="0.87" style="stop-color:#F1A433"/>
			<stop  offset="0.96" style="stop-color:#E1772F"/>
			<stop  offset="1" style="stop-color:#D85C2C"/>
		</linearGradient>
		<path style="fill:url(#SVGID_00000027572484311543929550000010317690428224080004_);" d="M654,344.5
			c-128.2-11.6-197.7-113.7-199.4-116.2l0,0l0,0C415.1,133.5,365.9,0,365.9,0s89.3,9.1,152.3,135c0,0,23.7,52.3,34.5,89.8
			c0,0,12.8,67.8,59.8,101.8c10.3,7.8,22.1,13.4,34.7,16.4C649.4,343.6,651.8,344.1,654,344.5z"/>
		<g class="st7">
			
				<linearGradient id="SVGID_00000103229800742869610280000012792895536255457699_" gradientUnits="userSpaceOnUse" x1="607.4704" y1="378.7097" x2="644.4704" y2="436.4497" gradientTransform="matrix(1 0 0 -1 -161 650)">
				<stop  offset="0.3" style="stop-color:#007364"/>
				<stop  offset="0.76" style="stop-color:#ADAF45;stop-opacity:0.32"/>
				<stop  offset="1" style="stop-color:#FECB37;stop-opacity:0"/>
			</linearGradient>
			<path style="opacity:0.4;fill:url(#SVGID_00000103229800742869610280000012792895536255457699_);enable-background:new    ;" d="
				M654,344.4c-128.2-11.6-197.7-113.7-199.4-116.2l0,0l0,0C415,133.5,365.9,0,365.9,0s89.3,9.1,152.3,135c0,0,23.7,52.3,34.5,89.8
				c0,0,12.8,67.8,59.7,101.8c10.3,7.8,22.1,13.4,34.7,16.4C649.4,343.6,651.7,344.1,654,344.4z"/>
			
				<linearGradient id="SVGID_00000001649280548500499770000011963278015388574879_" gradientUnits="userSpaceOnUse" x1="774.1691" y1="555.7226" x2="977.3891" y2="294.1026" gradientTransform="matrix(1 0 0 -1 -161 650)">
				<stop  offset="0" style="stop-color:#1FA9B3;stop-opacity:0"/>
				<stop  offset="0.15" style="stop-color:#1EA7B1;stop-opacity:3.000000e-02"/>
				<stop  offset="0.3" style="stop-color:#1BA0AB;stop-opacity:0.14"/>
				<stop  offset="0.45" style="stop-color:#1595A1;stop-opacity:0.31"/>
				<stop  offset="0.61" style="stop-color:#0E8592;stop-opacity:0.55"/>
				<stop  offset="0.77" style="stop-color:#047180;stop-opacity:0.86"/>
				<stop  offset="0.83" style="stop-color:#006878"/>
			</linearGradient>
			
				<path style="opacity:0.65;fill:url(#SVGID_00000001649280548500499770000011963278015388574879_);enable-background:new    ;" d="
				M849.5,228.4c-39.5,108.3-146.6,116.7-174.8,117c51.3-3.2,90.2-47.4,87-98.7s-47.4-90.2-98.7-87c-3.7,0.2-7.3,0.7-11,1.4
				c-57.2,9-99.3,63.7-99.3,63.7c-10.7-37.5-34.5-89.9-34.5-89.9c32.5-24.9,75-49.2,122.9-56.8c96.8-17.7,189.6,46.5,207.3,143.3
				C848.8,223.8,849.2,226,849.5,228.4L849.5,228.4z"/>
			
				<linearGradient id="SVGID_00000005251013040584224910000010662264674128273811_" gradientUnits="userSpaceOnUse" x1="636.06" y1="320.1473" x2="1032.6414" y2="320.1473" gradientTransform="matrix(1 0 0 -1 -161 650)">
				<stop  offset="0" style="stop-color:#FFFFFF;stop-opacity:0"/>
				<stop  offset="0.35" style="stop-color:#ADCED3;stop-opacity:0.32"/>
				<stop  offset="1" style="stop-color:#006878"/>
			</linearGradient>
			<path style="opacity:0.7;fill:url(#SVGID_00000005251013040584224910000010662264674128273811_);enable-background:new    ;" d="
				M846.3,294.8c-22.9,95.7-119.1,154.6-214.7,131.7c-24-5.8-46.6-16.5-66.3-31.4c-15.4-11.2-29.3-24.4-41.5-39.1
				c-11.6-14-21.8-28.9-30.7-44.7c-9-14.9-23-46-38.5-83c1.7,2.5,71.2,104.5,199.4,116.2c6.8,1.1,13.8,1.4,20.7,1l0,0
				c28.2-0.3,135.3-8.8,174.8-117C852.6,250.6,851.5,273.1,846.3,294.8z"/>
			
				<linearGradient id="SVGID_00000163035804057640552680000008279670199298703509_" gradientUnits="userSpaceOnUse" x1="295.88" y1="347.0941" x2="551.9152" y2="347.0941" gradientTransform="matrix(1 0 0 -1 -161 650)">
				<stop  offset="0" style="stop-color:#007364"/>
				<stop  offset="0.15" style="stop-color:#0E7B6C;stop-opacity:0.95"/>
				<stop  offset="0.36" style="stop-color:#359084;stop-opacity:0.79"/>
				<stop  offset="0.6" style="stop-color:#75B3AB;stop-opacity:0.54"/>
				<stop  offset="0.87" style="stop-color:#CDE4E1;stop-opacity:0.19"/>
				<stop  offset="1" style="stop-color:#FFFFFF;stop-opacity:0"/>
			</linearGradient>
			<path style="opacity:0.7;fill:url(#SVGID_00000163035804057640552680000008279670199298703509_);enable-background:new    ;" d="
				M434.1,358c-5.9,23.8-21,33.9-21,33.9c-51.8,42.6-123,52.8-184.6,26.5c-29.2-28.1-48.1-67.9-48.1-111.7
				c0-59.3,28.3-108,77.2-133.8c-44,26.1-58.6,82.9-32.5,127c19.9,33.6,58.8,51.1,97.2,43.8c57.2-9,99.3-63.7,99.3-63.7
				C437.7,314.7,438.5,340.2,434.1,358z"/>
			
				<linearGradient id="SVGID_00000046319613663044858740000003530943850773875880_" gradientUnits="userSpaceOnUse" x1="742.2261" y1="389.4571" x2="848.7561" y2="448.1371" gradientTransform="matrix(1 0 0 -1 -161 650)">
				<stop  offset="0" style="stop-color:#006878"/>
				<stop  offset="7.000000e-02" style="stop-color:#047180;stop-opacity:0.86"/>
				<stop  offset="0.26" style="stop-color:#0E8592;stop-opacity:0.55"/>
				<stop  offset="0.45" style="stop-color:#1595A1;stop-opacity:0.31"/>
				<stop  offset="0.64" style="stop-color:#1BA0AB;stop-opacity:0.14"/>
				<stop  offset="0.82" style="stop-color:#1EA7B1;stop-opacity:3.000000e-02"/>
				<stop  offset="1" style="stop-color:#1FA9B3;stop-opacity:0"/>
			</linearGradient>
			<path style="opacity:0.7;fill:url(#SVGID_00000046319613663044858740000003530943850773875880_);enable-background:new    ;" d="
				M849.5,228.4c-39.5,108.3-146.6,116.7-174.8,117c51.3-3.2,90.2-47.4,87-98.7s-47.4-90.2-98.7-87c-3.7,0.2-7.3,0.7-11,1.4
				c-57.2,9-99.3,63.7-99.3,63.7c-10.7-37.5-34.5-89.9-34.5-89.9c32.5-24.9,75-49.2,122.9-56.8c96.8-17.7,189.6,46.5,207.3,143.3
				C848.8,223.8,849.2,226,849.5,228.4L849.5,228.4z"/>
		</g>
	</g>
</g>
</svg>
