<svg width="259" height="255" viewBox="0 0 259 255" fill="none" xmlns="http://www.w3.org/2000/svg">
<path d="M0.974609 201.813C0.974609 198.231 1.69502 195.102 3.13584 192.427C4.61783 189.751 6.65556 187.693 9.24904 186.252C11.8837 184.811 14.8888 184.09 18.2645 184.09C22.5869 184.09 26.189 185.223 29.0706 187.487C31.9934 189.751 33.9077 192.941 34.8133 197.058H23.5749C22.6281 194.423 20.7962 193.106 18.0792 193.106C16.1444 193.106 14.6007 193.867 13.448 195.391C12.2953 196.873 11.719 199.013 11.719 201.813C11.719 204.612 12.2953 206.773 13.448 208.296C14.6007 209.778 16.1444 210.519 18.0792 210.519C20.7962 210.519 22.6281 209.202 23.5749 206.567H34.8133C33.9077 210.602 31.9934 213.771 29.0706 216.077C26.1478 218.382 22.5458 219.535 18.2645 219.535C14.8888 219.535 11.8837 218.814 9.24904 217.373C6.65556 215.933 4.61783 213.874 3.13584 211.198C1.69502 208.523 0.974609 205.394 0.974609 201.813Z" fill="#0D1B3A"/>
<path d="M56.4546 219.535C53.0789 219.535 50.0326 218.814 47.3157 217.373C44.6398 215.933 42.5198 213.874 40.9555 211.198C39.4323 208.523 38.6707 205.394 38.6707 201.813C38.6707 198.272 39.4529 195.164 41.0172 192.488C42.5815 189.771 44.7222 187.693 47.4392 186.252C50.1561 184.811 53.2024 184.09 56.5781 184.09C59.9537 184.09 63 184.811 65.717 186.252C68.434 187.693 70.5746 189.771 72.1389 192.488C73.7033 195.164 74.4854 198.272 74.4854 201.813C74.4854 205.353 73.6827 208.481 72.0772 211.198C70.5129 213.874 68.3516 215.933 65.5935 217.373C62.8765 218.814 59.8302 219.535 56.4546 219.535ZM56.4546 210.396C58.4717 210.396 60.1801 209.655 61.5798 208.173C63.0206 206.691 63.741 204.571 63.741 201.813C63.741 199.054 63.0412 196.934 61.6415 195.452C60.2831 193.97 58.5952 193.229 56.5781 193.229C54.5198 193.229 52.8114 193.97 51.4529 195.452C50.0944 196.893 49.4151 199.013 49.4151 201.813C49.4151 204.571 50.0738 206.691 51.3911 208.173C52.7496 209.655 54.4374 210.396 56.4546 210.396Z" fill="#0D1B3A"/>
<path d="M101.391 184.214C105.425 184.214 108.636 185.531 111.024 188.166C113.453 190.759 114.667 194.341 114.667 198.91V219.041H104.17V200.331C104.17 198.025 103.573 196.235 102.379 194.958C101.185 193.682 99.5795 193.044 97.5624 193.044C95.5452 193.044 93.9397 193.682 92.7459 194.958C91.5521 196.235 90.9552 198.025 90.9552 200.331V219.041H80.396V184.584H90.9552V189.154C92.0255 187.631 93.4663 186.437 95.2776 185.572C97.0889 184.667 99.1267 184.214 101.391 184.214Z" fill="#0D1B3A"/>
<path d="M154.794 201.257C154.794 202.245 154.732 203.274 154.608 204.344H130.711C130.876 206.485 131.555 208.132 132.749 209.284C133.984 210.396 135.487 210.951 137.257 210.951C139.891 210.951 141.723 209.84 142.752 207.617H153.991C153.414 209.881 152.365 211.919 150.842 213.73C149.36 215.542 147.486 216.962 145.222 217.991C142.958 219.02 140.426 219.535 137.627 219.535C134.252 219.535 131.246 218.814 128.612 217.373C125.977 215.933 123.919 213.874 122.437 211.198C120.955 208.523 120.214 205.394 120.214 201.813C120.214 198.231 120.934 195.102 122.375 192.427C123.857 189.751 125.915 187.693 128.55 186.252C131.185 184.811 134.21 184.09 137.627 184.09C140.962 184.09 143.926 184.79 146.519 186.19C149.113 187.59 151.13 189.586 152.571 192.18C154.053 194.773 154.794 197.799 154.794 201.257ZM143.987 198.478C143.987 196.667 143.37 195.226 142.135 194.156C140.9 193.085 139.356 192.55 137.504 192.55C135.734 192.55 134.231 193.065 132.996 194.094C131.802 195.123 131.061 196.584 130.773 198.478H143.987Z" fill="#0D1B3A"/>
<path d="M158.573 201.813C158.573 198.231 159.294 195.102 160.734 192.427C162.216 189.751 164.254 187.693 166.848 186.252C169.482 184.811 172.487 184.09 175.863 184.09C180.186 184.09 183.788 185.223 186.669 187.487C189.592 189.751 191.506 192.941 192.412 197.058H181.174C180.227 194.423 178.395 193.106 175.678 193.106C173.743 193.106 172.199 193.867 171.047 195.391C169.894 196.873 169.318 199.013 169.318 201.813C169.318 204.612 169.894 206.773 171.047 208.296C172.199 209.778 173.743 210.519 175.678 210.519C178.395 210.519 180.227 209.202 181.174 206.567H192.412C191.506 210.602 189.592 213.771 186.669 216.077C183.746 218.382 180.144 219.535 175.863 219.535C172.487 219.535 169.482 218.814 166.848 217.373C164.254 215.933 162.216 213.874 160.734 211.198C159.294 208.523 158.573 205.394 158.573 201.813Z" fill="#0D1B3A"/>
<path d="M217.573 210.087V219.041H212.201C208.372 219.041 205.388 218.114 203.247 216.262C201.106 214.368 200.036 211.301 200.036 207.061V193.353H195.837V184.584H200.036V176.187H210.595V184.584H217.511V193.353H210.595V207.185C210.595 208.214 210.842 208.955 211.336 209.408C211.83 209.861 212.654 210.087 213.806 210.087H217.573Z" fill="#0D1B3A"/>
<path d="M221.664 201.751C221.664 198.211 222.323 195.102 223.64 192.427C224.998 189.751 226.83 187.693 229.136 186.252C231.441 184.811 234.014 184.09 236.854 184.09C239.283 184.09 241.403 184.584 243.214 185.572C245.067 186.56 246.487 187.857 247.475 189.463V184.584H258.034V219.041H247.475V214.162C246.446 215.768 245.005 217.065 243.153 218.053C241.341 219.041 239.221 219.535 236.792 219.535C233.993 219.535 231.441 218.814 229.136 217.373C226.83 215.891 224.998 213.813 223.64 211.137C222.323 208.42 221.664 205.291 221.664 201.751ZM247.475 201.813C247.475 199.178 246.734 197.099 245.252 195.576C243.811 194.053 242.041 193.291 239.942 193.291C237.842 193.291 236.051 194.053 234.569 195.576C233.129 197.058 232.408 199.116 232.408 201.751C232.408 204.385 233.129 206.485 234.569 208.049C236.051 209.572 237.842 210.334 239.942 210.334C242.041 210.334 243.811 209.572 245.252 208.049C246.734 206.526 247.475 204.447 247.475 201.813Z" fill="#0D1B3A"/>
<path d="M49.4341 254.459C48.4873 254.459 47.6502 254.294 46.923 253.965C46.2094 253.635 45.6468 253.176 45.2351 252.586C44.8235 251.996 44.6039 251.337 44.5765 250.61H46.0996C46.1683 251.309 46.477 251.927 47.0259 252.462C47.5748 252.984 48.3775 253.244 49.4341 253.244C50.4084 253.244 51.1768 252.997 51.7394 252.503C52.3158 251.996 52.6039 251.357 52.6039 250.589C52.6039 249.972 52.4461 249.478 52.1305 249.107C51.8149 248.723 51.4238 248.442 50.9573 248.263C50.4907 248.071 49.8458 247.865 49.0224 247.646C48.0619 247.385 47.3003 247.131 46.7377 246.884C46.1751 246.637 45.6948 246.253 45.2969 245.731C44.899 245.21 44.7 244.503 44.7 243.611C44.7 242.87 44.8921 242.212 45.2763 241.635C45.6605 241.045 46.2026 240.586 46.9024 240.256C47.6022 239.927 48.405 239.762 49.3106 239.762C50.6417 239.762 51.712 240.092 52.5216 240.75C53.3449 241.395 53.8183 242.232 53.9418 243.261H52.3775C52.2815 242.671 51.959 242.15 51.4101 241.697C50.8612 241.231 50.1202 240.997 49.1871 240.997C48.3226 240.997 47.6022 241.231 47.0259 241.697C46.4496 242.15 46.1614 242.774 46.1614 243.57C46.1614 244.174 46.3192 244.661 46.6348 245.032C46.9504 245.402 47.3415 245.683 47.808 245.875C48.2883 246.068 48.9333 246.273 49.7429 246.493C50.676 246.754 51.4307 247.014 52.007 247.275C52.5833 247.522 53.0705 247.906 53.4684 248.428C53.8664 248.949 54.0653 249.649 54.0653 250.527C54.0653 251.2 53.8869 251.838 53.5302 252.442C53.1734 253.045 52.6451 253.532 51.9453 253.903C51.2454 254.273 50.4084 254.459 49.4341 254.459Z" fill="#0D1B3A"/>
<path d="M73.2955 254.459C71.9644 254.459 70.7569 254.15 69.6728 253.532C68.5888 252.901 67.7311 252.03 67.0999 250.918C66.4824 249.793 66.1737 248.524 66.1737 247.11C66.1737 245.697 66.4824 244.435 67.0999 243.323C67.7311 242.198 68.5888 241.327 69.6728 240.709C70.7569 240.078 71.9644 239.762 73.2955 239.762C74.6402 239.762 75.8546 240.078 76.9387 240.709C78.0227 241.327 78.8735 242.198 79.491 243.323C80.1085 244.435 80.4172 245.697 80.4172 247.11C80.4172 248.524 80.1085 249.793 79.491 250.918C78.8735 252.03 78.0227 252.901 76.9387 253.532C75.8546 254.15 74.6402 254.459 73.2955 254.459ZM73.2955 253.203C74.3658 253.203 75.3263 252.956 76.1771 252.462C77.0279 251.968 77.7003 251.261 78.1943 250.342C78.6882 249.409 78.9352 248.332 78.9352 247.11C78.9352 245.889 78.6882 244.819 78.1943 243.9C77.7003 242.98 77.0279 242.273 76.1771 241.779C75.3263 241.285 74.3658 241.038 73.2955 241.038C72.2251 241.038 71.2646 241.285 70.4138 241.779C69.563 242.273 68.8907 242.98 68.3967 243.9C67.9027 244.819 67.6557 245.889 67.6557 247.11C67.6557 248.332 67.9027 249.409 68.3967 250.342C68.8907 251.261 69.563 251.968 70.4138 252.462C71.2646 252.956 72.2251 253.203 73.2955 253.203Z" fill="#0D1B3A"/>
<path d="M100.817 239.927V241.121H94.4773V246.493H99.8289V247.687H94.4773V254.315H93.0365V239.927H100.817Z" fill="#0D1B3A"/>
<path d="M121.589 239.927V241.121H117.596V254.315H116.155V241.121H112.141V239.927H121.589Z" fill="#0D1B3A"/>
<path d="M151.301 239.927L147.226 254.315H145.62L141.998 242.047L138.293 254.315L136.728 254.335L132.735 239.927H134.279L137.572 252.544L141.257 239.927H142.862L146.443 252.544L149.757 239.927H151.301Z" fill="#0D1B3A"/>
<path d="M171.824 250.898H165.279L164.023 254.315H162.5L167.749 240.112H169.375L174.603 254.315H173.08L171.824 250.898ZM171.392 249.704L168.551 241.924L165.711 249.704H171.392Z" fill="#0D1B3A"/>
<path d="M194.555 254.315L190.994 248.304H188.339V254.315H186.898V239.927H191.221C192.826 239.927 194.04 240.311 194.864 241.08C195.701 241.848 196.119 242.857 196.119 244.105C196.119 245.148 195.817 246.04 195.214 246.781C194.624 247.508 193.745 247.982 192.579 248.201L196.284 254.315H194.555ZM188.339 247.131H191.241C192.366 247.131 193.21 246.857 193.773 246.308C194.349 245.759 194.637 245.025 194.637 244.105C194.637 243.159 194.363 242.431 193.814 241.924C193.265 241.402 192.401 241.141 191.221 241.141H188.339V247.131Z" fill="#0D1B3A"/>
<path d="M210.402 241.1V246.472H215.857V247.666H210.402V253.121H216.474V254.315H208.961V239.906H216.474V241.1H210.402Z" fill="#0D1B3A"/>
<path fill-rule="evenodd" clip-rule="evenodd" d="M204.654 49.6164C204.652 78.5227 204.624 97.9037 204.581 98.4829C204.45 100.278 204.046 102.359 203.489 104.106C203.217 104.962 202.633 106.519 202.404 107.003C201.407 109.107 200.627 110.471 199.33 112.379C198.204 114.033 197.273 115.246 194.361 118.851C194.044 119.244 193.317 120.158 192.745 120.883C192.173 121.607 191.405 122.573 191.038 123.028C189.742 124.637 189.116 125.42 188.819 125.806C188.653 126.021 187.911 126.956 187.168 127.885C185.528 129.938 182.94 133.194 181.542 134.963C180.974 135.682 180.32 136.506 180.087 136.796C179.855 137.086 179.365 137.695 179 138.15C178.634 138.605 177.907 139.52 177.384 140.182C176.861 140.844 176.2 141.673 175.916 142.025C174.834 143.366 170.778 148.457 170.353 149.008C169.624 149.954 168.753 151.014 168.683 151.041C168.647 151.055 168.615 148.833 168.612 146C168.609 143.214 168.579 138.581 168.545 135.705C168.491 131.166 168.462 130.278 168.322 128.972C167.833 124.398 166.613 120.984 164.616 118.593C163.392 117.128 161.847 116.135 160.146 115.721C159.453 115.552 159.157 115.521 158.235 115.52C156.634 115.518 155.641 115.743 153.157 116.671C152.702 116.841 152.262 116.999 152.179 117.021C152.096 117.043 151.808 117.139 151.539 117.234C149.005 118.127 145.088 119.09 142.06 119.564C138.289 120.154 133.364 120.171 130.323 119.605C129.888 119.524 129.364 119.428 129.157 119.391C127.546 119.106 124.71 118.154 123.031 117.334C121.927 116.795 120.15 115.788 120.016 115.625C119.995 115.6 119.758 115.429 119.489 115.245C117.134 113.634 114.591 110.9 112.943 108.206C112.596 107.64 111.602 105.678 111.436 105.235C111.382 105.09 111.313 104.937 111.282 104.896C111.251 104.855 111.138 104.584 111.031 104.294C110.923 104.004 110.806 103.7 110.77 103.617C110.612 103.252 109.934 101.008 109.934 100.848C109.934 100.779 109.867 100.476 109.786 100.176C109.641 99.6398 109.506 98.8325 109.298 97.2596C109.24 96.8251 109.171 95.8263 109.143 95.0401C108.951 89.5078 110.385 84.04 113.233 79.4458C114.933 76.7039 117.547 74.0516 120.381 72.1933C121.593 71.3986 123.388 70.4831 124.755 69.9626C125.757 69.5814 127.667 68.9916 128.197 68.9001C128.394 68.8661 128.876 68.77 129.27 68.6865C130.974 68.3241 132.897 68.1473 135.138 68.1468C137.202 68.1464 139.272 68.3297 141.571 68.7168C143.873 69.1044 147.347 69.9941 149.209 70.6729C149.479 70.7713 149.73 70.8518 149.767 70.8518C149.804 70.8518 150.091 70.9509 150.404 71.0721C150.718 71.1933 151.263 71.3998 151.615 71.531C151.966 71.6621 152.396 71.8339 152.57 71.9125C152.743 71.9912 152.913 72.0556 152.946 72.0556C152.979 72.0555 153.396 72.2209 153.872 72.423C155.762 73.2261 157.036 73.4702 158.572 73.324C160.991 73.0936 163.179 71.5666 164.864 68.9333C165.348 68.1771 165.46 67.9855 165.704 67.4977C166.006 66.8941 166.662 65.3956 166.662 65.3092C166.662 65.2769 166.743 65.0295 166.843 64.7596C167.496 62.9914 168.005 60.7269 168.372 57.9488L168.58 56.3689V47.2277V38.0865H117.608H66.6356L65.1309 38.2928C62.4377 38.6621 60.6973 39.1583 58.8111 40.0947C57.9821 40.5063 56.8689 41.1689 56.7345 41.3308C56.6437 41.4402 56.4374 41.4741 56.4466 41.3781C56.4495 41.3471 56.7945 41.0508 57.213 40.7198C57.6316 40.3888 58.4143 39.7624 58.9523 39.3279C59.4903 38.8934 60.2748 38.2671 60.6956 37.9361C61.1163 37.605 61.6628 37.1649 61.9101 36.958C62.3341 36.603 62.9859 36.0813 64.8706 34.5881C65.3146 34.2363 66.2612 33.4746 66.9743 32.8953C67.6874 32.3159 68.4664 31.6896 68.7055 31.5034C68.9445 31.3172 69.8087 30.6231 70.6258 29.9611C71.4429 29.299 72.3691 28.5579 72.6839 28.3142C72.9988 28.0706 73.4595 27.6963 73.7078 27.4826C73.9561 27.2688 74.3793 26.9266 74.6483 26.7219C74.9172 26.5173 75.4589 26.0781 75.852 25.7461C76.2451 25.414 76.7699 24.9845 77.0182 24.7917C77.5687 24.364 78.6471 23.4962 79.6366 22.6845C80.0422 22.3518 80.6389 21.8723 80.9627 21.619C81.2866 21.3656 82.1364 20.6845 82.8513 20.1051C83.5662 19.5258 84.4252 18.8392 84.7602 18.5794C85.0953 18.3196 85.5266 17.9726 85.7187 17.8084C85.9108 17.6443 86.4138 17.2389 86.8365 16.9076C87.2592 16.5764 87.7622 16.171 87.9543 16.0068C88.1464 15.8427 88.578 15.4957 88.9136 15.2359C89.2491 14.976 90.107 14.2894 90.8201 13.7101C91.5332 13.1308 92.3967 12.4367 92.739 12.1678C93.0812 11.8988 93.8823 11.2564 94.519 10.7402C97.6223 8.22449 98.7325 7.3437 99.3412 6.91456C99.86 6.54868 101.337 5.61659 102.147 5.14328C102.701 4.81954 104.961 3.66903 105.268 3.55437C105.414 3.49998 105.888 3.31971 106.323 3.15382C107.926 2.5417 109.481 2.17259 111.363 1.95787C112.462 1.83252 115.108 1.82259 156.919 1.78572C181.333 1.7642 202.061 1.7384 202.982 1.72832L204.656 1.70996L204.654 49.6164Z" fill="url(#paint0_linear_2051_1692)"/>
<path fill-rule="evenodd" clip-rule="evenodd" d="M204.998 49.1389C204.996 78.2075 204.968 97.6973 204.925 98.2798C204.793 100.085 204.387 102.178 203.827 103.934C203.553 104.795 202.967 106.361 202.736 106.847C201.734 108.964 200.949 110.336 199.645 112.254C198.514 113.917 197.578 115.137 194.65 118.763C194.331 119.157 193.6 120.077 193.025 120.805C192.45 121.534 191.678 122.505 191.31 122.963C190.007 124.581 189.377 125.369 189.078 125.756C188.912 125.972 188.165 126.913 187.419 127.847C185.77 129.911 183.168 133.186 181.763 134.965C181.192 135.687 180.534 136.517 180.3 136.808C180.067 137.099 179.575 137.712 179.207 138.17C178.839 138.628 178.108 139.547 177.582 140.213C177.056 140.878 176.393 141.713 176.107 142.066C175.019 143.415 170.942 148.534 170.514 149.089C169.781 150.04 168.906 151.106 168.836 151.133C168.799 151.147 168.767 148.913 168.764 146.064C168.761 143.262 168.73 138.603 168.696 135.711C168.643 131.147 168.613 130.253 168.472 128.94C167.98 124.34 166.755 120.907 164.747 118.503C163.516 117.03 161.962 116.031 160.253 115.614C159.556 115.445 159.259 115.413 158.332 115.412C156.722 115.41 155.724 115.637 153.226 116.57C152.769 116.741 152.326 116.899 152.243 116.922C152.16 116.944 151.871 117.041 151.6 117.136C149.052 118.035 145.114 119.003 142.07 119.479C138.279 120.073 133.328 120.09 130.271 119.52C129.834 119.439 129.306 119.342 129.098 119.305C127.479 119.019 124.628 118.061 122.94 117.237C121.83 116.695 120.043 115.682 119.908 115.518C119.887 115.493 119.649 115.321 119.379 115.136C117.011 113.516 114.455 110.766 112.798 108.058C112.449 107.489 111.449 105.515 111.283 105.069C111.229 104.924 111.159 104.771 111.128 104.729C111.097 104.687 110.983 104.415 110.875 104.124C110.767 103.832 110.649 103.526 110.613 103.443C110.454 103.076 109.773 100.819 109.773 100.659C109.773 100.589 109.706 100.284 109.624 99.9822C109.478 99.4432 109.342 98.6313 109.133 97.0496C109.075 96.6126 109.006 95.6083 108.978 94.8176C108.785 89.2543 110.227 83.7558 113.09 79.1358C114.798 76.3785 117.426 73.7112 120.275 71.8425C121.494 71.0434 123.299 70.1227 124.673 69.5993C125.68 69.216 127.601 68.6229 128.134 68.5308C128.331 68.4967 128.816 68.4 129.212 68.316C130.925 67.9516 132.858 67.7738 135.111 67.7733C137.187 67.7729 139.267 67.9572 141.578 68.3465C143.893 68.7363 147.385 69.631 149.257 70.3136C149.528 70.4125 149.781 70.4935 149.818 70.4935C149.855 70.4935 150.144 70.5932 150.459 70.715C150.775 70.8369 151.322 71.0446 151.676 71.1765C152.029 71.3084 152.462 71.4811 152.636 71.5602C152.811 71.6393 152.981 71.704 153.014 71.704C153.048 71.7039 153.467 71.8702 153.945 72.0735C155.846 72.8811 157.126 73.1266 158.67 72.9795C161.102 72.7479 163.302 71.2123 164.996 68.5642C165.482 67.8038 165.595 67.6111 165.84 67.1205C166.144 66.5136 166.803 65.0066 166.803 64.9198C166.803 64.8873 166.885 64.6385 166.986 64.367C167.642 62.5889 168.153 60.3117 168.522 57.518L168.732 55.9292V46.7367V37.5442H117.488H66.2437L64.7309 37.7517C62.0234 38.123 60.2737 38.622 58.3774 39.5636C57.544 39.9776 56.4248 40.6439 56.2898 40.8068C56.1985 40.9168 55.9911 40.9508 56.0003 40.8543C56.0032 40.8231 56.35 40.5252 56.7708 40.1923C57.1917 39.8594 57.9785 39.2295 58.5194 38.7926C59.0603 38.3557 59.8489 37.7258 60.272 37.3929C60.6949 37.06 61.2444 36.6174 61.4929 36.4094C61.9192 36.0524 62.5745 35.5277 64.4692 34.0261C64.9156 33.6724 65.8672 32.9064 66.5841 32.3238C67.301 31.7412 68.0842 31.1114 68.3246 30.9241C68.5649 30.7369 69.4337 30.0389 70.2551 29.3731C71.0766 28.7073 72.0077 27.9621 72.3242 27.717C72.6408 27.472 73.104 27.0956 73.3536 26.8807C73.6032 26.6658 74.0286 26.3216 74.299 26.1158C74.5694 25.91 75.114 25.4684 75.5092 25.1345C75.9044 24.8006 76.432 24.3686 76.6816 24.1747C77.235 23.7447 78.3192 22.8719 79.3139 22.0557C79.7217 21.7211 80.3216 21.2389 80.6472 20.9842C80.9727 20.7294 81.8271 20.0444 82.5458 19.4619C83.2645 18.8793 84.1281 18.1888 84.4649 17.9275C84.8018 17.6663 85.2353 17.3173 85.4285 17.1522C85.6216 16.9872 86.1273 16.5795 86.5523 16.2464C86.9772 15.9133 87.4829 15.5056 87.676 15.3405C87.8692 15.1754 88.3031 14.8265 88.6404 14.5653C88.9777 14.3039 89.8402 13.6135 90.5572 13.0309C91.2741 12.4483 92.1421 11.7504 92.4862 11.4799C92.8303 11.2094 93.6356 10.5634 94.2757 10.0444C97.3956 7.51449 98.5117 6.62876 99.1236 6.1972C99.6452 5.82927 101.13 4.89194 101.944 4.41598C102.502 4.09042 104.774 2.93345 105.082 2.81815C105.228 2.76345 105.705 2.58217 106.142 2.41534C107.754 1.79979 109.318 1.42861 111.21 1.21268C112.314 1.08663 114.974 1.07664 157.008 1.03956C181.552 1.01793 202.391 0.991979 203.317 0.981841L205 0.963379L204.998 49.1389Z" fill="#1F34A6"/>
<defs>
<linearGradient id="paint0_linear_2051_1692" x1="195.177" y1="103.288" x2="103.376" y2="50.0289" gradientUnits="userSpaceOnUse">
<stop stop-color="#0427AA"/>
<stop offset="1" stop-color="#139AD5"/>
</linearGradient>
</defs>
</svg>
