<?xml version="1.0" encoding="UTF-8"?>
<svg id="Capa_1" xmlns="http://www.w3.org/2000/svg" version="1.1" viewBox="0 0 2999.54 810.61">
  <!-- Generator: Adobe Illustrator 29.1.0, SVG Export Plug-In . SVG Version: 2.1.0 Build 142)  -->
  <defs>
    <style>
      .st0 {
        fill: #679eae;
      }
    </style>
  </defs>
  <path class="st0" d="M290.19.5c150.72-8.51,287.2,92.47,320.62,239.45,19.08,83.93,2.75,172.16-45.35,243.12l238.8,238.88c7.43,8.22,9.15,20.01,3.82,29.84-4.99,9.19-41.65,43.85-51.33,52.6-10.05,9.09-26.08,7.92-35.5-1.48l-238.55-238.16c-38.76,26-83.34,44.44-129.94,50.72C140.26,644.09-34.89,458.4,5.95,247.91,32.43,111.46,151.16,8.35,290.19.5ZM132.8,133.42c-148.99,148.77-53.71,406.01,155.11,423.21,204.43,16.84,341.44-206.21,231.83-380.51C435.45,42.06,244.98,21.4,132.8,133.42Z"/>
  <path class="st0" d="M973.18,474.72V22.18l171.49-.04c138.42,6.67,227.83,104.3,220.38,243.28-6.44,120.13-96.1,202.41-214.37,209.34l-177.49-.05ZM1084.15,371.82c46.6.04,94.38,5.3,131.97-27.46,47.48-41.37,50.95-134.39,10.5-181.34-37.21-43.19-90.28-38.38-142.47-37.95v246.75Z"/>
  <path class="st0" d="M2861.58,22.18h129.96l-148.62,221.27,155.62,231.26h-129.96c-29.59-45.5-60.36-90.34-91.47-134.84l-91.97,134.84h-128.46l155.62-231.26-149.62-221.27h129.46l84.97,124.85c28.78-41.17,57.08-82.78,84.47-124.85Z"/>
  <path class="st0" d="M1828.91,474.72h-111.96l-17-54.94c-9.05,11.41-17.07,22.68-28.51,31.94-49.43,40-126.54,32.61-177.93.05-91.36-57.88-115.43-194.08-48.86-279.63,75.45-96.97,257.88-95.57,324.71,10.97,42.12,67.14,24.57,134.53,35.74,208.04,4.36,28.72,12.69,56.88,23.83,83.58ZM1596.78,204.29c-56.86,3.8-84.88,45.95-77.65,100.98,6.8,51.74,44.49,73.42,94.39,70.59,58.87-3.34,82.11-48.6,73.14-103.15-8.12-49.38-40.35-71.73-89.88-68.42Z"/>
  <path class="st0" d="M2551.68,474.72h-111.96l-17-54.94c-9.05,11.41-17.07,22.68-28.51,31.94-46.55,37.67-118.05,33.23-168.44,5.55-122.36-67.22-131.55-259.52-6.65-329.35,77.92-43.57,198.68-34.54,258.56,35.66,59.8,70.11,37.59,145.13,50.18,227.57,4.39,28.72,12.67,56.88,23.83,83.58ZM2319.55,204.29c-56.86,3.8-84.88,45.95-77.65,100.98,6.8,51.76,44.5,73.47,94.39,70.59,58.88-3.39,82.12-48.55,73.14-103.15-8.12-49.41-40.33-71.73-89.88-68.42Z"/>
  <path class="st0" d="M1969.87,16.19v101.9h102.97v102.89h-102.97v81.42c0,3.48,2.64,13.36,3.74,17.24,14.96,52.8,73.95,63.23,121.22,52.18v102.39c-.42.64-.94,1.07-1.69,1.31-3.11,1-14.28,2.86-17.82,3.17-106.46,9.25-208.05-60.09-216.46-170.27l.04-292.24h110.96Z"/>
  <path class="st0" d="M1134.13,646.54c15.99,27.1,30.52,55.54,47.18,82.22,1,1.6,2.02,3.92,3.8,4.69v-86.91h44.99v152.84h-52.48l-50.48-86.91v86.91h-44.99v-152.84h51.98Z"/>
  <path class="st0" d="M2511.7,646.54c14.18,24.89,28.28,49.9,42.81,74.6,2.41,4.09,4.92,8.89,8.17,12.31v-86.91h44.99v152.84h-52.98l-49.98-86.91v86.91h-44.99v-152.84h51.98Z"/>
  <path class="st0" d="M2182.8,799.38c-.39-.39.29-8.32,0-9.99-20.42,13.87-47.11,18.11-70.74,10.26-63.19-21-66.75-117.28-10.9-149.29,36.85-21.12,106.03-9.29,118.57,36.52l-42.92,12.61c-4.42-29.55-47.42-29.4-59.81-5.32-10.64,20.67-7.83,60.76,17.55,70.03,15.83,5.78,41.86,2.13,42.26-18.76h-26.49c-.11,0-1.5-1.39-1.5-1.5v-29.47h70.98v83.41c0,.11-1.39,1.5-1.5,1.5-4.81,0-34.23,1.25-35.49,0Z"/>
  <path class="st0" d="M2992.54,646.54v33.97h-71.98v21.98h66.48c.11,0,1.5,1.39,1.5,1.5v31.47h-67.98v29.97h78.98v33.97h-127.96v-152.84h120.96Z"/>
  <path class="st0" d="M1578.99,646.54v32.97c-.98-.32-2.17,1-2.5,1h-69.48v21.98h66.98v32.97h-67.98v27.47c0,.33,1.32,1.52,1,2.5h77.48c.11,0,1.5,1.39,1.5,1.5v30.97c0,.11-1.39,1.5-1.5,1.5h-126.46v-152.84h120.96Z"/>
  <path class="st0" d="M2399.73,646.54v33.97h-71.98v21.98h66.98v32.97h-67.98v29.97h78.48c.11,0,1.5,1.39,1.5,1.5v30.97c0,.11-1.39,1.5-1.5,1.5h-126.46v-152.84h120.96Z"/>
  <path class="st0" d="M2776.63,703.48c-8.65-30.46-49.88-35.06-60.27-2.78-4.81,14.94-3.89,40.61,6.3,53.2,16.17,19.98,47.93,10.5,52.97-13.46l41,18.49c1.27.79.87,1.37.58,2.5-1.03,4.09-9.41,15.1-12.57,18.49-23.88,25.61-71.52,31.53-101.67,14.63-62.53-35.06-46.51-142.15,26.28-152.89,34.84-5.14,71.77,9.28,88.34,41.27l-40.97,20.54Z"/>
  <path class="st0" d="M1407.04,646.54v37.96h-38.99v114.88h-47.98v-114.38c0-.11-1.39-1.5-1.5-1.5h-37.49v-36.96h125.96Z"/>
  <polygon class="st0" points="1687.96 646.54 1687.96 760.42 1746.94 760.42 1746.94 799.38 1638.97 799.38 1638.97 646.54 1687.96 646.54"/>
  <path class="st0" d="M1845.91,646.54v111.39c0,.33,1.32,1.52,1,2.5h57.48c.11,0,1.5,1.39,1.5,1.5v35.96c0,.11-1.39,1.5-1.5,1.5h-106.47v-152.84h47.98Z"/>
  <rect class="st0" x="973.18" y="646.54" width="48.98" height="152.84"/>
  <rect class="st0" x="1956.87" y="646.54" width="47.98" height="152.84"/>
  <path class="st0" d="M518.32,233.97c3.71,13.33,7.71,26.61,9.76,40.34l-36.55,37.21c22.12,49.4-18.85,101.6-72.39,86.99-32.57-8.89-50.58-43.08-42.05-75.42.87-3.31,5.01-10.48,3.81-13.17l-54.99-53.99c-16.91,9.53-37.9,10.35-55.19,1.16-18.81,16.49-36.05,35.82-54.39,53.27l-.76,1.84c1.77,3.41,3.41,6.92,4.35,10.66,14.07,56.13-46.32,99.85-93.79,67.75-56.52-38.22-17.59-128.27,52.74-109.64,3.69.98,9.05,5.03,12.09,3.01l53.99-55.04c-6.08-19.59-4.15-40.44,9.49-56.38,40.49-47.34,113.7-3.95,95.41,54.39l58.14,57.76c18.73-8.3,38.87-8.02,57.64.07l52.68-50.81ZM315.03,225.62c20.22-20.13-7.75-55.61-32.13-37.6-29.27,21.62,7.16,62.47,32.13,37.6ZM158.25,309.18c-39.67,2.91-36.79,66.85,8.6,60.56,35.14-4.87,31.38-63.5-8.6-60.56ZM433.14,309.16c-39.7,3.72-35.52,66.56,9.62,60.58,34.71-4.6,31.21-64.4-9.62-60.58Z"/>
</svg>