<?xml version="1.0" encoding="utf-8"?>
<!-- Generator: Adobe Illustrator 27.2.0, SVG Export Plug-In . SVG Version: 6.00 Build 0)  -->
<svg version="1.1" id="Capa_1" xmlns="http://www.w3.org/2000/svg" xmlns:xlink="http://www.w3.org/1999/xlink" x="0px" y="0px"
	 viewBox="0 0 1178.9 787.9" style="enable-background:new 0 0 1178.9 787.9;" xml:space="preserve">
<style type="text/css">
	.st0{fill:#30CE25;}
	.st1{fill:#FFFFFF;}
	.st2{fill:#0025F5;}
	.st3{fill:#00AEFF;}
</style>
<g>
	<g>
		<rect x="589.4" y="524.6" class="st0" width="589.4" height="263.3"/>
		<g>
			<g>
				<path class="st1" d="M909.1,611.8h-4.2c-0.8,0-1.4,0.6-1.4,1.4v27.8c-0.1,10.6-4.8,16-14,16c-9.3,0-14.1-5.4-14.1-16v-27.8
					c0-0.8-0.6-1.4-1.4-1.4h-4.2c-0.8,0-1.4,0.6-1.4,1.4V641c0,8.4,2.7,22.4,21,22.4c18.2,0,20.9-14,20.9-22.4v-27.8
					C910.4,612.4,909.9,611.8,909.1,611.8z"/>
				<path class="st1" d="M935.3,658.1c-0.1-0.4-0.2-0.6-0.5-0.8c-0.4-0.2-0.8-0.1-1.1,0c-1.1,0.3-1.8,0.4-3,0.4
					c-3,0-3.2-2.5-3.2-10.4l0-16.7h6.7c0.7,0,1.2-0.5,1.2-1.2v-3.2c0-0.7-0.5-1.2-1.2-1.2l-6.7,0v-8.4c0-0.4-0.2-0.8-0.4-1
					c-0.3-0.2-0.6-0.3-0.9-0.2l-4.1,0.5c-0.6,0.1-1,0.6-1,1.3l0,7.8h-3.6c-0.7,0-1.2,0.5-1.2,1.2v3.2c0,0.7,0.5,1.2,1.2,1.2l3.6,0
					v17c0,4.4,0,8.3,0.9,11.1c1.1,3.2,3.3,4.7,6.9,4.7c2.5,0,4.9-0.5,6.2-1.4l0,0c0.4-0.3,0.6-0.8,0.5-1.4L935.3,658.1z"/>
				<path class="st1" d="M957.3,624.7c-11.2,0-19.6,8.3-19.6,19.3c0,11.1,8.4,19.4,19.6,19.4s19.6-8.3,19.6-19.4
					C976.9,633,968.5,624.7,957.3,624.7z M957.3,657.7c-7.7,0-13.1-5.6-13.1-13.7c0-8,5.4-13.7,13.1-13.7c7.8,0,13.2,5.6,13.2,13.7
					C970.5,652,965.1,657.7,957.3,657.7z"/>
				<path class="st1" d="M998.9,624.7c-4.9,0-9.1,2.4-11.4,5v-3.6c0-0.7-0.5-1.2-1.2-1.2h-4.1c-0.7,0-1.2,0.5-1.2,1.2v50.4
					c0,0.7,0.5,1.1,1.2,1.1h4.1c0.7,0,1.2-0.5,1.2-1.1l0-18.2c2.2,2.4,6.3,5,11.4,5c11.6,0,16.9-10,16.9-19.4
					C1015.8,634.7,1010.5,624.7,998.9,624.7z M1009.3,644c0,6.3-3,13.7-11.6,13.7c-4.2,0-8.2-2.4-10.2-6.1v-15.2
					c2-3.7,6-6.1,10.2-6.1C1006.3,630.3,1009.3,637.7,1009.3,644z"/>
				<path class="st1" d="M1035.8,609.7c-0.2-0.4-0.6-0.7-1.2-0.7h-3.7c-0.7,0-1.2,0.3-1.4,0.8l-6.4,9.5c-0.3,0.4-0.4,0.8-0.2,1.2
					c0.2,0.4,0.7,0.7,1.2,0.7h2.9c0.4,0,1-0.1,1.4-0.7l7.1-9.6C1035.9,610.5,1036,610.1,1035.8,609.7z"/>
				<path class="st1" d="M1026.4,624.9h-4c-0.7,0-1.2,0.5-1.2,1.2v35.8c0,0.7,0.5,1.2,1.2,1.2h4c0.7,0,1.2-0.5,1.2-1.2v-35.8
					C1027.7,625.4,1027.2,624.9,1026.4,624.9z"/>
				<path class="st1" d="M1050.6,624.7c-5.6,0-11.5,2.3-14,4c-0.2,0.2-0.8,0.6-0.4,1.4l0.7,2.7c0.2,0.4,0.4,0.6,0.7,0.7
					c0.2,0.1,0.5,0.1,0.9-0.1c2.1-1.2,7.2-2.9,10.8-2.9c4.2,0,8,1,8,8c-15.9,0.2-24.3,5-24.3,14.1c0,6.7,4.8,11,12.3,11
					c4.2,0,9.2-1.8,12-4.2v2.7c0,0.7,0.5,1.2,1.2,1.2h4c0.7,0,1.2-0.5,1.2-1.2v-20.2C1063.9,635.3,1063.9,624.7,1050.6,624.7z
					 M1057.5,653.8C1057.5,653.8,1057.5,653.8,1057.5,653.8c-3.6,3.1-7.8,4.2-10.5,4.2c-4.4,0-7.2-2.3-7.2-5.9
					c0-8,13.4-8.7,17.7-8.7L1057.5,653.8z"/>
			</g>
			<g>
				<path class="st1" d="M873,688.9h-4.8c-0.2,0-0.4,0.2-0.4,0.4V703c0,0.2,0.2,0.4,0.4,0.4h4.8c4.2,0,7.5-3.2,7.5-7.2
					C880.5,692.1,877.2,688.9,873,688.9z M873.1,701.6h-3.3c0,0,0,0,0,0v-10.9c0,0,0,0,0,0h3.3c3.5,0,5.5,2.8,5.5,5.5
					C878.6,698.8,876.5,701.6,873.1,701.6z"/>
				<path class="st1" d="M887.1,692.5c-3,0-5.1,2.3-5.1,5.5c0,3.2,2.1,5.5,5.2,5.5c2.2,0,3.9-1,4.7-2.9c0-0.1,0-0.2,0-0.3
					c0-0.1-0.1-0.1-0.2-0.1l-1.1-0.2c-0.2,0-0.3,0-0.4,0.2c-0.2,0.4-0.9,1.7-3,1.7c-2.5,0-3.3-2.4-3.3-3.2h7.9
					c0.2,0,0.3-0.1,0.3-0.3v-0.4C892.1,695.2,890.6,692.5,887.1,692.5z M883.9,697.2c0-1.2,0.9-3.2,3.3-3.2c2.4,0,3.1,2,3.1,3.2
					L883.9,697.2C883.9,697.3,883.9,697.3,883.9,697.2z"/>
				<path class="st1" d="M897.8,697.1c-2.2-0.6-2.4-1-2.4-1.7c0-0.6,0.6-1.3,2-1.3c1.5,0,2.3,0.6,2.3,1.8c0,0,0,0.2,0.1,0.3
					c0.1,0.1,0.2,0.1,0.3,0.1l1-0.2c0.2,0,0.3-0.2,0.3-0.4c0-1.9-1.6-3.2-4.1-3.2c-2.2,0-3.8,1.2-3.8,2.8c0,1.5,0.9,2.4,3.4,3.1
					c2.3,0.6,3.2,1,3.2,2c0,1-0.8,1.5-2.2,1.5c-1.9,0-3-0.9-3-2.3c0-0.2-0.1-0.3-0.1-0.3c-0.1,0-0.2-0.1-0.3,0l-1,0.1
					c-0.2,0-0.3,0.2-0.3,0.4c0,2.2,1.9,3.7,4.8,3.7c2.4,0,4-1.1,4-3C902,698.4,900.1,697.7,897.8,697.1z"/>
				<path class="st1" d="M905.6,692.6h-1.1c-0.2,0-0.3,0.1-0.3,0.3v10.2c0,0.2,0.1,0.3,0.3,0.3h1.1c0.2,0,0.3-0.1,0.3-0.3v-10.2
					C905.9,692.7,905.8,692.6,905.6,692.6z"/>
				<path class="st1" d="M905,688.2c-0.6,0-1.2,0.5-1.2,1.2c0,0.6,0.5,1.2,1.2,1.2c0.6,0,1.2-0.5,1.2-1.2
					C906.2,688.8,905.7,688.2,905,688.2z"/>
				<path class="st1" d="M917.6,692.6h-1.1c-0.2,0-0.3,0.1-0.3,0.3l0,1.1c-0.6-0.8-1.8-1.5-3.3-1.5c-2.3,0-4.8,1.7-4.8,5.5
					c0,2.6,1.5,5.5,4.8,5.5c1.4,0,2.6-0.7,3.3-1.5v0.5c0,2.3-1,3.5-3,3.5c-1.6,0-2.7-0.6-3.2-0.8c-0.1-0.1-0.2-0.1-0.3,0
					c-0.1,0-0.2,0.1-0.2,0.2l-0.2,0.7c0,0.1,0,0.2,0,0.2c0,0.1,0.1,0.1,0.1,0.2c0.4,0.3,1.8,1.1,4,1.1c2.8,0,4.5-1.9,4.5-5v-9.6
					C918,692.7,917.8,692.6,917.6,692.6z M916.2,695.8v4.3c-0.6,1.1-1.7,1.7-2.9,1.7c-2.5,0-3.3-2.1-3.3-3.9c0-1.8,0.9-3.9,3.3-3.9
					C914.5,694.1,915.6,694.8,916.2,695.8z M909.5,706.2C909.5,706.2,909.5,706.2,909.5,706.2L909.5,706.2L909.5,706.2z"/>
				<path class="st1" d="M925.8,692.5c-1.5,0-3,0.8-3.8,1.7v-1.3c0-0.2-0.1-0.3-0.3-0.3h-1.2c-0.2,0-0.3,0.1-0.3,0.3v10.2
					c0,0.2,0.1,0.3,0.3,0.3h1.2c0.2,0,0.3-0.1,0.3-0.3v-6.8c0.5-1.3,1.9-2.2,3.4-2.2c2,0,2.9,1.2,2.9,3.6v5.4c0,0.2,0.1,0.3,0.3,0.3
					h1.1c0.2,0,0.3-0.1,0.3-0.3v-5.6C930.1,693.4,927.7,692.5,925.8,692.5z"/>
				<path class="st1" d="M933.4,688.2c-0.6,0-1.2,0.5-1.2,1.2c0,0.6,0.5,1.2,1.2,1.2c0.6,0,1.2-0.5,1.2-1.2
					C934.6,688.8,934.1,688.2,933.4,688.2z"/>
				<path class="st1" d="M934,692.6h-1.1c-0.2,0-0.3,0.1-0.3,0.3v10.2c0,0.2,0.1,0.3,0.3,0.3h1.1c0.2,0,0.3-0.1,0.3-0.3v-10.2
					C934.3,692.7,934.2,692.6,934,692.6z"/>
				<path class="st1" d="M942.4,692.5c-1.5,0-3,0.8-3.8,1.7v-1.3c0-0.2-0.1-0.3-0.3-0.3h-1.2c-0.2,0-0.3,0.1-0.3,0.3v10.2
					c0,0.2,0.1,0.3,0.3,0.3h1.2c0.2,0,0.3-0.1,0.3-0.3v-6.8c0.5-1.3,1.9-2.2,3.4-2.2c2,0,2.9,1.2,2.9,3.6v5.4c0,0.2,0.1,0.3,0.3,0.3
					h1.1c0.2,0,0.3-0.1,0.3-0.3v-5.6C946.7,693.4,944.4,692.5,942.4,692.5z"/>
				<path class="st1" d="M957.5,692.6h-1.1c-0.2,0-0.3,0.1-0.3,0.3l0,1.1c-0.6-0.8-1.8-1.5-3.3-1.5c-2.3,0-4.8,1.7-4.8,5.5
					c0,2.6,1.5,5.5,4.8,5.5c1.4,0,2.6-0.7,3.3-1.5v0.5c0,2.3-1,3.5-3,3.5c-1.6,0-2.7-0.6-3.2-0.8c-0.1-0.1-0.2-0.1-0.3,0
					c-0.1,0-0.2,0.1-0.2,0.2l-0.2,0.7c0,0.1,0,0.2,0,0.2c0,0.1,0.1,0.1,0.1,0.2c0.4,0.3,1.8,1.1,4,1.1c2.8,0,4.5-1.9,4.5-5v-9.6
					C957.8,692.7,957.7,692.6,957.5,692.6z M956.1,695.8v4.3c-0.6,1.1-1.7,1.7-2.9,1.7c-2.5,0-3.3-2.1-3.3-3.9
					c0-1.8,0.9-3.9,3.3-3.9C954.3,694.1,955.5,694.8,956.1,695.8z M949.3,706.2C949.3,706.2,949.3,706.2,949.3,706.2L949.3,706.2
					L949.3,706.2z"/>
				<path class="st1" d="M979.3,693.7c0-2.9-2-4.8-5.1-4.8h-5.1c-0.2,0-0.4,0.2-0.4,0.4V703c0,0.2,0.2,0.4,0.4,0.4h1.2
					c0.2,0,0.4-0.2,0.4-0.4v-4.5c0,0,0,0,0,0h4.1c0,0,0.1,0,0.1,0l2.3,4.6c0.1,0.1,0.2,0.2,0.4,0.2h1.3c0.1,0,0.2-0.1,0.3-0.2
					c0.1-0.1,0.1-0.2,0-0.3l-2.5-4.8c0,0,0,0,0,0C977.6,697.5,979.3,696.3,979.3,693.7z M977.4,693.7c0,2.1-1.7,3-2.9,3h-3.8
					c0,0,0,0,0,0v-6c0,0,0,0,0,0h3.4C976.1,690.7,977.4,691.8,977.4,693.7z"/>
				<path class="st1" d="M985.7,692.5c-3,0-5.1,2.3-5.1,5.5c0,3.2,2.1,5.5,5.2,5.5c2.2,0,3.9-1,4.7-2.9c0-0.1,0-0.2,0-0.3
					c0-0.1-0.1-0.1-0.2-0.1l-1.1-0.2c-0.2,0-0.3,0-0.4,0.2c-0.2,0.4-0.9,1.7-3,1.7c-2.5,0-3.3-2.4-3.3-3.2h7.9
					c0.2,0,0.3-0.1,0.3-0.3v-0.4C990.6,695.2,989.1,692.5,985.7,692.5z M982.4,697.2c0-1.2,0.9-3.2,3.3-3.2c2.4,0,3.1,2,3.1,3.2
					L982.4,697.2C982.4,697.3,982.4,697.3,982.4,697.2z"/>
				<path class="st1" d="M996.4,697.1c-2.2-0.6-2.4-1-2.4-1.7c0-0.6,0.6-1.3,2-1.3c1.5,0,2.3,0.6,2.3,1.8c0,0,0,0.2,0.1,0.3
					c0.1,0.1,0.2,0.1,0.3,0.1l1-0.2c0.2,0,0.3-0.2,0.3-0.4c0-1.9-1.6-3.2-4.1-3.2c-2.2,0-3.8,1.2-3.8,2.8c0,1.5,0.9,2.4,3.4,3.1
					c2.3,0.6,3.2,1,3.2,2c0,1-0.8,1.5-2.2,1.5c-1.9,0-3-0.9-3-2.3c0-0.2-0.1-0.3-0.1-0.3c-0.1,0-0.2-0.1-0.3,0l-1,0.1
					c-0.2,0-0.3,0.2-0.3,0.4c0,2.2,1.9,3.7,4.8,3.7c2.4,0,4-1.1,4-3C1000.5,698.4,998.6,697.7,996.4,697.1z"/>
				<path class="st1" d="M1003.6,688.2c-0.6,0-1.2,0.5-1.2,1.2c0,0.6,0.5,1.2,1.2,1.2c0.6,0,1.2-0.5,1.2-1.2
					C1004.7,688.8,1004.2,688.2,1003.6,688.2z"/>
				<path class="st1" d="M1004.1,692.6h-1.1c-0.2,0-0.3,0.1-0.3,0.3v10.2c0,0.2,0.1,0.3,0.3,0.3h1.1c0.2,0,0.3-0.1,0.3-0.3v-10.2
					C1004.5,692.7,1004.3,692.6,1004.1,692.6z"/>
				<path class="st1" d="M1008.5,688.1h-1.2c-0.2,0-0.3,0.1-0.3,0.3v14.7c0,0.2,0.1,0.3,0.3,0.3h1.2c0.2,0,0.3-0.1,0.3-0.3v-14.7
					C1008.8,688.2,1008.7,688.1,1008.5,688.1z"/>
				<path class="st1" d="M1012.7,692.6h-1.1c-0.2,0-0.3,0.1-0.3,0.3v10.2c0,0.2,0.1,0.3,0.3,0.3h1.1c0.2,0,0.3-0.1,0.3-0.3v-10.2
					C1013,692.7,1012.9,692.6,1012.7,692.6z"/>
				<path class="st1" d="M1012.1,688.2c-0.6,0-1.2,0.5-1.2,1.2c0,0.6,0.5,1.2,1.2,1.2c0.6,0,1.2-0.5,1.2-1.2
					C1013.3,688.8,1012.8,688.2,1012.1,688.2z"/>
				<path class="st1" d="M1020.3,692.5c-3,0-5.1,2.3-5.1,5.5c0,3.2,2.1,5.5,5.2,5.5c2.2,0,3.9-1,4.7-2.9c0-0.1,0-0.2,0-0.3
					c0-0.1-0.1-0.1-0.2-0.1l-1.1-0.2c-0.2,0-0.3,0-0.4,0.2c-0.2,0.4-0.9,1.7-3,1.7c-2.5,0-3.3-2.4-3.3-3.2h7.9
					c0.2,0,0.3-0.1,0.3-0.3v-0.4C1025.3,695.2,1023.7,692.5,1020.3,692.5z M1017,697.2c0-1.2,0.9-3.2,3.3-3.2c2.4,0,3.1,2,3.1,3.2
					L1017,697.2C1017,697.3,1017,697.3,1017,697.2z"/>
				<path class="st1" d="M1032.6,692.5c-1.5,0-3,0.8-3.8,1.7v-1.3c0-0.2-0.1-0.3-0.3-0.3h-1.2c-0.2,0-0.3,0.1-0.3,0.3v10.2
					c0,0.2,0.1,0.3,0.3,0.3h1.2c0.2,0,0.3-0.1,0.3-0.3v-6.8c0.5-1.3,1.9-2.2,3.4-2.2c2,0,2.9,1.2,2.9,3.6v5.4c0,0.2,0.1,0.3,0.3,0.3
					h1.1c0.2,0,0.3-0.1,0.3-0.3v-5.6C1036.9,693.4,1034.6,692.5,1032.6,692.5z"/>
				<path class="st1" d="M1043.5,701.8c-0.1-0.1-0.2,0-0.3,0c-0.3,0.1-0.5,0.1-0.8,0.1c-0.9,0-0.9-0.7-0.9-3l0-4.8h1.9
					c0.2,0,0.3-0.1,0.3-0.3v-0.9c0-0.2-0.1-0.3-0.3-0.3l-1.9,0v-2.4c0-0.1,0-0.2-0.1-0.3c-0.1-0.1-0.2-0.1-0.2-0.1l-1.2,0.1
					c-0.2,0-0.3,0.2-0.3,0.3l0,2.2h-1c-0.2,0-0.3,0.1-0.3,0.3v0.9c0,0.2,0.1,0.3,0.3,0.3l1,0v4.8c0,1.3,0,2.3,0.3,3.1
					c0.3,0.9,0.9,1.3,1.9,1.3c0.7,0,1.4-0.1,1.8-0.4l0,0c0.1-0.1,0.2-0.2,0.1-0.4l-0.1-0.7C1043.6,701.9,1043.5,701.8,1043.5,701.8z
					"/>
				<path class="st1" d="M1060.9,690.6c2.2,0,3.7,1.5,4,2.3c0.1,0.2,0.3,0.2,0.4,0.2l1.2-0.2c0.1,0,0.2,0,0.2-0.1
					c0.1-0.1,0-0.2,0-0.3l0-0.1c-0.6-1.8-2.8-3.7-5.7-3.7c-3.5,0-7,2.5-7,7.3c0,4.8,3.5,7.4,7,7.4c2.8,0,5.1-1.9,5.8-3.7
					c0-0.1,0-0.2,0-0.3c0-0.1-0.1-0.1-0.2-0.1l-1.1-0.2l0,0.2l0-0.2c-0.1,0-0.3-0.1-0.4,0.2c-0.3,0.8-1.8,2.3-4,2.3
					c-3,0-5-2.3-5-5.6C1055.9,692.9,1058,690.6,1060.9,690.6z"/>
				<path class="st1" d="M1069.9,692.6h-1.1c-0.2,0-0.3,0.1-0.3,0.3v10.2c0,0.2,0.1,0.3,0.3,0.3h1.1c0.2,0,0.3-0.1,0.3-0.3v-10.2
					C1070.3,692.7,1070.1,692.6,1069.9,692.6z"/>
				<path class="st1" d="M1069.4,688.2c-0.6,0-1.2,0.5-1.2,1.2c0,0.6,0.5,1.2,1.2,1.2c0.6,0,1.2-0.5,1.2-1.2
					C1070.5,688.8,1070,688.2,1069.4,688.2z"/>
				<path class="st1" d="M1077.5,701.8c-0.1-0.1-0.2,0-0.3,0c-0.3,0.1-0.5,0.1-0.8,0.1c-0.9,0-0.9-0.7-0.9-3l0-4.8h1.9
					c0.2,0,0.3-0.1,0.3-0.3v-0.9c0-0.2-0.1-0.3-0.3-0.3l-1.9,0v-2.4c0-0.1,0-0.2-0.1-0.3c-0.1-0.1-0.2-0.1-0.2-0.1l-1.2,0.1
					c-0.2,0-0.3,0.2-0.3,0.3l0,2.2h-1c-0.2,0-0.3,0.1-0.3,0.3v0.9c0,0.2,0.1,0.3,0.3,0.3l1,0v4.8c0,1.3,0,2.3,0.3,3.1
					c0.3,0.9,0.9,1.3,1.9,1.3c0.7,0,1.4-0.1,1.8-0.4l0,0c0.1-0.1,0.2-0.2,0.1-0.4l-0.1-0.7C1077.6,701.9,1077.5,701.8,1077.5,701.8z
					"/>
				<path class="st1" d="M1081.1,688.2c-0.6,0-1.2,0.5-1.2,1.2c0,0.6,0.5,1.2,1.2,1.2c0.6,0,1.2-0.5,1.2-1.2
					C1082.2,688.8,1081.7,688.2,1081.1,688.2z"/>
				<path class="st1" d="M1081.6,692.6h-1.1c-0.2,0-0.3,0.1-0.3,0.3v10.2c0,0.2,0.1,0.3,0.3,0.3h1.1c0.2,0,0.3-0.1,0.3-0.3v-10.2
					C1082,692.7,1081.8,692.6,1081.6,692.6z"/>
				<path class="st1" d="M1089.2,692.5c-3,0-5.1,2.3-5.1,5.5c0,3.2,2.1,5.5,5.2,5.5c2.2,0,3.9-1,4.7-2.9c0-0.1,0-0.2,0-0.3
					c0-0.1-0.1-0.1-0.2-0.1l-1.1-0.2c-0.2,0-0.3,0-0.4,0.2c-0.2,0.4-0.9,1.7-3,1.7c-2.5,0-3.3-2.4-3.3-3.2h7.9
					c0.2,0,0.3-0.1,0.3-0.3v-0.4C1094.2,695.2,1092.7,692.5,1089.2,692.5z M1086,697.2c0-1.2,0.9-3.2,3.3-3.2c2.4,0,3.1,2,3.1,3.2
					L1086,697.2C1086,697.3,1086,697.3,1086,697.2z"/>
				<path class="st1" d="M1100,697.1c-2.2-0.6-2.4-1-2.4-1.7c0-0.6,0.6-1.3,2-1.3c1.5,0,2.3,0.6,2.3,1.8c0,0,0,0.2,0.1,0.3
					c0.1,0.1,0.2,0.1,0.3,0.1l1-0.2c0.2,0,0.3-0.2,0.3-0.4c0-1.9-1.6-3.2-4.1-3.2c-2.2,0-3.8,1.2-3.8,2.8c0,1.5,0.9,2.4,3.4,3.1
					c2.3,0.6,3.2,1,3.2,2c0,1-0.8,1.5-2.2,1.5c-1.9,0-3-0.9-3-2.3c0-0.2-0.1-0.3-0.1-0.3c-0.1,0-0.2-0.1-0.3,0l-1,0.1
					c-0.2,0-0.3,0.2-0.3,0.4c0,2.2,1.9,3.7,4.8,3.7c2.4,0,4-1.1,4-3C1104.1,698.4,1102.2,697.7,1100,697.1z"/>
			</g>
			<g>
				<polygon class="st1" points="740.2,690.9 706.2,620.8 664.3,708.6 673.7,708.6 706.2,640.4 730.8,690.9 				"/>
				<g>
					<polygon class="st1" points="728.7,647 739.4,624.6 750.3,647.3 755.2,637.1 739.4,603.9 723.8,636.8 					"/>
					<polygon class="st1" points="769.7,667.3 764.7,677.5 775.3,699.7 737.7,699.7 703.8,699.7 714.4,677.4 709.4,667.2 
						689.8,708.6 737.7,708.6 789.4,708.6 					"/>
				</g>
				<polygon class="st1" points="772.9,620.8 738.9,690.9 748.4,690.9 772.9,640.4 805.4,708.6 814.9,708.6 				"/>
			</g>
		</g>
	</g>
	<g>
		<rect x="0" y="524.6" class="st2" width="589.4" height="263.3"/>
		<g>
			<path class="st1" d="M252.6,695.6v-5.3c0-1.8,1.3-2.7,2.6-2.7c0.6,0,1.1,0.1,1.5,0.4c0.1,0,0.2,0,0.3,0c0.1,0,0.1-0.1,0.1-0.2
				l0.2-1c0-0.1,0-0.3-0.2-0.4c-0.3-0.2-1-0.5-1.8-0.5c-0.5,0-1.7,0.1-2.7,1.3v-1c0-0.2-0.1-0.3-0.3-0.3h-1c-0.2,0-0.3,0.1-0.3,0.3
				v9.2c0,0.2,0.1,0.3,0.3,0.3h1C252.5,695.9,252.6,695.8,252.6,695.6z"/>
			<path class="st1" d="M263.2,653.6l-19.9,0l0-13.9h13.8c0.7,0,1.2-0.5,1.2-1.2V635c0-0.7-0.5-1.2-1.2-1.2l-13.8,0l0-15h19.2
				c0.7,0,1.2-0.5,1.2-1.2v-3.4c0-0.7-0.5-1.2-1.2-1.2h-24.3c-0.7,0-1.2,0.5-1.2,1.2v44c0,0.7,0.5,1.2,1.2,1.2h24.9
				c0.7,0,1.2-0.5,1.2-1.2v-3.4C264.4,654.1,263.9,653.6,263.2,653.6z"/>
			<path class="st1" d="M307.9,612.9H304c-0.6,0-1,0.3-1.3,0.8l-14.1,36l-14.1-36c-0.2-0.5-0.7-0.8-1.2-0.8h-3.9
				c-0.4,0-0.8,0.2-0.9,0.5c-0.2,0.3-0.2,0.7,0,1.1l17.8,44.1c0.2,0.5,0.7,0.8,1.3,0.8h2.2c0.6,0,1.1-0.3,1.3-0.8l17.8-44.1
				c0.2-0.4,0.2-0.8,0-1.1C308.7,613.1,308.3,612.9,307.9,612.9z"/>
			<path class="st1" d="M359.2,612.9h-2.7c-0.6,0-1.1,0.2-1.3,0.7L338,642.2l-17.1-28.7c-0.3-0.4-0.7-0.7-1.3-0.7h-2.6
				c-0.7,0-1.2,0.5-1.2,1.2v44c0,0.7,0.5,1.2,1.2,1.2h3.8c0.7,0,1.2-0.5,1.2-1.2l0-31.8l15.1,25.2c0.5,0.7,1.4,0.7,1.9,0l15.2-25.2
				v31.8c0,0.7,0.5,1.2,1.2,1.2h3.8c0.7,0,1.2-0.5,1.2-1.2v-44C360.4,613.4,359.9,612.9,359.2,612.9z"/>
			<path class="st1" d="M392.9,640.6c3.1,0,5.4,2.2,5.8,3.4c0.2,0.4,0.5,0.3,0.7,0.3l1.7-0.2c0.2,0,0.3-0.1,0.3-0.2
				c0.1-0.2,0.1-0.3,0-0.5l0-0.1c-0.9-2.6-4.2-5.4-8.5-5.4c-5.1,0-10.3,3.7-10.3,10.8c0,7.1,5.2,10.9,10.3,10.9
				c4.2,0,7.6-2.8,8.5-5.4c0-0.1,0.1-0.4-0.1-0.5c-0.1-0.1-0.2-0.2-0.3-0.2l-1.7-0.2l0,0.3l0-0.3c-0.1,0-0.5-0.1-0.7,0.3
				c-0.4,1.1-2.7,3.4-5.8,3.4c-4.3,0-7.3-3.3-7.3-8.1C385.6,643.9,388.6,640.6,392.9,640.6z"/>
			<path class="st1" d="M410.7,643.3c-4.7,0-8.2,3.5-8.2,8.1c0,4.6,3.5,8.1,8.2,8.1c4.7,0,8.2-3.5,8.2-8.1
				C418.9,646.8,415.4,643.3,410.7,643.3z M410.7,657.1c-3.2,0-5.4-2.3-5.4-5.7c0-3.3,2.2-5.7,5.4-5.7c3.2,0,5.5,2.3,5.5,5.7
				C416.2,654.7,414,657.1,410.7,657.1z"/>
			<path class="st1" d="M428.9,643.3c-2.2,0-4.3,1.1-5.5,2.4v-1.8c0-0.3-0.2-0.5-0.5-0.5h-1.7c-0.3,0-0.5,0.2-0.5,0.5v15
				c0,0.3,0.2,0.5,0.5,0.5h1.7c0.3,0,0.5-0.2,0.5-0.5v-9.9c0.7-1.9,2.8-3.2,4.9-3.2c2.9,0,4.2,1.7,4.2,5.2v7.9
				c0,0.3,0.2,0.5,0.5,0.5h1.7c0.3,0,0.5-0.2,0.5-0.5v-8.2C435.3,644.6,431.8,643.3,428.9,643.3z"/>
			<path class="st1" d="M443.4,650c-3.4-1-3.5-1.5-3.5-2.4c0-0.9,0.9-1.9,3-1.9c2.2,0,3.3,0.9,3.3,2.6c0,0.1,0,0.3,0.2,0.5
				c0.1,0.1,0.3,0.1,0.5,0.1l1.5-0.2c0.4-0.1,0.5-0.3,0.5-0.6c0-2.9-2.4-4.7-6-4.7c-3.3,0-5.6,1.7-5.6,4.2c0,2.3,1.4,3.6,5,4.6
				c3.3,0.9,4.6,1.4,4.6,2.9c0,1.4-1.2,2.2-3.2,2.2c-2.7,0-4.4-1.3-4.4-3.3c0-0.3-0.1-0.4-0.2-0.5c-0.1-0.1-0.3-0.1-0.5-0.1
				l-1.5,0.2c-0.4,0.1-0.5,0.3-0.5,0.6c0,3.3,2.8,5.4,7.1,5.4c3.6,0,5.9-1.7,5.9-4.5C449.5,652,446.8,650.9,443.4,650z"/>
			<path class="st1" d="M465.4,643.4h-1.7c-0.3,0-0.5,0.2-0.5,0.5v9.9c-0.7,1.9-2.8,3.2-4.9,3.2c-2.9,0-4.2-1.7-4.2-5.2v-7.9
				c0-0.3-0.2-0.5-0.5-0.5h-1.7c-0.3,0-0.5,0.2-0.5,0.5v8.2c0,6.1,3.5,7.4,6.4,7.4c2.2,0,4.4-1.1,5.5-2.4v1.8c0,0.3,0.2,0.5,0.5,0.5
				h1.7c0.3,0,0.5-0.2,0.5-0.5v-15C465.9,643.6,465.7,643.4,465.4,643.4z"/>
			<path class="st1" d="M470.5,636.8h-1.7c-0.3,0-0.5,0.2-0.5,0.5v21.6c0,0.3,0.2,0.5,0.5,0.5h1.7c0.3,0,0.5-0.2,0.5-0.5v-21.6
				C471.1,637,470.8,636.8,470.5,636.8z"/>
			<path class="st1" d="M481,656.9c-0.2-0.1-0.4,0-0.5,0c-0.4,0.1-0.7,0.2-1.2,0.2c-1.2,0-1.3-1.1-1.3-4.3l0-7h2.8
				c0.3,0,0.5-0.2,0.5-0.5v-1.3c0-0.3-0.2-0.5-0.5-0.5H478v-3.5c0-0.2-0.1-0.3-0.2-0.4c-0.1-0.1-0.3-0.1-0.4-0.1l-1.7,0.2
				c-0.3,0.1-0.4,0.3-0.4,0.6l0,3.2h-1.5c-0.3,0-0.5,0.2-0.5,0.5v1.3c0,0.3,0.2,0.5,0.5,0.5h1.5v7.1c0,1.9,0,3.5,0.4,4.6
				c0.4,1.3,1.4,2,2.9,2c1,0,2.1-0.2,2.6-0.6l0,0c0.2-0.1,0.3-0.4,0.2-0.6l-0.2-1C481.2,657.1,481.1,657,481,656.9z"/>
			<path class="st1" d="M485.7,637c-1,0-1.8,0.8-1.8,1.8c0,1,0.8,1.8,1.8,1.8c1,0,1.8-0.8,1.8-1.8S486.7,637,485.7,637z"/>
			<path class="st1" d="M486.5,643.4h-1.7c-0.3,0-0.5,0.2-0.5,0.5v15c0,0.3,0.2,0.5,0.5,0.5h1.7c0.3,0,0.5-0.2,0.5-0.5v-15
				C487.1,643.6,486.9,643.4,486.5,643.4z"/>
			<path class="st1" d="M498.3,643.3c-2.2,0-4.3,1.1-5.5,2.4v-1.8c0-0.3-0.2-0.5-0.5-0.5h-1.7c-0.3,0-0.5,0.2-0.5,0.5v15
				c0,0.3,0.2,0.5,0.5,0.5h1.7c0.3,0,0.5-0.2,0.5-0.5v-9.9c0.7-1.9,2.8-3.2,4.9-3.2c2.9,0,4.2,1.7,4.2,5.2v7.9
				c0,0.3,0.2,0.5,0.5,0.5h1.7c0.3,0,0.5-0.2,0.5-0.5v-8.2C504.7,644.6,501.3,643.3,498.3,643.3z"/>
			<path class="st1" d="M520,643.4h-1.7c-0.3,0-0.5,0.2-0.5,0.5l0,1.5c-1-1.1-2.7-2.1-4.7-2.1c-4.9,0-7.1,4.2-7.1,8.1
				c0,3.9,2.2,8.1,7.1,8.1c2,0,3.8-1,4.7-2.1v0.7c0,3.4-1.5,5.1-4.4,5.1c-2.3,0-3.9-0.8-4.7-1.2c-0.1-0.1-0.3-0.1-0.5-0.1
				c-0.1,0.1-0.3,0.2-0.3,0.3l-0.2,1c-0.1,0.1-0.1,0.3,0,0.4c0,0.1,0.1,0.2,0.2,0.3c0.6,0.4,2.7,1.7,5.9,1.7c4.2,0,6.7-2.8,6.7-7.5
				v-14.2C520.5,643.6,520.3,643.4,520,643.4z M517.8,648.2v6.3c-0.9,1.6-2.5,2.5-4.2,2.5c-3.6,0-4.9-3.1-4.9-5.7
				c0-2.6,1.3-5.7,4.9-5.7C515.3,645.7,516.9,646.7,517.8,648.2z"/>
			<path class="st1" d="M241.7,682.7h-4.3c-0.2,0-0.3,0.1-0.3,0.3v12.5c0,0.2,0.1,0.3,0.3,0.3h4.3c3.8,0,6.8-2.9,6.8-6.6
				C248.5,685.6,245.5,682.7,241.7,682.7z M241.8,694.2h-3c0,0,0,0,0,0v-9.9c0,0,0,0,0,0h3c3.1,0,5,2.5,5,5
				C246.8,691.7,244.9,694.2,241.8,694.2z"/>
			<path class="st1" d="M260,686h-1c-0.2,0-0.3,0.1-0.3,0.3v9.2c0,0.2,0.1,0.3,0.3,0.3h1c0.2,0,0.3-0.1,0.3-0.3v-9.2
				C260.3,686.1,260.1,686,260,686z"/>
			<path class="st1" d="M259.5,682.1c-0.6,0-1,0.5-1,1c0,0.6,0.5,1,1,1c0.6,0,1-0.5,1-1C260.5,682.6,260,682.1,259.5,682.1z"/>
			<path class="st1" d="M271.8,686h-1.1c-0.2,0-0.3,0.1-0.3,0.2l-3.2,7.3l-3.2-7.3c0-0.1-0.1-0.2-0.3-0.2h-1.1
				c-0.1,0-0.2,0.1-0.2,0.1c0,0.1-0.1,0.2,0,0.3l4.2,9.2c0.1,0.1,0.2,0.2,0.3,0.2h0.7c0.1,0,0.3-0.1,0.3-0.2l4.2-9.2
				c0-0.1,0-0.2,0-0.3C272,686.1,271.9,686,271.8,686z"/>
			<path class="st1" d="M275.2,686h-1c-0.2,0-0.3,0.1-0.3,0.3v9.2c0,0.2,0.1,0.3,0.3,0.3h1c0.2,0,0.3-0.1,0.3-0.3v-9.2
				C275.5,686.1,275.3,686,275.2,686z"/>
			<path class="st1" d="M274.7,682.1c-0.6,0-1,0.5-1,1c0,0.6,0.5,1,1,1c0.6,0,1-0.5,1-1C275.7,682.6,275.3,682.1,274.7,682.1z"/>
			<path class="st1" d="M282.8,686c-1.4,0-2.7,0.7-3.4,1.5v-1.2c0-0.2-0.1-0.3-0.3-0.3h-1c-0.2,0-0.3,0.1-0.3,0.3v9.2
				c0,0.2,0.1,0.3,0.3,0.3h1c0.2,0,0.3-0.1,0.3-0.3v-6.1c0.4-1.2,1.7-2,3-2c1.8,0,2.6,1.1,2.6,3.3v4.9c0,0.2,0.1,0.3,0.3,0.3h1
				c0.2,0,0.3-0.1,0.3-0.3v-5.1C286.7,686.7,284.6,686,282.8,686z"/>
			<path class="st1" d="M296.5,686h-1c-0.2,0-0.3,0.1-0.3,0.3l0,1c-0.6-0.7-1.7-1.3-2.9-1.3c-2.1,0-4.3,1.5-4.3,4.9
				c0,2.4,1.4,5,4.3,5c1.3,0,2.4-0.6,3-1.3v0.5c0,2.1-0.9,3.1-2.8,3.1c-1.4,0-2.4-0.5-2.9-0.7c-0.1-0.1-0.2-0.1-0.3,0
				c-0.1,0-0.1,0.1-0.2,0.2l-0.2,0.6c0,0.1,0,0.2,0,0.2c0,0.1,0.1,0.1,0.1,0.1c0.3,0.2,1.6,1,3.6,1c2.6,0,4.1-1.7,4.1-4.6v-8.7
				C296.8,686.1,296.7,686,296.5,686z M295.2,689v3.9c-0.5,1-1.5,1.6-2.6,1.6c-2.2,0-3-1.9-3-3.5c0-1.6,0.8-3.5,3-3.5
				C293.6,687.4,294.6,688,295.2,689z M289.1,698.3C289.1,698.3,289.1,698.3,289.1,698.3L289.1,698.3L289.1,698.3z"/>
			<path class="st1" d="M314,689c0.5-0.3,1.4-1.1,1.4-2.8c0-2.2-1.4-3.6-3.8-3.6h-4.5c-0.2,0-0.3,0.1-0.3,0.3v12.5
				c0,0.2,0.1,0.3,0.3,0.3h4.8c2.7,0,4.1-1.2,4.1-3.6C316.1,690.5,315,689.4,314,689z M312,694.2h-3.4c0,0,0,0,0,0V690c0,0,0,0,0,0
				h3.4c1.3,0,2.5,0.8,2.5,2.2C314.5,693.5,313.7,694.2,312,694.2z M311.4,688.3h-2.8c0,0,0,0,0,0v-4c0,0,0,0,0,0h3.1
				c0.5,0,2.2,0.1,2.2,2C313.8,687.6,312.9,688.3,311.4,688.3z"/>
			<path class="st1" d="M326.4,686h-1c-0.2,0-0.3,0.1-0.3,0.3v6.1c-0.5,1.2-1.8,2-3,2c-1.8,0-2.6-1.1-2.6-3.3v-4.9
				c0-0.2-0.1-0.3-0.3-0.3h-1c-0.2,0-0.3,0.1-0.3,0.3v5.1c0,3.7,2.1,4.5,3.9,4.5c1.4,0,2.7-0.7,3.4-1.5v1.2c0,0.2,0.1,0.3,0.3,0.3h1
				c0.2,0,0.3-0.1,0.3-0.3v-9.2C326.7,686.1,326.6,686,326.4,686z"/>
			<path class="st1" d="M332.3,690.1c-2-0.6-2.2-0.9-2.2-1.5c0-0.6,0.6-1.2,1.9-1.2c1.4,0,2.1,0.5,2.1,1.6c0,0,0,0.2,0.1,0.3
				c0.1,0.1,0.1,0.1,0.3,0.1l0.9-0.1c0.2,0,0.3-0.2,0.3-0.3c0-1.8-1.4-2.9-3.7-2.9c-2,0-3.4,1-3.4,2.5c0,1.4,0.9,2.2,3.1,2.8
				c2.1,0.6,2.9,0.9,2.9,1.8c0,0.9-0.7,1.4-2,1.4c-1.7,0-2.7-0.8-2.7-2.1c0-0.2-0.1-0.2-0.1-0.3c-0.1,0-0.1-0.1-0.3,0l-0.9,0.1
				c-0.2,0-0.3,0.1-0.3,0.3c0,2,1.7,3.3,4.3,3.3c2.2,0,3.6-1,3.6-2.7C336.1,691.3,334.4,690.7,332.3,690.1z"/>
			<path class="st1" d="M338.8,682.1c-0.6,0-1,0.5-1,1c0,0.6,0.5,1,1,1c0.6,0,1-0.5,1-1C339.9,682.6,339.4,682.1,338.8,682.1z"/>
			<path class="st1" d="M339.4,686h-1c-0.2,0-0.3,0.1-0.3,0.3v9.2c0,0.2,0.1,0.3,0.3,0.3h1c0.2,0,0.3-0.1,0.3-0.3v-9.2
				C339.6,686.1,339.5,686,339.4,686z"/>
			<path class="st1" d="M347,686c-1.4,0-2.7,0.7-3.4,1.5v-1.2c0-0.2-0.1-0.3-0.3-0.3h-1c-0.2,0-0.3,0.1-0.3,0.3v9.2
				c0,0.2,0.1,0.3,0.3,0.3h1c0.2,0,0.3-0.1,0.3-0.3v-6.1c0.4-1.2,1.7-2,3-2c1.8,0,2.6,1.1,2.6,3.3v4.9c0,0.2,0.1,0.3,0.3,0.3h1
				c0.2,0,0.3-0.1,0.3-0.3v-5.1C350.9,686.7,348.7,686,347,686z"/>
			<path class="st1" d="M356.8,686c-2.7,0-4.7,2.1-4.7,4.9c0,2.9,1.9,5,4.7,5c2,0,3.5-0.9,4.2-2.6c0-0.1,0-0.2,0-0.2
				c0-0.1-0.1-0.1-0.2-0.1l-1-0.1c-0.1,0-0.3,0-0.4,0.2c-0.2,0.4-0.8,1.5-2.7,1.5c-2.3,0-3-2.1-3-2.9h7.2c0.2,0,0.3-0.1,0.3-0.3
				v-0.4C361.3,688.4,359.9,686,356.8,686z M353.9,690.2c0-1.1,0.8-2.9,3-2.9c2.2,0,2.8,1.9,2.8,2.9L353.9,690.2
				C353.9,690.3,353.9,690.3,353.9,690.2z"/>
			<path class="st1" d="M366.5,690.1c-2-0.6-2.2-0.9-2.2-1.5c0-0.6,0.6-1.2,1.9-1.2c1.4,0,2.1,0.5,2.1,1.6c0,0,0,0.2,0.1,0.3
				c0.1,0.1,0.1,0.1,0.3,0.1l0.9-0.1c0.2,0,0.3-0.2,0.3-0.3c0-1.8-1.4-2.9-3.7-2.9c-2,0-3.4,1-3.4,2.5c0,1.4,0.9,2.2,3.1,2.8
				c2.1,0.6,2.9,0.9,2.9,1.8c0,0.9-0.7,1.4-2,1.4c-1.7,0-2.7-0.8-2.7-2.1c0-0.2-0.1-0.2-0.1-0.3c-0.1,0-0.1-0.1-0.3,0l-0.9,0.1
				c-0.2,0-0.3,0.1-0.3,0.3c0,2,1.7,3.3,4.3,3.3c2.2,0,3.6-1,3.6-2.7C370.2,691.3,368.6,690.7,366.5,690.1z"/>
			<path class="st1" d="M375.6,690.1c-2-0.6-2.2-0.9-2.2-1.5c0-0.6,0.6-1.2,1.9-1.2c1.4,0,2.1,0.5,2.1,1.6c0,0,0,0.2,0.1,0.3
				c0.1,0.1,0.1,0.1,0.3,0.1l0.9-0.1c0.2,0,0.3-0.2,0.3-0.3c0-1.8-1.4-2.9-3.7-2.9c-2,0-3.4,1-3.4,2.5c0,1.4,0.9,2.2,3.1,2.8
				c2.1,0.6,2.9,0.9,2.9,1.8c0,0.9-0.7,1.4-2,1.4c-1.7,0-2.7-0.8-2.7-2.1c0-0.2-0.1-0.2-0.1-0.3c-0.1,0-0.1-0.1-0.3,0l-0.9,0.1
				c-0.2,0-0.3,0.1-0.3,0.3c0,2,1.7,3.3,4.3,3.3c2.2,0,3.6-1,3.6-2.7C379.3,691.3,377.6,690.7,375.6,690.1z"/>
			<path class="st1" d="M395.5,684.2c2,0,3.3,1.4,3.6,2.1c0.1,0.2,0.3,0.2,0.4,0.2l1-0.1c0.1,0,0.1,0,0.2-0.1c0.1-0.1,0-0.2,0-0.3
				l0-0.1c-0.6-1.6-2.6-3.3-5.2-3.3c-3.1,0-6.3,2.3-6.3,6.6c0,4.4,3.2,6.7,6.3,6.7c2.6,0,4.7-1.7,5.2-3.3c0-0.1,0-0.2,0-0.3
				c0-0.1-0.1-0.1-0.2-0.1l-1-0.1l0,0.1l0-0.1c-0.1,0-0.3-0.1-0.4,0.2c-0.3,0.7-1.7,2.1-3.6,2.1c-2.7,0-4.6-2.1-4.6-5
				C390.9,686.3,392.8,684.2,395.5,684.2z"/>
			<path class="st1" d="M407.7,686c-1.4,0-2.7,0.8-3.3,1.5v-5.2c0-0.2-0.1-0.3-0.3-0.3h-1c-0.2,0-0.3,0.1-0.3,0.3v13.3
				c0,0.2,0.1,0.3,0.3,0.3h1c0.2,0,0.3-0.1,0.3-0.3v-6.1c0.4-1.1,1.7-2,3-2c1.7,0,2.5,1,2.5,3.3v4.9c0,0.2,0.1,0.3,0.3,0.3h1
				c0.2,0,0.3-0.1,0.3-0.3v-5C411.5,687.6,410.2,686,407.7,686z"/>
			<path class="st1" d="M417.6,686c-1.4,0-2.9,0.6-3.6,1c-0.1,0-0.2,0.1-0.1,0.3l0.2,0.7c0,0.1,0.1,0.2,0.2,0.2c0,0,0.1,0,0.2,0
				c0.5-0.3,1.8-0.8,2.8-0.8c1.1,0,2.1,0.3,2.1,2.1c-4.1,0-6.3,1.3-6.3,3.6c0,1.7,1.2,2.8,3.1,2.8c1.1,0,2.4-0.5,3.1-1.1v0.7
				c0,0.2,0.1,0.3,0.3,0.3h1c0.2,0,0.3-0.1,0.3-0.3v-5.2C421,688.6,421,686,417.6,686z M419.4,690.7v2.7c0,0,0,0,0,0
				c-0.9,0.8-2,1.1-2.7,1.1c-1.1,0-1.9-0.6-1.9-1.5C414.8,690.9,418.3,690.7,419.4,690.7z"/>
			<path class="st1" d="M428,686c-1.4,0-2.7,0.7-3.4,1.5v-1.2c0-0.2-0.1-0.3-0.3-0.3h-1c-0.2,0-0.3,0.1-0.3,0.3v9.2
				c0,0.2,0.1,0.3,0.3,0.3h1c0.2,0,0.3-0.1,0.3-0.3v-6.1c0.4-1.2,1.7-2,3-2c1.8,0,2.6,1.1,2.6,3.3v4.9c0,0.2,0.1,0.3,0.3,0.3h1
				c0.2,0,0.3-0.1,0.3-0.3v-5.1C431.9,686.7,429.8,686,428,686z"/>
			<path class="st1" d="M441.7,686h-1c-0.2,0-0.3,0.1-0.3,0.3l0,1c-0.6-0.7-1.7-1.3-2.9-1.3c-2.1,0-4.3,1.5-4.3,4.9
				c0,2.4,1.4,5,4.3,5c1.3,0,2.4-0.6,3-1.3v0.5c0,2.1-0.9,3.1-2.8,3.1c-1.4,0-2.4-0.5-2.9-0.7c-0.1-0.1-0.2-0.1-0.3,0
				c-0.1,0-0.1,0.1-0.2,0.2l-0.2,0.6c0,0.1,0,0.2,0,0.2c0,0.1,0.1,0.1,0.1,0.1c0.3,0.2,1.6,1,3.6,1c2.6,0,4.1-1.7,4.1-4.6v-8.7
				C442,686.1,441.9,686,441.7,686z M440.4,689v3.9c-0.5,1-1.5,1.6-2.6,1.6c-2.2,0-3-1.9-3-3.5c0-1.6,0.8-3.5,3-3.5
				C438.8,687.4,439.8,688,440.4,689z M434.3,698.3C434.3,698.3,434.3,698.3,434.3,698.3L434.3,698.3L434.3,698.3z"/>
			<path class="st1" d="M448.1,686c-2.7,0-4.7,2.1-4.7,4.9c0,2.9,1.9,5,4.7,5c2,0,3.5-0.9,4.2-2.6c0-0.1,0-0.2,0-0.2
				c0-0.1-0.1-0.1-0.2-0.1l-1-0.1c-0.1,0-0.3,0-0.4,0.2c-0.2,0.4-0.8,1.5-2.7,1.5c-2.3,0-3-2.1-3-2.9h7.2c0.2,0,0.3-0.1,0.3-0.3
				v-0.4C452.6,688.4,451.2,686,448.1,686z M445.1,690.2c0-1.1,0.8-2.9,3-2.9c2.2,0,2.8,1.9,2.8,2.9L445.1,690.2
				C445.1,690.3,445.1,690.3,445.1,690.2z"/>
			<polygon class="st1" points="108,660.3 76.7,675.2 76.7,629.6 124.6,652.4 120.8,654.2 115.7,656.6 115.7,670.2 115.7,670.2 
				115.7,687.5 189.5,652.4 115.7,617.3 115.7,630.9 123.5,634.6 123.5,629.6 171.4,652.4 123.5,675.2 123.5,661.5 142.7,652.4 
				68.9,617.3 69.2,687.3 108,668.9 			"/>
		</g>
	</g>
	<g>
		<rect class="st3" width="1178.6" height="526.5"/>
		<g>
			<g>
				<g>
					<g>
						<g>
							<g>
								<polygon class="st1" points="592.1,131.5 548.9,222.6 505.4,131.5 471.8,131.5 548.9,293 625.5,131.5 								"/>
							</g>
							<g>
								<polygon class="st1" points="758.3,131.5 707,239.7 655.3,131.5 578.7,293 612,293 655.3,201.9 698.8,293 714.9,293 
									758.1,201.9 801.7,293 835.4,293 								"/>
							</g>
							<polygon class="st1" points="515.3,293 501,263 386.8,263 402.3,230.4 485.4,230.4 471,200.3 416.6,200.3 432.6,166.6 
								454.9,166.6 438.2,131.5 419.8,131.5 343.1,293.1 							"/>
						</g>
					</g>
				</g>
			</g>
			<g>
				<g>
					<path class="st1" d="M398.1,369.8v-0.6c0-14.7,10.4-25.3,23.7-25.3c9.4,0,17.9,4.4,19.9,14.2h-2.5c-2-8.4-8.8-12.1-17.3-12.1
						c-12.3,0-21.1,9.6-21.1,23.1v0.6c0,13.9,7.8,23.1,21.3,23.1c12.2,0,18.8-7.3,18.9-19.5v-0.5h-15.9v-2.2h18.3v2.3
						c0,14.3-8.5,22-21.3,22C407.1,395,398.1,384.5,398.1,369.8z"/>
					<path class="st1" d="M492.1,344.5h12.8c9.8,0,16.7,3.6,16.7,13.1v0.3c0,8.3-5.4,12.2-13.3,13l16.2,23.7h-2.9l-16.1-23.4h-11.1
						v23.4h-2.4V344.5z M505,369c8.7,0,14.1-3.1,14.1-11.1v-0.3c0-8.2-5.7-11-14.1-11h-10.4V369H505z"/>
					<path class="st1" d="M570.7,376.8v-32.3h2.5v32.1c0,10.8,5.5,16.1,15.4,16.1c10.6,0,15.5-5.5,15.5-17v-31.2h2.5v31.6
						c0,11.8-5.7,18.8-18,18.8C577.6,394.9,570.7,388.7,570.7,376.8z"/>
					<path class="st1" d="M657.4,344.5H670c9.8,0,16.7,3.7,16.7,13.6v0.3c0,10.1-6.8,14.1-16.6,14.1h-10.3v22h-2.4V344.5z
						 M670.2,370.4c8.7,0,14-3.4,14-12v-0.3c0-8.7-5.7-11.5-14.1-11.5h-10.2v23.8H670.2z"/>
					<path class="st1" d="M731.9,369.8v-0.6c0-14.2,10.6-25.3,24.3-25.3c13.8,0,24.2,11,24.2,25v0.6c0,14.1-10.4,25.4-24.1,25.4
						C742.4,395,731.9,383.8,731.9,369.8z M777.8,369.6v-0.6c0-12.8-9-23-21.6-23c-12.7,0-21.7,10-21.7,23.2v0.6
						c0,13,9.4,23,21.8,23C768.8,392.9,777.8,382.9,777.8,369.6z"/>
				</g>
			</g>
		</g>
	</g>
</g>
</svg>
