<svg version="1.1" id="Layer_1" xmlns="http://www.w3.org/2000/svg" xmlns:xlink="http://www.w3.org/1999/xlink" x="0px" y="0px"
	 width="100%" viewBox="0 0 367 197" enable-background="new 0 0 367 197" xml:space="preserve">
<path fill="#FFFFFF" opacity="1.000000" stroke="none" 
	d="
M368.000000,122.000000 
	C368.000000,147.246445 368.000000,172.492874 368.000000,198.000000 
	C350.979980,198.000000 333.958649,198.000000 316.477783,197.634399 
	C323.519073,192.473206 327.663300,186.139694 327.139130,176.716217 
	C326.729309,169.347672 323.525635,164.152893 317.346558,160.912247 
	C309.742920,156.924500 302.145203,158.330231 295.997009,163.777725 
	C290.898651,168.295074 289.248383,174.826630 290.335754,181.641769 
	C291.692719,190.146744 297.210388,195.146408 305.000000,198.000000 
	C266.312439,198.000000 227.624878,198.000000 188.600922,197.660919 
	C194.437851,195.511780 197.810120,192.039703 197.944183,186.556198 
	C198.147385,178.245300 198.049118,169.924957 197.924988,161.610931 
	C197.910690,160.654221 196.914139,159.712204 196.081406,158.252090 
	C195.392487,159.512131 195.099442,159.798981 195.097656,160.087646 
	C195.047028,168.236115 195.102798,176.386063 194.967285,184.532867 
	C194.899551,188.605392 193.903946,192.321060 189.507843,193.998398 
	C180.584564,197.403091 173.251312,192.554077 173.036285,182.889893 
	C172.860260,174.978287 173.000443,167.059677 173.000443,159.144165 
	C172.446075,159.023132 171.891708,158.902084 171.337341,158.781052 
	C170.891846,159.938919 170.093735,161.087143 170.061707,162.256332 
	C169.920547,167.408325 170.049088,172.566925 169.988647,177.722076 
	C169.896439,185.587387 170.818909,193.021774 178.000000,198.000000 
	C141.645767,198.000000 105.291542,198.000000 68.478188,197.630798 
	C74.428238,193.015045 77.536018,187.193939 76.827126,179.487640 
	C71.746880,179.487640 66.972969,179.487640 62.199047,179.487640 
	C62.175953,179.894867 62.152855,180.302094 62.129761,180.709320 
	C66.044487,180.886108 69.959213,181.062912 73.853722,181.238785 
	C73.230629,191.924591 65.631638,197.174973 55.948982,194.534988 
	C45.012653,191.553177 42.507576,177.504761 47.495705,169.116043 
	C53.552273,158.930450 65.149475,159.034302 72.136902,168.966553 
	C72.687012,169.748489 74.219910,169.839035 75.296059,170.250916 
	C75.593628,169.908829 75.891197,169.566757 76.188766,169.224686 
	C74.487335,166.822586 73.243019,163.802628 70.994926,162.139450 
	C65.278709,157.910538 58.493893,157.553391 52.303173,160.461273 
	C45.423897,163.692535 42.249760,169.983536 42.003784,177.612152 
	C41.674385,187.828140 46.502270,194.521408 56.000000,198.000000 
	C37.728104,198.000000 19.456207,198.000000 1.000000,198.000000 
	C1.000000,172.979401 1.000000,147.958359 1.468657,122.468658 
	C44.537304,122.000000 87.137291,122.000000 130.807816,122.000000 
	C127.536354,115.260094 124.511246,109.358879 121.803879,103.315315 
	C120.372009,100.118988 118.602036,98.835930 114.820099,98.880013 
	C93.498848,99.128548 72.173203,99.000000 50.849060,99.000000 
	C45.770412,99.000000 40.691761,99.000000 35.199059,99.000000 
	C38.616928,91.712296 41.931934,84.996147 44.900795,78.130318 
	C46.000183,75.587860 47.408165,74.914886 50.069717,74.934082 
	C67.727852,75.061462 85.387360,75.006020 103.046402,74.989693 
	C104.621315,74.988243 106.196098,74.841820 108.335815,74.734360 
	C105.090645,68.242149 101.593033,62.471939 99.333389,56.251991 
	C98.032806,52.671967 96.488792,51.881519 93.087364,51.932938 
	C81.494057,52.108189 69.896469,52.000004 57.476448,52.000004 
	C61.198242,44.262459 64.449181,37.186146 68.061401,30.299330 
	C68.680656,29.118689 70.802055,28.210634 72.296280,28.102972 
	C76.416237,27.806116 80.571579,28.000343 85.768326,28.000343 
	C81.293526,18.537779 77.146759,9.768890 73.000000,1.000001 
	C80.687576,1.000000 88.375153,1.000000 96.538818,1.372961 
	C116.134979,41.948730 135.255051,82.151543 154.848312,123.349289 
	C155.878540,120.789536 156.246857,119.718117 156.728592,118.700386 
	C169.564224,91.583031 182.450729,64.489685 195.238907,37.350002 
	C200.926041,25.280502 206.418945,13.119482 212.000000,1.000001 
	C218.687637,1.000000 225.375290,1.000000 232.524109,1.371675 
	C214.025452,41.679115 195.065613,81.614876 175.892426,121.999992 
	C183.658401,121.999992 190.492599,121.784470 197.303955,122.085716 
	C201.029358,122.250481 202.727371,120.867508 204.282303,117.528511 
	C213.832092,97.021568 223.663406,76.645714 233.782974,55.425243 
	C244.585449,78.006821 255.100952,99.988510 265.535431,121.800835 
	C270.128174,121.800835 274.415039,121.800835 278.763641,121.800835 
	C289.055969,100.073601 299.283569,78.483009 309.996735,55.867401 
	C311.371399,58.298695 312.305054,59.737457 313.034851,61.273071 
	C322.058411,80.260330 331.099121,99.239784 340.001892,118.283669 
	C341.298279,121.056732 342.891479,122.176651 346.023193,122.075485 
	C353.341980,121.839050 360.673584,121.999985 368.000000,122.000000 
M132.489227,189.968033 
	C130.420563,186.733795 128.351883,183.499542 126.049950,179.900604 
	C127.410812,179.478088 128.480606,179.229340 129.484741,178.819672 
	C133.701706,177.099319 135.220001,173.891937 135.058960,169.418976 
	C134.900742,165.024612 132.960648,161.274826 129.091675,160.314804 
	C123.675453,158.970871 117.886017,159.131042 112.001381,158.625854 
	C112.001381,171.212128 111.961250,182.681747 112.076805,194.149780 
	C112.086151,195.077637 113.163239,195.994705 113.744179,196.916794 
	C114.162323,195.996826 114.916656,195.085938 114.941803,194.155350 
	C115.066444,189.542938 114.998604,184.925323 114.998604,180.492706 
	C119.934082,179.047440 122.905701,180.523895 125.210159,184.581329 
	C127.479530,188.576981 130.328766,192.260086 133.126083,195.925797 
	C133.730118,196.717361 135.199417,196.848648 137.593521,197.822235 
	C135.535645,194.541748 134.268082,192.521149 132.489227,189.968033 
M235.000000,176.501083 
	C235.000000,183.275375 235.000000,190.049667 235.000000,196.823959 
	C235.650269,196.912506 236.300537,197.001038 236.950821,197.089584 
	C239.644318,192.199921 236.667358,186.153488 238.596802,180.996414 
	C241.761124,180.996414 244.762787,181.157730 247.740936,180.961609 
	C253.306290,180.595108 257.604034,176.449814 257.956329,170.982346 
	C258.327179,165.226654 255.413818,160.838699 250.311523,160.055588 
	C245.375885,159.298080 240.353714,159.104279 235.000000,158.630142 
	C235.000000,164.910034 235.000000,170.205917 235.000000,176.501083 
z"/>
<path fill="#00AEFF" opacity="1.000000" stroke="none" 
	d="
M368.000000,121.666672 
	C360.673584,121.999985 353.341980,121.839050 346.023193,122.075485 
	C342.891479,122.176651 341.298279,121.056732 340.001892,118.283669 
	C331.099121,99.239784 322.058411,80.260330 313.034851,61.273071 
	C312.305054,59.737457 311.371399,58.298695 309.996735,55.867401 
	C299.283569,78.483009 289.055969,100.073601 278.763641,121.800835 
	C274.415039,121.800835 270.128174,121.800835 265.535431,121.800835 
	C255.100952,99.988510 244.585449,78.006821 233.782974,55.425243 
	C223.663406,76.645714 213.832092,97.021568 204.282303,117.528511 
	C202.727371,120.867508 201.029358,122.250481 197.303955,122.085716 
	C190.492599,121.784470 183.658401,121.999992 175.892426,121.999992 
	C195.065613,81.614876 214.025452,41.679115 232.992645,1.371675 
	C233.444443,1.000000 233.888901,1.000000 234.667480,1.384679 
	C235.194489,2.552440 235.258408,3.397132 235.598892,4.109669 
	C246.627991,27.189842 257.677216,50.260406 268.746033,73.321564 
	C269.805939,75.529793 271.012573,77.667587 272.271362,80.067291 
	C285.040741,53.306721 297.520386,27.153364 310.000000,1.000004 
	C310.000000,1.000000 310.500000,1.000000 310.856934,1.348144 
	C315.797607,11.400584 320.327515,21.130741 324.976257,30.803780 
	C334.508087,50.637589 344.106812,70.439232 353.671661,90.257179 
	C358.454987,100.167976 363.224335,110.085503 368.000000,120.000000 
	C368.000000,120.444443 368.000000,120.888893 368.000000,121.666672 
z"/>
<path fill="#00AEFF" opacity="1.000000" stroke="none" 
	d="
M72.533882,1.000001 
	C77.146759,9.768890 81.293526,18.537779 85.768326,28.000343 
	C80.571579,28.000343 76.416237,27.806116 72.296280,28.102972 
	C70.802055,28.210634 68.680656,29.118689 68.061401,30.299330 
	C64.449181,37.186146 61.198242,44.262459 57.476448,52.000004 
	C69.896469,52.000004 81.494057,52.108189 93.087364,51.932938 
	C96.488792,51.881519 98.032806,52.671967 99.333389,56.251991 
	C101.593033,62.471939 105.090645,68.242149 108.335815,74.734360 
	C106.196098,74.841820 104.621315,74.988243 103.046402,74.989693 
	C85.387360,75.006020 67.727852,75.061462 50.069717,74.934082 
	C47.408165,74.914886 46.000183,75.587860 44.900795,78.130318 
	C41.931934,84.996147 38.616928,91.712296 35.199059,99.000000 
	C40.691761,99.000000 45.770412,99.000000 50.849060,99.000000 
	C72.173203,99.000000 93.498848,99.128548 114.820099,98.880013 
	C118.602036,98.835930 120.372009,100.118988 121.803879,103.315315 
	C124.511246,109.358879 127.536354,115.260094 130.807816,122.000000 
	C87.137291,122.000000 44.537304,122.000000 1.468657,122.000000 
	C1.000000,120.933327 1.000000,119.866661 1.376062,118.391884 
	C2.476931,117.393959 3.521118,116.954666 3.880352,116.192535 
	C16.496347,89.426758 29.043312,62.628445 41.610836,35.839798 
	C47.061722,24.220825 52.536224,12.612929 58.000000,1.000000 
	C62.689255,1.000000 67.378510,1.000000 72.533882,1.000001 
z"/>
<path fill="#00AEFF" opacity="1.000000" stroke="none" 
	d="
M211.531342,1.000001 
	C206.418945,13.119482 200.926041,25.280502 195.238907,37.350002 
	C182.450729,64.489685 169.564224,91.583031 156.728592,118.700386 
	C156.246857,119.718117 155.878540,120.789536 154.848312,123.349289 
	C135.255051,82.151543 116.134979,41.948730 97.007454,1.372961 
	C105.354233,1.000000 113.708466,1.000000 122.634445,1.343637 
	C133.585815,23.372591 143.965439,45.057907 154.587128,67.248970 
	C155.334503,66.039955 155.724823,65.521835 155.999130,64.948219 
	C163.434341,49.401051 170.896271,33.866459 178.262756,18.286739 
	C180.960724,12.580708 183.427673,6.765438 186.000000,1.000000 
	C194.354233,1.000000 202.708466,1.000000 211.531342,1.000001 
z"/>
<path fill="#FFFFFF" opacity="1.000000" stroke="none" 
	d="
M57.531342,1.000000 
	C52.536224,12.612929 47.061722,24.220825 41.610836,35.839798 
	C29.043312,62.628445 16.496347,89.426758 3.880352,116.192535 
	C3.521118,116.954666 2.476931,117.393959 1.376062,117.991890 
	C1.000000,79.098289 1.000000,40.196575 1.000000,1.000000 
	C19.686527,1.000000 38.374607,1.000000 57.531342,1.000000 
z"/>
<path fill="#FFFFFF" opacity="1.000000" stroke="none" 
	d="
M368.000000,119.531342 
	C363.224335,110.085503 358.454987,100.167976 353.671661,90.257179 
	C344.106812,70.439232 334.508087,50.637589 324.976257,30.803780 
	C320.327515,21.130741 315.797607,11.400584 311.106934,1.348144 
	C329.952667,1.000000 348.905304,1.000000 368.000000,1.000000 
	C368.000000,40.354122 368.000000,79.708405 368.000000,119.531342 
z"/>
<path fill="#FFFFFF" opacity="1.000000" stroke="none" 
	d="
M309.531372,1.000004 
	C297.520386,27.153364 285.040741,53.306721 272.271362,80.067291 
	C271.012573,77.667587 269.805939,75.529793 268.746033,73.321564 
	C257.677216,50.260406 246.627991,27.189842 235.598892,4.109669 
	C235.258408,3.397132 235.194489,2.552440 235.000824,1.384679 
	C259.687561,1.000000 284.375122,1.000000 309.531372,1.000004 
z"/>
<path fill="#FFFFFF" opacity="1.000000" stroke="none" 
	d="
M185.531342,1.000000 
	C183.427673,6.765438 180.960724,12.580708 178.262756,18.286739 
	C170.896271,33.866459 163.434341,49.401051 155.999130,64.948219 
	C155.724823,65.521835 155.334503,66.039955 154.587128,67.248970 
	C143.965439,45.057907 133.585815,23.372591 123.103088,1.343637 
	C143.687561,1.000000 164.375122,1.000000 185.531342,1.000000 
z"/>
<path fill="#00AEFF" opacity="1.000000" stroke="none" 
	d="
M305.458069,198.000000 
	C297.210388,195.146408 291.692719,190.146744 290.335754,181.641769 
	C289.248383,174.826630 290.898651,168.295074 295.997009,163.777725 
	C302.145203,158.330231 309.742920,156.924500 317.346558,160.912247 
	C323.525635,164.152893 326.729309,169.347672 327.139130,176.716217 
	C327.663300,186.139694 323.519073,192.473206 316.009125,197.634399 
	C312.638702,198.000000 309.277435,198.000000 305.458069,198.000000 
M321.960144,187.218689 
	C322.636047,183.075943 324.372223,178.773224 323.776123,174.822388 
	C322.356659,165.414780 315.077026,161.078796 306.475922,161.891907 
	C296.575348,162.827881 288.873260,177.148560 295.732117,187.471497 
	C298.967804,192.341431 303.032318,194.820343 308.613159,194.961411 
	C314.207367,195.102798 318.755432,193.003922 321.960144,187.218689 
z"/>
<path fill="#00AEFF" opacity="1.000000" stroke="none" 
	d="
M56.460636,198.000000 
	C46.502270,194.521408 41.674385,187.828140 42.003784,177.612152 
	C42.249760,169.983536 45.423897,163.692535 52.303173,160.461273 
	C58.493893,157.553391 65.278709,157.910538 70.994926,162.139450 
	C73.243019,163.802628 74.487335,166.822586 76.188766,169.224686 
	C75.891197,169.566757 75.593628,169.908829 75.296059,170.250916 
	C74.219910,169.839035 72.687012,169.748489 72.136902,168.966553 
	C65.149475,159.034302 53.552273,158.930450 47.495705,169.116043 
	C42.507576,177.504761 45.012653,191.553177 55.948982,194.534988 
	C65.631638,197.174973 73.230629,191.924591 73.853722,181.238785 
	C69.959213,181.062912 66.044487,180.886108 62.129761,180.709320 
	C62.152855,180.302094 62.175953,179.894867 62.199047,179.487640 
	C66.972969,179.487640 71.746880,179.487640 76.827126,179.487640 
	C77.536018,187.193939 74.428238,193.015045 68.009529,197.630798 
	C64.307091,198.000000 60.614182,198.000000 56.460636,198.000000 
z"/>
<path fill="#00AEFF" opacity="1.000000" stroke="none" 
	d="
M178.454102,198.000000 
	C170.818909,193.021774 169.896439,185.587387 169.988647,177.722076 
	C170.049088,172.566925 169.920547,167.408325 170.061707,162.256332 
	C170.093735,161.087143 170.891846,159.938919 171.337341,158.781052 
	C171.891708,158.902084 172.446075,159.023132 173.000443,159.144165 
	C173.000443,167.059677 172.860260,174.978287 173.036285,182.889893 
	C173.251312,192.554077 180.584564,197.403091 189.507843,193.998398 
	C193.903946,192.321060 194.899551,188.605392 194.967285,184.532867 
	C195.102798,176.386063 195.047028,168.236115 195.097656,160.087646 
	C195.099442,159.798981 195.392487,159.512131 196.081406,158.252090 
	C196.914139,159.712204 197.910690,160.654221 197.924988,161.610931 
	C198.049118,169.924957 198.147385,178.245300 197.944183,186.556198 
	C197.810120,192.039703 194.437851,195.511780 188.132263,197.660919 
	C184.969406,198.000000 181.938812,198.000000 178.454102,198.000000 
z"/>
<path fill="#00AEFF" opacity="1.000000" stroke="none" 
	d="
M132.744873,190.234283 
	C134.268082,192.521149 135.535645,194.541748 137.593521,197.822235 
	C135.199417,196.848648 133.730118,196.717361 133.126083,195.925797 
	C130.328766,192.260086 127.479530,188.576981 125.210159,184.581329 
	C122.905701,180.523895 119.934082,179.047440 114.998604,180.492706 
	C114.998604,184.925323 115.066444,189.542938 114.941803,194.155350 
	C114.916656,195.085938 114.162323,195.996826 113.744171,196.916794 
	C113.163239,195.994705 112.086151,195.077637 112.076805,194.149780 
	C111.961250,182.681747 112.001381,171.212128 112.001381,158.625854 
	C117.886017,159.131042 123.675453,158.970871 129.091675,160.314804 
	C132.960648,161.274826 134.900742,165.024612 135.058960,169.418976 
	C135.220001,173.891937 133.701706,177.099319 129.484741,178.819672 
	C128.480606,179.229340 127.410812,179.478088 126.049950,179.900604 
	C128.351883,183.499542 130.420563,186.733795 132.744873,190.234283 
M115.002258,164.717072 
	C115.002258,168.664261 115.002258,172.611450 115.002258,177.437149 
	C119.846741,176.922653 124.583786,177.430847 128.355835,175.760208 
	C132.958130,173.721848 133.255203,168.115372 130.009903,164.524597 
	C127.067474,161.268906 118.035568,160.813324 115.002258,164.717072 
z"/>
<path fill="#00AEFF" opacity="1.000000" stroke="none" 
	d="
M235.000000,176.001434 
	C235.000000,170.205917 235.000000,164.910034 235.000000,158.630142 
	C240.353714,159.104279 245.375885,159.298080 250.311523,160.055588 
	C255.413818,160.838699 258.327179,165.226654 257.956329,170.982346 
	C257.604034,176.449814 253.306290,180.595108 247.740936,180.961609 
	C244.762787,181.157730 241.761124,180.996414 238.596802,180.996414 
	C236.667358,186.153488 239.644318,192.199921 236.950821,197.089584 
	C236.300537,197.001038 235.650269,196.912506 235.000000,196.823959 
	C235.000000,190.049667 235.000000,183.275375 235.000000,176.001434 
M238.000000,173.388153 
	C238.000000,175.160522 238.000000,176.932877 238.000000,179.260056 
	C243.838379,178.447357 249.950043,179.641785 253.345078,174.690598 
	C254.861069,172.479736 254.860229,167.404999 253.300873,165.274628 
	C249.631683,160.261795 243.632233,162.160355 238.000000,162.216766 
	C238.000000,165.854752 238.000000,169.140747 238.000000,173.388153 
z"/>
<path fill="#FFFFFF" opacity="1.000000" stroke="none" 
	d="
M321.773743,187.563416 
	C318.755432,193.003922 314.207367,195.102798 308.613159,194.961411 
	C303.032318,194.820343 298.967804,192.341431 295.732117,187.471497 
	C288.873260,177.148560 296.575348,162.827881 306.475922,161.891907 
	C315.077026,161.078796 322.356659,165.414780 323.776123,174.822388 
	C324.372223,178.773224 322.636047,183.075943 321.773743,187.563416 
z"/>
<path fill="#FFFFFF" opacity="1.000000" stroke="none" 
	d="
M115.009888,164.242706 
	C118.035568,160.813324 127.067474,161.268906 130.009903,164.524597 
	C133.255203,168.115372 132.958130,173.721848 128.355835,175.760208 
	C124.583786,177.430847 119.846741,176.922653 115.002258,177.437149 
	C115.002258,172.611450 115.002258,168.664261 115.009888,164.242706 
z"/>
<path fill="#FFFFFF" opacity="1.000000" stroke="none" 
	d="
M238.000000,172.907455 
	C238.000000,169.140747 238.000000,165.854752 238.000000,162.216766 
	C243.632233,162.160355 249.631683,160.261795 253.300873,165.274628 
	C254.860229,167.404999 254.861069,172.479736 253.345078,174.690598 
	C249.950043,179.641785 243.838379,178.447357 238.000000,179.260056 
	C238.000000,176.932877 238.000000,175.160522 238.000000,172.907455 
z"/>
</svg>