<svg xmlns="http://www.w3.org/2000/svg" viewBox="0 0 226.56 105.38"><defs><style>.cls-1{fill:none;}.cls-2{fill:#c8ab4b;}.cls-3{fill:#e9b73c;}.cls-4{fill:#72a943;}.cls-5{fill:#446d38;}.cls-6{fill:#354479;}.cls-7{fill:#31345d;}.cls-8{fill:#6b8354;}</style></defs><g id="Capa_2" data-name="Capa 2"><g id="Capa_1-2" data-name="Capa 1"><rect class="cls-1" width="226.56" height="105.38"/><path class="cls-1" d="M139.86,83.59a1.82,1.82,0,0,0-.53-.43,1.63,1.63,0,0,0-1.43,0,1.77,1.77,0,0,0-.54.44,1.92,1.92,0,0,0-.32.62,2.19,2.19,0,0,0-.11.71,2.23,2.23,0,0,0,.11.73,2.1,2.1,0,0,0,.33.63,1.52,1.52,0,0,0,.54.43,1.49,1.49,0,0,0,.71.16,1.54,1.54,0,0,0,.73-.16,1.65,1.65,0,0,0,.53-.45,1.88,1.88,0,0,0,.32-.63,2.19,2.19,0,0,0,.11-.71,2.46,2.46,0,0,0-.11-.72A2.13,2.13,0,0,0,139.86,83.59Z"/><path class="cls-1" d="M61.4,73.32a1.69,1.69,0,0,0-.83-.22,1.65,1.65,0,0,0-.82.22,1.84,1.84,0,0,0-.6.61,1.93,1.93,0,0,0-.26.88h3.37a1.93,1.93,0,0,0-.26-.88A1.67,1.67,0,0,0,61.4,73.32Z"/><path class="cls-1" d="M138.93,73.93a1.75,1.75,0,0,0-.6-.61,1.69,1.69,0,0,0-.83-.22,1.65,1.65,0,0,0-.82.22,1.84,1.84,0,0,0-.6.61,1.93,1.93,0,0,0-.26.88h3.37A1.93,1.93,0,0,0,138.93,73.93Z"/><path class="cls-1" d="M69.14,74.9a1.91,1.91,0,0,0-1,.25.8.8,0,0,0-.4.69.93.93,0,0,0,.14.49,1.06,1.06,0,0,0,.39.37,1.21,1.21,0,0,0,.58.14,2.15,2.15,0,0,0,.85-.17,1.37,1.37,0,0,0,.58-.46,1,1,0,0,0,.13-.2.45.45,0,0,0,0-.18v-.7a2.58,2.58,0,0,0-.62-.17A3.49,3.49,0,0,0,69.14,74.9Z"/><path class="cls-1" d="M55.45,73.29a1.48,1.48,0,0,0-1.3,0,1.61,1.61,0,0,0-.52.42,2,2,0,0,0-.33.59,2.25,2.25,0,0,0-.11.68,1.8,1.8,0,0,0,.13.69,2.08,2.08,0,0,0,.36.59,1.81,1.81,0,0,0,.55.4,1.59,1.59,0,0,0,.66.14,1.35,1.35,0,0,0,.47-.09,1.83,1.83,0,0,0,.48-.25,1.49,1.49,0,0,0,.38-.37.83.83,0,0,0,.17-.43v-1.4a1.64,1.64,0,0,0-.37-.57A2,2,0,0,0,55.45,73.29Z"/><polygon class="cls-1" points="132.64 50.9 141.08 50.9 136.88 40.07 132.64 50.9"/><path class="cls-1" d="M50.23,73.32a1.64,1.64,0,0,0-1.64,0,1.67,1.67,0,0,0-.6.61,1.93,1.93,0,0,0-.26.88H51.1a1.93,1.93,0,0,0-.26-.88A1.78,1.78,0,0,0,50.23,73.32Z"/><path class="cls-1" d="M127.43,85.91l-.05.14a2,2,0,0,1,.14-.29v0A.68.68,0,0,0,127.43,85.91Z"/><path class="cls-1" d="M102,74.9a1.87,1.87,0,0,0-1,.25.78.78,0,0,0-.4.69.85.85,0,0,0,.14.49.93.93,0,0,0,.39.37,1.17,1.17,0,0,0,.57.14,2.15,2.15,0,0,0,.85-.17,1.4,1.4,0,0,0,.59-.46,1.51,1.51,0,0,0,.12-.2.45.45,0,0,0,0-.18v-.7a2.51,2.51,0,0,0-.61-.17A3.52,3.52,0,0,0,102,74.9Z"/><polygon class="cls-1" points="122.95 85.61 124.56 85.61 123.75 83.2 122.95 85.61"/><path class="cls-1" d="M83.47,74.05a1.74,1.74,0,0,0-.6-.66,1.46,1.46,0,0,0-.84-.25,1.5,1.5,0,0,0-.84.25,2,2,0,0,0-.61,2.51,1.81,1.81,0,0,0,.61.65,1.52,1.52,0,0,0,1.67,0,1.79,1.79,0,0,0,.61-.67,1.94,1.94,0,0,0,0-1.83Z"/><path class="cls-1" d="M130.8,84a1.14,1.14,0,0,0-.11-.49.94.94,0,0,0-.29-.33A.64.64,0,0,0,130,83h-1.37v1.38a4.36,4.36,0,0,1,1.84.31.86.86,0,0,0,.21-.28A1,1,0,0,0,130.8,84Z"/><path class="cls-1" d="M113.32,83.15a.64.64,0,0,0-.38-.12h-1.37v1.88H113a.57.57,0,0,0,.38-.13.76.76,0,0,0,.26-.34,1,1,0,0,0,.1-.47,1.14,1.14,0,0,0-.11-.49A1,1,0,0,0,113.32,83.15Z"/><path class="cls-1" d="M132.38,73.29a1.48,1.48,0,0,0-1.3,0,1.61,1.61,0,0,0-.52.42,2,2,0,0,0-.33.59,2.25,2.25,0,0,0-.11.68,1.8,1.8,0,0,0,.13.69,2.08,2.08,0,0,0,.36.59,1.9,1.9,0,0,0,.54.4,1.67,1.67,0,0,0,.67.14,1.35,1.35,0,0,0,.47-.09,1.83,1.83,0,0,0,.48-.25,1.49,1.49,0,0,0,.38-.37.83.83,0,0,0,.17-.43v-1.4a1.64,1.64,0,0,0-.37-.57A2,2,0,0,0,132.38,73.29Z"/><polygon class="cls-1" points="85.16 85.61 86.77 85.61 85.97 83.2 85.16 85.61"/><path class="cls-1" d="M131.68,85.15l-.05,0Z"/><path class="cls-1" d="M175.94,73.69a1.65,1.65,0,0,0-.54-.4,1.5,1.5,0,0,0-.67-.15,1.44,1.44,0,0,0-.47.09,1.94,1.94,0,0,0-.47.25,1.67,1.67,0,0,0-.38.37,1.23,1.23,0,0,0-.18.43v1.39a2.46,2.46,0,0,0,.38.57,1.84,1.84,0,0,0,.55.41,1.47,1.47,0,0,0,.65.15,1.35,1.35,0,0,0,.67-.16,1.72,1.72,0,0,0,.52-.41,1.88,1.88,0,0,0,.32-.59,1.93,1.93,0,0,0,.12-.67,2.07,2.07,0,0,0-.13-.7A1.85,1.85,0,0,0,175.94,73.69Z"/><path class="cls-1" d="M112.46,74.9a1.91,1.91,0,0,0-1,.25.79.79,0,0,0-.39.69.92.92,0,0,0,.13.49,1.06,1.06,0,0,0,.39.37,1.21,1.21,0,0,0,.58.14,2.15,2.15,0,0,0,.85-.17,1.47,1.47,0,0,0,.59-.46,1.51,1.51,0,0,0,.12-.2.45.45,0,0,0,0-.18v-.7a2.64,2.64,0,0,0-.61-.17A3.68,3.68,0,0,0,112.46,74.9Z"/><path class="cls-1" d="M91,29.86c0-.23,0-.46,0-.7C91,29.4,91,29.63,91,29.86Z"/><path class="cls-1" d="M183.5,73.39a1.52,1.52,0,0,0-1.67,0,1.79,1.79,0,0,0-.61.67,2,2,0,0,0,0,1.84,1.79,1.79,0,0,0,.6.65,1.54,1.54,0,0,0,1.68,0,2,2,0,0,0,.61-2.5A1.77,1.77,0,0,0,183.5,73.39Z"/><path class="cls-1" d="M123.37,74.9a1.91,1.91,0,0,0-1,.25.8.8,0,0,0-.4.69.93.93,0,0,0,.14.49,1.06,1.06,0,0,0,.39.37,1.21,1.21,0,0,0,.58.14,2.15,2.15,0,0,0,.85-.17,1.47,1.47,0,0,0,.59-.46,1.51,1.51,0,0,0,.12-.2.45.45,0,0,0,0-.18v-.7A2.58,2.58,0,0,0,124,75,3.49,3.49,0,0,0,123.37,74.9Z"/><polygon class="cls-1" points="114.91 19.84 114.91 19.84 114.91 19.84 114.91 19.84 114.91 19.84"/><path class="cls-1" d="M97.28,22.23h0Z"/><path class="cls-1" d="M124.43,16.58c-.12.13-.26.25-.39.37C124.17,16.83,124.31,16.71,124.43,16.58Z"/><path class="cls-1" d="M123.23,17.67l.06-.05Z"/><path class="cls-2" d="M124.43,16.58c-.12.13-.26.25-.39.37a7.82,7.82,0,0,1-.75.67l-.06.05A9.93,9.93,0,0,1,121.07,19a12.65,12.65,0,0,1-6.16.89h0a60.48,60.48,0,0,1-6.7-.87,33.16,33.16,0,0,0-6.63-.65c4.6.82,8.74,3.65,12.78,5.68a9.1,9.1,0,0,0,8.16-3.34,16.48,16.48,0,0,0,2.82-5.21l-.14.18C125,16,124.7,16.29,124.43,16.58Z"/><path class="cls-3" d="M101.43,18.29l.15,0a33.16,33.16,0,0,1,6.63.65,60.48,60.48,0,0,0,6.7.87h0a12.65,12.65,0,0,0,6.16-.89,9.93,9.93,0,0,0,2.16-1.28l.06-.05A7.82,7.82,0,0,0,124,17c.13-.12.27-.24.39-.37.27-.29.52-.62.77-.95l.14-.18a2.5,2.5,0,0,0,.26-.77c-7,4.68-19.68-4.77-29.41.22-3.3,1.39-5.49,5.73-6.13,10.79C90.75,20.72,94.93,17.17,101.43,18.29Z"/><path class="cls-3" d="M90,26.52h0v-.22A1.79,1.79,0,0,1,90,26.52Z"/><path class="cls-4" d="M90.75,31.52c.13.39.27.79.44,1.2a5,5,0,0,1,0-1.67h0l0,.17A12.51,12.51,0,0,1,91,29.86c0-.23,0-.46,0-.7a8.75,8.75,0,0,1,.38-2.5,6.47,6.47,0,0,1,5.89-4.43h.17a5.62,5.62,0,0,1,.58,0c3.85.11,7.31,2.12,10.78,3.58,4.47,2.07,9.74,3.28,14.21.73h0l.45-.53c-3.06.59-6-.47-9.06-2-4-2-8.18-4.86-12.78-5.68l-.15,0c-6.5-1.12-10.68,2.43-11.37,7.4,0,.2,0,.4-.07.6v.22A12.31,12.31,0,0,0,90.75,31.52Z"/><path class="cls-5" d="M108.76,25.79c-3.47-1.46-6.93-3.47-10.78-3.58a5.62,5.62,0,0,0-.58,0h-.17a6.47,6.47,0,0,0-5.89,4.43,8.75,8.75,0,0,0-.38,2.5c0,.24,0,.47,0,.7a12.51,12.51,0,0,0,.13,1.36l0-.17h0c.49-3.54,4.53-5.38,7.79-4.71s5.95,2.19,8.9,3.34c5.91,2.54,10.87,1.87,15.14-3.16h0C118.5,29.07,113.23,27.86,108.76,25.79Z"/><path class="cls-6" d="M106.3,31A16.5,16.5,0,0,0,90.46,42.91H99.8a7.7,7.7,0,1,1,0,8.23H90.19A16.51,16.51,0,1,0,106.3,31Z"/><polygon class="cls-6" points="42.2 63.26 48.16 63.26 48.16 49.06 57.86 49.06 57.86 43.29 48.16 43.29 48.16 37.56 57.86 37.56 57.86 31.7 42.2 31.7 42.2 63.26"/><path class="cls-6" d="M133.79,31.7,121.62,63.26h6.25l2.56-6.5h12.88l2.47,6.5H152L139.88,31.7Zm-1.15,19.2,4.24-10.83,4.2,10.83Z"/><polygon class="cls-6" points="189.69 63.26 184.4 31.7 178.55 31.7 171.17 53.71 163.85 31.7 158 31.7 152.54 63.26 158.39 63.26 161.86 43.33 168.5 63.26 173.79 63.26 180.5 43.33 183.88 63.26 189.69 63.26"/><path class="cls-6" d="M84.67,59.84a13.16,13.16,0,0,0,4.32-10,11.14,11.14,0,0,0-2.24-7,11.77,11.77,0,0,0-6.2-4.13,11.31,11.31,0,0,0,4.6-3.88,9.41,9.41,0,0,0,1.59-5.31,10.73,10.73,0,0,0-3.63-8.09,12.66,12.66,0,0,0-9-3.41,13.34,13.34,0,0,0-10,4.09A13.2,13.2,0,0,0,60.66,30h8a5.41,5.41,0,0,1,2-2.8,5.28,5.28,0,0,1,3.23-1.08,4.57,4.57,0,0,1,3.26,1.17,3.86,3.86,0,0,1,1.24,2.94,4.57,4.57,0,0,1-.81,2.58,5.58,5.58,0,0,1-2.28,1.91,13.33,13.33,0,0,1-4.47.94v7.11c3.25,0,5.72.74,7.44,2.11a6.26,6.26,0,0,1,.67,9.57,7.19,7.19,0,0,1-9.42.22,8.27,8.27,0,0,1-2.36-5H58.91c.26,4.4,1.72,7.89,4.39,10.44a14.3,14.3,0,0,0,10.34,3.84A15.48,15.48,0,0,0,84.67,59.84Z"/><polygon class="cls-7" points="42.47 77.09 42.88 77.09 42.88 74.32 45.75 74.32 45.75 73.96 42.88 73.96 42.88 71.64 46.25 71.64 46.25 71.27 42.47 71.27 42.47 77.09"/><path class="cls-7" d="M50.48,73.07a2,2,0,0,0-1.08-.3,2,2,0,0,0-1.06.29,2.18,2.18,0,0,0-.75.79,2.24,2.24,0,0,0-.27,1.1,2.32,2.32,0,0,0,.6,1.56,1.88,1.88,0,0,0,.67.48,2,2,0,0,0,.84.18,2.12,2.12,0,0,0,.75-.14,2,2,0,0,0,.62-.37,1.43,1.43,0,0,0,.39-.54l-.36-.1a1.3,1.3,0,0,1-.55.59,1.66,1.66,0,0,1-.84.23,1.54,1.54,0,0,1-.81-.22A1.73,1.73,0,0,1,48,76a1.85,1.85,0,0,1-.27-.87h3.73a.19.19,0,0,0,0-.08V75a2.22,2.22,0,0,0-.27-1.08A2.28,2.28,0,0,0,50.48,73.07Zm-2.75,1.74a1.93,1.93,0,0,1,.26-.88,1.67,1.67,0,0,1,.6-.61,1.64,1.64,0,0,1,1.64,0,1.78,1.78,0,0,1,.61.61,1.93,1.93,0,0,1,.26.88Z"/><path class="cls-7" d="M56.8,76.55V71.1h-.41v2.67a2.26,2.26,0,0,0-.67-.71,1.84,1.84,0,0,0-2,0,2.29,2.29,0,0,0-.7.81A2.33,2.33,0,0,0,52.77,75a2.25,2.25,0,0,0,.15.82,2.21,2.21,0,0,0,.43.7A2,2,0,0,0,54,77a1.74,1.74,0,0,0,.82.19,2,2,0,0,0,1.61-.94v.48a.42.42,0,0,0,.1.25.41.41,0,0,0,.25.13H57v-.34a.14.14,0,0,1-.12-.06A.2.2,0,0,1,56.8,76.55Zm-.41-.89a.83.83,0,0,1-.17.43,1.49,1.49,0,0,1-.38.37,1.83,1.83,0,0,1-.48.25,1.35,1.35,0,0,1-.47.09,1.59,1.59,0,0,1-.66-.14,1.81,1.81,0,0,1-.55-.4,2.08,2.08,0,0,1-.36-.59,1.8,1.8,0,0,1-.13-.69,2.25,2.25,0,0,1,.11-.68,2,2,0,0,1,.33-.59,1.61,1.61,0,0,1,.52-.42,1.48,1.48,0,0,1,1.3,0,2,2,0,0,1,.57.4,1.64,1.64,0,0,1,.37.57Z"/><path class="cls-7" d="M61.64,73.07a2,2,0,0,0-1.08-.3,2,2,0,0,0-1.06.29,2.18,2.18,0,0,0-.75.79,2.24,2.24,0,0,0-.27,1.1,2.42,2.42,0,0,0,.16.85,2.26,2.26,0,0,0,.45.71,1.84,1.84,0,0,0,.66.48,2,2,0,0,0,.84.18,2.12,2.12,0,0,0,.75-.14,1.93,1.93,0,0,0,.62-.37,1.43,1.43,0,0,0,.39-.54L62,76a1.25,1.25,0,0,1-.55.59,1.65,1.65,0,0,1-.83.23,1.55,1.55,0,0,1-.82-.22,1.81,1.81,0,0,1-.61-.62,1.85,1.85,0,0,1-.27-.87h3.74V75a2.22,2.22,0,0,0-.27-1.08A2.19,2.19,0,0,0,61.64,73.07Zm-2.75,1.74a1.93,1.93,0,0,1,.26-.88,1.84,1.84,0,0,1,.6-.61,1.65,1.65,0,0,1,.82-.22,1.62,1.62,0,0,1,1.43.83,1.93,1.93,0,0,1,.26.88Z"/><path class="cls-7" d="M66,72.82a1.47,1.47,0,0,0-.78.32,2.14,2.14,0,0,0-.59.73v-1h-.39v4.26h.41V74.42a1.69,1.69,0,0,1,.6-.89,1.74,1.74,0,0,1,1-.34v-.38H66Z"/><path class="cls-7" d="M70.82,76.55V74.44a1.67,1.67,0,0,0-.44-1.22,1.63,1.63,0,0,0-1.21-.45,2.09,2.09,0,0,0-.77.14,4.49,4.49,0,0,0-.81.42l.17.3a3.29,3.29,0,0,1,.71-.38,1.8,1.8,0,0,1,.66-.13,1.19,1.19,0,0,1,1.28,1.29v.4a3.62,3.62,0,0,0-.63-.16,4.08,4.08,0,0,0-.68-.06,2.66,2.66,0,0,0-.93.16,1.5,1.5,0,0,0-.63.45,1,1,0,0,0-.23.66,1.19,1.19,0,0,0,.19.67A1.33,1.33,0,0,0,68,77a1.6,1.6,0,0,0,.73.17,2.32,2.32,0,0,0,1-.21,1.89,1.89,0,0,0,.76-.57v.34a.41.41,0,0,0,.09.23.36.36,0,0,0,.24.13H71v-.34a.17.17,0,0,1-.14-.06A.2.2,0,0,1,70.82,76.55Zm-.41-.72a.45.45,0,0,1,0,.18,1,1,0,0,1-.13.2,1.37,1.37,0,0,1-.58.46,2.15,2.15,0,0,1-.85.17,1.21,1.21,0,0,1-.58-.14,1.06,1.06,0,0,1-.39-.37.93.93,0,0,1-.14-.49.8.8,0,0,1,.4-.69,1.91,1.91,0,0,1,1-.25,3.49,3.49,0,0,1,.65.06,2.58,2.58,0,0,1,.62.17Z"/><path class="cls-7" d="M75.6,76.4a1.59,1.59,0,0,1-.49.29,1.66,1.66,0,0,1-.58.11,1.5,1.5,0,0,1-.84-.25,1.88,1.88,0,0,1-.61-.67,2,2,0,0,1-.23-.93,1.91,1.91,0,0,1,.23-.93,1.79,1.79,0,0,1,.6-.65,1.52,1.52,0,0,1,.84-.23,1.45,1.45,0,0,1,.77.2,1.36,1.36,0,0,1,.54.55l.4-.13a1.69,1.69,0,0,0-.67-.73,2,2,0,0,0-1-.26,2.08,2.08,0,0,0-1.08.29,2.15,2.15,0,0,0-.75.78A2.28,2.28,0,0,0,72.44,75a2.38,2.38,0,0,0,.16.85,2.26,2.26,0,0,0,.45.71,1.88,1.88,0,0,0,.67.48,1.94,1.94,0,0,0,.83.18A2,2,0,0,0,75.3,77a2,2,0,0,0,.61-.37,1.28,1.28,0,0,0,.37-.53l-.4-.12A.92.92,0,0,1,75.6,76.4Z"/><rect class="cls-7" x="77.88" y="72.82" width="0.41" height="4.26"/><rect class="cls-7" x="77.88" y="71.1" width="0.41" height="0.75"/><polygon class="cls-7" points="82.17 71.93 82.86 71.1 82.38 71.1 81.88 71.8 82.17 71.93"/><path class="cls-7" d="M84,75.82a2.4,2.4,0,0,0,.15-.84,2.37,2.37,0,0,0-.15-.85,2.2,2.2,0,0,0-.45-.71,2.24,2.24,0,0,0-.66-.48,2,2,0,0,0-.82-.17,2,2,0,0,0-.82.17A2.26,2.26,0,0,0,80,75a2.2,2.2,0,0,0,.16.84,2.1,2.1,0,0,0,.43.7,2.24,2.24,0,0,0,.66.48,2.05,2.05,0,0,0,.83.17,2,2,0,0,0,.82-.17,2.16,2.16,0,0,0,.67-.48A2.3,2.3,0,0,0,84,75.82Zm-1.1.73a1.52,1.52,0,0,1-1.67,0,1.81,1.81,0,0,1-.61-.65,1.92,1.92,0,0,1,.61-2.51,1.5,1.5,0,0,1,.84-.25,1.46,1.46,0,0,1,.84.25,1.74,1.74,0,0,1,.6.66,1.94,1.94,0,0,1,0,1.83A1.79,1.79,0,0,1,82.86,76.55Z"/><path class="cls-7" d="M89,73.26a1.06,1.06,0,0,0-.39-.37,1.37,1.37,0,0,0-.6-.12,1.86,1.86,0,0,0-.73.14,2.09,2.09,0,0,0-.64.38,2.06,2.06,0,0,0-.46.56v-1h-.38v4.26h.41V74.46a1.81,1.81,0,0,1,.37-.68,2,2,0,0,1,.61-.46,1.53,1.53,0,0,1,.71-.18.81.81,0,0,1,.74.38,2.47,2.47,0,0,1,.23,1.2v2.37h.41V74.65a5,5,0,0,0-.06-.81A1.71,1.71,0,0,0,89,73.26Z"/><path class="cls-7" d="M98.58,75.6a1.89,1.89,0,0,1-.52.65,2.1,2.1,0,0,1-.69.37,2.25,2.25,0,0,1-.71.12,2,2,0,0,1-.92-.21A2.37,2.37,0,0,1,95,76a2.71,2.71,0,0,1-.5-.83,2.67,2.67,0,0,1-.18-1,2.89,2.89,0,0,1,.15-.91,2.63,2.63,0,0,1,.45-.82,2.3,2.3,0,0,1,.72-.59,2.24,2.24,0,0,1,1-.22,2.74,2.74,0,0,1,.69.1,2.08,2.08,0,0,1,.64.34,2.06,2.06,0,0,1,.51.64l.34-.19a2.2,2.2,0,0,0-.82-.92,2.43,2.43,0,0,0-1.32-.35,2.58,2.58,0,0,0-1.17.25,2.77,2.77,0,0,0-.87.68,3.07,3.07,0,0,0-.53.93,2.9,2.9,0,0,0-.19,1,3.13,3.13,0,0,0,.2,1.08,3.23,3.23,0,0,0,.56,1,2.73,2.73,0,0,0,.86.69,2.4,2.4,0,0,0,1.09.26,2.89,2.89,0,0,0,1.75-.62,2,2,0,0,0,.57-.74Z"/><path class="cls-7" d="M103.41,77a.32.32,0,0,0,.24.13h.2v-.34a.15.15,0,0,1-.13-.06.2.2,0,0,1,0-.14V74.44a1.63,1.63,0,0,0-.44-1.22,1.61,1.61,0,0,0-1.2-.45,2.14,2.14,0,0,0-.78.14,4.49,4.49,0,0,0-.81.42l.18.3a3.23,3.23,0,0,1,.7-.38,1.8,1.8,0,0,1,.66-.13,1.25,1.25,0,0,1,.94.35,1.28,1.28,0,0,1,.34.94v.4a3.21,3.21,0,0,0-.63-.16,4,4,0,0,0-.68-.06,2.56,2.56,0,0,0-.92.16,1.61,1.61,0,0,0-.64.45,1,1,0,0,0-.22.66,1.27,1.27,0,0,0,.18.67,1.29,1.29,0,0,0,.51.47,1.56,1.56,0,0,0,.72.17,2.29,2.29,0,0,0,1-.21,1.82,1.82,0,0,0,.76-.57v.34A.43.43,0,0,0,103.41,77Zm-.15-1.13a.45.45,0,0,1,0,.18,1.51,1.51,0,0,1-.12.2,1.4,1.4,0,0,1-.59.46,2.15,2.15,0,0,1-.85.17,1.17,1.17,0,0,1-.57-.14.93.93,0,0,1-.39-.37.85.85,0,0,1-.14-.49.78.78,0,0,1,.4-.69,1.87,1.87,0,0,1,1-.25,3.52,3.52,0,0,1,.66.06,2.51,2.51,0,0,1,.61.17Z"/><path class="cls-7" d="M109.07,77.09V74.65a5,5,0,0,0-.06-.81,1.53,1.53,0,0,0-.22-.58,1.06,1.06,0,0,0-.39-.37,1.34,1.34,0,0,0-.6-.12,1.86,1.86,0,0,0-.73.14,2,2,0,0,0-.63.38,1.75,1.75,0,0,0-.46.56v-1h-.39v4.26H106V74.46a2,2,0,0,1,.37-.68,2.09,2.09,0,0,1,.61-.46,1.53,1.53,0,0,1,.71-.18.8.8,0,0,1,.74.38,2.36,2.36,0,0,1,.23,1.2v2.37Z"/><path class="cls-7" d="M113.87,77a.36.36,0,0,0,.25.13h.2v-.34a.17.17,0,0,1-.14-.06.2.2,0,0,1,0-.14V74.44a1.67,1.67,0,0,0-.44-1.22,1.63,1.63,0,0,0-1.21-.45,2.13,2.13,0,0,0-.77.14,4.49,4.49,0,0,0-.81.42l.17.3a3.29,3.29,0,0,1,.71-.38,1.8,1.8,0,0,1,.66-.13,1.19,1.19,0,0,1,1.28,1.29v.4a3.62,3.62,0,0,0-.63-.16,4.08,4.08,0,0,0-.68-.06,2.66,2.66,0,0,0-.93.16,1.5,1.5,0,0,0-.63.45,1,1,0,0,0-.23.66,1.19,1.19,0,0,0,.19.67,1.33,1.33,0,0,0,.5.47,1.6,1.6,0,0,0,.73.17,2.32,2.32,0,0,0,1-.21,1.89,1.89,0,0,0,.76-.57v.34A.41.41,0,0,0,113.87,77Zm-.14-1.13a.45.45,0,0,1,0,.18,1.51,1.51,0,0,1-.12.2,1.47,1.47,0,0,1-.59.46,2.15,2.15,0,0,1-.85.17,1.21,1.21,0,0,1-.58-.14,1.06,1.06,0,0,1-.39-.37.92.92,0,0,1-.13-.49.79.79,0,0,1,.39-.69,1.91,1.91,0,0,1,1-.25,3.68,3.68,0,0,1,.66.06,2.64,2.64,0,0,1,.61.17Z"/><path class="cls-7" d="M116.06,72.83v4.26h.41V74.42a1.69,1.69,0,0,1,.6-.89,1.74,1.74,0,0,1,1-.34v-.38h-.25a1.47,1.47,0,0,0-.78.32,2.14,2.14,0,0,0-.59.73v-1Z"/><rect class="cls-7" x="119.52" y="72.82" width="0.41" height="4.26"/><rect class="cls-7" x="119.52" y="71.1" width="0.41" height="0.75"/><path class="cls-7" d="M124,74.65a4.08,4.08,0,0,0-.68-.06,2.66,2.66,0,0,0-.93.16,1.5,1.5,0,0,0-.63.45,1,1,0,0,0-.23.66,1.19,1.19,0,0,0,.19.67,1.33,1.33,0,0,0,.5.47,1.6,1.6,0,0,0,.73.17,2.32,2.32,0,0,0,1-.21,1.89,1.89,0,0,0,.76-.57v.34a.41.41,0,0,0,.09.23.36.36,0,0,0,.24.13h.21v-.34a.17.17,0,0,1-.14-.06.2.2,0,0,1,0-.14V74.44a1.67,1.67,0,0,0-.44-1.22,1.63,1.63,0,0,0-1.21-.45,2.09,2.09,0,0,0-.77.14,4.49,4.49,0,0,0-.81.42l.17.3a3.29,3.29,0,0,1,.71-.38,1.8,1.8,0,0,1,.66-.13,1.19,1.19,0,0,1,1.28,1.29v.4A3.62,3.62,0,0,0,124,74.65Zm.63,1.18a.45.45,0,0,1,0,.18,1.51,1.51,0,0,1-.12.2,1.47,1.47,0,0,1-.59.46,2.15,2.15,0,0,1-.85.17,1.21,1.21,0,0,1-.58-.14,1.06,1.06,0,0,1-.39-.37.93.93,0,0,1-.14-.49.8.8,0,0,1,.4-.69,1.91,1.91,0,0,1,1-.25A3.49,3.49,0,0,1,124,75a2.58,2.58,0,0,1,.62.17Z"/><path class="cls-7" d="M133.46,77a.41.41,0,0,0,.25.13h.19v-.34a.14.14,0,0,1-.12-.06.2.2,0,0,1-.05-.14V71.1h-.41v2.67a2.26,2.26,0,0,0-.67-.71,1.84,1.84,0,0,0-2,0,2.29,2.29,0,0,0-.7.81A2.33,2.33,0,0,0,129.7,75a2.25,2.25,0,0,0,.15.82,2.21,2.21,0,0,0,.43.7,2,2,0,0,0,.65.49,1.74,1.74,0,0,0,.82.19,2,2,0,0,0,1.61-.94v.48A.42.42,0,0,0,133.46,77Zm-.14-1.3a.83.83,0,0,1-.17.43,1.49,1.49,0,0,1-.38.37,1.83,1.83,0,0,1-.48.25,1.35,1.35,0,0,1-.47.09,1.67,1.67,0,0,1-.67-.14,1.9,1.9,0,0,1-.54-.4,2.08,2.08,0,0,1-.36-.59,1.8,1.8,0,0,1-.13-.69,2.25,2.25,0,0,1,.11-.68,2,2,0,0,1,.33-.59,1.61,1.61,0,0,1,.52-.42,1.48,1.48,0,0,1,1.3,0,2,2,0,0,1,.57.4,1.64,1.64,0,0,1,.37.57Z"/><path class="cls-7" d="M136.68,77a2,2,0,0,0,.84.18,2.12,2.12,0,0,0,.75-.14,1.93,1.93,0,0,0,.62-.37,1.43,1.43,0,0,0,.39-.54l-.36-.1a1.25,1.25,0,0,1-.55.59,1.65,1.65,0,0,1-.83.23,1.55,1.55,0,0,1-.82-.22,1.81,1.81,0,0,1-.61-.62,1.85,1.85,0,0,1-.27-.87h3.74V75a2.22,2.22,0,0,0-.27-1.08,2.19,2.19,0,0,0-.74-.8,2,2,0,0,0-1.08-.3,2,2,0,0,0-1.06.29,2.18,2.18,0,0,0-.75.79,2.24,2.24,0,0,0-.27,1.1,2.32,2.32,0,0,0,.6,1.56A2,2,0,0,0,136.68,77Zm-.6-3.06a1.84,1.84,0,0,1,.6-.61,1.65,1.65,0,0,1,.82-.22,1.69,1.69,0,0,1,.83.22,1.75,1.75,0,0,1,.6.61,1.93,1.93,0,0,1,.26.88h-3.37A1.93,1.93,0,0,1,136.08,73.93Z"/><polygon class="cls-7" points="147.15 75.43 144.73 71.27 144.31 71.27 144.31 77.09 144.73 77.09 144.73 72.08 147.01 76 147.29 76 149.58 72.08 149.58 77.09 150 77.09 150 71.27 149.58 71.27 147.15 75.43"/><path class="cls-7" d="M155.58,76.55V72.83h-.41v2.69a1.85,1.85,0,0,1-.38.67,1.93,1.93,0,0,1-.58.45,1.59,1.59,0,0,1-.7.16.89.89,0,0,1-.8-.39,2.08,2.08,0,0,1-.27-1.18v-2.4H152v2.46a2.35,2.35,0,0,0,.34,1.4,1.18,1.18,0,0,0,1,.48,2,2,0,0,0,1.05-.29,2.11,2.11,0,0,0,.77-.8v.64a.37.37,0,0,0,.1.25.33.33,0,0,0,.23.12h.2v-.34a.16.16,0,0,1-.13-.06A.2.2,0,0,1,155.58,76.55Z"/><path class="cls-7" d="M160.76,73.26a1.18,1.18,0,0,0-.4-.37,1.32,1.32,0,0,0-.59-.12,1.83,1.83,0,0,0-.73.14,2,2,0,0,0-.64.38,1.89,1.89,0,0,0-.46.56v-1h-.39v4.26H158V74.46a1.83,1.83,0,0,1,.38-.68,1.92,1.92,0,0,1,.6-.46,1.56,1.56,0,0,1,.71-.18.8.8,0,0,1,.74.38,2.35,2.35,0,0,1,.24,1.2v2.37H161V74.65a4,4,0,0,0-.07-.81A1.53,1.53,0,0,0,160.76,73.26Z"/><rect class="cls-7" x="162.95" y="71.1" width="0.41" height="0.75"/><rect class="cls-7" x="162.95" y="72.82" width="0.41" height="4.26"/><path class="cls-7" d="M168.18,76.4a1.59,1.59,0,0,1-.49.29,1.66,1.66,0,0,1-.58.11,1.5,1.5,0,0,1-.84-.25,1.88,1.88,0,0,1-.61-.67,2,2,0,0,1-.23-.93,1.91,1.91,0,0,1,.23-.93,1.79,1.79,0,0,1,.6-.65,1.52,1.52,0,0,1,.84-.23,1.45,1.45,0,0,1,.77.2,1.36,1.36,0,0,1,.54.55l.4-.13a1.69,1.69,0,0,0-.67-.73,2,2,0,0,0-1-.26,2,2,0,0,0-1.08.29,2.15,2.15,0,0,0-.75.78A2.28,2.28,0,0,0,165,75a2.18,2.18,0,0,0,.16.85,2.26,2.26,0,0,0,.45.71,1.88,1.88,0,0,0,.67.48,1.94,1.94,0,0,0,.83.18,2,2,0,0,0,.75-.14,2,2,0,0,0,.61-.37,1.28,1.28,0,0,0,.37-.53l-.4-.12A.92.92,0,0,1,168.18,76.4Z"/><rect class="cls-7" x="170.46" y="72.82" width="0.41" height="4.26"/><rect class="cls-7" x="170.46" y="71.1" width="0.41" height="0.75"/><path class="cls-7" d="M176.28,73.45a2.06,2.06,0,0,0-.64-.5,1.86,1.86,0,0,0-.82-.18,1.77,1.77,0,0,0-.92.25,2.24,2.24,0,0,0-.7.67v-.86h-.38v6h.41V76.17a2.37,2.37,0,0,0,.7.71,1.71,1.71,0,0,0,1,.29,1.8,1.8,0,0,0,1-.3,2,2,0,0,0,.68-.81,2.49,2.49,0,0,0,.25-1.09,2.05,2.05,0,0,0-.16-.81A2.3,2.3,0,0,0,176.28,73.45Zm0,2.19a1.88,1.88,0,0,1-.32.59,1.72,1.72,0,0,1-.52.41,1.35,1.35,0,0,1-.67.16,1.47,1.47,0,0,1-.65-.15,1.84,1.84,0,0,1-.55-.41,2.46,2.46,0,0,1-.38-.57V74.28a1.23,1.23,0,0,1,.18-.43,1.67,1.67,0,0,1,.38-.37,1.94,1.94,0,0,1,.47-.25,1.44,1.44,0,0,1,.47-.09,1.5,1.5,0,0,1,.67.15,1.65,1.65,0,0,1,.54.4,1.85,1.85,0,0,1,.37.58,2.07,2.07,0,0,1,.13.7A1.93,1.93,0,0,1,176.32,75.64Z"/><rect class="cls-7" x="178.51" y="71.1" width="0.41" height="0.75"/><rect class="cls-7" x="178.51" y="72.82" width="0.41" height="4.26"/><path class="cls-7" d="M184.15,73.42a2.24,2.24,0,0,0-.66-.48,2,2,0,0,0-.82-.17,2.09,2.09,0,0,0-.83.17,2.24,2.24,0,0,0-.66.48,2.25,2.25,0,0,0-.59,1.56,2.4,2.4,0,0,0,.15.84,2.3,2.3,0,0,0,.44.7,2,2,0,0,0,.66.48,2.09,2.09,0,0,0,1.65,0,2.16,2.16,0,0,0,.67-.48,2.28,2.28,0,0,0,.43-.7,2.31,2.31,0,0,0,0-1.69A2.17,2.17,0,0,0,184.15,73.42Zm0,2.46a1.88,1.88,0,0,1-.61.67,1.54,1.54,0,0,1-1.68,0,1.79,1.79,0,0,1-.6-.65,2,2,0,0,1,0-1.84,1.79,1.79,0,0,1,.61-.67,1.52,1.52,0,0,1,1.67,0,1.77,1.77,0,0,1,.61.66,2,2,0,0,1,0,1.83Z"/><path class="cls-7" d="M188.61,75c-.24-.09-.53-.17-.86-.26a5.39,5.39,0,0,1-.59-.18.89.89,0,0,1-.36-.22.59.59,0,0,1-.12-.39.76.76,0,0,1,.16-.49,1,1,0,0,1,.43-.27,2,2,0,0,1,.55-.08,1.81,1.81,0,0,1,.72.13,1.18,1.18,0,0,1,.54.39l.22-.27a1.35,1.35,0,0,0-.57-.43,2.14,2.14,0,0,0-.87-.16,2.18,2.18,0,0,0-.79.13,1.27,1.27,0,0,0-.57.41,1.09,1.09,0,0,0-.21.69.86.86,0,0,0,.15.53,1.07,1.07,0,0,0,.44.32,7.22,7.22,0,0,0,.74.24c.28.07.52.13.72.2a1.1,1.1,0,0,1,.46.24A.54.54,0,0,1,189,76a.73.73,0,0,1-.34.64,1.56,1.56,0,0,1-.89.22,2,2,0,0,1-.78-.15,2.36,2.36,0,0,1-.72-.49l-.19.29a2.13,2.13,0,0,0,.77.53,2.62,2.62,0,0,0,.94.17,1.83,1.83,0,0,0,1.17-.34,1.05,1.05,0,0,0,.44-.91.8.8,0,0,0-.19-.58A1.33,1.33,0,0,0,188.61,75Z"/><path class="cls-5" d="M85.4,82l-2.15,5.82h1.16l.49-1.45H87l.49,1.45h1.16L86.54,82Zm-.24,3.58.81-2.4.8,2.4Z"/><polygon class="cls-5" points="93.64 85.87 90.64 82.03 89.73 82.03 89.73 87.85 90.86 87.85 90.86 84.11 93.83 87.85 94.76 87.85 94.76 82.04 93.64 82.04 93.64 85.87"/><rect class="cls-5" x="96.39" y="82.03" width="1.13" height="5.82"/><polygon class="cls-5" points="101.32 86.52 99.75 82.03 98.56 82.03 100.77 87.85 101.86 87.85 104.06 82.03 102.87 82.03 101.32 86.52"/><polygon class="cls-5" points="106.23 85.34 108.67 85.34 108.67 84.43 106.23 84.43 106.23 83.03 109.07 83.03 109.07 82.03 105.1 82.03 105.1 87.85 109.14 87.85 109.14 86.86 106.23 86.86 106.23 85.34"/><path class="cls-5" d="M114.37,85.27a1.75,1.75,0,0,0,.36-.6,1.85,1.85,0,0,0,.13-.7,1.94,1.94,0,0,0-.13-.71,2,2,0,0,0-.39-.62,1.82,1.82,0,0,0-.59-.44A1.66,1.66,0,0,0,113,82h-2.59v5.82h1.14V85.9h1.13l1.19,1.95h1.25l-1.33-2.19A1.67,1.67,0,0,0,114.37,85.27Zm-.75-.83a.76.76,0,0,1-.26.34.57.57,0,0,1-.38.13h-1.41V83h1.37a.64.64,0,0,1,.38.12,1,1,0,0,1,.29.33,1.14,1.14,0,0,1,.11.49A1,1,0,0,1,113.62,84.44Z"/><path class="cls-5" d="M119.59,84.8a5.19,5.19,0,0,0-1-.34l-.74-.21a1.27,1.27,0,0,1-.44-.24.48.48,0,0,1-.15-.37.57.57,0,0,1,.23-.49,1.22,1.22,0,0,1,.7-.17,2.24,2.24,0,0,1,.51.07,2.88,2.88,0,0,1,.47.16,2.47,2.47,0,0,1,.37.2,1.16,1.16,0,0,1,.21.15l.5-.92a5,5,0,0,0-.57-.32,3.5,3.5,0,0,0-.69-.24,3.19,3.19,0,0,0-.77-.09,2.65,2.65,0,0,0-1.07.21,1.74,1.74,0,0,0-.77.61,1.64,1.64,0,0,0-.29,1,1.34,1.34,0,0,0,.18.73,1.46,1.46,0,0,0,.55.49,4.55,4.55,0,0,0,.92.35l.8.23a1.79,1.79,0,0,1,.52.26.52.52,0,0,1,.18.42.48.48,0,0,1-.23.44,1.26,1.26,0,0,1-.69.15,2.82,2.82,0,0,1-.65-.08,4.53,4.53,0,0,1-.59-.21,2.81,2.81,0,0,1-.46-.23,1.85,1.85,0,0,1-.26-.2l-.5,1a4.83,4.83,0,0,0,.74.41,4.68,4.68,0,0,0,.83.25,4.28,4.28,0,0,0,.87.09,3.7,3.7,0,0,0,.83-.09,2,2,0,0,0,.68-.3,1.56,1.56,0,0,0,.48-.54,1.67,1.67,0,0,0,.17-.78,1.48,1.48,0,0,0-.23-.86A1.56,1.56,0,0,0,119.59,84.8Z"/><path class="cls-5" d="M123.18,82,121,87.85h1.17l.48-1.45h2.14l.48,1.45h1.17L124.33,82ZM123,85.61l.8-2.4.8,2.4Z"/><path class="cls-5" d="M128,85.17l.14-.06Z"/><path class="cls-5" d="M131.34,85.3l-.09,0Z"/><path class="cls-5" d="M127.52,85.74v0a1.76,1.76,0,0,1,.09-.2A1,1,0,0,0,127.52,85.74Z"/><path class="cls-5" d="M129.74,85.68l-.12,0,1.36,2.2h1.24l-1.22-2A2.38,2.38,0,0,1,129.74,85.68Z"/><path class="cls-5" d="M128.25,84.5a1.79,1.79,0,0,1,.4-.09V83H130a.64.64,0,0,1,.38.12.94.94,0,0,1,.29.33,1.14,1.14,0,0,1,.11.49,1,1,0,0,1-.1.47.86.86,0,0,1-.21.28,2.88,2.88,0,0,0,1.18.18,1.82,1.82,0,0,0,.15-.23,2.06,2.06,0,0,0,.12-.7,1.94,1.94,0,0,0-.13-.71,2,2,0,0,0-.39-.62,1.72,1.72,0,0,0-.59-.44,1.66,1.66,0,0,0-.73-.17h-2.58v3.16A1.35,1.35,0,0,1,128.25,84.5Z"/><path class="cls-5" d="M128.94,85h0Z"/><path class="cls-5" d="M127.87,85.28a1.06,1.06,0,0,0-.23.24A1.06,1.06,0,0,1,127.87,85.28Z"/><path class="cls-5" d="M127.52,85.83v2h1.13V85.38A1.07,1.07,0,0,0,127.52,85.83Z"/><rect class="cls-5" x="133.38" y="82.03" width="1.13" height="5.82"/><path class="cls-5" d="M140.68,82.93a2.71,2.71,0,0,0-.89-.68,2.59,2.59,0,0,0-1.15-.26,2.71,2.71,0,0,0-1.14.24,3,3,0,0,0-.91.66,3.17,3.17,0,0,0-.59.94,2.82,2.82,0,0,0-.22,1.11A3.14,3.14,0,0,0,136,86a3.19,3.19,0,0,0,.58,1,3,3,0,0,0,.9.67,2.69,2.69,0,0,0,1.15.24,2.87,2.87,0,0,0,1.14-.23,2.69,2.69,0,0,0,.9-.66,3.05,3.05,0,0,0,.59-.94,3,3,0,0,0,.21-1.1,3.08,3.08,0,0,0-.2-1.08A3,3,0,0,0,140.68,82.93Zm-.48,2.72a1.88,1.88,0,0,1-.32.63,1.65,1.65,0,0,1-.53.45,1.54,1.54,0,0,1-.73.16,1.49,1.49,0,0,1-.71-.16,1.52,1.52,0,0,1-.54-.43,2.1,2.1,0,0,1-.33-.63,2.23,2.23,0,0,1-.11-.73,2.19,2.19,0,0,1,.11-.71,1.92,1.92,0,0,1,.32-.62,1.77,1.77,0,0,1,.54-.44,1.63,1.63,0,0,1,1.43,0,1.82,1.82,0,0,1,.53.43,2.13,2.13,0,0,1,.34.63,2.46,2.46,0,0,1,.11.72A2.19,2.19,0,0,1,140.2,85.65Z"/><path class="cls-8" d="M131,85.85a1.17,1.17,0,0,0,.55-.32,2.24,2.24,0,0,0,.42-.63h0s0-.07,0-.1a.83.83,0,0,1-.34.1,2.88,2.88,0,0,1-1.18-.18,4.36,4.36,0,0,0-1.84-.31,1.79,1.79,0,0,0-.4.09,1.35,1.35,0,0,0-.73.69,1.49,1.49,0,0,0-.19.7s0,.23,0,.23l0-.05a1.16,1.16,0,0,1,.14-.24,1.07,1.07,0,0,1,1.13-.45,1,1,0,0,1,.24,0c.2.08.5.16.73.23l.12,0A2.38,2.38,0,0,0,131,85.85Zm.25-.53.09,0Zm.38-.14.05,0ZM129,85h0Zm-.87.1-.14.06Zm-.28.17a1.06,1.06,0,0,0-.23.24A1.06,1.06,0,0,1,127.87,85.28Zm-.49.77.05-.14a.68.68,0,0,1,.09-.17,1,1,0,0,1,.09-.18,1.76,1.76,0,0,0-.09.2A2,2,0,0,0,127.38,86.05Z"/></g></g></svg>