<?xml version="1.0" encoding="utf-8"?>
<!-- Generator: Adobe Illustrator 23.0.3, SVG Export Plug-In . SVG Version: 6.00 Build 0)  -->
<svg version="1.1" id="Capa_1" xmlns="http://www.w3.org/2000/svg" xmlns:xlink="http://www.w3.org/1999/xlink" x="0px" y="0px"
	 viewBox="0 0 333.18 359.68" style="enable-background:new 0 0 333.18 359.68;" xml:space="preserve">
<style type="text/css">
	.st0{fill:#143C68;}
	.st1{fill:#F2C242;}
	.st2{fill:#CEB352;}
	.st3{fill:#214C80;}
	.st4{fill:#7CB244;}
	.st5{fill:#3E7036;}
</style>
<g>
	<path class="st0" d="M58.35,244.94v12.44H32.62v14.71h25.73c-0.06,1.46-0.29,2.91-0.67,4.37c-0.38,1.46-0.98,2.75-1.8,3.89
		c-0.82,1.14-1.89,2.07-3.18,2.8c-1.3,0.73-2.93,1.09-4.89,1.09H32.62v27.15H20v-55.25c0-3.42,0.78-6.14,2.34-8.16
		c1.56-2.02,4.32-3.04,8.28-3.04H58.35z"/>
	<path class="st0" d="M106.01,244.94v12.44H80.38v14.71h25.63c-0.06,1.46-0.29,2.91-0.67,4.37c-0.38,1.46-0.98,2.75-1.8,3.89
		c-0.82,1.14-1.89,2.07-3.18,2.8c-1.3,0.73-2.9,1.09-4.79,1.09H80.38v14.71h25.63v12.44H67.75v-54.97c0-3.67,1.03-6.5,3.08-8.5
		c2.06-1.99,4.67-2.99,7.83-2.99H106.01z"/>
	<path class="st0" d="M169.42,267.63c-0.89-2.34-2.28-4.33-4.18-5.98c-1.9-1.65-4.07-2.93-6.5-3.85c-2.44-0.92-5.02-1.49-7.74-1.71
		c-2.72-0.22-5.29-0.08-7.69,0.43c-2.6,0.57-4.92,1.54-6.98,2.89c-2.06,1.36-3.8,3.01-5.22,4.94c-1.42,1.93-2.52,4.07-3.28,6.41
		c-0.76,2.34-1.14,4.78-1.14,7.31c0,4.75,1.01,8.78,3.04,12.1c2.02,3.32,4.59,5.87,7.69,7.64c3.1,1.77,6.49,2.72,10.16,2.85
		c3.67,0.13,7.15-0.57,10.44-2.09c2.85-1.26,6.04-3.73,9.59-7.4l8.16,8.83c-2.15,2.22-4.24,4.11-6.26,5.7
		c-2.03,1.58-4.13,2.88-6.31,3.89c-2.18,1.01-4.49,1.77-6.93,2.28c-2.44,0.51-5.08,0.76-7.93,0.76c-5.13,0-9.65-0.82-13.57-2.47
		c-3.93-1.64-7.28-3.84-10.06-6.6c-2.79-2.75-4.99-5.92-6.6-9.49c-1.61-3.57-2.67-7.29-3.18-11.15c-0.51-3.86-0.41-7.7,0.29-11.54
		c0.7-3.83,1.96-7.39,3.8-10.68c1.77-3.1,3.78-5.71,6.03-7.83c2.24-2.12,4.68-3.83,7.31-5.13c2.62-1.3,5.41-2.23,8.35-2.8
		c2.94-0.57,6-0.89,9.16-0.95c2.22,0,4.54,0.21,6.98,0.62c2.44,0.41,4.75,1.04,6.93,1.9c2.18,0.85,4.13,1.95,5.84,3.27
		c1.71,1.33,2.91,2.88,3.61,4.65c0.7,1.77,0.79,3.75,0.29,5.93C173,262.55,171.64,264.97,169.42,267.63"/>
	<path class="st0" d="M200.37,253.77c1.27-3.35,3.15-5.79,5.65-7.31c2.5-1.52,5.93-1.9,10.3-1.14l25.44,66.07h-13.1l-5.13-13.57
		c-1.9,0-3.96-0.02-6.17-0.05c-2.22-0.03-4.22,0.11-6.03,0.43c-1.8,0.32-3.21,0.87-4.22,1.66c-1.01,0.79-1.27,2.04-0.76,3.75
		c-2.28-0.63-4-1.6-5.17-2.9c-1.17-1.3-1.88-2.67-2.14-4.13c-0.25-1.46-0.1-2.9,0.48-4.32c0.57-1.42,1.42-2.61,2.56-3.56
		c1.07-0.95,2.29-1.63,3.65-2.04c1.36-0.41,2.78-0.7,4.27-0.86c1.49-0.16,2.99-0.22,4.51-0.19c1.52,0.03,2.98,0.05,4.37,0.05
		l-8.92-22.78l-18.8,48.51h-13.1L200.37,253.77z"/>
	<path class="st0" d="M265.31,244.84l15.47,46.42l15.57-46.42h16.61v66.45h-12.63v-41.77l-10.35,30.76
		c-0.32,0.95-0.58,1.91-0.81,2.89c-0.22,0.98-0.35,1.93-0.38,2.85c-0.03,0.92,0.1,1.77,0.38,2.56c0.29,0.79,0.81,1.44,1.57,1.95
		c-1.71,0.89-3.59,1.34-5.65,1.38c-2.06,0.03-3.75-0.21-5.08-0.71c-1.14-0.44-2.17-1.06-3.09-1.85c-0.92-0.79-1.72-1.68-2.42-2.66
		c-0.7-0.98-1.28-2.02-1.76-3.13c-0.47-1.11-0.9-2.2-1.28-3.27l-9.97-29.9v40.92h-12.62v-56.49c0-3.1,0.96-5.54,2.89-7.31
		c1.93-1.77,4.57-2.66,7.93-2.66H265.31z"/>
	<polygon class="st0" points="21.37,335.12 20,335.12 20,321.66 28.12,321.66 28.12,322.87 21.37,322.87 21.37,327.53 27.64,327.53 
		27.64,328.75 21.37,328.75 	"/>
	<path class="st0" d="M37.79,330.4v0.29c0,0.1-0.01,0.21-0.02,0.32H30.4c0.01,0.44,0.1,0.86,0.27,1.25
		c0.16,0.39,0.39,0.74,0.68,1.03c0.29,0.29,0.63,0.52,1.03,0.69c0.39,0.17,0.82,0.26,1.27,0.26c0.67,0,1.25-0.15,1.74-0.47
		c0.49-0.31,0.86-0.67,1.11-1.07l0.97,0.76c-0.53,0.67-1.12,1.15-1.76,1.45c-0.64,0.29-1.33,0.44-2.06,0.44
		c-0.66,0-1.27-0.12-1.84-0.35c-0.56-0.23-1.05-0.56-1.45-0.98c-0.41-0.42-0.72-0.91-0.96-1.48c-0.23-0.57-0.35-1.19-0.35-1.86
		c0-0.67,0.11-1.29,0.34-1.86c0.23-0.57,0.54-1.07,0.95-1.48c0.41-0.42,0.88-0.74,1.43-0.98c0.54-0.23,1.13-0.35,1.77-0.35
		c0.7,0,1.31,0.12,1.84,0.35c0.53,0.24,0.98,0.55,1.33,0.95c0.35,0.4,0.62,0.87,0.81,1.4C37.7,329.22,37.79,329.79,37.79,330.4
		 M36.48,329.98c-0.04-0.84-0.31-1.53-0.81-2.08s-1.21-0.83-2.14-0.83c-0.43,0-0.83,0.08-1.2,0.24c-0.37,0.16-0.69,0.38-0.97,0.65
		c-0.28,0.27-0.5,0.58-0.66,0.93c-0.17,0.35-0.26,0.71-0.29,1.09H36.48z"/>
	<path class="st0" d="M47.89,333.61c-0.38,0.57-0.88,1-1.48,1.29c-0.61,0.29-1.24,0.44-1.88,0.44c-0.7,0-1.33-0.12-1.89-0.36
		c-0.56-0.24-1.04-0.57-1.44-0.99c-0.4-0.42-0.71-0.91-0.93-1.48c-0.22-0.57-0.33-1.18-0.33-1.84c0-0.66,0.11-1.27,0.33-1.85
		c0.22-0.57,0.53-1.06,0.93-1.48c0.4-0.42,0.88-0.75,1.44-0.99c0.57-0.24,1.19-0.36,1.89-0.36c0.65,0,1.27,0.15,1.88,0.45
		c0.61,0.3,1.1,0.74,1.48,1.32h0.04v-7.02h1.29v14.37h-1.29v-1.5H47.89z M41.29,330.67c0,0.49,0.08,0.96,0.23,1.4
		c0.15,0.44,0.37,0.82,0.65,1.14c0.29,0.32,0.64,0.58,1.06,0.76c0.42,0.18,0.89,0.27,1.43,0.27c0.49,0,0.95-0.09,1.37-0.27
		c0.42-0.18,0.78-0.43,1.08-0.75c0.31-0.32,0.54-0.69,0.71-1.13c0.17-0.44,0.26-0.91,0.26-1.41c0-0.51-0.08-0.98-0.26-1.42
		c-0.17-0.44-0.41-0.82-0.71-1.14c-0.3-0.32-0.67-0.58-1.08-0.76c-0.42-0.18-0.87-0.28-1.37-0.28c-0.53,0-1.01,0.1-1.43,0.28
		c-0.42,0.19-0.77,0.45-1.06,0.77c-0.28,0.32-0.5,0.7-0.65,1.14C41.37,329.71,41.29,330.17,41.29,330.67"/>
	<path class="st0" d="M60.78,330.4v0.29c0,0.1-0.01,0.21-0.02,0.32h-7.38c0.01,0.44,0.1,0.86,0.27,1.25
		c0.16,0.39,0.39,0.74,0.68,1.03c0.29,0.29,0.63,0.52,1.03,0.69c0.39,0.17,0.82,0.26,1.27,0.26c0.67,0,1.25-0.15,1.74-0.47
		c0.49-0.31,0.86-0.67,1.11-1.07l0.97,0.76c-0.53,0.67-1.12,1.15-1.76,1.45c-0.64,0.29-1.33,0.44-2.06,0.44
		c-0.66,0-1.27-0.12-1.83-0.35c-0.56-0.23-1.05-0.56-1.45-0.98c-0.41-0.42-0.72-0.91-0.96-1.48c-0.23-0.57-0.35-1.19-0.35-1.86
		c0-0.67,0.11-1.29,0.34-1.86c0.23-0.57,0.54-1.07,0.95-1.48c0.41-0.42,0.88-0.74,1.43-0.98c0.54-0.23,1.13-0.35,1.77-0.35
		c0.7,0,1.31,0.12,1.84,0.35c0.53,0.24,0.98,0.55,1.33,0.95c0.35,0.4,0.62,0.87,0.81,1.4C60.69,329.22,60.78,329.79,60.78,330.4
		 M59.47,329.98c-0.04-0.84-0.31-1.53-0.81-2.08c-0.5-0.55-1.21-0.83-2.14-0.83c-0.43,0-0.83,0.08-1.2,0.24
		c-0.37,0.16-0.69,0.38-0.97,0.65c-0.28,0.27-0.5,0.58-0.67,0.93c-0.16,0.35-0.26,0.71-0.28,1.09H59.47z"/>
	<path class="st0" d="M63.53,327.24c-0.01-0.38-0.03-0.72-0.06-1.03h1.24c0.03,0.24,0.04,0.51,0.06,0.8
		c0.01,0.29,0.02,0.53,0.02,0.72h0.04c0.25-0.52,0.63-0.94,1.14-1.26c0.51-0.32,1.08-0.48,1.71-0.48c0.16,0,0.31,0.01,0.45,0.02
		c0.13,0.01,0.27,0.04,0.41,0.08l-0.17,1.24c-0.08-0.02-0.2-0.05-0.38-0.08c-0.18-0.02-0.36-0.04-0.53-0.04
		c-0.34,0-0.67,0.06-0.99,0.19c-0.32,0.13-0.59,0.33-0.83,0.6c-0.24,0.27-0.43,0.62-0.57,1.04c-0.15,0.42-0.22,0.93-0.22,1.53v4.55
		h-1.29v-6.94C63.55,327.94,63.55,327.63,63.53,327.24"/>
	<path class="st0" d="M75.78,329.36c0-0.77-0.2-1.34-0.61-1.72c-0.41-0.38-1-0.57-1.77-0.57c-0.53,0-1.03,0.1-1.48,0.28
		c-0.46,0.19-0.84,0.45-1.16,0.76l-0.72-0.86c0.37-0.37,0.85-0.67,1.45-0.91c0.6-0.24,1.28-0.36,2.04-0.36
		c0.48,0,0.93,0.07,1.35,0.2c0.42,0.13,0.79,0.33,1.1,0.6c0.32,0.27,0.56,0.6,0.74,1.01c0.18,0.4,0.27,0.88,0.27,1.43v3.9
		c0,0.34,0.01,0.7,0.04,1.07c0.03,0.37,0.07,0.68,0.11,0.93h-1.16c-0.04-0.22-0.07-0.45-0.1-0.7c-0.03-0.25-0.04-0.5-0.04-0.74
		h-0.04c-0.4,0.6-0.87,1.02-1.38,1.28c-0.51,0.26-1.13,0.39-1.85,0.39c-0.34,0-0.69-0.05-1.06-0.14s-0.69-0.25-0.99-0.47
		c-0.3-0.22-0.54-0.5-0.74-0.84c-0.2-0.34-0.29-0.76-0.29-1.26c0-0.69,0.17-1.23,0.52-1.63c0.35-0.4,0.81-0.7,1.4-0.9
		c0.58-0.2,1.25-0.32,2.01-0.38c0.75-0.06,1.54-0.09,2.35-0.09V329.36z M75.4,330.67c-0.53,0-1.07,0.02-1.61,0.07
		c-0.54,0.04-1.03,0.13-1.46,0.27c-0.44,0.13-0.8,0.33-1.07,0.58c-0.28,0.25-0.42,0.59-0.42,1.01c0,0.32,0.06,0.58,0.18,0.8
		c0.12,0.22,0.28,0.39,0.49,0.52c0.2,0.13,0.43,0.23,0.67,0.29c0.25,0.06,0.5,0.09,0.75,0.09c0.46,0,0.86-0.08,1.22-0.24
		c0.35-0.16,0.65-0.37,0.89-0.65c0.24-0.27,0.42-0.59,0.55-0.94c0.13-0.35,0.19-0.73,0.19-1.12v-0.66H75.4z"/>
	<path class="st0" d="M86.73,328.25c-0.22-0.34-0.53-0.62-0.94-0.85c-0.41-0.22-0.86-0.33-1.34-0.33c-0.52,0-0.99,0.09-1.41,0.28
		c-0.42,0.18-0.78,0.44-1.07,0.76c-0.3,0.32-0.52,0.7-0.68,1.14c-0.16,0.44-0.24,0.91-0.24,1.42c0,0.51,0.08,0.98,0.24,1.41
		c0.16,0.43,0.38,0.81,0.68,1.13c0.29,0.32,0.65,0.58,1.07,0.76c0.42,0.18,0.89,0.27,1.41,0.27c0.57,0,1.05-0.11,1.44-0.32
		c0.39-0.21,0.72-0.49,0.97-0.84l0.97,0.72c-0.38,0.47-0.85,0.84-1.4,1.12c-0.55,0.28-1.21,0.42-1.99,0.42
		c-0.72,0-1.38-0.12-1.96-0.35c-0.58-0.23-1.08-0.56-1.49-0.98c-0.41-0.42-0.73-0.91-0.96-1.48c-0.23-0.57-0.34-1.19-0.34-1.86
		c0-0.67,0.11-1.29,0.34-1.86c0.23-0.57,0.55-1.07,0.96-1.48c0.41-0.42,0.91-0.74,1.49-0.98c0.58-0.23,1.24-0.35,1.96-0.35
		c0.6,0,1.2,0.13,1.82,0.39c0.61,0.26,1.11,0.64,1.49,1.15L86.73,328.25z"/>
	<path class="st0" d="M91.4,322.8c0,0.27-0.1,0.48-0.29,0.66c-0.19,0.17-0.4,0.26-0.63,0.26c-0.23,0-0.44-0.09-0.63-0.26
		c-0.19-0.17-0.29-0.39-0.29-0.66c0-0.27,0.1-0.48,0.29-0.65c0.19-0.17,0.4-0.26,0.63-0.26c0.23,0,0.44,0.09,0.63,0.26
		C91.31,322.31,91.4,322.53,91.4,322.8 M91.14,335.11h-1.29v-8.9h1.29V335.11z"/>
	<path class="st0" d="M103.42,330.67c0,0.67-0.12,1.29-0.35,1.86c-0.24,0.57-0.56,1.06-0.98,1.48c-0.42,0.42-0.92,0.75-1.5,0.98
		c-0.58,0.24-1.22,0.35-1.92,0.35c-0.68,0-1.32-0.12-1.9-0.35c-0.58-0.23-1.08-0.56-1.5-0.98c-0.42-0.42-0.74-0.91-0.98-1.48
		c-0.23-0.57-0.35-1.19-0.35-1.86c0-0.67,0.12-1.29,0.35-1.86c0.24-0.57,0.56-1.07,0.98-1.48c0.42-0.42,0.92-0.74,1.5-0.98
		c0.58-0.23,1.22-0.35,1.9-0.35c0.7,0,1.34,0.12,1.92,0.35c0.58,0.24,1.08,0.56,1.5,0.98c0.42,0.42,0.74,0.91,0.98,1.48
		C103.3,329.37,103.42,330,103.42,330.67 M102.05,330.67c0-0.5-0.08-0.96-0.24-1.4c-0.16-0.44-0.38-0.82-0.68-1.14
		c-0.29-0.32-0.65-0.58-1.07-0.77c-0.42-0.19-0.89-0.29-1.4-0.29c-0.52,0-0.99,0.09-1.4,0.29c-0.41,0.19-0.76,0.45-1.06,0.77
		c-0.29,0.32-0.52,0.7-0.68,1.14c-0.16,0.44-0.24,0.9-0.24,1.4c0,0.49,0.08,0.96,0.24,1.4c0.16,0.44,0.38,0.82,0.68,1.14
		c0.29,0.32,0.64,0.58,1.06,0.76c0.41,0.18,0.88,0.28,1.4,0.28c0.52,0,0.99-0.09,1.4-0.28c0.42-0.18,0.77-0.44,1.07-0.76
		c0.29-0.32,0.52-0.7,0.68-1.14C101.97,331.63,102.05,331.16,102.05,330.67 M99.01,324.39h-1.12l1.9-2.74h1.73L99.01,324.39z"/>
	<path class="st0" d="M107.35,326.22c0.02,0.24,0.04,0.51,0.06,0.8c0.01,0.29,0.02,0.53,0.02,0.72h0.04
		c0.25-0.52,0.66-0.94,1.24-1.26c0.57-0.32,1.17-0.49,1.81-0.49c1.13,0,1.97,0.34,2.54,1.01c0.56,0.67,0.85,1.56,0.85,2.66v5.46
		h-1.29v-4.92c0-0.47-0.04-0.89-0.11-1.27c-0.08-0.38-0.21-0.71-0.39-0.98c-0.18-0.27-0.43-0.49-0.74-0.64
		c-0.31-0.15-0.7-0.23-1.17-0.23c-0.34,0-0.68,0.07-1,0.21c-0.32,0.14-0.61,0.35-0.86,0.64c-0.25,0.29-0.46,0.65-0.61,1.08
		c-0.15,0.44-0.23,0.95-0.23,1.55v4.56h-1.29v-6.94c0-0.24-0.01-0.55-0.02-0.93c-0.01-0.38-0.03-0.72-0.06-1.03H107.35z"/>
	<path class="st0" d="M133.4,332.93c-0.23,0.34-0.5,0.67-0.83,0.97c-0.32,0.3-0.7,0.57-1.12,0.8c-0.43,0.23-0.89,0.42-1.41,0.55
		c-0.51,0.13-1.08,0.2-1.68,0.2c-1.01,0-1.95-0.18-2.81-0.53c-0.86-0.35-1.6-0.85-2.22-1.47c-0.62-0.63-1.11-1.37-1.46-2.23
		c-0.35-0.86-0.52-1.81-0.52-2.83c0-1.03,0.18-1.97,0.53-2.83c0.35-0.86,0.85-1.61,1.47-2.23c0.63-0.63,1.37-1.12,2.22-1.47
		c0.86-0.35,1.78-0.53,2.78-0.53c0.49,0,0.98,0.05,1.46,0.15c0.48,0.1,0.92,0.25,1.34,0.43c0.42,0.19,0.8,0.41,1.14,0.67
		c0.34,0.26,0.63,0.56,0.86,0.89l-1.14,0.84c-0.14-0.22-0.33-0.43-0.56-0.65c-0.24-0.22-0.51-0.41-0.83-0.57
		c-0.32-0.16-0.66-0.3-1.04-0.4c-0.38-0.1-0.78-0.15-1.21-0.15c-0.87,0-1.66,0.16-2.35,0.47c-0.69,0.32-1.28,0.74-1.76,1.28
		c-0.48,0.54-0.85,1.16-1.1,1.87c-0.25,0.71-0.38,1.45-0.38,2.23c0,0.78,0.13,1.53,0.39,2.24c0.26,0.71,0.63,1.33,1.11,1.87
		c0.48,0.54,1.07,0.96,1.76,1.28c0.69,0.32,1.47,0.47,2.33,0.47c0.77,0,1.51-0.16,2.21-0.48c0.7-0.32,1.28-0.82,1.75-1.52
		L133.4,332.93z"/>
	<path class="st0" d="M140.94,329.36c0-0.77-0.2-1.34-0.61-1.72c-0.41-0.38-1-0.57-1.77-0.57c-0.53,0-1.03,0.1-1.48,0.28
		c-0.46,0.19-0.84,0.45-1.16,0.76l-0.72-0.86c0.37-0.37,0.85-0.67,1.45-0.91c0.6-0.24,1.28-0.36,2.04-0.36
		c0.48,0,0.93,0.07,1.35,0.2c0.42,0.13,0.79,0.33,1.1,0.6c0.32,0.27,0.56,0.6,0.74,1.01c0.18,0.4,0.27,0.88,0.27,1.43v3.9
		c0,0.34,0.01,0.7,0.04,1.07c0.03,0.37,0.06,0.68,0.11,0.93h-1.16c-0.04-0.22-0.07-0.45-0.1-0.7c-0.03-0.25-0.04-0.5-0.04-0.74
		h-0.04c-0.4,0.6-0.86,1.02-1.38,1.28c-0.51,0.26-1.13,0.39-1.85,0.39c-0.34,0-0.7-0.05-1.06-0.14s-0.69-0.25-0.99-0.47
		c-0.3-0.22-0.54-0.5-0.74-0.84c-0.2-0.34-0.29-0.76-0.29-1.26c0-0.69,0.17-1.23,0.52-1.63c0.35-0.4,0.82-0.7,1.4-0.9
		c0.58-0.2,1.25-0.32,2.01-0.38c0.76-0.06,1.54-0.09,2.35-0.09V329.36z M140.57,330.67c-0.53,0-1.07,0.02-1.61,0.07
		c-0.54,0.04-1.03,0.13-1.46,0.27c-0.44,0.13-0.8,0.33-1.07,0.58c-0.28,0.25-0.42,0.59-0.42,1.01c0,0.32,0.06,0.58,0.18,0.8
		c0.12,0.22,0.28,0.39,0.49,0.52c0.2,0.13,0.43,0.23,0.67,0.29c0.25,0.06,0.5,0.09,0.75,0.09c0.46,0,0.86-0.08,1.22-0.24
		c0.35-0.16,0.65-0.37,0.89-0.65c0.24-0.27,0.42-0.59,0.55-0.94c0.13-0.35,0.19-0.73,0.19-1.12v-0.66H140.57z"/>
	<path class="st0" d="M146.65,326.22c0.02,0.24,0.04,0.51,0.06,0.8c0.01,0.29,0.02,0.53,0.02,0.72h0.04
		c0.25-0.52,0.67-0.94,1.24-1.26c0.57-0.32,1.17-0.49,1.81-0.49c1.13,0,1.97,0.34,2.54,1.01c0.56,0.67,0.85,1.56,0.85,2.66v5.46
		h-1.29v-4.92c0-0.47-0.04-0.89-0.11-1.27c-0.08-0.38-0.21-0.71-0.39-0.98c-0.18-0.27-0.43-0.49-0.74-0.64
		c-0.31-0.15-0.7-0.23-1.17-0.23c-0.34,0-0.68,0.07-1,0.21c-0.32,0.14-0.61,0.35-0.86,0.64c-0.25,0.29-0.46,0.65-0.61,1.08
		c-0.15,0.44-0.23,0.95-0.23,1.55v4.56h-1.29v-6.94c0-0.24-0.01-0.55-0.02-0.93c-0.01-0.38-0.03-0.72-0.06-1.03H146.65z"/>
	<path class="st0" d="M162.14,329.36c0-0.77-0.2-1.34-0.61-1.72c-0.41-0.38-1-0.57-1.77-0.57c-0.53,0-1.03,0.1-1.48,0.28
		c-0.46,0.19-0.84,0.45-1.16,0.76l-0.72-0.86c0.37-0.37,0.85-0.67,1.45-0.91c0.6-0.24,1.28-0.36,2.05-0.36
		c0.48,0,0.93,0.07,1.35,0.2c0.42,0.13,0.78,0.33,1.1,0.6c0.32,0.27,0.56,0.6,0.74,1.01s0.27,0.88,0.27,1.43v3.9
		c0,0.34,0.01,0.7,0.04,1.07c0.03,0.37,0.06,0.68,0.11,0.93h-1.16c-0.04-0.22-0.07-0.45-0.1-0.7c-0.02-0.25-0.04-0.5-0.04-0.74
		h-0.04c-0.4,0.6-0.87,1.02-1.38,1.28c-0.51,0.26-1.13,0.39-1.85,0.39c-0.34,0-0.69-0.05-1.06-0.14c-0.36-0.1-0.69-0.25-0.99-0.47
		c-0.3-0.22-0.55-0.5-0.74-0.84c-0.2-0.34-0.29-0.76-0.29-1.26c0-0.69,0.17-1.23,0.52-1.63c0.35-0.4,0.82-0.7,1.4-0.9
		c0.58-0.2,1.25-0.32,2.01-0.38c0.76-0.06,1.54-0.09,2.35-0.09V329.36z M161.76,330.67c-0.53,0-1.07,0.02-1.61,0.07
		c-0.54,0.04-1.03,0.13-1.46,0.27c-0.44,0.13-0.8,0.33-1.07,0.58c-0.28,0.25-0.42,0.59-0.42,1.01c0,0.32,0.06,0.58,0.18,0.8
		c0.12,0.22,0.28,0.39,0.49,0.52c0.2,0.13,0.43,0.23,0.67,0.29c0.25,0.06,0.5,0.09,0.75,0.09c0.46,0,0.86-0.08,1.22-0.24
		c0.35-0.16,0.65-0.37,0.89-0.65c0.24-0.27,0.42-0.59,0.55-0.94c0.13-0.35,0.19-0.73,0.19-1.12v-0.66H161.76z"/>
	<path class="st0" d="M166.67,327.24c-0.01-0.38-0.03-0.72-0.06-1.03h1.24c0.02,0.24,0.04,0.51,0.06,0.8
		c0.01,0.29,0.02,0.53,0.02,0.72h0.04c0.25-0.52,0.63-0.94,1.14-1.26c0.51-0.32,1.08-0.48,1.71-0.48c0.16,0,0.31,0.01,0.45,0.02
		c0.13,0.01,0.27,0.04,0.41,0.08l-0.17,1.24c-0.08-0.02-0.2-0.05-0.38-0.08c-0.18-0.02-0.35-0.04-0.53-0.04
		c-0.34,0-0.67,0.06-0.99,0.19c-0.32,0.13-0.59,0.33-0.83,0.6c-0.23,0.27-0.42,0.62-0.57,1.04c-0.15,0.42-0.22,0.93-0.22,1.53v4.55
		h-1.29v-6.94C166.69,327.94,166.68,327.63,166.67,327.24"/>
	<path class="st0" d="M175.11,322.8c0,0.27-0.1,0.48-0.29,0.66c-0.19,0.17-0.4,0.26-0.63,0.26c-0.23,0-0.44-0.09-0.63-0.26
		c-0.19-0.17-0.28-0.39-0.28-0.66c0-0.27,0.1-0.48,0.28-0.65c0.19-0.17,0.4-0.26,0.63-0.26c0.23,0,0.44,0.09,0.63,0.26
		C175.01,322.31,175.11,322.53,175.11,322.8 M174.84,335.11h-1.29v-8.9h1.29V335.11z"/>
	<path class="st0" d="M183.89,329.36c0-0.77-0.2-1.34-0.61-1.72c-0.41-0.38-1-0.57-1.77-0.57c-0.53,0-1.03,0.1-1.48,0.28
		c-0.46,0.19-0.84,0.45-1.16,0.76l-0.72-0.86c0.37-0.37,0.85-0.67,1.45-0.91c0.6-0.24,1.28-0.36,2.04-0.36
		c0.48,0,0.93,0.07,1.35,0.2c0.42,0.13,0.79,0.33,1.1,0.6c0.32,0.27,0.56,0.6,0.74,1.01c0.18,0.4,0.27,0.88,0.27,1.43v3.9
		c0,0.34,0.01,0.7,0.04,1.07c0.03,0.37,0.06,0.68,0.11,0.93h-1.16c-0.04-0.22-0.07-0.45-0.1-0.7c-0.03-0.25-0.04-0.5-0.04-0.74
		h-0.04c-0.4,0.6-0.86,1.02-1.38,1.28c-0.51,0.26-1.13,0.39-1.85,0.39c-0.34,0-0.69-0.05-1.06-0.14c-0.36-0.1-0.69-0.25-0.99-0.47
		c-0.3-0.22-0.54-0.5-0.74-0.84c-0.2-0.34-0.29-0.76-0.29-1.26c0-0.69,0.17-1.23,0.52-1.63c0.35-0.4,0.82-0.7,1.4-0.9
		c0.58-0.2,1.25-0.32,2.01-0.38c0.75-0.06,1.54-0.09,2.35-0.09V329.36z M183.51,330.67c-0.53,0-1.07,0.02-1.61,0.07
		c-0.54,0.04-1.03,0.13-1.46,0.27c-0.44,0.13-0.8,0.33-1.07,0.58c-0.28,0.25-0.42,0.59-0.42,1.01c0,0.32,0.06,0.58,0.18,0.8
		c0.12,0.22,0.28,0.39,0.49,0.52c0.2,0.13,0.43,0.23,0.67,0.29c0.25,0.06,0.5,0.09,0.75,0.09c0.46,0,0.86-0.08,1.22-0.24
		c0.35-0.16,0.65-0.37,0.89-0.65c0.24-0.27,0.42-0.59,0.55-0.94c0.13-0.35,0.19-0.73,0.19-1.12v-0.66H183.51z"/>
	<path class="st0" d="M200.51,333.61c-0.38,0.57-0.87,1-1.48,1.29c-0.61,0.29-1.23,0.44-1.88,0.44c-0.7,0-1.33-0.12-1.89-0.36
		c-0.56-0.24-1.05-0.57-1.45-0.99c-0.4-0.42-0.71-0.91-0.93-1.48c-0.22-0.57-0.33-1.18-0.33-1.84c0-0.66,0.11-1.27,0.33-1.85
		c0.22-0.57,0.53-1.06,0.93-1.48c0.4-0.42,0.88-0.75,1.45-0.99c0.56-0.24,1.19-0.36,1.89-0.36c0.65,0,1.27,0.15,1.88,0.45
		c0.61,0.3,1.1,0.74,1.48,1.32h0.04v-7.02h1.29v14.37h-1.29v-1.5H200.51z M193.91,330.67c0,0.49,0.08,0.96,0.23,1.4
		c0.15,0.44,0.37,0.82,0.65,1.14c0.29,0.32,0.64,0.58,1.06,0.76c0.42,0.18,0.89,0.27,1.43,0.27c0.49,0,0.95-0.09,1.37-0.27
		c0.42-0.18,0.78-0.43,1.08-0.75c0.3-0.32,0.54-0.69,0.71-1.13c0.17-0.44,0.26-0.91,0.26-1.41c0-0.51-0.08-0.98-0.26-1.42
		c-0.17-0.44-0.41-0.82-0.71-1.14c-0.3-0.32-0.67-0.58-1.08-0.76c-0.42-0.18-0.87-0.28-1.37-0.28c-0.53,0-1.01,0.1-1.43,0.28
		c-0.42,0.19-0.77,0.45-1.06,0.77c-0.29,0.32-0.5,0.7-0.65,1.14C193.99,329.71,193.91,330.17,193.91,330.67"/>
	<path class="st0" d="M213.39,330.4v0.29c0,0.1-0.01,0.21-0.02,0.32H206c0.01,0.44,0.1,0.86,0.27,1.25
		c0.16,0.39,0.39,0.74,0.68,1.03c0.29,0.29,0.63,0.52,1.03,0.69c0.39,0.17,0.82,0.26,1.27,0.26c0.67,0,1.25-0.15,1.74-0.47
		c0.49-0.31,0.86-0.67,1.11-1.07l0.97,0.76c-0.53,0.67-1.12,1.15-1.76,1.45c-0.64,0.29-1.33,0.44-2.06,0.44
		c-0.66,0-1.27-0.12-1.84-0.35c-0.56-0.23-1.05-0.56-1.45-0.98c-0.41-0.42-0.73-0.91-0.96-1.48c-0.23-0.57-0.35-1.19-0.35-1.86
		c0-0.67,0.11-1.29,0.34-1.86c0.23-0.57,0.54-1.07,0.95-1.48s0.88-0.74,1.43-0.98c0.54-0.23,1.13-0.35,1.77-0.35
		c0.7,0,1.31,0.12,1.84,0.35c0.53,0.24,0.98,0.55,1.33,0.95c0.35,0.4,0.62,0.87,0.81,1.4C213.3,329.22,213.39,329.79,213.39,330.4
		 M212.08,329.98c-0.04-0.84-0.31-1.53-0.81-2.08c-0.5-0.55-1.21-0.83-2.14-0.83c-0.43,0-0.83,0.08-1.2,0.24
		c-0.37,0.16-0.69,0.38-0.97,0.65c-0.28,0.27-0.5,0.58-0.67,0.93c-0.17,0.35-0.26,0.71-0.29,1.09H212.08z"/>
	<polygon class="st0" points="227.65,332.79 227.67,332.79 232.18,321.65 234.27,321.65 234.27,335.11 232.9,335.11 232.9,323.42 
		232.86,323.42 228,335.11 227.27,335.11 222.41,323.42 222.37,323.42 222.37,335.11 221,335.11 221,321.65 223.09,321.65 	"/>
	<path class="st0" d="M244.23,335.12c-0.03-0.24-0.04-0.51-0.06-0.8c-0.01-0.29-0.02-0.53-0.02-0.72h-0.04
		c-0.25,0.52-0.67,0.94-1.24,1.26c-0.57,0.32-1.17,0.49-1.81,0.49c-1.13,0-1.97-0.33-2.54-1.01c-0.56-0.67-0.85-1.56-0.85-2.66
		v-5.46h1.29v4.92c0,0.47,0.04,0.89,0.11,1.27s0.21,0.71,0.39,0.98c0.18,0.27,0.43,0.49,0.74,0.64c0.31,0.15,0.7,0.23,1.17,0.23
		c0.34,0,0.67-0.07,1-0.21s0.61-0.35,0.86-0.64c0.25-0.29,0.46-0.65,0.61-1.08c0.15-0.44,0.23-0.95,0.23-1.55v-4.56h1.29v6.94
		c0,0.24,0.01,0.55,0.02,0.93c0.01,0.38,0.03,0.72,0.06,1.03H244.23z"/>
	<path class="st0" d="M249.97,326.22c0.02,0.24,0.04,0.51,0.06,0.8c0.01,0.29,0.02,0.53,0.02,0.72h0.04
		c0.25-0.52,0.67-0.94,1.24-1.26c0.57-0.32,1.17-0.49,1.81-0.49c1.13,0,1.97,0.34,2.54,1.01c0.56,0.67,0.85,1.56,0.85,2.66v5.46
		h-1.29v-4.92c0-0.47-0.04-0.89-0.11-1.27c-0.08-0.38-0.21-0.71-0.39-0.98c-0.18-0.27-0.43-0.49-0.74-0.64
		c-0.31-0.15-0.7-0.23-1.17-0.23c-0.34,0-0.68,0.07-1,0.21c-0.32,0.14-0.61,0.35-0.86,0.64c-0.25,0.29-0.46,0.65-0.61,1.08
		c-0.15,0.44-0.23,0.95-0.23,1.55v4.56h-1.29v-6.94c0-0.24-0.01-0.55-0.02-0.93c-0.01-0.38-0.03-0.72-0.06-1.03H249.97z"/>
	<path class="st0" d="M261.43,322.8c0,0.27-0.1,0.48-0.29,0.66c-0.19,0.17-0.4,0.26-0.63,0.26c-0.23,0-0.44-0.09-0.63-0.26
		c-0.19-0.17-0.29-0.39-0.29-0.66c0-0.27,0.1-0.48,0.29-0.65c0.19-0.17,0.4-0.26,0.63-0.26c0.23,0,0.44,0.09,0.63,0.26
		C261.34,322.31,261.43,322.53,261.43,322.8 M261.17,335.11h-1.29v-8.9h1.29V335.11z"/>
	<path class="st0" d="M271.02,328.25c-0.22-0.34-0.53-0.62-0.94-0.85c-0.41-0.22-0.86-0.33-1.34-0.33c-0.52,0-0.99,0.09-1.41,0.28
		c-0.42,0.18-0.78,0.44-1.08,0.76c-0.3,0.32-0.52,0.7-0.68,1.14c-0.16,0.44-0.24,0.91-0.24,1.42c0,0.51,0.08,0.98,0.24,1.41
		c0.16,0.43,0.38,0.81,0.68,1.13c0.29,0.32,0.65,0.58,1.07,0.76c0.42,0.18,0.89,0.27,1.41,0.27c0.57,0,1.05-0.11,1.44-0.32
		c0.39-0.21,0.72-0.49,0.97-0.84l0.97,0.72c-0.38,0.47-0.85,0.84-1.4,1.12c-0.55,0.28-1.21,0.42-1.99,0.42
		c-0.72,0-1.38-0.12-1.96-0.35c-0.58-0.23-1.08-0.56-1.49-0.98c-0.41-0.42-0.73-0.91-0.96-1.48c-0.23-0.57-0.34-1.19-0.34-1.86
		c0-0.67,0.11-1.29,0.34-1.86c0.23-0.57,0.55-1.07,0.96-1.48c0.41-0.42,0.91-0.74,1.49-0.98c0.58-0.23,1.24-0.35,1.96-0.35
		c0.6,0,1.2,0.13,1.82,0.39c0.61,0.26,1.11,0.64,1.49,1.15L271.02,328.25z"/>
	<path class="st0" d="M275.69,322.8c0,0.27-0.1,0.48-0.29,0.66c-0.19,0.17-0.4,0.26-0.63,0.26c-0.23,0-0.44-0.09-0.63-0.26
		c-0.19-0.17-0.28-0.39-0.28-0.66c0-0.27,0.1-0.48,0.28-0.65c0.19-0.17,0.4-0.26,0.63-0.26c0.23,0,0.44,0.09,0.63,0.26
		C275.6,322.31,275.69,322.53,275.69,322.8 M275.43,335.11h-1.29v-8.9h1.29V335.11z"/>
	<path class="st0" d="M280.16,339.68h-1.29v-13.46h1.29v1.54h0.06c0.37-0.58,0.86-1.02,1.47-1.32c0.61-0.3,1.24-0.45,1.87-0.45
		c0.7,0,1.33,0.12,1.89,0.36c0.56,0.24,1.05,0.57,1.44,0.99c0.4,0.42,0.71,0.91,0.93,1.48c0.22,0.57,0.33,1.19,0.33,1.85
		c0,0.66-0.11,1.27-0.33,1.84c-0.22,0.57-0.53,1.07-0.93,1.48c-0.4,0.42-0.88,0.75-1.44,0.99c-0.57,0.24-1.2,0.36-1.89,0.36
		c-0.64,0-1.26-0.15-1.87-0.45c-0.61-0.3-1.11-0.73-1.47-1.28h-0.06V339.68z M286.79,330.67c0-0.49-0.08-0.96-0.23-1.4
		c-0.15-0.44-0.37-0.82-0.65-1.14c-0.29-0.32-0.64-0.58-1.06-0.77c-0.42-0.19-0.89-0.28-1.42-0.28c-0.49,0-0.95,0.09-1.37,0.28
		c-0.42,0.18-0.78,0.44-1.08,0.76c-0.3,0.32-0.54,0.7-0.71,1.14c-0.17,0.44-0.26,0.91-0.26,1.42c0,0.51,0.08,0.98,0.26,1.41
		c0.17,0.44,0.41,0.82,0.71,1.13c0.3,0.32,0.67,0.57,1.08,0.75c0.42,0.18,0.87,0.27,1.37,0.27c0.53,0,1.01-0.09,1.42-0.27
		c0.42-0.18,0.77-0.44,1.06-0.76s0.5-0.7,0.65-1.14C286.72,331.63,286.79,331.16,286.79,330.67"/>
	<path class="st0" d="M292.52,322.8c0,0.27-0.1,0.48-0.29,0.66c-0.19,0.17-0.4,0.26-0.63,0.26c-0.23,0-0.44-0.09-0.63-0.26
		c-0.19-0.17-0.29-0.39-0.29-0.66c0-0.27,0.1-0.48,0.29-0.65c0.19-0.17,0.4-0.26,0.63-0.26c0.23,0,0.44,0.09,0.63,0.26
		C292.42,322.31,292.52,322.53,292.52,322.8 M292.25,335.11h-1.29v-8.9h1.29V335.11z"/>
	<path class="st0" d="M304.53,330.67c0,0.67-0.12,1.29-0.35,1.86c-0.24,0.57-0.56,1.07-0.98,1.48c-0.42,0.42-0.92,0.75-1.5,0.98
		c-0.58,0.24-1.22,0.35-1.92,0.35c-0.68,0-1.32-0.12-1.9-0.35c-0.58-0.23-1.08-0.56-1.5-0.98c-0.42-0.42-0.74-0.91-0.98-1.48
		c-0.23-0.57-0.35-1.19-0.35-1.86c0-0.67,0.12-1.29,0.35-1.86c0.24-0.57,0.56-1.07,0.98-1.48c0.42-0.42,0.92-0.74,1.5-0.98
		c0.58-0.23,1.22-0.35,1.9-0.35c0.7,0,1.34,0.12,1.92,0.35c0.58,0.24,1.08,0.56,1.5,0.98s0.74,0.91,0.98,1.48
		C304.41,329.37,304.53,329.99,304.53,330.67 M303.16,330.67c0-0.49-0.08-0.96-0.24-1.4c-0.16-0.44-0.38-0.82-0.68-1.14
		c-0.29-0.32-0.65-0.58-1.07-0.77c-0.42-0.19-0.89-0.28-1.4-0.28c-0.52,0-0.99,0.1-1.4,0.28c-0.41,0.19-0.76,0.45-1.05,0.77
		c-0.29,0.32-0.52,0.7-0.68,1.14c-0.16,0.44-0.24,0.9-0.24,1.4c0,0.49,0.08,0.96,0.24,1.4c0.16,0.44,0.38,0.82,0.68,1.14
		c0.29,0.32,0.64,0.58,1.05,0.76c0.41,0.18,0.88,0.27,1.4,0.27c0.52,0,0.99-0.09,1.4-0.27c0.42-0.18,0.77-0.44,1.07-0.76
		c0.29-0.32,0.52-0.7,0.68-1.14C303.08,331.63,303.16,331.16,303.16,330.67"/>
	<path class="st0" d="M312.04,328.33c-0.19-0.37-0.48-0.67-0.87-0.9c-0.39-0.23-0.83-0.35-1.32-0.35c-0.23,0-0.46,0.03-0.68,0.08
		c-0.23,0.05-0.43,0.13-0.61,0.25c-0.18,0.12-0.32,0.26-0.43,0.44c-0.11,0.18-0.16,0.39-0.16,0.63c0,0.42,0.17,0.74,0.51,0.96
		c0.34,0.22,0.88,0.41,1.62,0.56c1.05,0.22,1.83,0.53,2.33,0.94c0.5,0.41,0.75,0.97,0.75,1.66c0,0.51-0.1,0.93-0.29,1.28
		c-0.2,0.35-0.45,0.64-0.77,0.86c-0.32,0.22-0.68,0.38-1.08,0.48c-0.4,0.1-0.8,0.14-1.21,0.14c-0.67,0-1.32-0.14-1.96-0.42
		c-0.63-0.28-1.15-0.72-1.56-1.31l1.03-0.76c0.23,0.39,0.56,0.72,1.01,0.99c0.44,0.27,0.93,0.4,1.46,0.4c0.28,0,0.54-0.02,0.8-0.08
		c0.25-0.05,0.48-0.14,0.67-0.27c0.19-0.13,0.34-0.29,0.46-0.49c0.11-0.19,0.17-0.44,0.17-0.73c0-0.47-0.22-0.82-0.68-1.06
		c-0.45-0.24-1.1-0.45-1.95-0.65c-0.27-0.06-0.55-0.14-0.85-0.24c-0.3-0.1-0.57-0.23-0.83-0.42c-0.26-0.18-0.46-0.41-0.63-0.69
		c-0.17-0.28-0.25-0.63-0.25-1.05c0-0.46,0.09-0.85,0.27-1.17c0.18-0.32,0.42-0.59,0.71-0.8c0.3-0.21,0.64-0.36,1.02-0.47
		c0.38-0.1,0.77-0.15,1.18-0.15c0.62,0,1.22,0.14,1.81,0.42c0.58,0.28,1.02,0.67,1.31,1.18L312.04,328.33z"/>
	<path class="st0" d="M101.1,163.88c-0.79,0.42-1.57,0.87-2.32,1.35c-0.25,0.16-0.49,0.34-0.74,0.51c-0.49,0.33-0.98,0.67-1.45,1.03
		c-0.28,0.22-0.55,0.45-0.83,0.68c-0.41,0.34-0.83,0.68-1.22,1.04c-0.28,0.26-0.55,0.53-0.82,0.79c-0.36,0.35-0.72,0.71-1.06,1.08
		c-0.42,0.46-0.83,0.92-1.23,1.4c-0.16,0.2-0.3,0.41-0.46,0.61c6.48,9.83,15,18.65,24.42,25.27
		c37.24,26.18,96.04,24.92,128.54-16.34c35.41-44.95,23.73-105.51-17.42-136.57c-46.86-35.38-96.8-19.91-117.6-6.83
		c-0.31,0.19-0.63,0.39-0.93,0.58c33.6-18.87,75.8-15.74,105.92,2.3c0.22,0.13,0.43,0.26,0.65,0.39c0.97,0.59,1.93,1.21,2.88,1.83
		c0.35,0.23,0.7,0.47,1.05,0.7c0.83,0.57,1.65,1.15,2.46,1.74c0.45,0.33,0.89,0.66,1.33,0.99c0.71,0.54,1.42,1.09,2.11,1.64
		c0.53,0.42,1.04,0.86,1.56,1.29c0.6,0.5,1.19,1.01,1.77,1.52c0.61,0.54,1.2,1.1,1.79,1.66c0.47,0.44,0.94,0.88,1.39,1.33
		c0.72,0.71,1.42,1.45,2.11,2.19c0.3,0.32,0.61,0.64,0.91,0.96c0.96,1.05,1.88,2.13,2.78,3.23c0.02,0.03,0.05,0.05,0.07,0.08
		c0.98,1.21,1.93,2.44,2.83,3.71c29.8,41.76,21.67,98.13-18.15,125.91c-34.54,24.09-79.51,14.63-106.77-11.58
		c-1.81-1.74-3.53-3.54-5.18-5.42c-2.89-3.3-5.28-6.51-7.25-9.57c0-0.01-0.01-0.01-0.01-0.02
		C101.86,163.52,101.47,163.68,101.1,163.88"/>
	<path class="st1" d="M75.56,176.81c-0.05-0.16-0.1-0.31-0.15-0.47c-0.49-1.42-0.93-2.82-1.28-4.22
		c-4.98-17.6-4.91-34.54,7.44-48.26c11.26-12.51,28.82-18.77,44.04-24.08c9.5-3.31,19.17-6.48,28.27-10.82
		c8.34-3.98,16.45-9.11,22.43-16.6c5.24-6.57,8.23-14.2,9.39-22.81c-0.19-1.19-0.39-2.38-0.62-3.58
		c-17.51,33.2-87.84,23.06-115.6,63.34c-11.65,16.91-10.72,40.23,7.01,72.18c2.71,4.68,5.81,8.94,8.47,12.3
		c-4.31-5.74-7.41-11.45-9.4-16.99C75.58,176.81,75.56,176.79,75.56,176.81"/>
	<path class="st2" d="M153.89,88.97c-9.1,4.34-18.78,7.51-28.27,10.82c-15.22,5.3-32.78,11.57-44.04,24.08
		c-12.35,13.71-12.42,30.65-7.44,48.26c-6.22-24.72,9.74-45.28,37.52-49.52c1.58-0.24,3.16-0.41,4.74-0.55
		c0.27-0.12,0.54-0.24,0.81-0.35c0.59-0.25,1.18-0.48,1.77-0.73c0.43-0.17,0.85-0.35,1.27-0.52c0.62-0.24,1.24-0.48,1.86-0.71
		c0.41-0.16,0.81-0.32,1.22-0.47c0.66-0.25,1.32-0.49,1.99-0.73c0.37-0.13,0.73-0.27,1.1-0.4c0.72-0.26,1.45-0.51,2.17-0.75
		c0.31-0.11,0.63-0.22,0.94-0.33c0.82-0.28,1.63-0.55,2.45-0.82c0.21-0.07,0.43-0.15,0.65-0.22c0.95-0.31,1.9-0.62,2.85-0.92
		c0.08-0.02,0.16-0.05,0.23-0.08c6.22-1.99,12.33-3.8,17.99-5.66c0.38-0.12,0.74-0.26,1.11-0.39c0.58-0.2,1.17-0.4,1.73-0.61
		c0.42-0.16,0.82-0.33,1.23-0.49c0.5-0.2,1-0.39,1.49-0.6c0.41-0.17,0.79-0.36,1.19-0.54c0.46-0.21,0.93-0.42,1.38-0.63
		c0.39-0.19,0.76-0.39,1.14-0.58c0.43-0.22,0.87-0.44,1.28-0.67c0.37-0.2,0.72-0.41,1.08-0.62c0.4-0.23,0.81-0.47,1.2-0.71
		c0.35-0.21,0.68-0.44,1.02-0.66c0.38-0.25,0.76-0.49,1.12-0.74c0.33-0.23,0.64-0.46,0.95-0.69c0.35-0.26,0.71-0.52,1.05-0.78
		c0.31-0.24,0.6-0.48,0.9-0.72c0.33-0.27,0.66-0.54,0.98-0.82c0.28-0.25,0.56-0.5,0.83-0.75c0.31-0.28,0.61-0.57,0.9-0.85
		c0.26-0.26,0.52-0.52,0.78-0.79c0.28-0.29,0.56-0.59,0.84-0.89c0.24-0.27,0.48-0.54,0.72-0.82c0.26-0.3,0.52-0.61,0.77-0.92
		c0.23-0.28,0.45-0.56,0.66-0.84c0.24-0.32,0.48-0.63,0.71-0.95c0.21-0.29,0.41-0.57,0.61-0.86c0.22-0.33,0.43-0.65,0.64-0.98
		c0.19-0.3,0.38-0.59,0.56-0.89c0.2-0.34,0.39-0.67,0.58-1.02c0.17-0.3,0.34-0.61,0.5-0.91c0.18-0.34,0.35-0.69,0.52-1.04
		c0.15-0.31,0.3-0.62,0.45-0.94c0.16-0.35,0.31-0.71,0.47-1.07c0.14-0.32,0.27-0.63,0.4-0.95c0.14-0.37,0.28-0.74,0.41-1.11
		c0.12-0.32,0.24-0.64,0.35-0.97c0.13-0.38,0.24-0.76,0.36-1.14c0.1-0.33,0.21-0.65,0.3-0.98c0.11-0.39,0.21-0.79,0.31-1.18
		c0.08-0.32,0.17-0.65,0.25-0.98c0.1-0.41,0.18-0.83,0.27-1.24c0.07-0.32,0.14-0.63,0.2-0.95c0.08-0.45,0.15-0.9,0.23-1.35
		c0.05-0.3,0.1-0.59,0.15-0.89c0.09-0.64,0.17-1.29,0.24-1.93c0.04-0.36,0.07-0.73,0.11-1.09c0.05-0.5,0.1-1.01,0.13-1.52
		c0.02-0.34,0.04-0.68,0.05-1.02c0.02-0.43,0.05-0.87,0.06-1.31c0.01-0.37,0.01-0.75,0.02-1.12c0.01-0.41,0.02-0.82,0.02-1.23
		c0-0.39-0.01-0.78-0.02-1.17c-0.01-0.4-0.01-0.81-0.02-1.22c-0.01-0.39-0.03-0.79-0.05-1.18c-0.02-0.41-0.04-0.82-0.06-1.23
		c-0.02-0.4-0.06-0.8-0.09-1.2c-0.03-0.41-0.06-0.82-0.1-1.23c-0.04-0.4-0.08-0.81-0.12-1.22c-0.04-0.41-0.08-0.82-0.13-1.22
		c-0.05-0.41-0.1-0.82-0.15-1.23c-0.05-0.41-0.11-0.82-0.16-1.23c-0.06-0.41-0.12-0.83-0.18-1.24c-0.04-0.24-0.07-0.49-0.11-0.73
		c0,0.01,0,0.01,0,0.02c-1.16,8.61-4.16,16.25-9.39,22.81C170.34,79.86,162.23,84.99,153.89,88.97"/>
	<path class="st3" d="M252.63,65.21c-33.87-47.46-100.25-58.79-148.25-25.3c-2.72,1.9-5.32,3.91-7.81,6
		c3.95-3.04,8.08-5.69,12.34-8.01c20.79-13.08,70.74-28.55,117.6,6.82c41.15,31.07,52.83,91.63,17.42,136.57
		c-32.5,41.25-91.3,42.52-128.54,16.34c-9.42-6.62-17.93-15.44-24.42-25.27c-0.17,0.23-0.35,0.46-0.52,0.69
		c-0.2,0.27-0.41,0.54-0.6,0.82c-0.36,0.53-0.68,1.09-1,1.64c-0.12,0.2-0.25,0.39-0.36,0.6c-0.41,0.76-0.79,1.55-1.12,2.34
		c-0.08,0.18-0.13,0.38-0.21,0.57c-0.24,0.62-0.47,1.24-0.66,1.87c-0.09,0.3-0.15,0.6-0.23,0.91c-0.13,0.53-0.27,1.06-0.37,1.6
		c-0.06,0.34-0.09,0.69-0.14,1.03c-0.07,0.51-0.13,1.02-0.16,1.54c-0.02,0.36-0.02,0.73-0.02,1.09c0,0.51,0,1.01,0.03,1.53
		c0.02,0.38,0.07,0.75,0.11,1.13c0.06,0.51,0.13,1.02,0.23,1.52c0.44,2.33,1.26,4.68,2.57,7c-0.03-0.03-0.06-0.07-0.09-0.1
		c0.01,0.01,0.02,0.03,0.02,0.05c0.47,0.49,0.97,0.96,1.45,1.44c0.46,0.46,0.92,0.93,1.38,1.38c35.99,34.79,93.14,40.5,135.74,10.79
		C275.05,178.3,286.5,112.68,252.63,65.21"/>
	<path class="st4" d="M85.96,191.24c0.03,0.18,0.04,0.36,0.08,0.54l0.05,0.22c-3.22-6.13-5.43-12.84-5.5-19.65
		c-0.06-6.88,2.1-13.33,6.68-18.61c3.29-3.79,7.55-6.66,12.29-8.56c0.97-0.39,1.97-0.75,2.97-1.07c7.73-2.46,16.1-2.76,24.2-2.41
		c8.94,0.39,17.85,1.57,26.76,2.35c10,0.87,20.23,1.31,30.13-0.42c12.67-2.21,22.88-7.68,31.37-16.59c0.39-0.93,0.77-1.89,1.15-2.87
		c-27.49,15.39-64.11-5.29-99.75-2.11c-1.58,0.14-3.16,0.31-4.74,0.55c-27.78,4.23-43.75,24.79-37.52,49.52
		c0.35,1.39,0.78,2.8,1.28,4.22c0.05,0.16,0.12,0.31,0.17,0.47c1.99,5.54,5.09,11.25,9.4,16.99c1.08,1.44,2.22,2.89,3.46,4.34
		c0.03,0.03,0.06,0.07,0.09,0.1C87.22,195.92,86.4,193.58,85.96,191.24"/>
	<path class="st5" d="M215,127.03c-0.01,0.02-0.02,0.03-0.02,0.05c-0.58,1.38-1.18,2.7-1.79,3.98c-0.13,0.28-0.27,0.56-0.4,0.84
		c-0.6,1.23-1.22,2.42-1.85,3.55c-0.11,0.2-0.23,0.4-0.34,0.6c-0.59,1.04-1.19,2.03-1.8,2.99c-0.1,0.16-0.21,0.33-0.31,0.49
		c-0.67,1.03-1.36,2-2.05,2.94c-0.16,0.21-0.32,0.42-0.47,0.63c-0.71,0.93-1.43,1.83-2.16,2.67c-0.07,0.08-0.14,0.16-0.21,0.24
		c-0.7,0.79-1.4,1.54-2.12,2.26c-0.15,0.15-0.3,0.31-0.45,0.46c-0.75,0.74-1.52,1.43-2.29,2.1c-0.16,0.14-0.32,0.27-0.48,0.4
		c-0.76,0.63-1.53,1.23-2.31,1.8c-0.06,0.04-0.11,0.08-0.17,0.12c-0.82,0.59-1.65,1.13-2.49,1.64c-0.18,0.11-0.36,0.22-0.54,0.33
		c-0.83,0.49-1.66,0.96-2.51,1.39c-0.14,0.07-0.27,0.13-0.41,0.2c-0.79,0.39-1.59,0.76-2.4,1.1c-0.13,0.06-0.27,0.12-0.4,0.17
		c-0.87,0.36-1.75,0.69-2.63,0.99c-0.19,0.07-0.38,0.13-0.57,0.19c-0.9,0.3-1.8,0.57-2.71,0.82c-0.06,0.02-0.12,0.03-0.19,0.05
		c-0.88,0.23-1.77,0.44-2.66,0.62c-0.18,0.04-0.35,0.08-0.53,0.11c-0.91,0.18-1.83,0.35-2.76,0.49c-0.18,0.03-0.36,0.05-0.54,0.08
		c-0.9,0.13-1.8,0.24-2.7,0.34c-0.07,0.01-0.14,0.02-0.21,0.02c-0.96,0.1-1.91,0.17-2.88,0.23c-0.2,0.01-0.4,0.02-0.6,0.04
		c-0.95,0.05-1.9,0.09-2.85,0.11c-0.14,0-0.28,0-0.42,0.01c-0.89,0.02-1.79,0.02-2.69,0.01c-0.15,0-0.3,0-0.44,0
		c-0.96-0.01-1.93-0.04-2.9-0.07c-0.2-0.01-0.4-0.01-0.6-0.02c-0.98-0.04-1.95-0.08-2.93-0.14c-0.05,0-0.1-0.01-0.15-0.01
		c-0.95-0.06-1.91-0.12-2.86-0.19c-0.19-0.01-0.39-0.03-0.58-0.04c-0.96-0.07-1.92-0.15-2.88-0.23c-0.19-0.02-0.38-0.03-0.57-0.05
		c-0.91-0.08-1.81-0.16-2.71-0.24c-0.1-0.01-0.2-0.02-0.3-0.03c-1.06-0.1-2.12-0.2-3.18-0.3c-1.05-0.1-2.1-0.2-3.15-0.29
		c-0.09-0.01-0.17-0.02-0.26-0.02c-0.93-0.09-1.85-0.17-2.77-0.25c-0.14-0.01-0.28-0.02-0.43-0.04c-0.94-0.08-1.88-0.15-2.82-0.22
		l-0.56-0.04c-0.96-0.07-1.93-0.13-2.89-0.18h-0.02c-0.93-0.05-1.86-0.09-2.78-0.12c-0.18-0.01-0.36-0.01-0.53-0.02
		c-0.91-0.03-1.81-0.04-2.7-0.04c-0.15,0-0.3,0-0.46,0c-0.85,0-1.69,0.01-2.53,0.04c-0.07,0-0.14,0-0.21,0c-0.03,0-0.05,0-0.07,0
		c-0.76,0.03-1.52,0.07-2.27,0.12c-0.18,0.01-0.37,0.03-0.55,0.04c-0.59,0.05-1.18,0.1-1.76,0.16c-0.2,0.02-0.4,0.04-0.59,0.06
		c-0.74,0.09-1.46,0.18-2.19,0.3c-0.07,0.01-0.13,0.02-0.2,0.04c-0.65,0.11-1.3,0.23-1.94,0.36c-0.2,0.04-0.4,0.09-0.6,0.13
		c-0.57,0.13-1.13,0.27-1.69,0.42c-0.14,0.04-0.29,0.07-0.43,0.11c-0.68,0.19-1.35,0.4-2.01,0.63c-0.16,0.05-0.31,0.11-0.46,0.17
		c-0.52,0.19-1.04,0.39-1.55,0.61c-0.18,0.08-0.37,0.15-0.55,0.23c-0.26,0.12-0.51,0.25-0.77,0.37v0c-0.38,0.18-0.76,0.35-1.13,0.54
		c-0.79,0.42-1.56,0.87-2.32,1.35c-0.25,0.16-0.49,0.34-0.74,0.51c-0.49,0.33-0.98,0.67-1.45,1.03c-0.28,0.22-0.55,0.45-0.83,0.68
		c-0.41,0.34-0.83,0.68-1.22,1.04c-0.28,0.25-0.55,0.53-0.82,0.79c-0.36,0.35-0.72,0.71-1.06,1.08c-0.42,0.46-0.83,0.92-1.23,1.4
		c-0.16,0.2-0.3,0.41-0.46,0.61c-0.18,0.23-0.35,0.46-0.52,0.69c-0.2,0.27-0.41,0.54-0.6,0.82c-0.36,0.53-0.68,1.09-1,1.64
		c-0.12,0.2-0.25,0.39-0.36,0.6c-0.41,0.76-0.79,1.55-1.12,2.34c-0.08,0.18-0.13,0.38-0.21,0.56c-0.24,0.62-0.47,1.24-0.66,1.87
		c-0.09,0.3-0.15,0.61-0.23,0.91c-0.13,0.53-0.27,1.06-0.37,1.6c-0.06,0.34-0.1,0.69-0.14,1.03c-0.07,0.51-0.13,1.02-0.16,1.54
		c-0.02,0.36-0.02,0.73-0.02,1.09c0,0.51,0,1.01,0.03,1.53c0.02,0.38,0.07,0.75,0.11,1.13c0.06,0.51,0.13,1.02,0.23,1.52
		c0.03,0.18,0.04,0.36,0.08,0.54l0.05,0.22c-3.22-6.13-5.43-12.83-5.5-19.65c-0.06-6.88,2.1-13.33,6.68-18.61
		c3.29-3.79,7.55-6.66,12.29-8.56c0.98-0.39,1.97-0.75,2.97-1.07c7.73-2.46,16.11-2.76,24.2-2.41c8.94,0.39,17.85,1.57,26.77,2.35
		c9.99,0.87,20.23,1.31,30.13-0.42C196.29,141.42,206.5,135.94,215,127.03C214.99,127.03,215,127.03,215,127.03"/>
</g>
</svg>
