<?xml version="1.0" encoding="UTF-8"?><svg id="Capa_2" xmlns="http://www.w3.org/2000/svg" viewBox="0 0 280.71 105.43"><defs><style>.cls-1{fill:none;}.cls-2{fill:#ff6b00;}.cls-3{fill:#009ade;}.cls-4{fill:#b1b1b1;}.cls-5{fill:#212721;}</style></defs><g id="Capa_1-2"><g><rect class="cls-1" width="280.71" height="105.43"/><g><g><path class="cls-5" d="M94.8,52.3h-3.78V26.37h3.78v25.93Z"/><path class="cls-5" d="M105.99,52.3h-3.78V26.37h3.66l11.8,18.89V26.37h3.78v25.93h-3.7l-11.76-18.89v18.89Z"/><path class="cls-5" d="M127.28,50.51l1.14-3.46c1.98,1.38,4.27,2.08,6.88,2.08,1.76,0,3.16-.32,4.17-.96s1.53-1.59,1.53-2.87c0-.38-.06-.73-.16-1.06-.11-.33-.31-.62-.59-.9s-.55-.49-.79-.67-.61-.37-1.1-.57c-.49-.2-.89-.37-1.2-.49-.31-.12-.79-.29-1.42-.49-.64-.2-1.11-.36-1.4-.47-.92-.35-1.99-.83-3.21-1.42-1.03-.51-1.86-1.3-2.48-2.34-.63-1.04-.94-2.27-.94-3.68,0-2.39,.84-4.18,2.52-5.37,1.71-1.22,3.8-1.83,6.27-1.83,2.99,0,5.47,.72,7.45,2.16l-1.1,3.46c-1.85-1.36-3.95-2.04-6.31-2.04-1.55,0-2.77,.29-3.66,.88-.9,.58-1.34,1.44-1.34,2.58,0,1.93,1.56,3.38,4.68,4.36,1.03,.3,1.83,.54,2.4,.71,.57,.18,1.32,.49,2.24,.94,.92,.45,1.63,.91,2.12,1.38,.49,.47,.93,1.12,1.32,1.93s.58,1.71,.55,2.69c0,2.52-.94,4.44-2.81,5.74-1.85,1.28-4.1,1.91-6.76,1.91-3.17,0-5.83-.73-7.98-2.2Z"/><path class="cls-5" d="M154.67,52.3h-3.79V26.37h3.79v25.93Z"/><path class="cls-5" d="M168.51,29.91h-8.3v-3.54h20.43v3.54h-8.3v22.39h-3.83V29.91Z"/><path class="cls-5" d="M201.93,40.62h-12.21v8.14h13.84v3.54h-17.62V26.37h17.62v3.54h-13.84v7.16h12.21v3.54Z"/><path class="cls-5" d="M212.55,39.44c0,3.36,.55,5.83,1.65,7.39s2.99,2.34,5.68,2.34c1.28,0,2.52-.17,3.75-.51,1.22-.34,2.18-.77,2.89-1.28l.57,3.54c-1.93,1.19-4.33,1.79-7.21,1.79-3.88,0-6.72-1.05-8.51-3.15-1.79-2.1-2.69-5.41-2.69-9.91s.9-7.98,2.69-10.26c1.79-2.28,4.6-3.42,8.43-3.42,2.5,0,4.87,.62,7.12,1.87l-.57,3.54c-2.04-1.22-4.26-1.83-6.68-1.83-2.58,0-4.41,.79-5.49,2.36-1.09,1.57-1.63,4.08-1.63,7.53Z"/><path class="cls-5" d="M254.31,52.3h-3.91l-2.48-6.39h-11.32l-2.48,6.39h-3.87l10.05-25.93h3.91l10.09,25.93Zm-7.73-9.97l-4.32-11.15-4.35,11.15h8.67Z"/></g><g><g><path class="cls-5" d="M93.52,78.56h-2.59v-14.62h2.59v14.62Z"/><path class="cls-5" d="M104.58,78.56h-2.56v-14.62h2.47l6.04,9.76v-9.76h2.59v14.62h-2.47l-6.06-9.74v9.74Z"/><path class="cls-5" d="M129.68,72.64h-2.75v-2.22h5.13v7.42c-1.07,.65-2.49,.98-4.24,.98-2.41,0-4.15-.59-5.22-1.78s-1.61-3.11-1.61-5.78c0-2.37,.56-4.22,1.67-5.54,1.11-1.32,2.8-1.97,5.05-1.97,1.59,0,3.03,.33,4.31,1l-.39,2.41c-.45-.29-1.04-.53-1.77-.71-.73-.19-1.43-.28-2.11-.28-1.48,0-2.54,.41-3.17,1.23-.63,.82-.94,2.14-.94,3.97,0,1.57,.26,2.78,.77,3.63,.62,.95,1.75,1.43,3.38,1.43,.5,0,1.13-.08,1.88-.25v-3.52Z"/><path class="cls-5" d="M149.38,72.25h-6.72v3.9h7.63v2.41h-10.19v-14.62h10.19v2.41h-7.63v3.49h6.72v2.41Z"/><path class="cls-5" d="M160.63,78.56h-2.56v-14.62h2.47l6.04,9.76v-9.76h2.59v14.62h-2.47l-6.06-9.74v9.74Z"/><path class="cls-5" d="M180.24,78.56h-2.59v-14.62h2.59v14.62Z"/><path class="cls-5" d="M198.01,72.25h-6.72v3.9h7.63v2.41h-10.19v-14.62h10.19v2.41h-7.63v3.49h6.72v2.41Z"/><path class="cls-5" d="M217.8,68.51c0,1.04-.28,1.93-.83,2.67-.55,.73-1.35,1.25-2.39,1.55l3.81,5.83h-2.95l-3.59-5.51h-2.59v5.51h-2.56v-14.62h5.58c3.68,0,5.51,1.52,5.51,4.56Zm-5.51-2.16h-3.02v4.29h3.02c1.95,0,2.93-.71,2.93-2.13,0-.74-.22-1.29-.67-1.63s-1.2-.52-2.26-.52Z"/><path class="cls-5" d="M237.55,71.3c0,2.28-.42,4.09-1.25,5.4-.91,1.42-2.53,2.13-4.86,2.13s-3.95-.71-4.86-2.13c-.82-1.32-1.22-3.12-1.22-5.4s.41-4.11,1.22-5.38c.89-1.44,2.51-2.16,4.86-2.16s3.99,.72,4.88,2.16c.82,1.27,1.23,3.06,1.23,5.38Zm-2.61,0c0-1.75-.23-3.05-.7-3.88s-1.4-1.25-2.79-1.25-2.32,.42-2.79,1.25c-.47,.83-.7,2.13-.7,3.88s.23,3.05,.7,3.88c.47,.83,1.4,1.25,2.79,1.25s2.39-.46,2.86-1.38c.42-.86,.64-2.11,.64-3.75Z"/><path class="cls-5" d="M244.67,77.52l.75-2.31c1.1,.79,2.38,1.18,3.81,1.18,.85,0,1.52-.16,2.03-.48s.76-.77,.76-1.36c0-.44-.18-.81-.53-1.12-.36-.31-.8-.54-1.32-.69-.52-.15-1.09-.34-1.71-.58-.62-.23-1.19-.49-1.71-.77-.52-.28-.96-.71-1.32-1.29s-.53-1.29-.53-2.12c0-1.41,.48-2.46,1.45-3.15,.98-.71,2.19-1.07,3.61-1.07,1.63,0,3.03,.42,4.2,1.27l-.77,2.34c-.98-.8-2.13-1.2-3.45-1.2-.73,0-1.31,.15-1.76,.44-.45,.29-.67,.71-.67,1.24,0,.95,.84,1.69,2.52,2.22,.63,.17,1.17,.33,1.6,.5,.43,.17,.91,.41,1.43,.73s.92,.73,1.18,1.25c.26,.51,.4,1.11,.4,1.79,0,1.5-.53,2.62-1.59,3.36-1.06,.76-2.34,1.13-3.86,1.13-1.8,0-3.31-.43-4.52-1.29Z"/></g><g><path class="cls-2" d="M39.28,48.05c-.69,1.37-1.81,3.61-2.5,4.98l-9.47,18.86c-.69,1.37-.2,1.82,1.08,1.02l20.19-12.72c1.29-.81,2.34-2.73,2.34-4.27V27.65c0-1.54-.56-1.68-1.25-.31l-10.39,20.71Z"/><path class="cls-4" d="M77.17,77c1.36,.82,1.16,1.49-.43,1.49H30.04c-1.6,0-1.79-.67-.43-1.49l21.32-12.83c1.36-.82,3.58-.82,4.94,0l21.32,12.83Z"/><path class="cls-3" d="M67.5,48.05c.69,1.37,1.81,3.61,2.5,4.98l9.47,18.86c.69,1.37,.2,1.82-1.08,1.02l-20.19-12.72c-1.29-.81-2.34-2.73-2.34-4.27V27.65c0-1.54,.56-1.68,1.25-.31l10.39,20.71Z"/></g></g></g></g></g></svg>