<?xml version="1.0" encoding="utf-8"?>
<!-- Generator: Adobe Illustrator 19.0.0, SVG Export Plug-In . SVG Version: 6.00 Build 0)  -->
<svg version="1.1" id="Capa_1" xmlns="http://www.w3.org/2000/svg" xmlns:xlink="http://www.w3.org/1999/xlink" x="0px" y="0px"
	 viewBox="0 0 595.3 420.9" style="enable-background:new 0 0 595.3 420.9;" xml:space="preserve">
<style type="text/css">
	.st0{fill:#706F6F;}
	.st1{fill:#00A8E1;}
</style>
<g>
	<path id="XMLID_17_" class="st0" d="M132.4,232.5c0-3.3-2.7-2.1-2.7-2.1s-2.2-2.8-2.9-6.1c2.4-1.5,5.7-2.5,7.8-2.5
		c4.4,0,8.3,2.7,8.3,8.5V250c0,4.1,2.7,2.1,2.7,2.1c2.5,2.1,3.3,5.1,3.3,5.1s-2.6,4.1-8.4,4.1c-5.1,0-8.1-4.4-8.1-8.8V232.5z"/>
	<path id="XMLID_16_" class="st0" d="M174.5,237.2c0-5.3-2.2-7.2-5.5-7.2c-2.4,0-4.4,2.1-4.4,2.1v28.1c-2.7,0.8-4.6,0.9-5.9,0.9
		c-1.8,0-4.7-0.4-4.7-0.4v-28.2c0-3.3-2.7-2.1-2.7-2.1s-2.2-2.8-2.9-6.1c2.4-1.5,5.7-2.5,7.8-2.5c2.5,0,4.8,0.9,6.5,3.7
		c1.9-2.2,5.1-3.7,8.4-3.7c7.1,0,14.2,4.2,14.2,15.6V250c0,3.9,2.7,2.1,2.7,2.1c2.5,2.1,3.3,5.1,3.3,5.1s-2.8,4.2-8.6,4.2
		c-5.1,0-8.1-4.5-8.1-8.9V237.2z"/>
	<path id="XMLID_15_" class="st0" d="M197.4,230.5h-5.6c0,0-0.2-3.6,1.4-8.1h4.2V219c0-3.1-0.9-7.3-0.9-7.3
		c4.5-2.1,10.2-2.3,10.2-2.3s1.3,4,1.3,8.1v4.9h11.1c0,0,0.2,3.7-1.4,8.1H208v18.1c0,3.2,1.7,4.1,2.9,4.1c1.7,0,5.8-2.2,5.8-2.2
		c2.5,3.5,3,6.2,3,6.2c-0.7,0.8-5.3,4.7-11.1,4.7c-6.4,0-11.2-4.2-11.2-10.9V230.5z"/>
	<path class="st0" d="M240.7,261.4c-8,0-18.1-5.2-18.1-19.5c0-14.4,10.2-20.2,17.5-20.2c8.2,0,15.8,6.3,15.8,17.9
		c0,4.2-8.9,6.5-16.9,6.5c-1.7,0-3.3-0.1-5.3-0.5c0.7,6.9,4.6,8,7.7,8c3.6,0,6.4-3.5,6.9-4.6c4.7,0.1,7.6,2.8,7.6,2.8
		C254.5,255.7,249.2,261.4,240.7,261.4 M238.6,239c3.3,0,6.4-0.3,6.4-1.2c0-3.1-1.4-8.5-4.9-8.5c-3.9,0-6,3.6-6.4,9.3
		C235,238.8,236.8,239,238.6,239"/>
	<path id="XMLID_12_" class="st0" d="M264,209.7c0-3.3-2.7-2.1-2.7-2.1s-2.2-2.8-2.9-6.1c2.4-1.5,5.7-2.5,7.8-2.5
		c4.4,0,8.3,2.7,8.3,8.5V250c0,3.9,2.7,2.1,2.7,2.1c2.5,2.1,3.3,5.1,3.3,5.1s-2.6,4.1-8.4,4.1c-5.1,0-8.1-4.4-8.1-8.8V209.7z"/>
	<path class="st0" d="M301.8,261.4c-8,0-18.1-5.2-18.1-19.5c0-14.4,10.2-20.2,17.5-20.2c8.2,0,15.8,6.3,15.8,17.9
		c0,4.2-8.9,6.5-16.9,6.5c-1.7,0-3.3-0.1-5.3-0.5c0.7,6.9,4.6,8,7.7,8c3.6,0,6.4-3.5,7-4.6c4.7,0.1,7.6,2.8,7.6,2.8
		C315.6,255.7,310.3,261.4,301.8,261.4 M299.7,239c3.3,0,6.4-0.3,6.4-1.2c0-3.1-1.4-8.5-4.9-8.5c-3.9,0-6,3.6-6.4,9.3
		C296.1,238.8,297.9,239,299.7,239"/>
	<path class="st0" d="M346.7,258.8c-1.7,1.7-4.8,2.6-7.6,2.6c-6.7,0-16.5-5.5-16.5-20.2c0-13.7,10.1-19.6,17-19.6
		c3.2,0,5.8,1.3,7.5,2.6c0,0,0.6-1.4,0.7-1.4c2.5-0.7,3.5-0.8,4.8-0.8c1.9,0,4.7,0.4,4.7,0.4v48.7c0,3.9,2.7,2.1,2.7,2.1
		c2.5,2.1,3.3,5.1,3.3,5.1s-1.2,1.8-3.6,3.1c-1.3,0.6-2.8,1.1-4.7,1.1c-5.1,0-8.2-4.4-8.2-8.8V258.8z M346.7,231.5
		c-1.3-0.9-3-2.2-5.9-2.2c-4.3,0-7.3,4.6-7.3,12.5c0,8,3.1,11.4,7.5,11.4c2.8,0,5-1.6,5.7-2.1V231.5z"/>
	<path id="XMLID_7_" class="st0" d="M388.4,222.8c2.8-0.7,4.7-0.8,5.9-0.8c1.8,0,4.7,0.4,4.7,0.4V250c0,3.9,2.7,2.1,2.7,2.1
		c2.5,2.1,3.3,5.1,3.3,5.1c-0.3,0.5-2.9,4.2-8.1,4.2c-3.1,0-5.8-1.9-7-3.6c-1.3,1.7-3.8,3.6-8,3.6c-6.4,0-14.2-4.4-14.2-15.3v-13.7
		c0-3.3-2.7-2.1-2.7-2.1s-2.2-2.8-2.9-6.1c2.4-1.5,5.8-2.5,7.9-2.5c4.4,0,8.4,2.7,8.4,8.5v16.7c0,5.2,3.1,6.7,5.8,6.7
		c2.1,0,3.6-1.4,4-1.9V222.8z"/>
	<path id="XMLID_6_" class="st0" d="M412.1,232.5c0-3.3-2.7-2.1-2.7-2.1s-2.2-2.8-2.9-6.1c2.4-1.5,5.7-2.5,7.8-2.5
		c4.4,0,8.3,2.7,8.3,8.5V250c0,4.1,2.7,2.1,2.7,2.1c2.5,2.1,3.3,5.1,3.3,5.1s-2.6,4.1-8.4,4.1c-5.1,0-8.1-4.4-8.1-8.8V232.5z"/>
	<path class="st0" d="M462.4,250c0,3.9,2.7,2.1,2.7,2.1c2.5,2.1,3.3,5.1,3.3,5.1s-2.6,4.2-7.8,4.2c-2.3,0-5.1-0.7-7.4-3.6
		c-1.6,2-4.8,3.6-8.1,3.6c-6,0-12.9-3.2-12.9-12.8c0-9.2,8.3-13.1,15.3-13.1c1.3,0,3,0.3,4.3,0.7c-0.3-4.1-2-6.2-5.1-6.2
		c-2.5,0-5.3,0.9-8.4,3.3c-3.6-2.8-4.4-6.7-4.4-6.7c3.4-2.8,8.1-5,13.5-5c8.6,0,14.9,4.3,14.9,16.1V250z M451.8,242.9
		c-1.5-0.6-2.8-0.7-3.9-0.7c-3,0-5.4,2.1-5.4,6.2c0,3.5,2.6,5.3,4.9,5.3c2.1,0,3.5-0.6,4.4-1.4V242.9z"/>
	<path id="XMLID_3_" class="st0" d="M131.2,210.8c0-3.3,2.5-5.9,5.8-5.9c3.3,0,5.9,2.6,5.9,5.9c0,3.3-2.6,5.8-5.9,5.8
		C133.7,216.6,131.2,214.1,131.2,210.8"/>
	<path id="XMLID_2_" class="st0" d="M410.3,209.2c0-3.3,2.5-5.9,5.8-5.9c3.3,0,5.9,2.6,5.9,5.9c0,3.3-2.6,5.8-5.9,5.8
		C412.8,215,410.3,212.5,410.3,209.2"/>
	<g>
		<path id="XMLID_1_" class="st1" d="M416.1,202.2c0.3,0,0.7,0,1,0.1c-10.6-12.8-26.4-20.4-43.2-20.4c-16.3,0-31.8,7.2-42.4,19.4
			c-8.2-9.2-17.1-13.6-30.3-14.9c-5.1-26.4-28.1-45.5-55.1-45.5c-18.6,0-36.3,9.5-46.7,25c-3.9-0.8-7.8-1.2-11.8-1.2
			c-25.7,0-48.7,17.4-55.4,41.2c1.2-1.2,2.9-2,4.8-2c3.4,0,6.1,2.3,6.8,5.4c5.2-18.7,23.5-32.6,43.8-32.6c0,0,7.6,0.3,14.2,3.1
			l4.5-1.6c7.2-15.3,22.9-25.2,39.8-25.2c21.5,0,39.7,15.3,43.4,36.4c0.1,0.7,0.2,1.4,0.3,2.1c0.1,1.2,0.2,2.4,0.3,3.6l3.5,3.2
			l3.6-0.1c14.5,0.8,21.9,5.2,30.5,17.9c0,0,5.1,0.8,6.1,0.9c20.2-24.6,40.2-23,40.2-23c13.1,0,26.9,6.6,35.3,16.7l0.3,0.1
			c-0.1-0.5-0.2-1.1-0.2-1.7C409.3,205.3,412.3,202.2,416.1,202.2z"/>
	</g>
</g>
</svg>
