<svg id="Capa_1" data-name="Capa 1" xmlns="http://www.w3.org/2000/svg" viewBox="0 0 744.43 107.99"><defs><style>.cls-1,.cls-2{fill:#1d1d1b;}.cls-1{fill-rule:evenodd;}</style></defs><path class="cls-1" d="M318.65,323.23h-14.6V296a38.17,38.17,0,0,0-.55-7.41q-1.49-5.34-7.08-5.45-9.45.19-9.58,14.6v25.5h-14.6V296.75A51.93,51.93,0,0,0,272,291a15.3,15.3,0,0,0-.83-3.62,6.7,6.7,0,0,0-6.54-4.25,8.26,8.26,0,0,0-5.44,2.11,11.51,11.51,0,0,0-3.38,5.63,28.43,28.43,0,0,0-.77,7.73v24.63H240.53V278c0-9.32,13.95-9.32,13.95,0v3.76a22.78,22.78,0,0,1,6.86-8.91,16.2,16.2,0,0,1,9.81-2.86q11.36,0,14.05,12.09,5.24-12.24,16.67-12.09a18.41,18.41,0,0,1,8.53,2,14,14,0,0,1,5.74,5.42,16.15,16.15,0,0,1,1.95,5.91,65.82,65.82,0,0,1,.56,10Z" transform="translate(-53.5 -254.63)"/><path class="cls-1" d="M372,293.65a27.35,27.35,0,0,1-.21,3.74q-.24,1.73-.87,4.32H339.34a12.25,12.25,0,0,0,4.94,9q4.32,3.17,11.54,3.2a40.73,40.73,0,0,0,6.87-.49,38.08,38.08,0,0,0,6.73-1.8v10.57a52.65,52.65,0,0,1-7.61,1.81,50.6,50.6,0,0,1-7.84.59,43.52,43.52,0,0,1-9.32-.87,25.16,25.16,0,0,1-17-12.78,30.33,30.33,0,0,1-3.43-14.35q.18-11.88,6.94-19.14T348.87,270q10.42.18,16.71,6.55t6.45,17.1m-13.4.22h0v-1.09q0-5.62-2.57-8.88a8.87,8.87,0,0,0-14,.18q-2.58,3.44-2.95,9.79Z" transform="translate(-53.5 -254.63)"/><path class="cls-1" d="M407.94,323.39a44.92,44.92,0,0,1-9.81,1q-10.23,0-15-4.62t-4.72-14.67V265.72a30.52,30.52,0,0,1,14.49-8.39v16.79h14.39v11.22H392.9V302.8q-.06,5.47,2,7.73c1.36,1.5,3.68,2.24,7,2.18a28.11,28.11,0,0,0,3-.12,26.6,26.6,0,0,0,3.13-.53Z" transform="translate(-53.5 -254.63)"/><path class="cls-1" d="M496.23,297.24q-.19,12.31-7.08,19.83T471,324.8q-12.15-.14-19.08-7.51T444.8,297a30.06,30.06,0,0,1,3.26-13.93,24.32,24.32,0,0,1,9-9.68,26,26,0,0,1,13.57-3.62q12.25.21,18.89,7.72t6.72,19.73m-14.6-.11h0q-.08-7-3-11.09a9.57,9.57,0,0,0-8-4.16,9.87,9.87,0,0,0-8.1,4.22c-2,2.74-3.06,6.39-3.12,10.92s1.12,8.31,3.19,11.13a10.05,10.05,0,0,0,8.25,4.35,9.32,9.32,0,0,0,7.84-4.21q2.9-4.12,2.95-11.16" transform="translate(-53.5 -254.63)"/><path class="cls-1" d="M575.36,291.68a33.12,33.12,0,0,1-.19,3.74c-.13,1.13-.36,2.54-.69,4.22H539.3q.65,8.89,6,13.83t14.55,5a32.67,32.67,0,0,0,12.42-2.29v6.32a34.17,34.17,0,0,1-12.64,2.17q-13.17-.09-20.37-7.38T532,296.7q.15-12.12,6.3-19.36t16.36-7.45a20.17,20.17,0,0,1,14.8,6.2q5.71,6,5.9,15.59m-7.19,2.19h0v-2.08q-.09-7.21-3.88-11.51a13.29,13.29,0,0,0-10.18-4.4,12.89,12.89,0,0,0-10.24,4.75q-3.89,4.67-4.68,13.24Z" transform="translate(-53.5 -254.63)"/><path class="cls-1" d="M673.65,291.68a30.93,30.93,0,0,1-.19,3.74c-.13,1.13-.36,2.54-.68,4.22H637.59q.64,8.89,6,13.83t14.54,5a32.67,32.67,0,0,0,12.42-2.29v6.32A34.17,34.17,0,0,1,658,324.69q-13.17-.09-20.37-7.38t-7.3-20.61q.16-12.12,6.31-19.36T653,269.89a20.19,20.19,0,0,1,14.81,6.2q5.72,6,5.89,15.59m-7.19,2.19h0v-2.08q-.09-7.21-3.88-11.51a13.28,13.28,0,0,0-10.17-4.4,12.89,12.89,0,0,0-10.25,4.75q-3.88,4.67-4.68,13.24Z" transform="translate(-53.5 -254.63)"/><path class="cls-1" d="M723.18,261.26a4.81,4.81,0,0,1-1.08,3.49,5.11,5.11,0,0,1-3.6,1.08,4.6,4.6,0,1,1,0-9.15,5.15,5.15,0,0,1,3.6,1.09,4.8,4.8,0,0,1,1.08,3.49m-1.08,62.1H715V271.17h7.08Z" transform="translate(-53.5 -254.63)"/><path class="cls-1" d="M757.32,262.7a34.91,34.91,0,0,0-4.2-1.3,18.63,18.63,0,0,0-4.19-.55A9.83,9.83,0,0,0,744,262.1a7.41,7.41,0,0,0-3.23,3.54,9.67,9.67,0,0,0-.85,3.35c-.11,1.21-.13,5.31-.13,5.31h15.66c-.31.32-.61.66-.91,1a24.06,24.06,0,0,0-3.45,5.41h-11.3v42.67H732.7V274.7a42.48,42.48,0,0,1,.61-8.72,14.29,14.29,0,0,1,2.33-5.46q4-5.73,12.09-5.89a24.82,24.82,0,0,1,9.59,2q2.67,3.51,0,6.11" transform="translate(-53.5 -254.63)"/><path class="cls-1" d="M797.93,291.68a33.12,33.12,0,0,1-.19,3.74c-.13,1.13-.36,2.54-.69,4.22H761.87q.64,8.89,6,13.83t14.55,5a32.67,32.67,0,0,0,12.42-2.29v6.32a34.17,34.17,0,0,1-12.64,2.17q-13.17-.09-20.37-7.38t-7.3-20.61q.15-12.12,6.3-19.36t16.36-7.45a20.17,20.17,0,0,1,14.8,6.2q5.72,6,5.9,15.59m-7.19,2.19h0v-2.08q-.11-7.21-3.88-11.51a13.29,13.29,0,0,0-10.18-4.4,12.87,12.87,0,0,0-10.23,4.75q-3.9,4.67-4.69,13.24Z" transform="translate(-53.5 -254.63)"/><path class="cls-1" d="M428.55,278v4.9a16.16,16.16,0,0,1,5.65-9.3,16.56,16.56,0,0,1,10.47-3.33,25,25,0,0,1,6,.74,26.23,26.23,0,0,0-9,12.52c-3.48.11-6.29,1.57-9,4.27s-3.56,6.82-3.59,11.88v23.53H414.61l.13-45.21c0-9.37,13.81-9.32,13.81,0" transform="translate(-53.5 -254.63)"/><path class="cls-1" d="M589.31,275.15V281q4.89-11,16.13-11.11a20.08,20.08,0,0,1,9.93,2.46,15.4,15.4,0,0,1,6.41,6.79q2.1,4.46,2.07,13.63v30.61h-7.08V293a36.63,36.63,0,0,0-.53-7.06,10.9,10.9,0,0,0-1.76-4.37,12.06,12.06,0,0,0-10.13-5,13.78,13.78,0,0,0-8.51,2.77,14.34,14.34,0,0,0-5,7.58,24.19,24.19,0,0,0-.92,5.08c-.19,2-.29,4.73-.28,8.11v23.31h-7.08v-48.2c0-5.25,6.74-5.38,6.74,0" transform="translate(-53.5 -254.63)"/><path class="cls-1" d="M680.85,275c.13-5,6.44-5.13,6.65,0v8a20.61,20.61,0,0,1,6.57-9.48,16.1,16.1,0,0,1,10-3.27,17.45,17.45,0,0,1,3.05.21,20.93,20.93,0,0,1,3,.77v7a26.35,26.35,0,0,0-2.94-.74,16.79,16.79,0,0,0-2.94-.25,15,15,0,0,0-11.81,5.44q-4.43,5.31-4.54,14.18v26.58h-7.08Z" transform="translate(-53.5 -254.63)"/><path class="cls-2" d="M529.8,323.06a36.63,36.63,0,0,1-8.93,1.09,16.8,16.8,0,0,1-9-2.26,10.75,10.75,0,0,1-4.74-6.34,14.26,14.26,0,0,1-.53-3.15q-.14-1.89-.12-7v-43.6c1.44-1.94,3.8-3.44,7.08-4.47v17h18.19c-.31.32-.61.66-.91,1a24.25,24.25,0,0,0-3.45,5.42H513.57v27.84c0,3.45.58,5.9,1.88,7.36s3.5,2.16,6.62,2.12A33.5,33.5,0,0,0,529.8,317Z" transform="translate(-53.5 -254.63)"/><path class="cls-2" d="M181.23,270.44c.4,28,12.48,50.89,29.5,64.07l.43.39c2.05,1.71,2.78,3.31,2,5.69l-9.35,22c-30.11-17.58-49.68-53.91-49.68-93.54,0-1.32,0-2.63.07-3.94h21.81c4.07,0,5.18,1.19,5.18,5.28" transform="translate(-53.5 -254.63)"/><path class="cls-2" d="M63.16,362.63l-9.42-22.19c-.67-2.3.07-3.86,2.09-5.53,17.65-13.67,29.85-37.05,30-65.46.19-3.29,1.43-4.28,5.15-4.28l.74,0h21.1c0,1.31.06,2.62.06,3.94,0,39.63-19.57,76-49.67,93.54" transform="translate(-53.5 -254.63)"/><rect class="cls-2" x="65.51" y="10.47" width="28.63" height="72.73"/></svg>