<?xml version="1.0" encoding="UTF-8" standalone="no"?>
<!-- Created with Inkscape (http://www.inkscape.org/) -->

<svg
   version="1.1"
   id="svg2"
   xml:space="preserve"
   width="833.23566"
   height="477.19604"
   viewBox="0 0 833.23564 477.19605"
   sodipodi:docname="7beaf303ce24c295a6b6041f37ddafbe.ai"
   xmlns:inkscape="http://www.inkscape.org/namespaces/inkscape"
   xmlns:sodipodi="http://sodipodi.sourceforge.net/DTD/sodipodi-0.dtd"
   xmlns="http://www.w3.org/2000/svg"
   xmlns:svg="http://www.w3.org/2000/svg"><defs
     id="defs6"><clipPath
       clipPathUnits="userSpaceOnUse"
       id="clipPath16"><path
         d="M 0,595.28 H 841.89 V 0 H 0 Z"
         id="path14" /></clipPath></defs><sodipodi:namedview
     id="namedview4"
     pagecolor="#ffffff"
     bordercolor="#666666"
     borderopacity="1.0"
     inkscape:pageshadow="2"
     inkscape:pageopacity="0.0"
     inkscape:pagecheckerboard="0" /><g
     id="g8"
     inkscape:groupmode="layer"
     inkscape:label="7beaf303ce24c295a6b6041f37ddafbe"
     transform="matrix(1.3333333,0,0,-1.3333333,-151.78352,654.38857)"><g
       id="g10"><g
         id="g12"
         clip-path="url(#clipPath16)"><g
           id="g18"
           transform="translate(414.4893,424.0244)"><path
             d="M 0,0 C -0.637,0 -1.266,0.156 -1.848,0.498 L -61.963,35.23 c -1.762,1.018 -2.367,3.28 -1.353,5.047 1.023,1.762 3.281,2.371 5.043,1.348 L 1.844,6.893 C 3.613,5.871 4.215,3.613 3.195,1.846 2.51,0.662 1.279,0 0,0"
             style="fill:#ff8600;fill-opacity:1;fill-rule:nonzero;stroke:none"
             id="path20" /></g><g
           id="g22"
           transform="translate(354.3721,458.7588)"><path
             d="m 0,0 c -1.611,0 -3.092,1.064 -3.553,2.693 -0.556,1.961 0.594,4.006 2.551,4.557 l 79.225,22.284 c 1.965,0.553 4.004,-0.594 4.547,-2.552 0.558,-1.968 -0.588,-4.005 -2.551,-4.561 L 1,0.135 C 0.674,0.043 0.336,0 0,0"
             style="fill:#ff8600;fill-opacity:1;fill-rule:nonzero;stroke:none"
             id="path24" /></g><g
           id="g26"
           transform="translate(516.7803,442.1768)"><path
             d="m 0,0 c -0.615,0 -1.258,0.152 -1.832,0.49 l -71.752,41.221 c -1.768,1.018 -2.379,3.277 -1.359,5.047 1.017,1.771 3.269,2.383 5.043,1.363 L 1.85,6.893 C 3.619,5.881 4.227,3.617 3.207,1.852 2.527,0.664 1.281,0 0,0"
             style="fill:#ff8600;fill-opacity:1;fill-rule:nonzero;stroke:none"
             id="path28" /></g><g
           id="g30"
           transform="translate(426.1416,417.29)"><path
             d="m 0,0 c -1.623,0 -3.111,1.074 -3.563,2.717 -0.541,1.969 0.62,3.998 2.584,4.535 L 89.67,32.141 c 1.967,0.539 3.996,-0.618 4.533,-2.588 0.545,-1.967 -0.615,-3.996 -2.582,-4.539 L 0.98,0.131 C 0.643,0.041 0.322,0 0,0"
             style="fill:#ff8600;fill-opacity:1;fill-rule:nonzero;stroke:none"
             id="path32" /></g><g
           id="g34"
           transform="translate(418.126,320.127)"><path
             d="M 0,0 C -0.627,0 -1.266,0.166 -1.848,0.492 L -65.6,37.331 c -1.761,1.02 -2.367,3.283 -1.353,5.049 1.023,1.769 3.281,2.367 5.043,1.351 L 1.846,6.893 C 3.613,5.873 4.219,3.609 3.201,1.848 2.51,0.662 1.273,0 0,0"
             style="fill:#ff8600;fill-opacity:1;fill-rule:nonzero;stroke:none"
             id="path36" /></g><g
           id="g38"
           transform="translate(432.3877,317.2734)"><path
             d="m 0,0 c -1.623,0 -3.111,1.078 -3.559,2.727 -0.543,1.962 0.62,3.99 2.586,4.535 l 84.397,23.102 c 1.967,0.537 4.002,-0.621 4.533,-2.586 0.545,-1.97 -0.615,-4 -2.582,-4.537 L 0.979,0.137 C 0.65,0.045 0.32,0 0,0"
             style="fill:#ff8600;fill-opacity:1;fill-rule:nonzero;stroke:none"
             id="path40" /></g><g
           id="g42"
           transform="translate(426.1416,417.29)"><path
             d="m 0,0 c -0.428,0 -0.859,0.072 -1.289,0.232 -1.906,0.711 -2.885,2.831 -2.176,4.745 l 18.901,50.902 c 0.71,1.914 2.83,2.889 4.748,2.184 1.91,-0.711 2.882,-2.84 2.173,-4.75 L 3.461,2.406 C 2.908,0.916 1.498,0 0,0"
             style="fill:#ff8600;fill-opacity:1;fill-rule:nonzero;stroke:none"
             id="path44" /></g><g
           id="g46"
           transform="translate(354.3799,356.9658)"><path
             d="m 0,0 c -1.057,0 -2.102,0.445 -2.838,1.309 -1.305,1.568 -1.105,3.9 0.455,5.211 l 61.926,52.052 c 1.559,1.311 3.896,1.112 5.203,-0.445 1.311,-1.566 1.117,-3.898 -0.443,-5.209 L 2.365,0.865 C 1.68,0.279 0.838,0 0,0"
             style="fill:#ff8600;fill-opacity:1;fill-rule:nonzero;stroke:none"
             id="path48" /></g><g
           id="g50"
           transform="translate(426.1416,330.6895)"><path
             d="m 0,0 h -0.012 c -2.047,0 -3.691,1.666 -3.681,3.703 l 0.228,69.964 c 0.012,2.031 1.66,3.68 3.695,3.68 H 0.244 C 2.287,77.339 3.93,75.681 3.926,73.638 L 3.691,3.676 C 3.688,1.648 2.035,0 0,0"
             style="fill:#ff8600;fill-opacity:1;fill-rule:nonzero;stroke:none"
             id="path52" /></g><g
           id="g54"
           transform="translate(516.7803,341.4072)"><path
             d="m 0,0 c -2.035,0 -3.688,1.654 -3.688,3.697 v 87.494 c 0,2.039 1.653,3.7 3.688,3.7 2.043,0 3.701,-1.661 3.701,-3.7 V 3.697 C 3.701,1.654 2.043,0 0,0"
             style="fill:#ff8600;fill-opacity:1;fill-rule:nonzero;stroke:none"
             id="path56" /></g><g
           id="g58"
           transform="translate(354.3799,356.9658)"><path
             d="m 0,0 c -2.047,0 -3.701,1.656 -3.701,3.691 v 85.784 c 0,2.033 1.654,3.683 3.701,3.683 2.039,0 3.686,-1.65 3.686,-3.683 V 3.691 C 3.686,1.656 2.039,0 0,0"
             style="fill:#ff8600;fill-opacity:1;fill-rule:nonzero;stroke:none"
             id="path60" /></g><g
           id="g62"
           transform="translate(516.7803,341.4072)"><path
             d="m 0,0 c -0.822,0 -1.648,0.277 -2.34,0.846 l -81.197,66.715 c -1.576,1.298 -1.803,3.623 -0.502,5.197 1.287,1.576 3.619,1.81 5.197,0.508 L 2.35,6.549 C 3.936,5.258 4.152,2.928 2.857,1.352 2.131,0.461 1.074,0 0,0"
             style="fill:#ff8600;fill-opacity:1;fill-rule:nonzero;stroke:none"
             id="path64" /></g><g
           id="g66"
           transform="translate(448.4736,146.7344)"><path
             d="M 0,0 C -1.994,-0.092 -3.627,-0.781 -4.902,-2.049 -6.234,-3.375 -6.896,-4.982 -6.92,-6.865 v -5.34 c 0,-0.539 0.135,-0.947 0.414,-1.219 0.272,-0.283 0.61,-0.416 0.996,-0.416 0.381,0 0.719,0.133 0.998,0.416 0.274,0.272 0.412,0.672 0.412,1.184 v 5.344 c 0,0.091 -0.004,0.173 -0.013,0.255 0.056,1.014 0.449,1.883 1.195,2.612 0.795,0.808 1.764,1.211 2.906,1.211 H 0 c 0.383,0 0.719,0.136 1,0.408 0.275,0.281 0.41,0.611 0.41,0.99 0,0.395 -0.135,0.729 -0.41,1.004 C 0.719,-0.139 0.383,0 0,0 m 15.023,0.057 c -0.392,0 -0.728,-0.131 -1,-0.418 -0.281,-0.278 -0.421,-0.61 -0.421,-0.993 v -11.078 c 0,-0.384 0.14,-0.72 0.421,-0.992 0.272,-0.283 0.608,-0.416 1,-0.416 0.383,0 0.711,0.133 0.985,0.416 0.287,0.272 0.426,0.608 0.426,0.992 v 11.078 c 0,0.383 -0.139,0.715 -0.426,0.993 -0.274,0.287 -0.602,0.418 -0.985,0.418 M 39.582,-6.896 V -7.42 c -0.098,-0.92 -0.488,-1.726 -1.18,-2.41 -0.798,-0.799 -1.763,-1.203 -2.89,-1.203 -1.145,0 -2.112,0.404 -2.912,1.203 -0.795,0.801 -1.194,1.775 -1.194,2.91 0,1.133 0.399,2.1 1.194,2.9 0.8,0.801 1.767,1.202 2.912,1.202 1.127,0 2.092,-0.403 2.89,-1.211 0.739,-0.729 1.147,-1.598 1.202,-2.612 -0.01,-0.082 -0.022,-0.164 -0.022,-0.255 m -4.07,6.861 c -1.922,0 -3.549,-0.674 -4.893,-2.014 -1.348,-1.353 -2.021,-2.976 -2.021,-4.885 0,-1.912 0.673,-3.541 2.021,-4.88 1.344,-1.354 2.971,-2.026 4.893,-2.026 1.533,0 2.89,0.436 4.07,1.324 0,-0.517 0.148,-0.865 0.418,-1.045 0.277,-0.193 0.611,-0.279 0.994,-0.279 0.391,0 0.729,0.086 1.006,0.279 0.27,0.18 0.414,0.547 0.414,1.077 v 5.619 c -0.025,1.883 -0.691,3.49 -2.021,4.816 -1.348,1.34 -2.979,2.014 -4.881,2.014 m 27.435,-5.533 c -0.951,0.941 -2.088,1.422 -3.431,1.422 -0.198,0 -0.352,0.06 -0.489,0.193 -0.134,0.139 -0.199,0.297 -0.199,0.49 0,0.199 0.065,0.363 0.199,0.496 0.137,0.127 0.291,0.201 0.489,0.201 0.156,0 0.287,0.028 0.414,0.065 0.209,0.037 0.408,0.117 0.582,0.254 l 1.381,1.328 c 0.3,0.236 0.49,0.547 0.543,0.933 C 62.492,0.205 62.393,0.557 62.16,0.861 61.924,1.168 61.617,1.352 61.223,1.408 60.834,1.463 60.49,1.365 60.186,1.133 l -1.233,-1.184 c -0.715,-0.111 -1.349,-0.424 -1.879,-0.959 -0.676,-0.676 -1.021,-1.488 -1.021,-2.453 0,-0.949 0.345,-1.766 1.021,-2.441 0.672,-0.674 1.483,-1.016 2.442,-1.016 0.576,0 1.06,-0.203 1.466,-0.613 0.409,-0.401 0.616,-0.895 0.616,-1.463 0,-0.568 -0.207,-1.061 -0.616,-1.465 -0.406,-0.408 -0.89,-0.609 -1.466,-0.609 -0.563,0 -1.063,0.201 -1.467,0.609 -0.403,0.404 -0.611,0.897 -0.611,1.465 0,0.387 -0.127,0.713 -0.399,0.982 -0.266,0.268 -0.586,0.397 -0.986,0.397 -0.373,0 -0.701,-0.129 -0.969,-0.397 -0.27,-0.269 -0.408,-0.595 -0.408,-0.982 0,-1.338 0.469,-2.481 1.414,-3.43 0.949,-0.939 2.094,-1.414 3.426,-1.414 1.343,0 2.48,0.475 3.431,1.414 0.944,0.949 1.41,2.092 1.41,3.43 0,1.334 -0.466,2.482 -1.41,3.428 M -22.008,-6.896 V -7.42 c -0.099,-0.92 -0.5,-1.726 -1.179,-2.41 -0.801,-0.799 -1.766,-1.203 -2.907,-1.203 -1.133,0 -2.099,0.404 -2.898,1.203 -0.797,0.801 -1.195,1.775 -1.195,2.91 0,1.133 0.398,2.1 1.195,2.9 0.799,0.801 1.765,1.202 2.898,1.202 1.141,0 2.106,-0.403 2.907,-1.211 0.742,-0.729 1.134,-1.598 1.195,-2.612 -0.016,-0.082 -0.016,-0.164 -0.016,-0.255 m -4.086,6.861 c -1.91,0 -3.539,-0.674 -4.881,-2.014 C -32.32,-3.402 -33,-5.025 -33,-6.934 c 0,-1.912 0.68,-3.541 2.025,-4.88 1.342,-1.354 2.971,-2.026 4.881,-2.026 1.545,0 2.903,0.436 4.086,1.324 0,-0.517 0.137,-0.865 0.41,-1.045 0.28,-0.193 0.616,-0.279 1,-0.279 0.389,0 0.719,0.086 0.998,0.279 0.276,0.18 0.413,0.547 0.413,1.077 v 5.619 c -0.022,1.883 -0.692,3.49 -2.018,4.816 -1.346,1.34 -2.979,2.014 -4.889,2.014 m 41.117,4.217 c -0.392,0 -0.728,-0.139 -1,-0.416 -0.281,-0.274 -0.421,-0.61 -0.421,-0.993 0,-0.39 0.14,-0.726 0.421,-1.003 0.272,-0.27 0.608,-0.416 1,-0.416 0.383,0 0.711,0.146 0.985,0.416 0.287,0.277 0.426,0.613 0.426,1.003 0,0.383 -0.139,0.719 -0.426,0.993 -0.274,0.277 -0.602,0.416 -0.985,0.416 M -74.16,-6.896 V -7.42 c -0.113,-0.92 -0.5,-1.726 -1.184,-2.41 -0.797,-0.799 -1.771,-1.203 -2.908,-1.203 -1.129,0 -2.102,0.404 -2.894,1.203 -0.801,0.801 -1.2,1.775 -1.2,2.91 0,1.133 0.399,2.1 1.2,2.9 0.792,0.801 1.765,1.202 2.894,1.202 1.137,0 2.111,-0.403 2.908,-1.211 0.744,-0.729 1.139,-1.598 1.19,-2.612 -0.006,-0.082 -0.006,-0.164 -0.006,-0.255 m -4.092,6.861 c -1.908,0 -3.539,-0.674 -4.885,-2.014 -1.345,-1.353 -2.019,-2.976 -2.019,-4.885 0,-1.912 0.674,-3.541 2.019,-4.88 1.346,-1.354 2.977,-2.026 4.885,-2.026 1.543,0 2.908,0.436 4.092,1.324 0,-0.517 0.139,-0.865 0.41,-1.045 0.271,-0.193 0.607,-0.279 1.002,-0.279 0.387,0 0.707,0.086 0.988,0.279 0.276,0.18 0.418,0.547 0.418,1.077 v 5.619 c -0.019,1.883 -0.699,3.49 -2.017,4.816 -1.35,1.34 -2.977,2.014 -4.893,2.014 m -19.637,-9.377 c -0.39,0 -0.716,-0.137 -0.978,-0.404 -0.016,-0.004 -0.022,-0.014 -0.037,-0.024 -0.799,-0.801 -1.768,-1.193 -2.895,-1.193 -1.133,0 -2.101,0.404 -2.906,1.203 -0.799,0.801 -1.201,1.775 -1.201,2.91 0,1.133 0.402,2.1 1.201,2.9 0.805,0.801 1.773,1.202 2.906,1.202 1.139,0 2.102,-0.401 2.895,-1.194 h 0.015 c 0.268,-0.283 0.598,-0.416 0.985,-0.416 0.381,0 0.707,0.133 0.972,0.408 0.28,0.272 0.411,0.592 0.411,0.971 0,0.393 -0.131,0.721 -0.393,0.986 -0.018,0 -0.02,0.008 -0.02,0.014 l 0.02,0.012 c -1.346,1.34 -2.975,2.002 -4.885,2.002 -1.904,0 -3.535,-0.674 -4.883,-2.014 -1.347,-1.353 -2.019,-2.976 -2.019,-4.885 0,-1.912 0.672,-3.541 2.019,-4.88 1.348,-1.354 2.979,-2.026 4.883,-2.026 1.91,0 3.539,0.664 4.885,2.006 0.002,0.01 0.012,0.021 0.019,0.029 0.27,0.274 0.416,0.61 0.416,0.996 0,0.387 -0.146,0.717 -0.416,0.989 -0.275,0.271 -0.609,0.408 -0.994,0.408 M -52.029,0 h -0.221 c -1.951,-0.113 -3.543,-0.789 -4.813,-2.049 -1.322,-1.326 -1.992,-2.933 -2.021,-4.816 v -5.34 c 0,-0.539 0.143,-0.947 0.426,-1.219 0.273,-0.283 0.601,-0.416 0.992,-0.416 0.387,0 0.723,0.133 1,0.416 0.273,0.272 0.41,0.672 0.41,1.184 v 5.344 c 0,0.091 0,0.173 -0.01,0.255 0.047,1.014 0.45,1.883 1.19,2.612 0.803,0.808 1.771,1.211 2.902,1.211 h 0.063 c 1.132,0 2.103,-0.403 2.896,-1.211 0.75,-0.729 1.147,-1.598 1.199,-2.612 -0.013,-0.082 -0.017,-0.164 -0.017,-0.255 v -5.344 c 0,-0.512 0.14,-0.912 0.414,-1.184 0.283,-0.283 0.615,-0.416 1,-0.416 0.387,0 0.721,0.133 0.992,0.416 0.277,0.272 0.414,0.68 0.414,1.219 v 5.34 c -0.012,1.883 -0.685,3.49 -2.014,4.816 -1.261,1.26 -2.853,1.936 -4.802,2.049"
             style="fill:#231f20;fill-opacity:1;fill-rule:nonzero;stroke:none"
             id="path68" /></g><g
           id="g70"
           transform="translate(383.0986,232.4219)"><path
             d="m 0,0 c -5.584,-5.627 -12.352,-8.438 -20.32,-8.438 -7.946,0 -14.731,2.811 -20.36,8.438 -4.789,4.779 -7.531,10.406 -8.238,16.871 v 3.69 c 0,0.584 -0.033,1.166 -0.1,1.742 0.385,7.117 3.164,13.256 8.338,18.426 5.629,5.56 12.414,8.337 20.36,8.337 7.968,0 14.736,-2.795 20.32,-8.386 C 5.594,35.088 8.385,28.314 8.385,20.357 8.385,12.408 5.594,5.629 0,0 m -20.32,68.66 c -13.381,0 -24.787,-4.722 -34.229,-14.158 -9.308,-9.313 -14.029,-20.553 -14.158,-33.748 v -77.775 c 0,-2.719 0.978,-5.04 2.912,-6.985 1.938,-1.937 4.266,-2.904 6.982,-2.904 2.713,0 5.045,0.967 6.987,2.904 1.93,1.945 2.908,4.266 2.908,6.985 v 38.21 c 8.273,-6.209 17.807,-9.314 28.598,-9.314 13.384,0 24.802,4.717 34.238,14.158 9.436,9.442 14.156,20.852 14.156,34.233 0,13.384 -4.72,24.795 -14.156,34.236 C 4.482,63.938 -6.936,68.66 -20.32,68.66"
             style="fill:#231f20;fill-opacity:1;fill-rule:nonzero;stroke:none"
             id="path72" /></g><g
           id="g74"
           transform="translate(724.6064,286.9238)"><path
             d="m 0,0 c -8.793,8.783 -20.008,13.57 -33.646,14.35 h -1.563 C -48.844,13.57 -60.057,8.783 -68.852,0 -78.16,-9.313 -82.881,-20.553 -83.014,-33.748 v -37.436 c 0,-3.754 0.975,-6.593 2.912,-8.531 1.942,-1.947 4.26,-2.912 6.981,-2.912 2.717,0 5.047,0.965 6.982,2.912 1.944,1.938 2.91,4.717 2.91,8.344 v 37.43 c 0,0.584 -0.035,1.166 -0.099,1.742 0.389,7.117 3.174,13.222 8.348,18.322 5.617,5.629 12.406,8.441 20.353,8.441 h 0.391 c 7.963,0 14.74,-2.812 20.373,-8.441 5.164,-5.1 7.953,-11.205 8.334,-18.322 -0.063,-0.576 -0.096,-1.158 -0.096,-1.742 v -37.43 c 0,-3.627 0.969,-6.406 2.904,-8.344 1.946,-1.947 4.276,-2.912 6.987,-2.912 2.711,0 5.047,0.965 6.992,2.912 1.928,1.938 2.9,4.777 2.9,8.531 v 37.436 C 14.031,-20.553 9.313,-9.313 0,0"
             style="fill:#231f20;fill-opacity:1;fill-rule:nonzero;stroke:none"
             id="path76" /></g><g
           id="g78"
           transform="translate(199.5654,342.0127)"><path
             d="m 0,0 c -5.653,1.369 -11.358,-2.162 -12.698,-7.837 -1.35,-5.666 2.166,-11.361 7.842,-12.701 12.615,-2.99 23.307,-10.713 30.121,-21.746 6.803,-11.035 8.908,-24.063 5.916,-36.678 -2.989,-12.619 -10.708,-23.316 -21.742,-30.119 -11.04,-6.815 -24.053,-8.922 -36.684,-5.93 -12.615,2.987 -23.309,10.707 -30.117,21.746 -6.806,11.043 -8.915,24.063 -5.928,36.684 3.988,16.807 16.76,30.346 33.326,35.322 5.583,1.674 8.75,7.565 7.074,13.149 -1.673,5.577 -7.547,8.733 -13.15,7.065 -23.758,-7.145 -42.076,-26.559 -47.787,-50.679 -4.285,-18.097 -1.272,-36.791 8.502,-52.625 9.767,-15.832 25.125,-26.918 43.219,-31.201 5.377,-1.273 10.802,-1.902 16.193,-1.902 12.756,0 25.301,3.535 36.433,10.398 15.831,9.772 26.915,25.121 31.2,43.221 4.292,18.109 1.277,36.795 -8.498,52.631 C 33.464,-15.364 18.106,-4.287 0,0"
             style="fill:#231f20;fill-opacity:1;fill-rule:nonzero;stroke:none"
             id="path80" /></g><g
           id="g82"
           transform="translate(549.749,295.3184)"><path
             d="m 0,0 c -23.85,13.615 -54.336,5.299 -67.969,-18.557 -13.619,-23.853 -5.291,-54.338 18.555,-67.959 7.732,-4.414 16.285,-6.568 24.773,-6.568 11.799,0 23.471,4.176 32.639,12.24 l 4.992,4.135 c 4.018,3.324 4.59,9.277 1.268,13.293 -3.328,4.023 -9.281,4.58 -13.303,1.256 l -5.211,-4.319 c -9.926,-8.728 -24.316,-10.193 -35.793,-3.634 -14.81,8.455 -19.971,27.384 -11.519,42.197 8.457,14.803 27.398,19.977 42.203,11.512 6.789,-3.877 11.765,-10.162 14.107,-17.432 l -41.906,-0.619 c -5.219,-0.094 -9.367,-4.395 -9.27,-9.613 0.09,-5.155 4.301,-9.268 9.434,-9.268 h 0.174 l 52.66,0.818 c 5.166,0.088 9.303,4.317 9.283,9.483 C 25.023,-25.289 15.4,-8.795 0,0"
             style="fill:#231f20;fill-opacity:1;fill-rule:nonzero;stroke:none"
             id="path84" /></g></g></g></g></svg>
