<svg width="500" height="195" viewBox="0 0 500 195" fill="none" xmlns="http://www.w3.org/2000/svg">
<g clip-path="url(#clip0_1515_19)">
<path d="M46.0803 43.4892C45.1777 38.3672 42.8024 36.7073 36.5791 36.7073C31.401 36.7073 28.5031 37.9404 28.5031 41.0705C28.5031 44.2005 30.4509 45.4336 44.5601 47.9472C64.7977 51.6938 72.3036 57.4323 73.0637 69.3835C74.2989 86.0298 60.3321 96.5109 37.3392 96.5109C22.8024 96.5109 12.8737 93.523 6.41288 86.7886C2.25444 82.4327 -0.0452424 76.6337 -0.00106893 70.6165H26.2704C27.0305 76.5922 30.1658 79.1531 37.1017 79.1531C42.9449 79.1531 46.0803 77.019 46.0803 73.1301C46.0803 71.0434 44.8927 69.7155 42.4699 68.8144C41.001 68.3875 39.5104 68.0392 38.0043 67.771C36.1991 67.2968 33.7763 66.8699 31.8285 66.2534C24.3721 65.2609 17.1229 63.0834 10.3559 59.8035C4.51187 56.1246 1.12849 49.569 1.51976 42.6829C1.51976 28.4553 14.2514 20.1084 35.8666 20.1084C50.5934 20.1084 60.3321 23.3808 66.2228 29.5935C69.5054 33.4789 71.291 38.4064 71.2585 43.4892H46.0803Z" fill="white"/>
<path d="M103.135 64.5935C103.61 73.7466 108.693 78.8211 117.387 78.8211C122.126 79.1956 126.669 76.8634 129.121 72.7981H155.107C153.527 77.6585 150.844 82.0893 147.268 85.7452C139.351 93.4411 128.562 97.4671 117.53 96.8428C92.9214 96.8428 76.5794 81.8563 76.5794 59.3767C76.6158 49.8873 79.9771 40.7097 86.0806 33.4349C93.9219 24.6265 105.364 19.8758 117.149 20.5352C141.33 20.5352 156.769 37.0393 156.769 62.5067V64.5935H103.135ZM129.406 50.6504C129.549 47.2544 128.237 43.9583 125.798 41.5867C123.359 39.2152 120.024 37.9926 116.627 38.2249C109.311 38.2249 104.655 42.3983 103.278 50.6504H129.406Z" fill="white"/>
<path d="M238.765 65.6368C236.057 85.1287 222.138 96.5108 200.76 96.5108C189.24 97.1556 178.04 92.5928 170.261 84.0853C163.935 76.8716 160.784 67.4187 161.52 57.859C161.52 36.1381 178.005 20.5352 201.14 20.5352C222.138 20.5352 237.15 32.2018 238.527 49.607H211.591C211.446 46.9126 210.221 44.3898 208.193 42.606C206.165 40.8221 203.503 39.927 200.808 40.1219C193.302 40.1219 188.931 46.8563 188.931 58.4281C188.931 69.9999 192.969 76.1178 200.475 76.1178C207.981 76.1178 211.021 72.9403 212.209 65.4471L238.765 65.6368Z" fill="white"/>
<path d="M300.237 45.8601C295.925 44.0938 291.215 43.5204 286.603 44.2002C277.435 45.4333 272.636 51.5512 272.636 61.8899V94.8506H244.846V22.1948H271.449V33.5769C275.18 25.5198 283.27 20.3702 292.161 20.3926C294.907 20.2168 297.659 20.6208 300.237 21.5783V45.8601Z" fill="white"/>
<path d="M329.597 64.5937C330.072 73.7468 335.155 78.8214 343.848 78.8214C348.587 79.1958 353.13 76.8637 355.582 72.7983H381.568C379.962 77.591 377.281 81.9543 373.73 85.5558C365.827 93.2442 355.056 97.2701 344.038 96.6533C319.383 96.6533 303.041 81.6669 303.041 59.1872C303.077 49.6978 306.438 40.5203 312.542 33.2455C320.383 24.437 331.825 19.6863 343.611 20.3457C367.791 20.3457 383.231 36.8498 383.231 62.3173V64.404L329.597 64.5937ZM355.867 50.6506C356.009 47.2635 354.703 43.9756 352.275 41.6057C349.847 39.2358 346.525 38.0069 343.136 38.2251C339.705 38.0842 336.359 39.3175 333.844 41.6509C331.328 43.9842 329.85 47.2243 329.739 50.6506H355.867Z" fill="white"/>
<path d="M437.055 39.4106H421.853V65.3523C421.853 74.0312 423.04 75.2642 431.924 75.2642H433.254C434.456 75.3418 435.663 75.3418 436.865 75.2642V95.3726C430.879 95.6572 427.696 95.7995 422.328 95.7995C409.074 95.7995 402.66 93.7127 398.147 88.164C394.964 84.1328 394.062 80.0542 394.062 70.8062V39.4106H381.9V22.1951H394.299V0H421.853V22.1951H437.055V39.4106Z" fill="white"/>
<path d="M46.0808 139.573C45.1781 134.499 42.8028 132.839 36.5796 132.839C31.4964 132.839 28.7886 134.214 28.7886 137.202C28.7886 140.19 30.7363 141.518 44.8456 144.079C65.1306 147.825 72.6366 153.564 73.3492 165.515C74.5843 182.161 60.6176 192.642 37.6247 192.642C23.0879 192.642 13.1591 189.654 6.69833 183.157C2.37067 178.774 -0.0383131 172.855 -0.000460847 166.701H26.2708C27.0309 172.724 30.1663 175.285 37.1021 175.285C42.9454 175.285 46.0808 173.15 46.0808 169.261C46.0571 167.166 44.5741 165.369 42.5178 164.946C41.7577 164.614 40.9976 164.614 38.1473 163.855C36.342 163.428 33.9192 162.954 31.9715 162.385C24.5151 161.392 17.2658 159.215 10.4988 155.935C4.61569 152.3 1.17646 145.76 1.52018 138.862C1.52018 124.634 14.1093 116.192 35.867 116.192C50.5938 116.192 60.38 119.512 66.2233 125.677C69.5021 129.513 71.3043 134.389 71.3064 139.431L46.0808 139.573Z" fill="white"/>
<path d="M156.152 154.749C156.152 177.039 139.62 193.116 116.485 193.116C93.3496 193.116 76.58 177.513 76.58 154.891C76.58 132.269 92.9221 116.382 116.2 116.382C140.238 116.382 156.152 131.795 156.152 154.749ZM104.323 154.749C104.323 167.032 108.409 173.15 116.485 173.15C124.561 173.15 128.219 167.032 128.219 154.749C128.557 150.423 127.789 146.082 125.986 142.134C123.963 138.799 120.388 136.711 116.485 136.585C108.266 136.585 104.323 142.513 104.323 154.749Z" fill="white"/>
<path d="M238.48 190.84H211.592V181.687C206.658 189.28 197.973 193.588 188.931 192.926C180.595 193.148 172.641 189.441 167.459 182.92C163.9 176.969 162.32 170.046 162.945 163.143V118.326H191.021V155.792C191.021 162.242 191.021 162.669 191.924 164.756C193.311 168.267 196.918 170.381 200.665 169.878C207.839 169.878 210.689 165.799 210.689 155.176V118.326H238.48V190.84Z" fill="white"/>
<path d="M302.376 141.992C298.053 140.2 293.321 139.626 288.694 140.332C279.525 141.517 274.727 147.683 274.727 158.021V190.84H246.984V118.326H273.634V129.708C277.368 121.588 285.54 116.422 294.49 116.524C297.251 116.352 300.017 116.755 302.613 117.71L302.376 141.992Z" fill="white"/>
<path d="M382.613 161.768C379.905 181.26 365.938 192.642 344.608 192.642C333.141 193.339 321.965 188.866 314.157 180.453C307.732 173.282 304.478 163.826 305.131 154.227C305.131 132.506 321.663 116.903 344.751 116.903C365.796 116.903 380.808 128.57 382.138 145.975H355.44C355.281 143.277 354.046 140.754 352.011 138.971C349.975 137.189 347.309 136.295 344.608 136.49C337.102 136.49 332.779 143.224 332.779 154.796C332.779 166.368 336.817 172.486 344.323 172.486C351.829 172.486 354.822 169.308 356.057 161.815L382.613 161.768Z" fill="white"/>
<path d="M413.587 160.725C413.348 164.567 414.773 168.326 417.499 171.047C420.226 173.769 423.991 175.191 427.839 174.953C432.551 175.318 437.069 173.008 439.526 168.977H465.511C463.91 173.761 461.247 178.122 457.72 181.734C449.773 189.378 439.001 193.381 427.982 192.785C403.326 192.785 386.984 177.798 386.984 155.318C387.051 145.849 390.41 136.697 396.485 129.424C404.327 120.616 415.768 115.865 427.554 116.524C451.735 116.524 467.174 132.981 467.174 158.496V160.583L413.587 160.725ZM439.906 146.782C440.063 143.39 438.762 140.093 436.33 137.72C433.898 135.347 430.567 134.123 427.174 134.356C423.748 134.216 420.407 135.45 417.899 137.785C415.391 140.12 413.924 143.36 413.825 146.782H439.906Z" fill="white"/>
<path d="M485.749 193.875C493.148 193.875 499.145 187.887 499.145 180.501C499.145 173.115 493.148 167.127 485.749 167.127C478.35 167.127 472.352 173.115 472.352 180.501C472.352 187.887 478.35 193.875 485.749 193.875Z" fill="white"/>
</g>
<defs>
<clipPath id="clip0_1515_19">
<rect width="500" height="194.444" fill="white"/>
</clipPath>
</defs>
</svg>
