<?xml version="1.0" encoding="UTF-8" standalone="no"?>
<!DOCTYPE svg PUBLIC "-//W3C//DTD SVG 1.1//EN" "http://www.w3.org/Graphics/SVG/1.1/DTD/svg11.dtd">
<svg width="100%" height="100%" viewBox="0 0 656 150" version="1.1" xmlns="http://www.w3.org/2000/svg" xmlns:xlink="http://www.w3.org/1999/xlink" xml:space="preserve" xmlns:serif="http://www.serif.com/" style="fill-rule:evenodd;clip-rule:evenodd;stroke-linejoin:round;stroke-miterlimit:2;">
    <g transform="matrix(0.974046,0,0,1,94.9461,150)">
        <path d="M0,-143.525C0.935,-143.525 1.7,-142.76 1.7,-141.825L1.7,-100.876C1.7,-99.941 2.465,-99.175 3.4,-99.175L44.349,-99.175C45.284,-99.175 46.049,-98.411 46.049,-97.476L46.049,-1.7C46.049,-0.765 45.284,0 44.349,0L-95.776,0C-96.711,0 -97.476,-0.765 -97.476,-1.7L-97.476,-141.825C-97.476,-142.76 -96.711,-143.525 -95.776,-143.525L0,-143.525Z" style="fill:rgb(76,75,99);"/>
    </g>
    <g transform="matrix(0.974092,0,0,1,103.027,1.7)">
        <path d="M0,40.949C0,41.884 0.765,42.649 1.7,42.649L42.649,42.649C43.584,42.649 44.349,41.884 44.349,40.949L44.349,0C44.349,-0.935 43.584,-1.7 42.649,-1.7L1.7,-1.7C0.765,-1.7 0,-0.935 0,0L0,40.949Z" style="fill:rgb(255,86,43);"/>
    </g>
    <g transform="matrix(134,0,0,134,187.351,119.957)">
        <path d="M0.258,-0C0.264,-0 0.268,-0.004 0.268,-0.01L0.268,-0.556C0.268,-0.56 0.27,-0.562 0.274,-0.562L0.381,-0.562C0.387,-0.562 0.391,-0.566 0.391,-0.572L0.391,-0.67C0.391,-0.676 0.387,-0.68 0.381,-0.68L0.024,-0.68C0.018,-0.68 0.014,-0.676 0.014,-0.67L0.014,-0.572C0.014,-0.566 0.018,-0.562 0.024,-0.562L0.131,-0.562C0.135,-0.562 0.137,-0.56 0.137,-0.556L0.137,-0.01C0.137,-0.004 0.141,-0 0.147,-0L0.258,-0Z" style="fill:rgb(39,40,56);fill-rule:nonzero;"/>
    </g>
    <g transform="matrix(134,0,0,134,230.901,119.957)">
        <path d="M0.197,0.009C0.282,0.009 0.344,-0.036 0.358,-0.113C0.359,-0.12 0.357,-0.124 0.351,-0.125L0.256,-0.144C0.25,-0.145 0.246,-0.143 0.244,-0.137C0.236,-0.111 0.222,-0.099 0.199,-0.099C0.179,-0.099 0.166,-0.109 0.16,-0.127C0.157,-0.135 0.155,-0.146 0.155,-0.196C0.155,-0.2 0.157,-0.202 0.161,-0.202L0.354,-0.202C0.36,-0.202 0.364,-0.206 0.364,-0.212C0.364,-0.338 0.361,-0.365 0.352,-0.391C0.33,-0.456 0.279,-0.493 0.197,-0.493C0.116,-0.493 0.065,-0.456 0.043,-0.391C0.034,-0.365 0.031,-0.337 0.031,-0.242C0.031,-0.147 0.034,-0.119 0.043,-0.093C0.065,-0.028 0.115,0.009 0.197,0.009ZM0.237,-0.291L0.161,-0.291C0.157,-0.291 0.155,-0.293 0.155,-0.297C0.155,-0.342 0.157,-0.354 0.16,-0.364C0.166,-0.38 0.178,-0.39 0.199,-0.39C0.22,-0.39 0.232,-0.38 0.238,-0.364C0.241,-0.354 0.243,-0.342 0.243,-0.297C0.243,-0.293 0.241,-0.291 0.237,-0.291Z" style="fill:rgb(39,40,56);fill-rule:nonzero;"/>
    </g>
    <g transform="matrix(134,0,0,134,280.883,119.957)">
        <path d="M0.195,0.009C0.286,0.009 0.348,-0.044 0.354,-0.129C0.354,-0.136 0.352,-0.139 0.346,-0.14L0.25,-0.158C0.244,-0.159 0.239,-0.156 0.238,-0.149C0.235,-0.115 0.22,-0.101 0.197,-0.101C0.178,-0.101 0.166,-0.109 0.16,-0.126C0.157,-0.137 0.156,-0.147 0.156,-0.242C0.156,-0.337 0.157,-0.347 0.16,-0.358C0.166,-0.375 0.178,-0.383 0.197,-0.383C0.22,-0.383 0.235,-0.369 0.238,-0.335C0.239,-0.328 0.244,-0.325 0.25,-0.326L0.346,-0.344C0.352,-0.345 0.354,-0.348 0.354,-0.355C0.348,-0.441 0.286,-0.493 0.195,-0.493C0.117,-0.493 0.064,-0.459 0.043,-0.392C0.034,-0.363 0.031,-0.34 0.031,-0.242C0.031,-0.145 0.034,-0.121 0.043,-0.092C0.064,-0.025 0.117,0.009 0.195,0.009Z" style="fill:rgb(39,40,56);fill-rule:nonzero;"/>
    </g>
    <g transform="matrix(134,0,0,134,330.731,119.957)">
        <path d="M0.012,-0.01C0.011,-0.004 0.014,-0 0.02,-0L0.105,-0C0.112,-0 0.115,-0.004 0.116,-0.01L0.143,-0.147L0.278,-0.147L0.305,-0.01C0.306,-0.004 0.309,-0 0.316,-0L0.401,-0C0.407,-0 0.41,-0.004 0.409,-0.01L0.265,-0.67C0.264,-0.676 0.26,-0.68 0.254,-0.68L0.17,-0.68C0.164,-0.68 0.161,-0.676 0.159,-0.67L0.012,-0.01ZM0.16,-0.237L0.21,-0.49L0.213,-0.49L0.261,-0.237L0.16,-0.237Z" style="fill:rgb(39,40,56);fill-rule:nonzero;"/>
    </g>
    <g transform="matrix(134,0,0,134,384.465,119.957)">
        <path d="M0.197,0.006C0.203,0.006 0.207,0.002 0.207,-0.004L0.207,-0.076C0.207,-0.082 0.203,-0.086 0.197,-0.087L0.192,-0.088C0.166,-0.093 0.153,-0.108 0.153,-0.14L0.153,-0.67C0.153,-0.676 0.149,-0.68 0.143,-0.68L0.061,-0.68C0.055,-0.68 0.051,-0.676 0.051,-0.67L0.051,-0.14C0.051,-0.038 0.088,0.003 0.194,0.006L0.197,0.006Z" style="fill:rgb(39,40,56);fill-rule:nonzero;"/>
    </g>
    <g transform="matrix(134,0,0,134,412.337,119.957)">
        <path d="M0.197,0.006C0.203,0.006 0.207,0.002 0.207,-0.004L0.207,-0.076C0.207,-0.082 0.203,-0.086 0.197,-0.087L0.192,-0.088C0.166,-0.093 0.153,-0.108 0.153,-0.14L0.153,-0.67C0.153,-0.676 0.149,-0.68 0.143,-0.68L0.061,-0.68C0.055,-0.68 0.051,-0.676 0.051,-0.67L0.051,-0.14C0.051,-0.038 0.088,0.003 0.194,0.006L0.197,0.006Z" style="fill:rgb(39,40,56);fill-rule:nonzero;"/>
    </g>
    <g transform="matrix(134,0,0,134,440.879,119.957)">
        <path d="M0.143,-0.574C0.149,-0.574 0.153,-0.578 0.153,-0.584L0.153,-0.67C0.153,-0.676 0.149,-0.68 0.143,-0.68L0.061,-0.68C0.055,-0.68 0.051,-0.676 0.051,-0.67L0.051,-0.584C0.051,-0.578 0.055,-0.574 0.061,-0.574L0.143,-0.574ZM0.143,-0C0.149,-0 0.153,-0.004 0.153,-0.01L0.153,-0.472C0.153,-0.478 0.149,-0.482 0.143,-0.482L0.061,-0.482C0.055,-0.482 0.051,-0.478 0.051,-0.472L0.051,-0.01C0.051,-0.004 0.055,-0 0.061,-0L0.143,-0Z" style="fill:rgb(39,40,56);fill-rule:nonzero;"/>
    </g>
    <g transform="matrix(134,0,0,134,464.865,119.957)">
        <path d="M0.327,-0C0.333,-0 0.337,-0.004 0.337,-0.01L0.337,-0.326C0.337,-0.443 0.295,-0.491 0.186,-0.491C0.132,-0.491 0.087,-0.473 0.055,-0.448C0.051,-0.444 0.049,-0.44 0.052,-0.434L0.078,-0.375C0.081,-0.368 0.087,-0.367 0.093,-0.371C0.118,-0.388 0.141,-0.399 0.173,-0.399C0.224,-0.399 0.239,-0.375 0.239,-0.322L0.239,-0.294C0.239,-0.29 0.237,-0.288 0.233,-0.288L0.181,-0.288C0.102,-0.288 0.034,-0.249 0.034,-0.135C0.034,-0.025 0.094,0.009 0.149,0.009C0.193,0.009 0.226,-0.014 0.238,-0.048L0.239,-0.048L0.239,-0.01C0.239,-0.004 0.243,-0 0.249,-0L0.327,-0ZM0.179,-0.075C0.147,-0.075 0.131,-0.098 0.131,-0.139C0.131,-0.179 0.149,-0.206 0.198,-0.206L0.233,-0.206C0.237,-0.206 0.239,-0.204 0.239,-0.2L0.239,-0.143C0.239,-0.103 0.215,-0.075 0.179,-0.075Z" style="fill:rgb(39,40,56);fill-rule:nonzero;"/>
    </g>
    <g transform="matrix(134,0,0,134,513.507,119.957)">
        <path d="M0.348,-0C0.354,-0 0.358,-0.004 0.358,-0.01L0.358,-0.341C0.358,-0.446 0.318,-0.491 0.246,-0.491C0.2,-0.491 0.171,-0.467 0.154,-0.434L0.153,-0.434L0.153,-0.472C0.153,-0.478 0.149,-0.482 0.143,-0.482L0.061,-0.482C0.055,-0.482 0.051,-0.478 0.051,-0.472L0.051,-0.01C0.051,-0.004 0.055,-0 0.061,-0L0.143,-0C0.149,-0 0.153,-0.004 0.153,-0.01L0.153,-0.327C0.153,-0.374 0.171,-0.397 0.204,-0.397C0.238,-0.397 0.256,-0.374 0.256,-0.327L0.256,-0.01C0.256,-0.004 0.26,-0 0.266,-0L0.348,-0Z" style="fill:rgb(39,40,56);fill-rule:nonzero;"/>
    </g>
    <g transform="matrix(134,0,0,134,564.427,119.957)">
        <path d="M0.188,0.009C0.272,0.009 0.33,-0.043 0.335,-0.122C0.335,-0.129 0.333,-0.132 0.327,-0.133L0.251,-0.148C0.244,-0.149 0.24,-0.146 0.239,-0.139C0.234,-0.101 0.216,-0.085 0.188,-0.085C0.166,-0.085 0.151,-0.095 0.144,-0.116C0.14,-0.129 0.139,-0.141 0.139,-0.241C0.139,-0.341 0.14,-0.353 0.144,-0.366C0.151,-0.387 0.166,-0.397 0.188,-0.397C0.216,-0.397 0.234,-0.381 0.239,-0.343C0.24,-0.336 0.244,-0.333 0.251,-0.334L0.327,-0.349C0.333,-0.35 0.335,-0.353 0.335,-0.36C0.33,-0.439 0.272,-0.491 0.188,-0.491C0.116,-0.491 0.069,-0.457 0.049,-0.396C0.04,-0.368 0.037,-0.35 0.037,-0.241C0.037,-0.132 0.04,-0.114 0.049,-0.086C0.069,-0.025 0.116,0.009 0.188,0.009Z" style="fill:rgb(39,40,56);fill-rule:nonzero;"/>
    </g>
    <g transform="matrix(134,0,0,134,608.915,119.957)">
        <path d="M0.19,0.009C0.269,0.009 0.327,-0.036 0.34,-0.108C0.341,-0.115 0.339,-0.119 0.333,-0.12L0.256,-0.135C0.25,-0.136 0.246,-0.134 0.244,-0.128C0.235,-0.098 0.219,-0.085 0.191,-0.085C0.167,-0.085 0.151,-0.096 0.144,-0.117C0.141,-0.128 0.139,-0.14 0.139,-0.2C0.139,-0.204 0.141,-0.206 0.145,-0.206L0.336,-0.206C0.342,-0.206 0.346,-0.21 0.346,-0.216C0.346,-0.344 0.343,-0.371 0.335,-0.395C0.315,-0.456 0.267,-0.491 0.191,-0.491C0.116,-0.491 0.068,-0.456 0.048,-0.395C0.04,-0.371 0.037,-0.344 0.037,-0.241C0.037,-0.138 0.04,-0.111 0.048,-0.087C0.068,-0.026 0.115,0.009 0.19,0.009ZM0.191,-0.4C0.216,-0.4 0.232,-0.387 0.238,-0.368C0.242,-0.357 0.244,-0.344 0.244,-0.294C0.244,-0.29 0.242,-0.288 0.238,-0.288L0.145,-0.288C0.141,-0.288 0.139,-0.29 0.139,-0.294C0.139,-0.344 0.141,-0.357 0.145,-0.368C0.151,-0.387 0.167,-0.4 0.191,-0.4Z" style="fill:rgb(39,40,56);fill-rule:nonzero;"/>
    </g>
</svg>
