<?xml version="1.0" encoding="UTF-8"?>
<!DOCTYPE svg PUBLIC "-//W3C//DTD SVG 1.1//EN" "http://www.w3.org/Graphics/SVG/1.1/DTD/svg11.dtd">
<!-- Creator: CorelDRAW -->
<svg xmlns="http://www.w3.org/2000/svg" xml:space="preserve" width="210mm" height="297mm" style="shape-rendering:geometricPrecision; text-rendering:geometricPrecision; image-rendering:optimizeQuality; fill-rule:evenodd; clip-rule:evenodd"
viewBox="0 0 210 297">
 <defs>
  <style type="text/css">
   <![CDATA[
    .fil3 {fill:white}
    .fil2 {fill:#12708B}
    .fil1 {fill:#5BB9D5}
    .fil0 {fill:#F8C300;fill-rule:nonzero}
   ]]>
  </style>
 </defs>
 <g id="Capa_x0020_1">
  <metadata id="CorelCorpID_0Corel-Layer"/>
  <g>
   <path class="fil0" d="M30.6322 183.394l2.0735 -2.0834 145.899 0 0 4.1668 -145.899 0 -2.0735 -2.0834zm2.0735 -148.026l2.0735 2.0834 0 145.943 -4.147 0 0 -145.943 2.0735 -2.0834zm147.498 2.0834l-2.0654 2.0834 -145.433 0 0 -4.1668 145.433 0 2.0654 2.0834zm-1.5988 148.026l-2.0654 -2.0834 -0.4666 -145.943 4.1308 0 0.4666 145.943 -2.0654 2.0834z"/>
  </g>
  <path class="fil1" d="M18.7746 211.321l2.3403 0.1071 2.9959 0.1073 3.1828 0 2.8714 0 1.2484 0 1.1226 0 2.2159 0 1.1238 0 0.9982 -0.0532 2.684 -0.1612 0 6.2027 -3.152 -0.107 -3.7444 -0.1062 0.0305 2.8154 0.0317 2.5662 0.0317 4.3134 0.0304 3.6717 0 5.8461 -7.177 0 0 -9.4107 0.0308 -3.5643 0.0314 -6.2378 -6.8964 0.2132 0 -6.2027zm23.8722 -0.1781l1.2798 -0.0711 1.654 -0.0711 3.557 -0.2144 1.2173 -0.0711 1.3728 0 1.4979 0 2.84 -0.1781 0.1243 5.8812 -2.1525 0.036 -0.8425 0 -1.0922 0.1074 -2.5593 0 0 4.7767 2.4033 -0.143c0.6241,0 1.111,-0.0093 1.4666,-0.0316 0.3545,-0.0169 0.9361,-0.0803 1.7476,-0.1817l0.0625 5.7379 -5.68 -0.1421 0 4.2423c0.4176,0 1.0141,0.0137 1.7942,0.0351 0.7801,0.0226 1.3459,0.036 1.7012,0.036l0.7801 -0.036 0.8426 -0.0351 1.0604 -0.036 0.8434 -0.036 0.1865 6.1317 -14.105 -0.3566 0.0622 -12.7439 -0.0622 -12.6365zm34.8264 26.5569l-7.6451 -12.9402c1.1038,-0.6406 1.9699,-1.4608 2.6048,-2.4588 0.636,-0.9984 0.9519,-1.9605 0.9519,-2.8877 0,-0.9487 -0.3545,-1.746 -1.0604,-2.3878 -0.706,-0.5933 -1.822,-0.8913 -3.3397,-0.8913l0.1877 20.3893 -6.9588 0 0 -9.0541c0,-1.3773 -0.0198,-4.1038 -0.0622,-8.1813 -0.0433,-4.0764 -0.0634,-6.7767 -0.0634,-8.1091l1.5614 0c0.8105,0 1.7003,0.0182 2.6672,0.053 0.9678,0.0363 2.0016,0.0678 3.1056,0.0892 0.7484,0 1.4359,0.0315 2.0599,0.0892 0.6241,0.0586 1.657,0.2367 3.1045,0.5347 1.4478,0.2989 2.7186,0.7896 3.8227,1.4799 1.1037,0.6902 1.7792,1.5904 2.0282,2.7092 0.1252,0.5698 0.1877,1.189 0.1877,1.8534 0,1.1402 -0.3004,2.2944 -0.9047,3.4572 -0.3318,0.5933 -0.7535,1.1765 -1.264,1.7472 -0.5114,0.5698 -1.1277,1.1405 -1.8573,1.7112l0.7801 0.9983 0.7179 0.855 0.6555 0.7489 0.7179 0.7839 0.6865 0.8199 0.7176 0.8202 2.3089 2.8514 -5.7104 4.9192zm22.0947 -27.0917l1.4041 6.9156c-1.9346,0.334 -3.6003,0.9047 -4.9928,1.7112l-1.2798 0.8199 -1.0299 0.8913 -0.8739 1.0692c-0.7287,1.0694 -1.0922,2.1522 -1.0922,3.2439 0,0.9261 0.2619,1.7868 0.7801,2.5844 0.5195,0.7973 1.3223,1.4438 2.4036,1.9423 0.5186,0.237 1.1268,0.4232 1.825,0.5528 0.6982,0.1297 1.4316,0.1963 2.2,0.1963l1.186 -0.1074 1.4358 -0.107 0.2804 6.4882c-0.6438,0.0934 -1.2679,0.1645 -1.8722,0.213 -0.6044,0.0496 -1.2906,0.0722 -2.0599,0.0722 -2.5163,0 -4.7931,-0.4285 -6.8333,-1.2835 -1.0813,-0.45 -2.0097,-0.9621 -2.7778,-1.5331 -0.7059,-0.477 -1.3844,-1.1054 -2.0282,-1.8893 -1.1662,-1.4483 -1.8605,-3.0873 -2.0916,-4.9189l-0.0621 -1.1405c0,-1.6402 0.3159,-3.2125 0.9519,-4.7229 0.6357,-1.5114 1.6074,-3.0126 2.918,-4.5094 0.5182,-0.571 1.0102,-1.0469 1.4663,-1.426l1.498 -1.2125 1.9038 -1.2116c0.9361,-0.5481 1.978,-1.0388 3.1203,-1.4798 1.1427,-0.441 2.3522,-0.8235 3.6204,-1.1584zm14.0417 0.5707l-0.1244 6.1668 -0.0317 2.3878 0 2.6384 0 2.2457 -0.0304 5.7742c1.0604,0 2.3719,-0.0215 3.932,-0.0711 1.5602,-0.0485 2.5901,-0.0711 3.0889,-0.0711l0 6.6304 -2.434 -0.0711 -4.0884 -0.1073 -4.7743 -0.1422 -2.8391 0 0.0308 -2.5716 0.0314 -2.9632 0.0308 -6.6744 -0.093 -13.1713 7.3014 0zm11.0785 0l7.2718 0 -0.0939 5.0974 -0.0938 6.7374 0.0938 7.5925 0.0939 5.9172 -7.2718 0 0.0631 -11.4071 -0.0631 -13.9374zm19.3791 -0.7488l0.312 0 7.4891 14.0453 7.2717 -13.5106 0.3428 0 9.2683 23.4549 -6.3344 3.2091 -1.0617 -3.1369 -1.1229 -3.315 -0.9991 -3.0659 -1.0921 -3.3513 -1.5288 2.6022 -1.966 3.3864c-0.2923,0.5223 -0.6357,1.1188 -1.03,1.7832 -0.4997,0.8324 -0.7681,1.2827 -0.8117,1.3534 -0.2063,0.3566 -0.4167,0.7132 -0.6241,1.0707 -0.2062,0.3562 -0.4561,0.7613 -0.7484,1.2112l-0.3437 0 -1.342 -2.4237 -2.2147 -3.9209 -1.5613 -2.9239 -1.0604 -1.9952 -0.8426 3.2439 -0.7801 3.0647 -0.9053 3.4224 -0.8108 2.9947 -0.5619 -0.2504 -0.7801 -0.3203 -0.8739 -0.3925 -0.7179 -0.3203 -1.4359 -0.5707 -1.7783 -0.7842 2.0599 -6.0243 2.3085 -6.7015 2.0285 -5.668 2.2473 -6.1665zm25.0584 23.4548l2.7461 -5.2391 0.7801 -1.4968 0.7496 -1.3909 1.0921 -2.1026 1.0604 -2.0327 1.2798 -2.4951 1.1238 -2.1023 0.7801 -1.5331 0.873 -1.6401 0.9675 -1.8183 1.1546 -2.1025 0.312 0 1.249 2.1793 1.9347 3.3953 3.776 6.612 2.9948 5.2891 1.5613 2.7128 1.9652 3.3963 -6.1788 4.1837 -2.7766 -5.561 -9.4562 0.6418 -0.4681 1.1042 -0.4985 1.1765 -0.5619 1.3909 -0.4997 1.2476 -5.9603 -3.815zm9.9862 -6.4156l5.3048 -0.3566 -2.6209 -5.9883 -0.5619 1.2835 -0.5619 1.3187 -0.6862 1.6038 -0.8739 2.1389z"/>
  <polygon class="fil2" points="44.1934,49.029 160.721,49.029 160.721,168.295 44.1934,168.295 "/>
  <polygon class="fil3" points="65.5896,186.559 72.2293,194.001 93.2919,199.697 107.427,195.128 122.154,181.669 148.629,142.536 152.032,128.449 162.718,119.103 169.14,82.3953 168.743,58.2843 35.3688,68.0373 "/>
  <polygon class="fil1" points="73.2648,145.738 78.7103,148.921 86.8778,153.458 92.3233,157.522 97.2918,158.403 100.491,158.403 106.345,159.351 100.899,161.179 91.8469,159.351 85.0401,156.168 77.3486,150.749 71.4272,147.566 "/>
  <polygon class="fil1" points="60.3613,109.613 54.9163,104.195 53.5551,99.1833 54.0315,93.6978 55.3927,90.5819 53.1466,89.6338 49.4708,93.6978 50.4241,97.3548 50.832,101.418 56.2775,107.785 "/>
  <polygon class="fil1" points="54.0546,73.3314 61.9502,68.8611 69.6417,66.2874 78.2181,64.9329 87.5429,65.407 93.1243,67.5066 98.2288,69.1322 106.873,69.3351 115.926,69.6062 110.14,75.3628 106.124,78.2076 104.763,76.108 109.392,72.1122 99.1816,72.5863 90.1294,68.387 82.6423,66.762 75.9035,67.0326 68.4844,69.1322 58.6833,74.0084 50.5833,78.6816 50.5833,75.1599 "/>
  <polygon class="fil1" points="101.985,76.754 103.822,75.1285 106.409,78.3796 108.247,82.1043 110.357,87.7256 111.038,91.6537 111.038,97.4785 109.676,102.355 106.613,108.653 101.985,113.326 96.8797,113.53 97.7645,111.701 102.938,107.705 105.252,102.625 107.362,96.0559 106.885,87.9291 104.98,81.4273 "/>
  <polygon class="fil1" points="81.4597,155.822 77.9883,153.925 70.3653,162.797 65.3282,170.992 64.035,178.307 64.035,184.944 66.5535,190.362 73.4282,196.254 87.1771,200.182 99.2249,199.234 109.366,194.493 118.896,186.57 132.849,170.992 143.195,155.686 149.593,141.87 154.358,130.424 145.169,100.963 142.65,91.4136 133.121,77.4619 126.178,67.9806 121.074,65.1359 119.508,68.3189 127.744,75.2947 136.32,87.6213 141.084,98.7281 143.262,111.122 144.828,125.345 144.828,135.504 142.037,148.846 134.618,164.288 126.791,173.837 114.471,186.231 100.518,196.39 84.3187,197.338 73.5642,194.155 67.5063,186.57 68.4591,172.888 74.517,162.459 "/>
  <polygon class="fil1" points="72.6303,121.251 77.8034,120.777 83.7933,119.829 85.0185,118 79.1646,116.578 74.0601,117.255 71.7455,118.677 "/>
  <polygon class="fil1" points="78.02,126.157 71.9621,126.36 79.3812,134.555 87.0722,143.834 94.0829,152.435 98.7116,157.108 104.089,159.207 108.036,159.005 111.508,157.379 114.298,153.654 114.979,149.929 111.304,148.507 103.612,149.184 98.7116,149.455 96.3975,149.929 88.7059,140.854 84.5542,135.91 82.6481,131.304 79.6531,127.986 "/>
  <polygon class="fil1" points="105.424,116.117 107.058,112.866 108.692,110.563 106.105,109.344 100.796,114.288 105.424,124.244 109.372,133.116 111.006,139.415 111.755,144.562 111.006,149.167 114.75,150.115 114.545,145.239 113.796,139.618 111.482,134.064 108.487,124.989 "/>
  <path class="fil1" d="M66.7827 179.553l2.9265 -0.5417 3.2674 -1.3544 -0.136 -1.7609 3.6753 -0.4064c0,0 0.9528,2.3702 -0.2039,3.5217 -1.1573,1.1511 -3.8798,2.709 -3.8798,2.709l-3.5393 0.7451 -2.7231 0.8123 0.6129 -3.7247z"/>
  <polygon class="fil1" points="67.3561,187.768 71.7803,186.956 75.6601,184.856 77.8382,183.095 79.1994,180.386 80.5606,182.147 80.5606,184.856 76.4764,188.175 69.1258,189.868 "/>
  <polygon class="fil1" points="80.0326,196.776 82.6191,196.167 85.682,196.167 88.8129,194.406 89.9702,192.848 91.127,191.29 92.6927,192.239 89.5618,195.557 85.682,197.928 "/>
  <polygon class="fil1" points="72.4578,193.987 75.0443,193.377 78.1072,193.377 81.2381,191.616 82.3954,190.059 83.5522,188.501 85.1179,189.449 81.987,192.768 78.1072,195.138 "/>
  <polygon class="fil1" points="153.699,129.123 163.704,113.275 165.542,96.005 165.687,58.3494 170.248,58.3494 168.673,101.017 166.427,117.813 159.144,127.769 "/>
  <g>
   <g>
    <path class="fil0" d="M308.794 129.935l0.2196 -0.2197 15.4492 0 0 0.4394 -15.4492 0 -0.2196 -0.2197zm0.2196 0.2197l-0.2196 0 0 -0.2197 0.2196 0.2197zm0 -15.8942l0.2196 0.2206 0 15.4539 -0.4392 0 0 -15.4539 0.2196 -0.2206zm-0.2196 0.2206l0 -0.2206 0.2196 0 -0.2196 0.2206zm15.8381 0l-0.2187 0.2206 -15.3998 0 0 -0.4412 15.3998 0 0.2187 0.2206zm-0.2187 -0.2206l0.2179 0 0.0008 0.2206 -0.2187 -0.2206zm0.0494 15.8942l-0.2187 -0.2197 -0.0494 -15.4539 0.4374 0 0.0494 15.4539 -0.2187 0.2197zm0.2187 -0.2197l0.0007 0.2197 -0.2194 0 0.2187 -0.2197z"/>
   </g>
   <path class="fil1" d="M326.464 123.11l0.5382 0.0246 0.6889 0.0247 0.7319 0 0.6603 0 0.287 0 0.2582 0 0.5095 0 0.2584 0 0.2296 -0.0122 0.6172 -0.0371 0 1.4264 -0.7248 -0.0247 -0.8611 -0.0244 0.007 0.6474 0.0073 0.5901 0.0073 0.9919 0.007 0.8443 0 1.3443 -1.6503 0 0 -2.164 0.0071 -0.8196 0.0072 -1.4344 -1.5859 0.0491 0 -1.4264zm5.4895 -0.0409l0.2943 -0.0164 0.3803 -0.0163 0.8179 -0.0493 0.2799 -0.0164 0.3157 0 0.3445 0 0.653 -0.0409 0.0286 1.3524 -0.495 0.0082 -0.1937 0 -0.2511 0.0247 -0.5885 0 0 1.0984 0.5526 -0.0329c0.1435,0 0.2555,-0.0021 0.3372,-0.0072 0.0815,-0.0039 0.2153,-0.0185 0.4019,-0.0418l0.0144 1.3194 -1.3061 -0.0326 0 0.9755c0.096,0 0.2331,0.0031 0.4125,0.0081 0.1794,0.0052 0.3095,0.0082 0.3912,0.0082l0.1794 -0.0082 0.1937 -0.0081 0.2439 -0.0083 0.1939 -0.0083 0.0429 1.41 -3.2434 -0.082 0.0143 -2.9305 -0.0143 -2.9057zm8.0083 6.1068l-1.758 -2.9757c0.2538,-0.1473 0.453,-0.3359 0.599,-0.5654 0.1462,-0.2295 0.2189,-0.4508 0.2189,-0.664 0,-0.2181 -0.0815,-0.4015 -0.2439,-0.5491 -0.1623,-0.1364 -0.4189,-0.2049 -0.7679,-0.2049l0.0431 4.6885 -1.6001 0 0 -2.082c0,-0.3167 -0.0046,-0.9436 -0.0143,-1.8813 -0.01,-0.9373 -0.0146,-1.5583 -0.0146,-1.8647l0.359 0c0.1864,0 0.391,0.0042 0.6133,0.0122 0.2226,0.0084 0.4603,0.0156 0.7142,0.0205 0.1721,0 0.3302,0.0073 0.4737,0.0205 0.1435,0.0135 0.381,0.0545 0.7138,0.123 0.333,0.0687 0.6252,0.1816 0.8791,0.3403 0.2538,0.1587 0.4091,0.3657 0.4664,0.623 0.0288,0.131 0.0431,0.2734 0.0431,0.4262 0,0.2622 -0.0691,0.5276 -0.208,0.795 -0.0763,0.1364 -0.1733,0.2705 -0.2907,0.4017 -0.1176,0.131 -0.2593,0.2623 -0.427,0.3935l0.1793 0.2296 0.1651 0.1966 0.1507 0.1722 0.1651 0.1803 0.1579 0.1885 0.165 0.1886 0.5309 0.6557 -1.3131 1.1312zm5.0807 -6.2298l0.3229 1.5903c-0.4449,0.0767 -0.8279,0.208 -1.1481,0.3934l-0.2943 0.1886 -0.2368 0.2049 -0.201 0.2459c-0.1676,0.2459 -0.2511,0.4949 -0.2511,0.7459 0,0.213 0.0602,0.4109 0.1794,0.5943 0.1194,0.1834 0.304,0.332 0.5527,0.4466 0.1192,0.0545 0.2591,0.0974 0.4196,0.1272 0.1606,0.0298 0.3292,0.0451 0.5059,0.0451l0.2727 -0.0247 0.3302 -0.0246 0.0645 1.492c-0.1481,0.0214 -0.2916,0.0378 -0.4305,0.0489 -0.139,0.0115 -0.2968,0.0167 -0.4737,0.0167 -0.5786,0 -1.1022,-0.0986 -1.5713,-0.2952 -0.2487,-0.1035 -0.4622,-0.2212 -0.6388,-0.3525 -0.1623,-0.1097 -0.3183,-0.2542 -0.4664,-0.4345 -0.2682,-0.333 -0.4278,-0.7099 -0.4809,-1.1311l-0.0143 -0.2622c0,-0.3772 0.0726,-0.7388 0.2189,-1.0861 0.1461,-0.3475 0.3696,-0.6927 0.671,-1.0369 0.1191,-0.1313 0.2323,-0.2407 0.3371,-0.3279l0.3445 -0.2788 0.4378 -0.2786c0.2152,-0.1261 0.4548,-0.2389 0.7175,-0.3403 0.2628,-0.1014 0.5409,-0.1894 0.8325,-0.2664zm3.2289 0.1312l-0.0286 1.4181 -0.0073 0.5491 0 0.6067 0 0.5164 -0.007 1.3277c0.2439,0 0.5454,-0.0049 0.9042,-0.0163 0.3588,-0.0112 0.5956,-0.0163 0.7103,-0.0163l0 1.5246 -0.5597 -0.0163 -0.9401 -0.0247 -1.0979 -0.0327 -0.6528 0 0.007 -0.5913 0.0072 -0.6814 0.0071 -1.5348 -0.0213 -3.0288 1.6789 0zm2.5475 0l1.6722 0 -0.0216 1.1722 -0.0216 1.5493 0.0216 1.7458 0.0216 1.3607 -1.6722 0 0.0145 -2.6231 -0.0145 -3.2049zm4.4563 -0.1722l0.0717 0 1.7221 3.2298 1.6722 -3.1068 0.0788 0 2.1312 5.3935 -1.4566 0.7379 -0.2441 -0.7213 -0.2582 -0.7623 -0.2298 -0.705 -0.2511 -0.7707 -0.3515 0.5984 -0.4521 0.7787c-0.0672,0.1201 -0.1462,0.2573 -0.2369,0.4101 -0.1149,0.1914 -0.1766,0.2949 -0.1866,0.3112 -0.0474,0.082 -0.0958,0.164 -0.1435,0.2462 -0.0475,0.0819 -0.1049,0.1751 -0.1721,0.2785l-0.0791 0 -0.3085 -0.5573 -0.5093 -0.9016 -0.3591 -0.6724 -0.2438 -0.4588 -0.1937 0.746 -0.1794 0.7047 -0.2082 0.787 -0.1865 0.6886 -0.1292 -0.0576 -0.1793 -0.0736 -0.201 -0.0903 -0.1651 -0.0736 -0.3302 -0.1313 -0.4089 -0.1803 0.4737 -1.3853 0.5308 -1.541 0.4665 -1.3034 0.5168 -1.418zm5.7622 5.3935l0.6314 -1.2048 0.1794 -0.3441 0.1724 -0.3199 0.2511 -0.4835 0.2438 -0.4674 0.2943 -0.5737 0.2585 -0.4835 0.1793 -0.3525 0.2008 -0.3771 0.2225 -0.4182 0.2655 -0.4834 0.0717 0 0.2872 0.5011 0.4449 0.7808 0.8683 1.5204 0.6887 1.2162 0.359 0.6238 0.4519 0.781 -1.4208 0.9621 -0.6385 -1.2788 -2.1745 0.1476 -0.1076 0.2539 -0.1147 0.2705 -0.1292 0.3199 -0.1149 0.2869 -1.3705 -0.8773zm2.2963 -1.4753l1.2198 -0.082 -0.6026 -1.377 -0.1293 0.2952 -0.1292 0.3032 -0.1578 0.3688 -0.2009 0.4918z"/>
   <polygon class="fil1" points="310.23,115.708 322.569,115.708 322.569,128.337 310.23,128.337 "/>
   <polygon class="fil3" points="312.496,130.271 313.199,131.059 315.429,131.662 316.926,131.178 318.486,129.753 321.289,125.609 321.649,124.117 322.781,123.128 323.461,119.241 323.419,116.688 309.296,117.72 "/>
   <polygon class="fil1" points="313.309,125.948 313.885,126.285 314.75,126.766 315.327,127.196 315.853,127.289 316.192,127.289 316.811,127.39 316.235,127.583 315.276,127.39 314.556,127.052 313.741,126.479 313.114,126.142 "/>
   <polygon class="fil1" points="311.942,122.123 311.366,121.549 311.221,121.018 311.272,120.438 311.416,120.108 311.178,120.007 310.789,120.438 310.89,120.825 310.933,121.255 311.51,121.929 "/>
   <polygon class="fil1" points="311.274,118.281 312.111,117.808 312.925,117.535 313.833,117.392 314.821,117.442 315.412,117.664 315.952,117.836 316.867,117.858 317.826,117.886 317.213,118.496 316.788,118.797 316.644,118.575 317.134,118.152 316.053,118.202 315.094,117.757 314.302,117.585 313.588,117.614 312.802,117.836 311.765,118.353 310.907,118.847 310.907,118.475 "/>
   <polygon class="fil1" points="316.35,118.643 316.544,118.471 316.818,118.816 317.013,119.21 317.236,119.805 317.308,120.221 317.308,120.838 317.164,121.354 316.84,122.021 316.35,122.516 315.809,122.537 315.903,122.344 316.451,121.921 316.696,121.383 316.919,120.687 316.869,119.827 316.667,119.138 "/>
   <polygon class="fil1" points="314.176,127.016 313.809,126.815 313.002,127.754 312.468,128.622 312.331,129.397 312.331,130.1 312.598,130.673 313.326,131.297 314.782,131.713 316.058,131.613 317.131,131.111 318.14,130.272 319.618,128.622 320.713,127.001 321.391,125.538 321.895,124.327 320.923,121.207 320.656,120.196 319.647,118.718 318.912,117.714 318.371,117.413 318.205,117.75 319.077,118.489 319.986,119.794 320.49,120.97 320.721,122.283 320.886,123.789 320.886,124.864 320.591,126.277 319.805,127.912 318.976,128.923 317.672,130.236 316.194,131.312 314.479,131.412 313.34,131.075 312.699,130.272 312.8,128.823 313.441,127.719 "/>
   <polygon class="fil1" points="313.241,123.355 313.789,123.305 314.423,123.205 314.553,123.011 313.933,122.86 313.393,122.932 313.148,123.083 "/>
   <polygon class="fil1" points="313.812,123.875 313.171,123.896 313.956,124.764 314.771,125.746 315.513,126.657 316.003,127.152 316.572,127.374 316.991,127.353 317.358,127.181 317.654,126.786 317.726,126.392 317.337,126.241 316.522,126.313 316.003,126.342 315.758,126.392 314.944,125.431 314.504,124.907 314.302,124.42 313.985,124.068 "/>
   <polygon class="fil1" points="316.714,122.811 316.887,122.467 317.06,122.223 316.786,122.094 316.224,122.618 316.714,123.672 317.132,124.612 317.305,125.278 317.384,125.824 317.305,126.311 317.701,126.412 317.68,125.895 317.601,125.3 317.355,124.712 317.038,123.751 "/>
   <path class="fil1" d="M312.622 129.529l0.3099 -0.0573 0.346 -0.1434 -0.0144 -0.1865 0.3891 -0.043c0,0 0.1009,0.2509 -0.0216,0.3729 -0.1225,0.1219 -0.4108,0.2868 -0.4108,0.2868l-0.3748 0.0789 -0.2883 0.086 0.0649 -0.3944z"/>
   <polygon class="fil1" points="312.683,130.399 313.151,130.313 313.562,130.09 313.793,129.904 313.937,129.617 314.081,129.803 314.081,130.09 313.649,130.442 312.87,130.621 "/>
   <polygon class="fil1" points="314.025,131.352 314.299,131.288 314.623,131.288 314.955,131.101 315.077,130.937 315.2,130.772 315.366,130.872 315.034,131.223 314.623,131.474 "/>
   <polygon class="fil1" points="313.223,131.057 313.497,130.993 313.821,130.993 314.153,130.806 314.275,130.641 314.398,130.476 314.564,130.577 314.232,130.928 313.821,131.179 "/>
   <polygon class="fil1" points="321.826,124.189 322.885,122.511 323.08,120.682 323.095,116.695 323.578,116.695 323.411,121.213 323.173,122.991 322.402,124.045 "/>
  </g>
 </g>
</svg>
