<svg xmlns="http://www.w3.org/2000/svg" xmlns:xlink="http://www.w3.org/1999/xlink" width="1080" zoomAndPan="magnify" viewBox="0 0 810 809.999993" height="1080" preserveAspectRatio="xMidYMid meet" version="1.0"><rect x="-81" width="972" fill="#ffffff" y="-80.999999" height="971.999992" fill-opacity="1"/><rect x="-81" width="972" fill="#ffffff" y="-80.999999" height="971.999992" fill-opacity="1"/><rect x="-81" width="972" fill="#ffffff" y="-80.999999" height="971.999992" fill-opacity="1"/><rect x="-81" width="972" fill="#d9d9d9" y="-80.999999" height="971.999992" fill-opacity="1"/><path fill="#545454" d="M 486 324 L 324 324 L 324 486 L 486 486 Z M 432 432 L 378 432 L 378 378 L 432 378 Z M 648 378 L 648 324 L 594 324 L 594 270 C 594 240.300781 569.699219 216 540 216 L 486 216 L 486 162 L 432 162 L 432 216 L 378 216 L 378 162 L 324 162 L 324 216 L 270 216 C 240.300781 216 216 240.300781 216 270 L 216 324 L 162 324 L 162 378 L 216 378 L 216 432 L 162 432 L 162 486 L 216 486 L 216 540 C 216 569.699219 240.300781 594 270 594 L 324 594 L 324 648 L 378 648 L 378 594 L 432 594 L 432 648 L 486 648 L 486 594 L 540 594 C 569.699219 594 594 569.699219 594 540 L 594 486 L 648 486 L 648 432 L 594 432 L 594 378 Z M 540 540 L 270 540 L 270 270 L 540 270 Z M 540 540 " fill-opacity="1" fill-rule="nonzero"/></svg>