<svg xmlns="http://www.w3.org/2000/svg" xmlns:xlink="http://www.w3.org/1999/xlink" width="1080" zoomAndPan="magnify" viewBox="0 0 810 809.999993" height="1080" preserveAspectRatio="xMidYMid meet" version="1.0"><rect x="-81" width="972" fill="#ffffff" y="-80.999999" height="971.999992" fill-opacity="1"/><rect x="-81" width="972" fill="#ffffff" y="-80.999999" height="971.999992" fill-opacity="1"/><rect x="-81" width="972" fill="#545454" y="-80.999999" height="971.999992" fill-opacity="1"/><rect x="-81" width="972" fill="#d9d9d9" y="-80.999999" height="971.999992" fill-opacity="1"/><path fill="#545454" d="M 648 135 L 162 135 C 132.300781 135 108 159.300781 108 189 L 108 513 C 108 542.699219 132.300781 567 162 567 L 351 567 L 351 621 L 297 621 L 297 675 L 513 675 L 513 621 L 459 621 L 459 567 L 648 567 C 677.699219 567 702 542.699219 702 513 L 702 189 C 702 159.300781 677.699219 135 648 135 Z M 648 513 L 162 513 L 162 189 L 648 189 Z M 648 513 " fill-opacity="1" fill-rule="nonzero"/></svg>