<svg xmlns="http://www.w3.org/2000/svg" xmlns:xlink="http://www.w3.org/1999/xlink" width="1080" zoomAndPan="magnify" viewBox="0 0 810 809.999993" height="1080" preserveAspectRatio="xMidYMid meet" version="1.0"><rect x="-81" width="972" fill="#ffffff" y="-80.999999" height="971.999992" fill-opacity="1"/><rect x="-81" width="972" fill="#ffde59" y="-80.999999" height="971.999992" fill-opacity="1"/><path fill="#3f3d56" d="M 605.609375 431.460938 C 606.691406 422.820312 607.5 414.179688 607.5 405 C 607.5 395.820312 606.691406 387.179688 605.609375 378.539062 L 662.578125 333.988281 C 667.710938 329.941406 669.058594 322.648438 665.820312 316.710938 L 611.820312 223.289062 C 609.390625 218.96875 604.800781 216.539062 599.941406 216.539062 C 598.320312 216.539062 596.699219 216.808594 595.351562 217.351562 L 528.121094 244.351562 C 514.078125 233.550781 498.960938 224.640625 482.488281 217.890625 L 472.230469 146.339844 C 471.421875 139.859375 465.75 135 459 135 L 351 135 C 344.25 135 338.578125 139.859375 337.769531 146.339844 L 327.511719 217.890625 C 311.039062 224.640625 295.921875 233.820312 281.878906 244.351562 L 214.648438 217.351562 C 213.03125 216.808594 211.410156 216.539062 209.789062 216.539062 C 205.199219 216.539062 200.609375 218.96875 198.179688 223.289062 L 144.179688 316.710938 C 140.671875 322.648438 142.289062 329.941406 147.421875 333.988281 L 204.390625 378.539062 C 203.308594 387.179688 202.5 396.089844 202.5 405 C 202.5 413.910156 203.308594 422.820312 204.390625 431.460938 L 147.421875 476.011719 C 142.289062 480.058594 140.941406 487.351562 144.179688 493.289062 L 198.179688 586.710938 C 200.609375 591.03125 205.199219 593.460938 210.058594 593.460938 C 211.679688 593.460938 213.300781 593.191406 214.648438 592.648438 L 281.878906 565.648438 C 295.921875 576.449219 311.039062 585.359375 327.511719 592.109375 L 337.769531 663.660156 C 338.578125 670.140625 344.25 675 351 675 L 459 675 C 465.75 675 471.421875 670.140625 472.230469 663.660156 L 482.488281 592.109375 C 498.960938 585.359375 514.078125 576.179688 528.121094 565.648438 L 595.351562 592.648438 C 596.96875 593.191406 598.589844 593.460938 600.210938 593.460938 C 604.800781 593.460938 609.390625 591.03125 611.820312 586.710938 L 665.820312 493.289062 C 669.058594 487.351562 667.710938 480.058594 662.578125 476.011719 Z M 552.148438 385.289062 C 553.230469 393.660156 553.5 399.328125 553.5 405 C 553.5 410.671875 552.960938 416.609375 552.148438 424.710938 L 548.371094 455.21875 L 572.398438 474.121094 L 601.558594 496.800781 L 582.660156 529.46875 L 548.371094 515.699219 L 520.289062 504.359375 L 495.988281 522.71875 C 484.378906 531.359375 473.308594 537.839844 462.238281 542.429688 L 433.621094 554.039062 L 429.300781 584.550781 L 423.898438 621 L 386.101562 621 L 380.96875 584.550781 L 376.648438 554.039062 L 348.03125 542.429688 C 336.421875 537.570312 325.621094 531.359375 314.820312 523.261719 L 290.25 504.359375 L 261.628906 515.96875 L 227.339844 529.738281 L 208.441406 497.070312 L 237.601562 474.390625 L 261.628906 455.488281 L 257.851562 424.980469 C 257.039062 416.609375 256.5 410.398438 256.5 405 C 256.5 399.601562 257.039062 393.390625 257.851562 385.289062 L 261.628906 354.78125 L 237.601562 335.878906 L 208.441406 313.199219 L 227.339844 280.53125 L 261.628906 294.300781 L 289.710938 305.640625 L 314.011719 287.28125 C 325.621094 278.640625 336.691406 272.160156 347.761719 267.570312 L 376.378906 255.960938 L 380.699219 225.449219 L 386.101562 189 L 423.628906 189 L 428.761719 225.449219 L 433.082031 255.960938 L 461.699219 267.570312 C 473.308594 272.429688 484.109375 278.640625 494.910156 286.738281 L 519.480469 305.640625 L 548.101562 294.03125 L 582.390625 280.261719 L 601.289062 312.929688 L 572.398438 335.878906 L 548.371094 354.78125 Z M 405 297 C 345.328125 297 297 345.328125 297 405 C 297 464.671875 345.328125 513 405 513 C 464.671875 513 513 464.671875 513 405 C 513 345.328125 464.671875 297 405 297 Z M 405 459 C 375.300781 459 351 434.699219 351 405 C 351 375.300781 375.300781 351 405 351 C 434.699219 351 459 375.300781 459 405 C 459 434.699219 434.699219 459 405 459 Z M 405 459 " fill-opacity="1" fill-rule="nonzero"/></svg>