<svg xmlns="http://www.w3.org/2000/svg" xmlns:xlink="http://www.w3.org/1999/xlink" width="1080" zoomAndPan="magnify" viewBox="0 0 810 809.999993" height="1080" preserveAspectRatio="xMidYMid meet" version="1.0"><rect x="-81" width="972" fill="#ffffff" y="-80.999999" height="971.999992" fill-opacity="1"/><rect x="-81" width="972" fill="#7454ae" y="-80.999999" height="971.999992" fill-opacity="1"/><rect x="-81" width="972" fill="#7454ae" y="-80.999999" height="971.999992" fill-opacity="1"/><path fill="#ffffff" d="M 432 386.910156 L 567 567 L 243 567 L 378 386.910156 L 378 243 L 432 243 M 511.921875 189 L 298.078125 189 C 286.738281 189 280.53125 201.960938 287.550781 210.871094 L 324 256.5 L 324 369.089844 L 167.398438 577.800781 C 154.171875 595.621094 166.859375 621 189 621 L 621 621 C 643.140625 621 655.828125 595.621094 642.601562 577.800781 L 486 369.089844 L 486 256.5 L 522.449219 210.871094 C 529.46875 201.960938 523.261719 189 511.921875 189 Z M 511.921875 189 " fill-opacity="1" fill-rule="nonzero"/></svg>